<svg xmlns="http://www.w3.org/2000/svg" id="Camada_1" data-name="Camada 1" viewBox="0 0 1707 800">
  <defs fill="#83dd3c">
    <style>
      .cls-1 {
        fill: #83dd3c;
      }
    </style>
  </defs>
  <path d="m1681.85,294.31c16.07-15.32,24.99-36.26,25.14-58.97.44-29.94-12.64-56.51-36.83-74.82-19.93-15.06-43.78-22.69-70.87-22.69-2.37,0-4.85.12-7.62.37l-4.89.39c-8.46,1.01-16.62,2.86-24.27,5.48-8.93-3.31-17.02-4.02-22.29-4.02l-2.14.04c-12.23.47-26.9,3.8-49.06,11.11-14.93,4.94-26.14,9.76-35.09,15.08-.07-.05-.14-.11-.21-.16-22.93-16.57-50.08-24.97-80.7-24.97-10.65,0-20.74.97-29.93,2.88-17.1,3.13-33.11,8.88-47.64,17.11-.56-6.85-1.93-13.62-4.09-20.13-5.47-18.47-17.56-34.1-34.06-44.01-13.65-8.18-28.71-12.33-44.79-12.33-2.3,0-4.58.13-6.76.37l-3.47.34c-26.94,3.01-50.1,16.72-65.2,38.6-4.21,6.11-7.66,12.69-10.29,19.59-23.1,4.47-43.82,13.23-61.6,26.03-6.7,4.83-12.91,10.22-18.48,16.06-5.32-7.08-11.19-13.3-17.48-18.54-21.6-17.96-47.77-27.45-75.68-27.45-16.4,0-31.95,2.99-46.25,8.89-8.57-3.4-17.54-4.89-27.22-4.34l-.86.06c-11.71.87-26.33,4.4-47.38,11.42-21.03,7.01-35.27,14.08-45.78,22.75-22.44-22.64-54.05-35.85-91.52-38.24-4.03-.37-8.74-.54-14.81-.54-26.39,0-49.93,5.45-70,16.21-18.56-11.99-40.13-18.07-64.13-18.07-2.37,0-4.85.12-7.62.37l-4.89.39c-8.46,1.01-16.62,2.86-24.27,5.48-8.94-3.31-17.02-4.02-22.29-4.02l-2.14.04c-12.23.47-26.9,3.8-49.06,11.11-2.79.92-5.45,1.84-8,2.77-2.47-1.51-4.98-2.81-7.48-3.88-4.78-52.17-43.38-66.15-65.6-66.15l-4.01.1c-19.25,1.14-37.2,10.38-50.53,26.01-1.11,1.3-2.22,2.68-3.38,4.19-7.39-11.92-17.7-23.03-30.7-33.07-24.3-18.76-55.47-29.19-92.64-30.97l-10.09-.06c-36.63,0-68.35,8.19-94.28,24.35-31.95,19.92-50.64,49.14-54.02,84.51-.93,9.29-.79,18.46.43,27.23,1.41,10.2,4.41,20.08,8.91,29.35,2.16,4.47,4.34,8.7,6.5,12.65-6.26,6.12-11.81,13.26-16.49,21.24-12.55,21.36-16.73,45.57-12.09,69.99,5.52,30.88,22.92,57.76,51.7,79.89,27.52,21.17,62.43,31.91,103.77,31.91l3.63-.02s.06,0,.1,0c-8.55,13.93-13.69,29.5-15.31,46.35-.94,9.29-.79,18.46.43,27.23,1.41,10.21,4.4,20.08,8.89,29.32,2.14,4.41,4.3,8.63,6.52,12.68-6.25,6.11-11.79,13.25-16.48,21.23-12.56,21.37-16.74,45.59-12.09,70.01,5.52,30.88,22.91,57.76,51.7,79.89,27.52,21.17,62.43,31.91,103.77,31.91l3.63-.02c25.63-.65,49.82-4.98,71.88-12.88,15.88-5.69,30.36-13.65,43.05-23.67,1.32,1.29,2.68,2.55,4.09,3.78,20.04,17.32,44.18,26.48,69.81,26.48,15.48,0,30.19-3.07,43.75-9.13,9.76,5.98,21.07,9.13,32.79,9.13h96.97c23.53,0,44.67-13.08,54.72-33.58,4.27,4.28,8.89,8.16,13.78,11.56,21.66,15.1,46.62,22.76,74.17,22.76,18.76,0,35.78-3.57,50.59-10.6,13.2,6.99,25.66,9.76,33.87,10.86l3.78.49h3.53c15.02,0,29.04-2.09,41.7-6.21,7.65,3.14,15.74,4.73,24.07,4.73h96.98c5.57,0,11.14-.75,16.58-2.23,5.47,1.48,11.13,2.23,16.86,2.23h96.97c5.17,0,10.26-.61,15.16-1.82,4.96,1.21,10.1,1.82,15.3,1.82h95.49c13.67,0,26.5-4.41,37.22-12.76,22.78,11.92,50.53,17.97,82.54,17.97l2.96-.02c20.82-.32,40.35-3.02,58.05-8.03,21.74-6.15,40.57-16.65,55.97-31.2,19.63-18.52,30.37-42.49,31.08-69.31.49-13.57-1.86-26.74-7-39.15-3.73-8.97-7.84-16.5-12.7-23.17,5.35-11.21,7.61-23.73,6.55-36.29-1.11-15.08-8.06-43.66-42.13-65.59-19.11-12.29-43.72-19.15-75.24-20.97l-10.23-.09c-22.99,0-44.39,3.74-63.66,11.12-3.86-9.63-9.15-18.22-15.74-25.55-3.34-3.73-7.02-7.1-11.02-10.08,8.83,1.54,17.71,2.32,26.52,2.32,2.3,0,4.68-.11,7.8-.37l2.34-.11c18.17-1.13,35.15-5.04,50.49-11.61,4.39-1.88,8.78-4.02,13.07-6.35,10.25,6.97,22.39,10.64,35.17,10.64h96.97c34.14,0,60.89-26.58,60.89-60.52v-3.34c0-18.6-8.64-32.63-17.97-43.97,1.41.05,2.84.08,4.27.08,22.02,0,41.96-7.92,57.67-22.89Zm-71.58,17.97l3.36,3.85c9.94,11.39,20.11,25.64,20.11,44.96v3.34c0,31.61-24.92,56.38-56.74,56.38h-96.97c-12.37,0-24.07-3.67-33.85-10.62l-1.06-.76-1.15.64c-4.52,2.51-9.17,4.79-13.82,6.79-14.89,6.38-31.42,10.18-49.11,11.29l-2.24.11c-3.17.26-5.46.37-7.63.37-12.27,0-24.7-1.55-36.92-4.62l-16.74-4.2,15.27,8.04c7.51,3.95,14.17,9.15,19.8,15.45,6.69,7.44,11.97,16.25,15.71,26.19l.74,1.98,1.97-.78c19.27-7.69,40.83-11.59,64.07-11.59h8.48s1.53.08,1.53.08c30.79,1.78,54.74,8.42,73.23,20.31,32.55,20.96,39.18,48.1,40.24,62.43,1.04,12.25-1.28,24.44-6.68,35.26l-.45,1.29.77,1.02c4.83,6.44,9.02,14.01,12.82,23.16,4.91,11.86,7.16,24.44,6.68,37.43-.68,25.72-10.97,48.69-29.78,66.43-14.91,14.09-33.16,24.26-54.25,30.22-17.35,4.91-36.53,7.56-56.97,7.87l-2.93.02c-31.68,0-59.06-6.02-81.37-17.9l-1.63-.87-1.06.87c-10.18,8.31-22.52,12.69-35.68,12.69h-95.49c-5.04,0-10.02-.61-14.8-1.82l-.51-.13-.51.13c-4.72,1.21-9.65,1.82-14.65,1.82h-96.97c-5.55,0-11.03-.75-16.3-2.24l-.56-.16-.56.16c-5.25,1.48-10.64,2.23-16.01,2.23h-96.98c-8.03,0-15.83-1.58-23.18-4.7l-.72-.31-.74.25c-12.42,4.14-26.26,6.24-41.13,6.24l-3.25.02-3.5-.47c-8.06-1.07-20.39-3.83-33.38-10.89l-.94-.51-.96.47c-14.47,7.06-31.2,10.64-49.74,10.64-26.69,0-50.85-7.41-71.8-22.01-5.48-3.82-10.61-8.26-15.26-13.2l-2.17-2.31-1.24,2.92c-8.78,20.58-29.27,33.87-52.19,33.87h-96.97c-11.31,0-22.21-3.14-31.52-9.08l-.95-.61-1.03.47c-13.29,6.11-27.77,9.22-43.04,9.22-24.62,0-47.82-8.81-67.1-25.47-1.81-1.56-3.53-3.2-5.2-4.87l-1.32-1.32-1.45,1.17c-12.67,10.27-27.24,18.39-43.29,24.14-21.65,7.75-45.4,12.01-70.59,12.64l-3.52.02c-40.4,0-74.46-10.45-101.24-31.05-27.94-21.48-44.81-47.5-50.14-77.35-4.46-23.44-.45-46.67,11.59-67.16,4.78-8.14,10.47-15.34,16.92-21.43l1.09-1.26-.78-1.41c-2.35-4.24-4.74-8.86-7.1-13.72-4.3-8.85-7.17-18.3-8.52-28.08-1.18-8.45-1.32-17.29-.41-26.26,1.68-17.55,7.34-33.65,16.81-47.85l2.26-3.39-5.54.24c-.85.04-1.69.09-2.55.11l-3.52.02c-40.4,0-74.46-10.45-101.24-31.05-27.94-21.48-44.81-47.5-50.15-77.36-4.45-23.44-.44-46.66,11.59-67.14,4.77-8.13,10.47-15.35,16.92-21.45l1.09-1.26-.78-1.41c-2.32-4.19-4.71-8.79-7.08-13.69-4.31-8.89-7.19-18.34-8.54-28.11-1.17-8.45-1.31-17.28-.41-26.26,3.26-34.04,21.27-62.19,52.09-81.4,25.26-15.74,56.25-23.72,92.09-23.72h8.61s1.28.06,1.28.06c36.3,1.75,66.69,11.88,90.3,30.11,13.54,10.46,24.05,22.08,31.25,34.55l1.59,2.75,1.88-2.56c1.78-2.44,3.44-4.54,5.05-6.44,12.59-14.77,29.5-23.49,47.62-24.56l3.77-.09c20.98,0,57.55,13.4,61.58,63.6l.1,1.28,1.19.48c2.95,1.18,5.93,2.72,8.86,4.57l.86.54.96-.35c2.8-1.02,5.73-2.04,8.83-3.07,21.76-7.19,36.09-10.45,47.92-10.91l1.97-.04c5.05,0,12.89.7,21.52,4.01l.71.27.72-.25c7.57-2.66,15.68-4.52,24.11-5.53l2.9-.36h1.68c2.83-.25,5.19-.37,7.44-.37,23.62,0,44.78,6.08,62.88,18.06l1.04.69,1.1-.6c19.68-10.81,42.93-16.29,69.1-16.29,5.94,0,10.53.17,14.49.53,37.24,2.38,68.43,15.65,90.21,38.38l1.37,1.43,1.49-1.3c10.21-8.88,24.36-16.04,45.87-23.22,20.71-6.91,35.02-10.37,46.36-11.21l.83-.06c9.2-.53,17.96.96,26.18,4.36l.8.33.8-.34c14-5.9,29.29-8.9,45.44-8.9,26.93,0,52.18,9.16,73.03,26.5,6.61,5.51,12.76,12.17,18.26,19.8l1.49,2.06,1.72-1.88c5.81-6.34,12.4-12.16,19.56-17.33,17.58-12.66,38.13-21.26,61.1-25.54l1.16-.22.4-1.11c2.55-6.97,5.99-13.62,10.22-19.76,14.42-20.88,36.52-33.96,62.25-36.83l3.23-.33c2.25-.24,4.39-.36,6.54-.36,15.31,0,29.66,3.95,42.65,11.74,15.6,9.37,27.04,24.16,32.24,41.69,2.41,7.28,3.79,14.84,4.11,22.46l.15,3.48,2.99-1.78c14.88-8.88,31.43-15.04,49.24-18.3,8.96-1.86,18.76-2.8,29.13-2.8,29.72,0,56.06,8.14,78.27,24.19l2.39,1.8,1.19-.73c8.88-5.45,20.15-10.35,35.46-15.42,21.76-7.19,36.09-10.45,47.92-10.91l1.98-.04c5.06,0,12.89.7,21.51,4.01l.71.27.72-.25c7.57-2.66,15.68-4.52,24.11-5.53l2.9-.36h1.68c2.83-.25,5.19-.37,7.44-.37,26.17,0,49.18,7.35,68.37,21.86,23.12,17.49,35.61,42.86,35.19,71.47-.14,21.59-8.61,41.48-23.85,56.01-14.93,14.23-33.88,21.74-54.81,21.74-2.99,0-5.96-.12-8.82-.36l-5.09-.42Z" fill="#83dd3c"/>
  <path d="m254.84,338.42c10.52-12.63,15.54-27.37,15.05-44.21-.25-8.42-1.86-16.16-4.83-23.22-2.97-7.06-7.74-13.75-14.3-20.06-6.57-6.32-11.33-10.59-14.31-12.82-2.97-2.23-8.3-6.07-15.98-11.52-4.96-3.21-11.95-7.67-20.99-13.37-9.04-5.7-18.02-11.33-26.94-16.91-8.92-5.57-13.75-8.6-14.49-9.1-15.36-9.41-23.04-20.43-23.04-33.07,0-9.16,3.22-17.03,9.66-23.59,6.44-6.56,14.49-9.84,24.15-9.84,10.9,0,18.89,2.6,23.97,7.8,5.07,5.2,7.49,10.53,7.25,15.98,0,3.47-2.11,7.37-6.32,11.71-4.22,4.34-6.07,8.11-5.57,11.33.49,6.19,4.15,11.46,10.96,15.79,6.81,4.34,14.43,6.5,22.85,6.5,2.97,0,5.07-.12,6.32-.37,8.92-1.49,15.54-4.83,19.88-10.03,4.33-5.2,6.5-11.52,6.5-18.95,0-11.89-7.62-23.71-22.85-35.48-15.23-11.76-35.73-18.26-61.49-19.51h-7.43c-26.26,0-47.93,5.33-65.02,15.98-17.09,10.65-26.51,25.02-28.24,43.1-.5,4.96-.44,9.66.19,14.12.62,4.46,1.92,8.73,3.9,12.82,1.98,4.09,3.9,7.8,5.76,11.15,1.86,3.35,4.52,6.69,7.99,10.03,3.47,3.35,6.32,6.13,8.54,8.36,2.23,2.23,5.32,4.71,9.29,7.43,3.96,2.73,6.81,4.64,8.54,5.76,1.73,1.11,4.46,2.73,8.17,4.83,3.72,2.11,5.7,3.29,5.95,3.53,12.88,7.68,25.51,15.48,37.9,23.41,4.7,2.97,8.3,5.39,10.78,7.25,2.47,1.86,6.07,5.14,10.77,9.84,4.7,4.71,8.18,10.1,10.4,16.16,2.23,6.07,3.09,12.7,2.6,19.88-.99,11.89-4.89,21.62-11.7,29.17-6.82,7.56-16.41,11.34-28.8,11.34h-2.97c-13.13-.99-23.29-5.7-30.47-14.12-7.19-8.42-9.54-18.95-7.06-31.58.99-4.21,3.59-9.97,7.8-17.28,4.21-7.3,6.07-12.57,5.57-15.79-.25-5.95-4.4-11.39-12.45-16.35-8.05-4.95-16.66-7.43-25.82-7.43-3.47,0-6.69.62-9.66,1.85-9.66,2.48-17.41,8.68-23.22,18.58-5.82,9.91-7.62,20.56-5.39,31.95,2.97,17.09,13.31,32.45,31.02,46.07,17.71,13.62,41.06,20.43,70.04,20.43h2.23c19.81-.5,38.02-3.72,54.62-9.66,16.59-5.95,30.15-15.24,40.69-27.87Z" fill="#83dd3c"/>
  <path d="m396.21,317.98c-.99,0-1.74.13-2.23.37-7.93,3.72-13.87,5.57-17.84,5.57-8.67,0-13-8.3-13-24.9,0-3.71.12-15.47.37-35.3.24-19.81.37-35.54.37-47.19h31.95c3.22,0,4.83-1.73,4.83-5.2v-5.57c0-3.47-1.61-5.2-4.83-5.2h-31.21c0-7.18.06-15.29.19-24.33.12-9.04.19-14.06.19-15.05,0-14.61-3.59-21.92-10.78-21.92h-.74c-4.22.25-8.12,2.48-11.7,6.69-3.59,4.22-6.87,9.35-9.85,15.42-2.97,6.07-6.26,12.08-9.85,18.02-3.59,5.95-8.61,10.96-15.05,15.05-6.44,4.09-13.87,6.13-22.29,6.13-3.72,0-5.57,1.74-5.57,5.2v5.57c0,3.47,1.86,5.2,5.57,5.2h15.61c0,9.66.12,28.24.37,55.73.24,27.5.37,44.46.37,50.9,0,13.63,5.02,24.77,15.05,33.44,10.03,8.67,21.24,13.01,33.63,13.01,13.62,0,25.2-4.46,34.74-13.38,9.53-8.92,15.42-18.7,17.65-29.35.74-1.98.43-3.96-.93-5.95-1.36-1.98-3.04-2.97-5.02-2.97Z" fill="#83dd3c"/>
  <path d="m570.47,261.88c7.67,0,14.18-2.54,19.51-7.62,5.32-5.07,7.99-11.58,7.99-19.51.24-12.38-4.71-22.41-14.86-30.1-10.16-7.67-22.66-11.52-37.53-11.52-.74,0-1.8.06-3.16.18-1.36.13-2.29.19-2.79.19-16.6,1.99-29.23,9.41-37.9,22.29-3.97-13.62-9.04-20.43-15.23-20.43-6.44.25-17.71,3.04-33.81,8.36-16.1,5.33-26.14,10.22-30.1,14.68-2.23,1.99-3.34,4.46-3.34,7.43s1.11,5.2,3.34,6.69c.74.75,3.22,2.11,7.43,4.09,4.21,1.99,7.62,4.77,10.22,8.36,2.6,3.59,3.9,8.61,3.9,15.05v62.42c.24,4.22-1.3,8.61-4.64,13.19-3.34,4.59-7.12,8.79-11.33,12.63-4.22,3.84-6.57,6.63-7.06,8.36-1.24,1.99-1.49,4.71-.74,8.17,0,3.22,1.98,4.83,5.95,4.83h96.98c3.71,0,5.57-1.73,5.57-5.2v-3.35c0-2.23-3.9-7.55-11.7-15.98-7.8-8.42-11.7-15.73-11.7-21.92v-56.48c.49-18.82,3.4-33.68,8.73-44.59,5.32-10.9,12.82-16.22,22.48-15.98,5.7,0,9.66,1.99,11.89,5.95,2.23,3.97,2.35,8.54.37,13.75-3.71,6.44-5.57,12.02-5.57,16.72,0,5.7,2.35,10.35,7.06,13.94,4.7,3.59,11.39,5.39,20.06,5.39Z" fill="#83dd3c"/>
  <path d="m623.41,357.55c12.26,8.54,26.44,12.82,42.54,12.82,11.39,0,20.93-2.05,28.61-6.13,7.67-4.09,12.88-8.6,15.6-13.56,0-1.73-.25-2.97-.74-3.72-1.49-.74-2.48-1.11-2.97-1.11-.74,0-1.24.13-1.49.37-9.66,0-18.15-2.47-25.45-7.43-7.31-4.95-11.46-12.13-12.45-21.55-.99-10.16.49-18.39,4.46-24.71,3.96-6.32,9.53-9.48,16.72-9.48h1.49c5.45.25,10.03,2.79,13.75,7.62,3.72,4.83,6.19,9.29,7.43,13.37,1.24,4.09,2.6,9.48,4.09,16.16.24,1.24.37,1.99.37,2.23,5.95,29.48,20.06,45.7,42.36,48.67,12.63,0,23.16-2.1,31.58-6.32,8.67-5.2,9.16-11.02,1.49-17.46-6.19-6.19-10.9-16.59-14.12-31.21-7.19-38.89-10.77-59.08-10.77-60.56-7.68-37.65-32.95-57.71-75.8-60.19-2.23-.25-5.7-.37-10.4-.37-17.59,0-32.45,3.34-44.59,10.03-12.14,6.69-18.21,15.85-18.21,27.49,0,7.19,2.72,13.07,8.17,17.65,5.45,4.59,11.76,6.87,18.95,6.87s13.5-1.73,18.95-5.2c5.45-3.47,8.17-7.8,8.17-13.01,0-3.96-1.74-9.41-5.2-16.35-4.22-10.9-.25-16.35,11.89-16.35,6.69,0,12.38,3.47,17.09,10.4,4.7,7.19,8.79,22.67,12.26,46.44.24,1.24.56,3.16.93,5.76s.68,4.4.93,5.39c-8.42-5.7-20.19-8.54-35.3-8.54-.74,0-1.74.06-2.97.18-1.24.13-2.23.19-2.97.19-16.6.74-31.52,5.82-44.77,15.24-13.25,9.42-19.63,22.42-19.13,39.01.74,16.35,7.24,28.8,19.51,37.34Z" fill="#83dd3c"/>
  <path d="m1046.05,369.63c1.49,0,2.79-.56,3.9-1.67,1.11-1.11,1.67-2.29,1.67-3.53v-3.35c0-2.97-2.97-8.11-8.92-15.42-5.95-7.3-9.79-13.43-11.52-18.39-5.7-27.25-10.28-51.15-13.75-71.71-3.97-20.81-11.83-36.1-23.59-45.89-11.77-9.78-25.21-14.67-40.31-14.67-12.14,0-22.98,2.78-32.51,8.36-9.54,5.57-16.54,13.94-20.99,25.08-1.49-8.42-3.59-15.42-6.32-20.99-2.73-5.57-6.19-8.23-10.4-7.99-6.69.5-18.02,3.41-34,8.73-15.98,5.33-25.95,10.22-29.91,14.67-2.23,2.23-3.34,4.77-3.34,7.62s1.11,5.27,3.34,7.25c.74.74,3.28,2.04,7.62,3.9,4.33,1.86,7.74,4.52,10.22,7.99,2.47,3.47,3.72,8.54,3.72,15.23v57.59c.24,4.22-1.3,8.61-4.65,13.19-3.34,4.59-7.12,8.79-11.33,12.63-4.22,3.84-6.57,6.63-7.06,8.36-1.24,1.99-1.49,4.71-.74,8.17,0,3.22,1.98,4.83,5.95,4.83h96.98c3.71,0,5.57-1.73,5.57-5.2v-3.35c0-2.23-3.9-7.55-11.7-15.98-7.8-8.42-11.7-15.73-11.7-21.92v-49.04h.37c-.25-3.96-.06-8.36.56-13.19.62-4.83,1.67-10.46,3.16-16.91,1.49-6.44,4.4-11.76,8.73-15.98,4.33-4.21,9.6-6.32,15.79-6.32,7.68-.24,13.5,2.36,17.46,7.8,3.96,5.45,6.81,13,8.54,22.66,6.93,38.15,10.4,61.56,10.4,70.22.24,5.45-3.35,12.33-10.78,20.62-7.43,8.3-11.27,12.82-11.52,13.56-.74,1.99-.87,4.71-.37,8.17,0,3.22,1.98,4.83,5.95,4.83h95.49Z" fill="#83dd3c"/>
  <path d="m1138.01,414.22c4.83-3.47,7.24-6.07,7.24-7.8,0-2.97-2.66-6.32-7.99-10.03-5.33-3.72-11.46-6.44-18.39-8.17-2.23-.5-5.45-.74-9.66-.74-9.17,0-17.09,2.16-23.78,6.5-6.69,4.33-10.28,9.85-10.78,16.53-1.24,9.41.68,17.52,5.76,24.34,5.07,6.81,12.38,12.01,21.92,15.6,9.53,3.59,19.51,6.25,29.91,7.99,10.4,1.73,21.42,2.72,33.07,2.97h3.35c13.38,0,25.7-1.36,36.97-4.09,11.27-2.73,20.87-6.44,28.8-11.14,7.92-4.71,14.68-10.1,20.25-16.16,5.57-6.07,9.6-12.51,12.08-19.32,2.47-6.82,3.53-13.75,3.16-20.81-.37-7.06-2.17-13.81-5.39-20.25-8.67-17.09-32.45-25.64-71.34-25.64-7.68,0-18.46.25-32.32.74h-7.43c-14.62,0-21.55-2.35-20.81-7.06.74-6.44,14.36-9.66,40.87-9.66,1.49-.49,3.47-.74,5.95-.74,24.27-1.98,43.59-9.11,57.96-21.37,14.36-12.26,21.55-27.06,21.55-44.4,0-14.61-5.52-27.62-16.53-39.02-11.03-11.39-26.07-19.32-45.14-23.78-2.97-5.2-1.86-8.67,3.34-10.4,1.98-1.23,3.84-1.86,5.57-1.86s4.46.62,8.17,1.86h1.11c1.73.75,3.72,1.12,5.95,1.12s4.21-.37,5.95-1.12c5.45-1.98,9.29-5.88,11.52-11.7,2.23-5.82,2.1-12.2-.37-19.13-1.49-5.7-4.71-10.03-9.66-13.01-4.96-2.97-10.4-4.46-16.35-4.46-.5,0-1.18.07-2.04.19-.87.13-1.55.18-2.04.18-11.15,1.24-19.76,6.26-25.82,15.05-6.07,8.8-7.99,19.51-5.76,32.14.24,1.99,1.11,4.71,2.6,8.17-2.97-.24-7.68-.37-14.12-.37-27.49,0-50.1,6.38-67.81,19.13-17.71,12.76-26.57,28.42-26.57,47,0,14.12,5.2,26.82,15.61,38.08,10.4,11.28,24.52,19.26,42.36,23.97-11.15,1.24-20.19,5.2-27.12,11.89-6.94,6.69-9.54,14.37-7.8,23.03,1.49,7.43,5.45,13.43,11.89,18.02,6.44,4.58,16.84,7.99,31.21,10.22,3.96.5,11.58,1.3,22.85,2.42,11.27,1.11,19.56,2.1,24.89,2.97,5.32.87,11.76,2.29,19.32,4.27,7.55,1.98,13.19,4.65,16.91,7.99,3.72,3.35,5.95,7.37,6.69,12.08,1.49,8.42-1.8,15.91-9.85,22.48-8.05,6.56-21.99,10.22-41.8,10.96h-4.09c-11.65,0-21.92-2.11-30.84-6.32-8.92-4.21-12.76-9.79-11.52-16.72.74-4.96,3.53-9.17,8.36-12.63Zm-7.06-184.66c3.09-10.65,8.73-17.21,16.91-19.69,2.23-.74,4.58-1.12,7.06-1.12,8.67,0,16.84,4.59,24.52,13.75,7.67,9.17,13.5,20.69,17.46,34.56,4.7,14.86,6,27.81,3.9,38.82-2.11,11.03-7.62,17.9-16.54,20.62-2.23.75-4.59,1.12-7.06,1.12-9.17,0-18.08-4.83-26.75-14.49-8.67-9.66-14.86-21.42-18.58-35.3-3.72-14.86-4.03-27.62-.93-38.27Z" fill="#83dd3c"/>
  <path d="m1449.18,295.32c-4.96,0-7.68,2.23-8.17,6.69-.5,10.65-4.71,19.32-12.63,26.01-7.93,6.69-17.22,10.03-27.87,10.03s-20.31-3.59-28.98-10.77c-8.67-7.18-15.48-17.21-20.44-30.1,43.1-15.11,66.38-23.16,69.85-24.15,10.9-3.96,18.7-8.23,23.41-12.82,4.7-4.58,5.82-10.46,3.34-17.65-4.21-11.39-13-21.92-26.38-31.58-13.38-9.66-29.48-14.49-48.3-14.49-7.19,0-13.63.62-19.32,1.86-23.78,4.22-42.86,15.36-57.22,33.44-14.36,18.08-20.31,39.76-17.84,65.02,1.49,14.12,5.39,26.63,11.7,37.53,6.32,10.9,13.99,19.32,23.04,25.27,9.04,5.95,18.45,10.4,28.24,13.37,9.78,2.97,19.63,4.46,29.54,4.46.74,0,1.86-.07,3.35-.19,1.49-.13,2.6-.19,3.34-.19,11.89-.74,22.6-3.16,32.14-7.24,9.53-4.09,17.15-8.85,22.85-14.3,5.7-5.45,10.4-11.39,14.12-17.84,3.71-6.44,6.32-12.39,7.8-17.84,1.49-5.45,2.1-10.4,1.86-14.86-.25-5.7-2.73-8.92-7.43-9.66Zm-105.15-57.96c2.72-14.61,9.04-22.91,18.95-24.9.74-.24,1.98-.37,3.72-.37,6.69,0,12.88,3.47,18.58,10.4,5.7,6.94,10.03,14.99,13,24.15.99,4.96.24,9.66-2.23,14.12-2.48,4.46-6.07,7.56-10.78,9.29-20.31,7.19-33.07,11.89-38.27,14.12-4.71-16.59-5.7-32.2-2.97-46.81Z" fill="#83dd3c"/>
  <path d="m1651.68,234.75c.24-12.38-4.71-22.41-14.86-30.1-10.16-7.67-22.66-11.52-37.53-11.52-.74,0-1.8.06-3.16.18-1.36.13-2.29.19-2.79.19-16.6,1.99-29.23,9.41-37.9,22.29-3.97-13.62-9.04-20.43-15.23-20.43-6.44.25-17.71,3.04-33.81,8.36-16.1,5.33-26.14,10.22-30.1,14.68-2.23,1.99-3.34,4.46-3.34,7.43s1.11,5.2,3.34,6.69c.74.75,3.22,2.11,7.43,4.09,4.21,1.99,7.62,4.77,10.22,8.36,2.6,3.59,3.9,8.61,3.9,15.05v62.42c.24,4.22-1.3,8.61-4.65,13.19-3.34,4.59-7.12,8.79-11.33,12.63-4.22,3.84-6.57,6.63-7.06,8.36-1.24,1.99-1.49,4.71-.74,8.17,0,3.22,1.98,4.83,5.95,4.83h96.98c3.71,0,5.57-1.73,5.57-5.2v-3.35c0-2.23-3.9-7.55-11.7-15.98-7.8-8.42-11.7-15.73-11.7-21.92v-56.48c.49-18.82,3.4-33.68,8.73-44.59,5.32-10.9,12.82-16.22,22.48-15.98,5.7,0,9.66,1.99,11.89,5.95,2.23,3.97,2.35,8.54.37,13.75-3.71,6.44-5.57,12.02-5.57,16.72,0,5.7,2.35,10.35,7.06,13.94,4.7,3.59,11.39,5.39,20.06,5.39,7.67,0,14.18-2.54,19.51-7.62,5.32-5.07,7.99-11.58,7.99-19.51Z" fill="#83dd3c"/>
  <path d="m381.89,569.52c-6.57-6.32-11.33-10.59-14.31-12.82-2.97-2.23-8.3-6.07-15.98-11.52-4.96-3.21-11.95-7.67-20.99-13.37-9.04-5.7-18.02-11.33-26.94-16.91-8.92-5.57-13.75-8.6-14.49-9.1-15.36-9.41-23.04-20.43-23.04-33.07,0-9.16,3.22-17.03,9.66-23.59,6.44-6.56,14.49-9.84,24.15-9.84,10.9,0,18.89,2.6,23.97,7.8,5.07,5.2,7.49,10.53,7.25,15.98,0,3.47-2.11,7.37-6.32,11.71-4.22,4.34-6.07,8.12-5.57,11.33.49,6.19,4.15,11.46,10.96,15.79,6.81,4.34,14.43,6.5,22.85,6.5,2.97,0,5.07-.12,6.32-.37,8.92-1.49,15.54-4.83,19.88-10.03,4.33-5.2,6.5-11.52,6.5-18.95,0-11.89-7.62-23.71-22.85-35.48-15.23-11.76-35.73-18.26-61.49-19.51h-7.43c-26.26,0-47.93,5.33-65.02,15.98-17.09,10.65-26.51,25.02-28.24,43.1-.5,4.96-.44,9.66.19,14.12.62,4.46,1.92,8.73,3.9,12.82,1.98,4.09,3.9,7.8,5.76,11.15,1.86,3.35,4.52,6.69,7.99,10.03,3.47,3.35,6.32,6.13,8.54,8.36,2.23,2.23,5.32,4.71,9.29,7.43,3.96,2.73,6.81,4.64,8.54,5.76,1.73,1.11,4.46,2.73,8.17,4.83,3.72,2.11,5.7,3.29,5.95,3.53,12.88,7.68,25.51,15.48,37.9,23.41,4.7,2.97,8.3,5.39,10.78,7.24,2.47,1.86,6.07,5.14,10.77,9.85,4.7,4.71,8.18,10.1,10.4,16.16,2.23,6.07,3.09,12.7,2.6,19.88-.99,11.89-4.89,21.62-11.7,29.17-6.82,7.56-16.41,11.34-28.8,11.34h-2.97c-13.13-.99-23.29-5.7-30.47-14.12-7.19-8.42-9.54-18.95-7.06-31.58.99-4.21,3.59-9.97,7.8-17.28,4.21-7.3,6.07-12.57,5.57-15.79-.25-5.95-4.4-11.39-12.45-16.35-8.05-4.95-16.66-7.43-25.82-7.43-3.47,0-6.69.62-9.66,1.85-9.66,2.48-17.41,8.68-23.22,18.58-5.82,9.91-7.62,20.56-5.39,31.95,2.97,17.09,13.31,32.45,31.02,46.07,17.71,13.62,41.06,20.43,70.04,20.43h2.23c19.81-.5,38.02-3.72,54.62-9.66,16.59-5.95,30.16-15.24,40.69-27.87,10.52-12.63,15.54-27.37,15.05-44.22-.25-8.42-1.86-16.16-4.83-23.22-2.97-7.06-7.74-13.75-14.3-20.06Z" fill="#83dd3c"/>
  <path d="m527.35,636.58c-.99,0-1.73.13-2.23.37-7.93,3.72-13.87,5.57-17.84,5.57-8.67,0-13-8.3-13-24.9,0-3.71.12-15.47.37-35.3.24-19.81.37-35.54.37-47.19h31.95c3.22,0,4.83-1.73,4.83-5.2v-5.57c0-3.47-1.61-5.2-4.83-5.2h-31.21c0-7.18.06-15.29.19-24.33.12-9.04.19-14.06.19-15.05,0-14.61-3.59-21.92-10.78-21.92h-.74c-4.22.25-8.12,2.48-11.7,6.69-3.59,4.22-6.87,9.35-9.85,15.42-2.97,6.07-6.26,12.08-9.85,18.02-3.59,5.95-8.61,10.96-15.05,15.05-6.44,4.09-13.87,6.13-22.29,6.13-3.72,0-5.57,1.74-5.57,5.2v5.57c0,3.47,1.86,5.2,5.57,5.2h15.61c0,9.66.12,28.24.37,55.73.24,27.5.37,44.46.37,50.9,0,13.63,5.02,24.77,15.05,33.44,10.03,8.67,21.24,13.01,33.63,13.01,13.62,0,25.2-4.46,34.74-13.38,9.53-8.92,15.42-18.7,17.65-29.35.74-1.98.43-3.96-.93-5.95-1.36-1.98-3.04-2.97-5.02-2.97Z" fill="#83dd3c"/>
  <path d="m714.24,523.26c-10.16-7.67-22.66-11.52-37.53-11.52-.74,0-1.8.06-3.16.18-1.36.13-2.29.19-2.79.19-16.6,1.99-29.23,9.42-37.9,22.29-3.97-13.62-9.04-20.43-15.23-20.43-6.44.25-17.71,3.04-33.81,8.36-16.1,5.33-26.14,10.22-30.1,14.68-2.23,1.99-3.34,4.46-3.34,7.43s1.11,5.2,3.34,6.69c.74.75,3.22,2.11,7.43,4.09,4.21,1.99,7.62,4.77,10.22,8.36,2.6,3.59,3.9,8.61,3.9,15.05v62.42c.24,4.22-1.3,8.61-4.64,13.19-3.34,4.59-7.12,8.79-11.33,12.63-4.21,3.84-6.57,6.63-7.06,8.36-1.24,1.99-1.49,4.71-.74,8.17,0,3.22,1.98,4.83,5.94,4.83h96.98c3.71,0,5.57-1.73,5.57-5.2v-3.35c0-2.23-3.9-7.55-11.7-15.98-7.8-8.42-11.7-15.73-11.7-21.92v-56.48c.49-18.82,3.4-33.68,8.73-44.59,5.32-10.9,12.82-16.22,22.48-15.98,5.7,0,9.66,1.99,11.89,5.95,2.23,3.97,2.35,8.54.37,13.75-3.71,6.44-5.57,12.02-5.57,16.72,0,5.7,2.35,10.35,7.06,13.94,4.7,3.59,11.39,5.39,20.06,5.39,7.67,0,14.18-2.54,19.51-7.62,5.32-5.07,7.99-11.58,7.99-19.51.24-12.38-4.71-22.41-14.86-30.1Z" fill="#83dd3c"/>
  <path d="m921.94,665.94c-6.19-6.19-10.9-16.59-14.12-31.21-7.19-38.89-10.78-59.08-10.78-60.56-7.68-37.65-32.95-57.71-75.8-60.19-2.23-.25-5.7-.37-10.4-.37-17.59,0-32.45,3.34-44.59,10.03-12.14,6.69-18.21,15.85-18.21,27.49,0,7.19,2.72,13.07,8.17,17.65,5.45,4.59,11.76,6.87,18.95,6.87s13.5-1.73,18.95-5.2c5.45-3.47,8.17-7.8,8.17-13.01,0-3.96-1.74-9.41-5.2-16.35-4.22-10.9-.25-16.35,11.89-16.35,6.69,0,12.38,3.47,17.09,10.4,4.7,7.19,8.79,22.67,12.26,46.44.24,1.24.56,3.16.93,5.76.37,2.6.68,4.4.93,5.39-8.42-5.7-20.19-8.54-35.3-8.54-.74,0-1.74.06-2.97.18-1.24.13-2.23.19-2.97.19-16.6.74-31.52,5.82-44.77,15.24-13.25,9.41-19.63,22.42-19.13,39.01.74,16.35,7.24,28.8,19.51,37.34,12.26,8.54,26.44,12.82,42.54,12.82,11.39,0,20.93-2.05,28.61-6.13,7.67-4.09,12.88-8.6,15.6-13.56,0-1.73-.25-2.97-.74-3.72-1.49-.74-2.48-1.11-2.97-1.11-.74,0-1.24.13-1.49.37-9.66,0-18.15-2.47-25.45-7.43-7.31-4.95-11.46-12.13-12.45-21.55-.99-10.16.49-18.39,4.46-24.71,3.96-6.32,9.53-9.48,16.72-9.48h1.49c5.45.25,10.03,2.79,13.75,7.62,3.72,4.83,6.19,9.29,7.43,13.37,1.24,4.09,2.6,9.48,4.09,16.16.24,1.24.37,1.99.37,2.23,5.95,29.48,20.06,45.7,42.36,48.67,12.64,0,23.16-2.1,31.58-6.32,8.67-5.2,9.16-11.02,1.49-17.46Z" fill="#83dd3c"/>
  <path d="m999.59,437.43c-10.65,0-19.82,2.97-27.5,8.92-7.68,5.95-11.52,13.13-11.52,21.55s3.84,15.67,11.52,21.73c7.67,6.07,16.84,9.1,27.5,9.1s19.81-3.03,27.5-9.1c7.67-6.07,11.52-13.31,11.52-21.73s-3.78-15.61-11.34-21.55c-7.56-5.95-16.78-8.92-27.68-8.92Z" fill="#83dd3c"/>
  <path d="m1033.78,641.78v-88.8c0-15.11-1.49-25.45-4.46-31.02-2.97-5.57-8.05-8.36-15.24-8.36-7.93,0-18.64,2.04-32.14,6.13-13.51,4.09-23.84,8.24-31.02,12.45-2.73,1.74-4.02,4.22-3.9,7.43.13,3.22,1.3,5.7,3.53,7.43.74.75,3.34,2.05,7.8,3.9,4.46,1.86,7.92,4.52,10.4,7.99,2.47,3.47,3.72,8.54,3.72,15.24v66.88c.24,4.22-1.3,8.54-4.65,13.01-3.35,4.46-7.19,8.73-11.52,12.82-4.34,4.09-6.87,6.87-7.62,8.36-.75,1.99-.75,4.71,0,8.17,0,3.22,1.98,4.83,5.95,4.83h96.97c3.72,0,5.57-1.73,5.57-5.2v-3.35c0-2.23-3.9-7.55-11.71-15.98-7.8-8.42-11.7-15.73-11.7-21.92Z" fill="#83dd3c"/>
  <path d="m1293.12,645.87c-5.7-27.25-10.28-51.15-13.75-71.71-3.97-20.81-11.83-36.1-23.59-45.89-11.77-9.78-25.21-14.67-40.31-14.67-12.14,0-22.98,2.78-32.51,8.36-9.54,5.57-16.53,13.94-20.99,25.08-1.49-8.42-3.59-15.42-6.32-20.99-2.73-5.57-6.19-8.23-10.4-7.99-6.69.5-18.02,3.41-34,8.73-15.98,5.33-25.95,10.22-29.91,14.67-2.23,2.23-3.35,4.77-3.35,7.62s1.12,5.27,3.35,7.24c.74.74,3.28,2.04,7.62,3.9,4.33,1.86,7.74,4.52,10.22,7.99,2.47,3.47,3.71,8.54,3.71,15.23v57.59c.25,4.22-1.3,8.61-4.64,13.19-3.35,4.59-7.12,8.79-11.34,12.63-4.21,3.84-6.57,6.63-7.06,8.36-1.24,1.99-1.49,4.71-.74,8.17,0,3.22,1.98,4.83,5.95,4.83h96.97c3.72,0,5.57-1.73,5.57-5.2v-3.35c0-2.23-3.9-7.55-11.71-15.98-7.8-8.42-11.7-15.73-11.7-21.92v-49.04h.37c-.25-3.96-.06-8.36.56-13.19.61-4.83,1.67-10.46,3.16-16.91,1.49-6.44,4.4-11.76,8.73-15.98,4.33-4.21,9.59-6.32,15.79-6.32,7.67-.24,13.5,2.36,17.46,7.8,3.96,5.45,6.81,13,8.54,22.66,6.93,38.15,10.4,61.56,10.4,70.22.25,5.45-3.34,12.33-10.77,20.62-7.43,8.3-11.27,12.82-11.52,13.56-.74,1.99-.87,4.71-.37,8.17,0,3.22,1.98,4.83,5.95,4.83h95.49c1.48,0,2.79-.56,3.9-1.67,1.12-1.11,1.67-2.29,1.67-3.53v-3.35c0-2.97-2.97-8.11-8.92-15.42-5.95-7.3-9.79-13.43-11.52-18.39Z" fill="#83dd3c"/>
  <path d="m1300.45,470.66c-5.82-.56-11.6.87-17.34,4.3-5.96,3.56-10.09,8.35-12.42,14.35-2.32,6.01-2.09,11.35.71,16.03,2.93,4.89,7.49,7.72,13.72,8.47,6.22.76,12.41-.71,18.58-4.4,1.91-1.14,3.23-2.07,3.95-2.8,1.8,12.19.4,26.01-4.21,41.47.08,2.55,1.41,4.06,4.01,4.53l8.48-.3c1.02.26,1.85.2,2.49-.19.85-.51,1.42-1.71,1.73-3.63l1.09-5.41c.72-3.61,1.4-8.27,2.03-13.98.62-5.72.95-11.68.99-17.9.03-6.22-.74-12.47-2.33-18.74-1.58-6.26-4.07-11.27-7.46-15.02-3.52-3.96-8.19-6.21-14.01-6.78Z" fill="#83dd3c"/>
  <path d="m1370.4,681.54c15.36,8.17,35.17,12.14,59.45,11.89,16.1-.25,30.71-2.23,43.84-5.95,13.13-3.72,24.15-9.78,33.07-18.21,8.92-8.42,13.5-18.7,13.75-30.84.25-5.7-.68-11.08-2.79-16.16-2.11-5.07-4.27-9.1-6.5-12.07-2.23-2.97-5.7-6.19-10.41-9.66-4.71-3.47-7.74-5.63-9.1-6.5-1.36-.86-4.15-2.42-8.36-4.64-3.97-2.47-9.6-5.7-16.91-9.66-7.31-3.96-14.49-7.86-21.55-11.71-7.06-3.84-11.09-6-12.07-6.5-4.71-2.47-8.18-4.33-10.41-5.57-2.23-1.24-4.83-3.4-7.8-6.5-2.97-3.1-4.59-6.13-4.83-9.1,0-6.44,3.1-10.96,9.29-13.56,6.19-2.6,13-3.9,20.43-3.9,5.7.25,10.46,1.24,14.3,2.97,3.84,1.73,6.37,3.53,7.62,5.39,1.23,1.86,1.73,3.53,1.49,5.02-.25,2.48-1.99,4.96-5.2,7.43-3.22,2.48-4.83,4.83-4.83,7.06.74,3.97,3.9,7.43,9.47,10.4,5.57,2.97,11.7,4.46,18.39,4.46,2.48,0,4.33-.12,5.57-.37,6.93-.24,12.32-2.29,16.16-6.13,3.84-3.84,5.51-8.23,5.02-13.19-.5-8.67-6.13-16.47-16.91-23.41-10.78-6.93-26.94-11.02-48.49-12.26h-7.06c-21.55,0-40.07,4.27-55.55,12.82-15.48,8.54-24.08,19.76-25.82,33.62-1.73,20.31,12.88,38.27,43.84,53.88,2.23,1.24,5.76,3.16,10.59,5.76,4.83,2.6,9.04,4.83,12.63,6.69,3.59,1.86,6,3.04,7.24,3.53,6.93,3.47,13.75,8.05,20.43,13.75,6.69,5.7,10.15,11.64,10.4,17.84.5,6.94-2.04,12.69-7.62,17.28-5.57,4.59-13.32,6.87-23.22,6.87s-17.96-2.23-24.15-6.69c-6.19-4.46-8.3-10.27-6.32-17.46.74-3.22,2.72-6.81,5.94-10.78,3.22-3.96,4.58-7.18,4.09-9.66-.5-3.96-4.22-7.74-11.15-11.33-6.94-3.59-14.12-5.39-21.55-5.39-1.49,0-3.72.25-6.69.74-7.93,1.99-13.99,5.95-18.21,11.89-4.21,5.95-5.82,13.01-4.83,21.18,1.49,9.66,9.91,18.58,25.26,26.75Z" fill="#83dd3c"/>
  <path class="cls-1" d="m757.91,443.99c.85-.03,1.17,1.11.43,1.53-.9.52-1.63,1.15-2.45,1.72,32.51-6.18,68.99-8.67,123.86,5.42,6.82,1.78,21.61,4.41,14.47,13.46-6.23,5.69-17.12,1.75-23.73-3.25-3.24-2.66-8.24-1.78-10.37,1.83-1.99,3.3-.92,7.59,2.39,9.58,9.96,5.57,20.85,8.44,32.07,4.11,9.22-3.59,14.72-15.86,8.23-24.3-5.33-6.69-14.42-7.36-21.42-8.87-13.6-2.51-27.34-4.39-41.1-5.63-18.31-1.61-36.87-2.1-55.2-.29-10.52.83-20.9,2.57-31.22,4.64,1.52.09,2.9.09,4.04.05Z" fill="#83dd3c"/>
  <path class="cls-1" d="m703.99,455.54c1.48-.41,2.83-.97,4.11-1.61-10.23,2.08-20.5,3.84-30.89,4.74-27.13,2.14-54.37-.96-80.53-8.42-7.65-2.33-16.36-3.31-20.98-10.02-3.2-6.07,2.98-10.12,8.62-10.75,5.91-.64,12.31,2.39,13.79,8.29,3.58,10.66,19.28,4.81,14.96-5.61-4.88-11.84-18.98-18.04-31.03-15.1-12.74,2.44-23.36,16.32-14.74,28.57,6.15,8.86,18.14,10.55,27.61,12.37,8.83,1.95,18.28,3.52,27.37,4.46,34.88,3.87,61.38.35,86-4.77-1.51-.26-2.91-.44-4.12-.55-.88-.08-1.02-1.36-.17-1.6Z" fill="#83dd3c"/>
  <path d="m738.86,478.09c.91-6.71,4.45-22,17.04-30.85.82-.57,1.55-1.21,2.45-1.72.74-.42.41-1.56-.43-1.53-1.14.04-2.52.04-4.04-.05-8.16-.47-20.7-3.69-26.04-19.64-.5-1.5-2.66-1.31-2.87.25-1.35,9.92-5.36,23.72-16.86,29.39-1.28.63-2.63,1.19-4.11,1.61-.86.24-.72,1.52.17,1.6,1.21.11,2.61.29,4.12.55,9.07,1.56,22.51,6.31,29.02,20.61.34.75,1.45.61,1.56-.21Z" fill="#83dd3c"/>
</svg>