<?xml version="1.0" encoding="UTF-8"?>
<svg id="Camada_1" data-name="Camada 1" xmlns="http://www.w3.org/2000/svg" viewBox="0 0 1080 1080">
  <defs>
    <style>
      .cls-1 {
        fill: #83dd3c;
      }
    </style>
  </defs>
  <path class="cls-1" d="m799.84,119.93c-2.46-4.79-7.59-7.78-13.38-7.78h-493c-5.79,0-10.91,2.98-13.38,7.77-2.19,4.27-1.81,9.17,1.01,13.13l11.47,16.05,8.25,11.54,36.8,51.47c2.73,3.82,7.35,6.12,12.36,6.12h379.57c4.99,0,9.6-2.28,12.34-6.08l37.08-51.51,8.31-11.54,11.51-16c2.86-3.96,3.25-8.88,1.05-13.16Zm-6.67,9.1l-14.45,20.07-8.3,11.54-34.16,47.45c-1.42,1.97-4,3.2-6.73,3.2h-379.57c-2.73,0-5.31-1.23-6.73-3.22l-33.91-47.44-8.25-11.54-14.35-20.08c-1.79-2.5-1.07-4.79-.49-5.93.99-1.93,3.42-4,7.22-4h493c3.81,0,6.22,2.07,7.22,4.02.58,1.14,1.3,3.44-.5,5.93Z"/>
  <path class="cls-1" d="m786.18,303.63c-20.88,0-29.39-13.47-29.39-46.49,0-9.66,7.85-17.53,17.52-17.53h24.66c24.96,0,45.26-20.3,45.26-45.26s-20.3-45.26-45.26-45.26H281.03c-24.96,0-45.26,20.3-45.26,45.26s20.3,45.26,45.26,45.26h20.75c9.66,0,17.53,7.87,17.53,17.53,0,32.14-3.69,46.49-25.49,46.49-32.01,0-58.05,26.05-58.05,58.05v537.08c0,38.1,30.99,69.09,69.09,69.09h470.28c38.1,0,69.09-30.99,69.09-69.09V361.68c0-31.99-26.04-58.05-58.05-58.05Zm46.5,595.13c0,31.73-25.82,57.54-57.54,57.54h-470.28c-31.73,0-57.54-25.82-57.54-57.54V361.68c0-25.64,20.87-46.49,46.5-46.49,37.03,0,37.03-34.94,37.03-58.05,0-16.03-13.04-29.08-29.08-29.08h-20.75c-18.58,0-33.71-15.13-33.71-33.71s15.13-33.71,33.71-33.71h517.94c18.58,0,33.71,15.13,33.71,33.71s-15.13,33.71-33.71,33.71h-24.66c-8.02,0-15.28,3.26-20.55,8.52-5.26,5.28-8.52,12.54-8.52,20.55,0,24.91,4.25,58.05,40.95,58.05,25.64,0,46.5,20.85,46.5,46.49v537.08Z"/>
  <path class="cls-1" d="m804.82,825.66v51.76c0,11.44-16.67,48.16-36.13,48.16h-35.85c30.74-21.18,48.43-46.64,51.22-73.79l2.21-21.52.49-4.62h-2.33l-.47,4.62-2.19,21.28c-2.82,27.36-21.25,53.02-53.33,74.22l-3.22,2.12h43.48c21.15,0,38.44-38.12,38.44-50.47v-51.76h-2.31Z"/>
  <path class="cls-1" d="m707.86,417.68v412.6h132.9v-412.6h-132.9Zm128.29,407.98h-123.68v-403.35h123.68v403.35Z"/>
  <path class="cls-1" d="m305.45,328.63c-21.19,0-38.43,17.23-38.43,38.43v510.36l2.31.06,23.06-410.26c2.83-50.47,21.35-97.73,53.59-136.69l1.56-1.9h-42.09Zm-15.37,138.47l-20.75,369.18v-469.23c0-19.92,16.2-36.11,36.11-36.11h37.2c-31.58,38.97-49.75,86-52.56,136.16Z"/>
</svg>