<?xml version="1.0" encoding="UTF-8"?>
<svg id="Camada_1" data-name="Camada 1" xmlns="http://www.w3.org/2000/svg" viewBox="0 0 1080 1080">
  <defs>
    <style>
      .cls-1 {
        fill: #83dd3c;
      }
    </style>
  </defs>
  <path class="cls-1" d="m786.19,303.61c-20.89,0-29.42-13.46-29.42-46.48,0-9.67,7.87-17.54,17.54-17.54h24.64c24.97,0,45.26-20.3,45.26-45.23s-20.3-45.26-45.26-45.26h-11.69l11.55-16.03c2.83-3.93,3.24-8.86,1.03-13.13-2.46-4.82-7.57-7.79-13.38-7.79h-492.97c-5.81,0-10.92,2.98-13.38,7.76-2.21,4.26-1.8,9.19.99,13.13l11.47,16.07h-11.51c-24.97,0-45.26,20.3-45.26,45.26s20.3,45.23,45.26,45.23h20.74c9.67,0,17.54,7.87,17.54,17.54,0,32.14-3.71,46.48-25.52,46.48-31.99,0-58.02,26.07-58.02,58.06v537.57c0,1.8.11,3.6.26,5.41,2.98,35.34,32.69,63.21,68.83,63.21h470.25c35.7,0,65.19-27.21,68.72-61.99.15-1.36.26-2.72.29-4.12,0-.04.04-.11,0-.18.04-.85.07-1.69.07-2.54V361.67c0-31.99-26.03-58.06-58.02-58.06Zm-499.44-174.58c-1.8-2.54-1.07-4.82-.51-5.96.99-1.91,3.42-3.97,7.24-3.97h492.97c3.82,0,6.25,2.06,7.24,4.01.55,1.14,1.29,3.42-.52,5.92l-14.45,20.08h-477.64l-14.34-20.08Zm483.67,31.62l-34.16,47.43c-1.4,1.98-4.01,3.2-6.73,3.2h-379.57c-2.72,0-5.3-1.21-6.73-3.2l-33.9-47.43h461.09ZM250.72,765.51v.04l-.04.04,1.65,2.5-.07.04,2.21,3.31s.04.04.04.07l2.28,3.05c.18.26.4.48.62.7l-.18.22,2.61,2.39s0,.04.04.04l-.18.18,2.87,2.54.04.04-.33.37,3.05,2.5s.07.07.11.07l-.33.33.99.7c-2.35,1.99-4.08,4.34-5.22,6.99-.88,2.1-1.36,4.26-1.43,6.55-.7-.07-1.4-.11-2.17-.11l-1.54.07-.85.48c-1.51.96-2.28,2.76-1.88,4.49l.77,2.68,3.05.29c1.1.07,2.02.4,2.76.92l1.8,1.21c1.18,3.05,2.98,6.18,5.29,9.34-.29.15-.59.33-.88.51-11.62,7.02-18.09,15.96-18.46,25.37v-83.94c.15.26.33.51.51.77.07.07.15.15.22.22l.92,1.69-.51.48,2.24,2.87Zm25.04.18l3.53,3.9-.33-5.26c-.92-13.05,2.5-22.61,9.6-26.91,1.4-.88,2.9-1.47,4.56-1.91l1.91-.48-.62-1.88c-.11-.33-.18-.66-.22-.88-.07-.4.04-.44.37-.55l.18.33c.26.92.85,1.73,1.8,2.46l.51.44h.66l1.58.04h1.32l.4-1.29c.11-.29.29-.63.55-1.03l.37.04.11.11-.63,2.35,1.84.4c6.8,1.43,14.56,5.59,22.36,11.99l1.73,1.4,1.36-2.5c.51-.96,1.03-1.91,1.62-2.79l.44-.59-.11-.48.33-.04-.44-2.06c-.04-.11-.07-.29-.07-.4v-.52l.33-.04-.18-1.84.04-.29h.7l-.44-1.84.15.04.07-2.35h.07l.66-3.75-.04-.22.22-2.35.81,1.32c.18.26.33.48.51.77l2.21,3.46.22-.11c.11.18.18.33.26.44l1.03,1.54.11-.07.77.85,1.54-.96c2.43-1.47,5-2.35,7.61-2.65,9.85-1.18,20.04,5.99,27.83,19.6l3.6,6.21c0,.15,0,.29-.04.48l2.43,6.07,1.84-3.24c.85-1.43,1.4-3.05,1.62-4.63l.48-3.02c.29-1.76.88-3.46,1.73-4.89l.18-.26.4-.15-.04.62.04.04c-.74,1.47-1.18,3.09-1.36,4.85l-.22,3.05c-.18,2.13-.85,4.19-1.91,5.96l2.98,2.13c.74-.85,1.32-1.84,1.73-2.94l.99-2.54c.51-1.43,1.4-2.68,2.68-3.97l.48-.07-.15.55v.04c-1.03,1.18-1.73,2.5-2.13,3.93l-2.13,6.62,3.16-.66c.96-.22,1.88-.37,2.79-.44l.55,1.51c-.74,2.9-1.1,6.14-1.1,9.71-.26,0-.51-.04-.81-.07-13.6-1.1-23.94,2.79-29.01,10.88-.51.81-.99,1.69-1.4,2.57-.81-.4-1.76-.44-2.72-.11l-1.43.59-.26.85c-.18-.18-.4-.33-.63-.48-1.25-.74-2.9-.59-3.93.37l-1.76,1.51.15.44c-4.45,1.36-9.12,3.93-13.94,7.72,0-.04-.04-.11-.07-.15l.22-2.54-.26-.04-.88-7.54-.22.04-1.21-10.52-5.37,8.79c-.11.18-.22.37-.29.52l-.4-.22-1.21,2.32c-1.8-.85-3.6-1.36-5.48-1.54-8.16-.88-16.22,4.41-22.39,14.52-.74-.22-1.58-.18-2.32.15l-1.1.48c-.18-.44-.4-.85-.66-1.25l-.33-.48-.92-.85c-1.32-.77-3.05-.55-4.04.48-1.14,1.03-1.43,2.65-.63,4.23.04.07.07.15.11.22-1.32-.4-2.79.04-3.6,1.07-1.1,1.29-1.1,3.2.18,4.63.4.44.7.96.88,1.54-4.04-.29-7.68.52-10.85,2.39l-3.57-2.98-.37,2.54-.22-.07,2.83-50.48s.07.04.11.07Zm102.84-14.74l.22-.11.26.37c.22.88.29,1.76.18,2.65l-.66-2.9Zm18.86,10.63l1.62,2.24,1.43-2.35c.04-.07.07-.11.15-.18,1.25-1.99,2.76-3.49,4.6-4.63,2.35-1.4,5.04-2.1,8.24-1.99l2.68.07-.66-1.88.85-.15-1.21-2.24c-.22-.4-.4-.85-.55-1.32l1.1-.22-1.14-2.17c-.18-.37-.33-.77-.44-1.25l.92-.18-1.03-2.13c-.18-.4-.37-.85-.44-1.21v-.04l.81-.26-.81-1.88c-.26-.59-.4-1.07-.4-1.36l.99-.11-.77-2.28c-.15-.4-.22-.74-.26-.96l1.03.07-.7-2.54c-.11-.37-.15-.74-.15-1.14l.7-.18-.33-1.8c-.07-.37-.15-.74-.15-1.14l-.04-.15.55-.07-.11-1.76v-.4l1.18.07-.85-2.24.07-.26-.07-.44c-.04-.11-.04-.26-.04-.26,0-.55,0-1.1.04-1.66l.88-.26.22.29c.22.33.48.66.85,1.32l1.18,2.17.44-.18.29.37c.07.11.11.22.18.33l.96,1.73.44-.29c.18.33.29.63.37.85l.96,2.02.55-.29c.15.26.33.62.48.99l1.1,2.06.37-.29.04.04c.07.11.22.4.29.85l.51,2.57.96-.59c.18.33.33.81.44,1.36l.29,2.13.85-.26c.15.44.22.92.29,1.32l.37,2.43.81-.37c.11.26.15.48.18.74l.59,5.22,2.79-4.49c6.4-10.26,14.08-15.52,21.73-14.97,1.51.11,2.94.48,4.41,1.03l1.88.74.55-1.88c.11-.29.22-.59.66-.96l-.07.22c-.29.88-.29,1.8,0,2.9l.18.66,2.79,2.02,1.07-.77c.26-.15.51-.29,1.03-.33v.04l-1.84,1.43,1.32,1.47c4.3,4.74,7.87,12.06,10.3,21.11l.55,2.13,2.46-1.18c.92-.44,1.84-.88,2.79-1.21l.7-.26.15-.33.26.15.85-1.95c.04-.07.11-.18.15-.29l.22-.29.26.15.92-1.58.18-.18.59.37.51-1.25.26.29,1.18-2.13,3.93-4.12-.04,1.03c-.04.29-.04.59-.04.88l.04,3.64c-.07.26-.07.51-.11.7l-.07,1.84.26,1.07,1.8.15c2.61.18,5,.92,7.13,2.1,7.39,4.12,11.1,13.64,10.48,26.4-7.91-1.18-14.6.44-19.38,4.74-7.28,6.55-8.79,17.94-4.3,31.55l-.04.15-1.47-.37-.99-.11c-.22-.07-.48-.18-.51-.15l-3.16-.88-.07.26c-.22-.04-.4-.07-.63-.07l-1.65-.15-.66.07c-.37-.07-.66-.11-.96-.15l-1.62-.04-.81.07c-.26-.04-.51-.04-.77-.04l-1.36-.07-.7.15c-.18-.04-.37-.07-.55-.07l-3.46-.33-.07.59-1.25.07h-.37c-.66-.04-1.32-.07-2.17-.07l-2.39-.07-.55,2.76-1.4,2.54,1.87,1.43c.55.48,1.14.96,1.88,1.47.04.04.07.04.11.07l.99.88-.33.48,2.65,1.84-.04.04,2.13,1.69-.07.07,2.57,1.91-.07.07,2.87,1.99c.15.11.33.22.51.33l-.11.29,2.54,1.07-.11.18,3.46,1.51-.18.48.85.29c-2.87,3.02-4.96,6.18-6.18,9.45l-2.76,2.65c-.85.81-1.51.81-2.02.74l-.4-.07c-1.84-.26-3.57.92-3.97,2.68-.51,1.8.29,4.23,2.39,5.04l.4.11c1.91.7,3.79.77,5.59.29.81,3.24,2.5,6.29,4.96,8.97-3.6,3.71-6.47,7.39-8.57,10.99-.63,1.07-1.18,2.1-1.69,3.09-3.24,6.88-3.64,13.24-.85,18.35,1.88,3.46,5.04,6.03,9.38,7.65,2.54.92,5.41,1.47,8.6,1.69l-.63,1.14c-.11.11-.18.26-.29.44l-3.2,5.92-.66,1.65c-1.73.4-3.6.55-5.59.44l-6.25-.29,3.68,2.61-.85.52,1.18,1.65-.81.85,1.36,1.4-.33,1.03,1.21.4-.44,1.29,3.01,2.94-.4.11.96,1.91s.07.11.29.48c-.15,0-.37.04-.62.07l-1.51.22-.04.37-1.47-.96.04.81-1.65-1.1-.33.99-1.03-.99-.15.52-1.51-1.1-.07.66-2.17-1.84v.66l-1.32-1.07-.15.48-1.47-1.8-.07.74-1.18-1.95-.22.62v-.07l-1.95,3.6c-6.69,12.65-15.41,19.52-23.94,18.83-5.52-.44-10.52-3.93-14.63-9.89-.74-1.07-1.43-2.17-2.1-3.38-3.27-5.92-5.81-13.64-7.32-22.72l-.29-.77-2.46-2.35-.96,2.61c-.07.15-.11.29-.18.44l-.48-.44-.96,2.65c-.07.15-.15.26-.29.59l-.07.11-.33-.26-.92,2.17c-.04.11-.07.18-.15.37l-.18-.18-1.29,2.39c-.07.18-.15.33-.22.44l-.22.26-.26-.26-1.32,2.21-.37.48-.04-.04-1.62,1.91-.11-.07-1.14,1.51-3.46,3.46-.04.18c-.11.15-.26.33-.37.48l-.62-.33v-.11c.11-.33.18-.7.22-.99l1.07-4.67-.29-.04.74-2.54-.18-.07.04-.04c.04-.22.11-.44.22-.7l.85-2.39h-.4c.04-.11.11-.22.18-.37l.88-1.95-.4-.15.07-.26c.04-.26.18-.55.44-.88l.85-1.76-.4-.22.92-2.57-3.42.96c-2.17.62-4.27,1.07-6.21,1.29l.66-1.65,1.65-2.06-1.47-1.69c-.4-.51-.85-.99-1.14-1.32l-.22-.22-.63-.85.4-.4-1.99-2.02.04-.04-1.51-1.73.07-.04-1.73-1.98.04-.04-2.43-2.54c-.07-.07-.15-.15-.22-.22l.15-.22-1.91-1.32.11-.11-2.5-1.8c11.62-4.49,18.42-11.8,18.86-20.37.4-7.69-4.6-15-14.01-20.59-.07-.04-.11-.07-.18-.11,1.51-2.17,2.68-4.3,3.49-6.4l1.25-.85c.4-.33.99-.52,1.73-.59l2.57-.26.62-2.39c.33-1.43-.37-2.98-1.65-3.71l-.7-.44-1.32-.04c-.37,0-.74,0-1.1.04-.15-1.54-.51-3.02-1.14-4.45-.77-1.8-1.99-3.42-3.53-4.85l.66-.44-.26-.29,2.32-1.91-.29-.29,1.36-1.47c.11-.07.22-.18.29-.26l.99-.92.62-.88c.22-.22.48-.48.66-.74l.88-1.18.26-.51c.18-.22.37-.44.55-.66l.81-1.21.29-.66c.15-.18.29-.37.4-.52l.63-.99.22-.55c.11-.11.18-.22.29-.33l1.91-2.54-.44-.37.4-.81c.11-.11.22-.26.33-.44.37-.52.7-.99.92-1.43l1.29-1.95-1.95-1.76-1.18-2.32-2.94,1.07c-.4.11-.77.26-1.14.4-.04.04-.11.04-.15.07l-.92.29-.22-.59-1.76.81-2.9,1.14-.04-.15-2.72,1.1-.04-.11-3.05,1.4-.22.11-.18-.22-2.06,1.4-.11-.15-.66.48c-.26-8.93-3.35-15.52-8.9-18.79-.59-.37-1.25-.66-1.91-.92.44-1.4,1.07-2.72,1.84-3.93,4.34-6.88,13.42-10.11,25.67-9.16.81.07,1.62.15,2.76.29l2.13.26-.07-2.17c-.22-4.27.15-8.05,1.03-11.29l.15-.59-.52-1.47-.51-1.43c-.26-.81-.66-1.54-1.25-2.28-.4-.51-.85-.99-1.4-1.43l-.15-.15.18-.29.33.26c.74.51,1.36,1.07,1.88,1.62.15.18.26.37.4.55Zm130.02,12.72c-.04-1.29-.51-2.57-1.32-3.82.66.77,1.14,1.58,1.43,2.43l.96,2.57,2.02-1.88c1.58-1.47,3.31-2.46,5.22-3.01,2.39-.66,4.93-.55,7.57.26l2.57.81-.11-1.84.81.07-.59-2.5c-.07-.33-.11-.7-.11-1.07l1.07.07-.55-2.39c-.04-.29-.07-.62-.07-.96l.88.04-.4-2.28c-.07-.37-.07-.74-.07-1.03h.77l-.26-2.06c-.04-.18-.11-.74-.07-1.1l.96.22-.15-2.43v-.62l.92.33v-2.65c0-.29.04-.59.15-.92l.66.07.15-1.84c.04-.29.04-.62.11-.96l.51.07.37-1.76s.04-.07.04-.15l1.21.4-.29-2.43.11-.55c.04-.11.04-.26.04-.26.15-.44.26-.85.4-1.29l.33.07.29-.07.04.15c.15.33.26.7.44,1.36l.51,2.35.44-.04.66,2.46.44-.15c.04.26.07.44.07.59l.33,2.21.59-.11c.07.22.11.48.15.77l.44,2.28.48-.15c0,.11.04.33,0,.62l.15,2.5.7-.18c.04.29.04.62,0,1.07l-.26,2.13.81-.04c0,.29,0,.62-.07,1.03l-.29,2.43.85-.11c0,.15-.04.29-.04.44l-.81,5.19,3.86-3.53c8.05-7.35,16.03-10.07,22.47-7.72,1.25.48,2.43,1.1,3.53,1.95l1.58,1.21,1.1-1.66c-.22.55-.33,1.18-.33,1.95l-.04.66,2.1,2.61,1.18-.44-1.25.55.88,1.73c2.61,5.22,3.9,12.43,3.79,20.88l-.04,2.21,2.61-.44.66-.11-.18,1.62-.44-.07-.66,7.57-.4.04.4,2.54s-.07.11-.11.15c-4.82-3.79-9.49-6.36-13.94-7.72l.18-.44-1.76-1.47c-1.07-.99-2.68-1.14-3.97-.37-.22.11-.4.26-.62.44l-.26-.85-1.51-.63c-.99-.33-2.06-.22-2.94.29-1.03.59-1.62,1.62-1.65,2.87-.88.29-1.76.7-2.61,1.21-5.59,3.31-8.68,10-8.86,19.01l-.07-.04c-.07-.07-.15-.11-.26-.18l-1.1-.74-1.07-.44c-.26-.18-.48-.33-.74-.44l-1.36-.62-.63-.15c-.26-.15-.48-.26-.7-.33l-1.36-.55-.85-.22c-.18-.07-.33-.15-.51-.22l-1.69-.48c-.15-.07-.26-.15-.37-.18l-3.09-1.43-.22.55-.77-.18c-.07-.04-.18-.11-.26-.15-.4-.15-.77-.29-1.14-.4l-2.94-1.07-1.21,2.32-1.95,1.76,1.25,1.88c.29.52.63.99,1.14,1.76.04.07.07.11.11.15l.44.81-.44.4,1.69,2.21,1.1,1.77-.04.04,1.62,2.5v.04l1.91,2.65c.07.07.15.18.18.26l-.15.18,1.88,1.76-.11.11,2.1,1.91-.26.29,2.28,1.91-.26.29.66.44c-1.54,1.43-2.72,3.05-3.53,4.89-.62,1.4-.99,2.87-1.1,4.41-.44-.04-.96,0-1.47-.04l-.96.04-.7.4c-1.32.77-1.99,2.32-1.65,3.82l.63,2.32,2.57.26c.7.07,1.32.26,1.76.62l1.21.81c.81,2.1,1.95,4.23,3.46,6.4-.04.04-.11.07-.18.11-9.41,5.59-14.38,12.91-13.97,20.59.4,8.57,7.21,15.88,18.86,20.37l-1.51,1.25c-.15.07-.29.18-.29.22l-2.54,1.76.15.22c-.07.07-.18.18-.26.26l-.99,1.07-.37.48c-.22.18-.4.37-.59.55l-.92,1.07-.44.66c-.15.15-.29.29-.4.44l-.77.88-.37.55c-.07.11-.18.22-.29.33l-2.28,2.32.37.4-.48.7c-.11.07-.18.18-.22.22-.44.48-.85.96-1.25,1.43l-1.47,1.73,1.65,2.06.99,2.43,2.17-.48c.62-.11,1.29-.26,2.02-.48.04,0,.11,0,.15-.04l.92-.15.15.51,2.72-.77v.04l2.28-.51.04.11,2.68-.7.04.07,3.09-.88c.15-.04.26-.07.37-.11l.15.26,2.1-1.07.04.15,3.01-1.51.22.37.51-.33c.51,3.46,1.51,6.51,2.98,9.05l.26,3.27c.07.92-.22,1.29-.55,1.54l-.26.29c-1.29,1.18-1.43,3.13-.4,4.45.99,1.43,3.24,2.28,5,1.21l.33-.18c1.47-.92,2.57-2.1,3.24-3.53.44.18.85.37,1.32.52l-.66.22,1.21,2.06c.18.29.29.59.33.85v.11l-.66.18.88,1.91c.07.15.11.29.15.4l-.4.04.48,2.02c.04.18.07.33.11.51l-.88.07,1.07,2.32c0,.07.04.15.04.26l-.52.04.52,2.13v.62l-.07,1.51.18.4c.07.63.15,1.18.18,1.76v.15l-.66-.81-1.29-1.76-.37-.11-2.21-2.28-.11.07c-.11-.15-.18-.33-.29-.52l-1.1-1.62-.29.22c-.11-.15-.22-.33-.33-.51l-1.21-1.84-.29.22c-.07-.11-.15-.29-.22-.48l-1.18-2.32-.44.4c-.07-.11-.15-.29-.18-.52l-.51-2.17-.77.33c-.07-.22-.15-.48-.26-.74l-.92-2.02-.26.15-.07-.15-1.62.63c-.4.18-.85.29-1.25.4-3.05.85-6.32.7-9.71-.44l-5.92-1.99,2.76,3.42-.81.26.63,1.76-.92.55.88,1.58-.59.88.96.66-.63.96,1.8,3.13-.29.04.4,2.06s.04.15.07.26c-.11,0-.18-.04-.29-.04l-1.54-.22-.04.18-1.07-1.18-.18.7-1.1-1.32-.52.74-.62-1.1-.29.48-1.07-1.43-.22.55-1.47-2.17-.18.63-.81-1.18-.22.33-.88-2.02-.22.52-.55-1.84-3.05,3.38c-8.9,9.34-18.09,13.2-25.33,10.52-5.99-2.21-10.04-8.6-11.69-17.83-.29-1.51-.51-3.09-.62-4.71-.26-2.79-.33-5.81-.15-8.97.04-1.8.18-3.68.4-5.59l-.07-.81-1.73-2.94-1.65,2.28s-.04.07-.07.11l-.33-.52-.07.11-1.58,2.21c-.07.11-.15.18-.37.4l-.22.18-.26-.26-1.25,1.58-.07-.15-1.62,1.65-.26.29-.29.29-.11.07-.18-.26-1.69,1.58-.11.11-.33.22-.04-.04-1.69,1.18-.11-.15-1.51,1.14-.11.11-3.97,2.21-.04.18c-.07.07-.18.11-.26.18l-.26-.26.22-.37,2.35-4.34-.26-.15.48-.77.74-1.21-.11-.11c.07-.11.15-.26.29-.44l1.43-2.02-.33-.11.11-.11,1.4-1.65-.37-.26.04-.04c.11-.22.29-.4.55-.62l1.32-1.43-.29-.33,1.54-2.21-3.57.04c-4.26,0-7.65-.51-10.59-1.58-3.49-1.29-5.99-3.31-7.43-5.96-2.43-4.41-1.65-10.33,1.88-16.77l1.84-.07-1.29-.85c2.21-3.79,5.37-7.72,9.34-11.66l1.36-1.36-1.4-1.29c-3.16-2.94-5.07-6.43-5.55-9.78,0-.15,0-.29-.04-.4l.11-3.35-2.9,1.73c-1.47.88-3.05,1.03-4.78.4l-.37-.11c-.07-.07-.18-.44.04-.59,1.32.26,3.31.15,5.22-1.69l3.38-3.2.15-.44c1.29-3.6,3.79-7.13,7.46-10.48l2.13-1.98-2.68-1.07s-.07-.04-.15-.07l.33-.88-2.17-.37c-.26-.04-.51-.11-.85-.22l.51-.85-2.68-.44c-.29-.07-.55-.15-.74-.15l-.22-.15.37-.99-2.32-.26c-.15-.04-.37-.07-.51-.15-.15-.04-.26-.07-.33-.15l.48-.7-2.57-.92c-.22-.11-.37-.15-.48-.26l.51-.74-2.21-.81c-.29-.11-.55-.22-.74-.37l.4-.77-1.95-.74c-.37-.11-.63-.29-.77-.37l.33-.66-1.88-.99-.96-.96c-.07-.07-.44-.4-.44-.4l-.37-.33-.4-.15c-.37-.26-.7-.55-1.03-.85l.18-.55c.44,0,.92.04,1.43.04l.74.11.22-.04.15.04,1.95-.18,2.06.44.04-.66c.37.04.55.11.63.15l2.02.4.15-.55c.33,0,.63.07.92.15l2.21.37.04-.48c.11,0,.37.07.85.26l2.46.59v-.63c.07.04.15.07.22.07.18.07.33.15.62.29l1.84.96.26-.77.18.07c.29.11.59.26.88.4l2.35.77.04-.44c.29.11.55.26.81.37l1.95.96.22-.77,3.53,1.21-1.43-3.68c-5.26-13.38-4.45-24.89,2.13-30.81,3.97-3.6,9.71-4.85,16.62-3.79,2.46.4,5.11,1.1,7.83,2.1.7.26,1.43.55,2.32.96l2.02.81.48-2.1c.07-.37.18-.77.29-1.14.85-3.27,1.95-6.1,3.38-8.42l.29-.51-.22-2.87Zm84.79,13.38l-.18.99,1.69.62c.18.07.37.15.51.22-1.73.18-3.46.66-5.18,1.51l-1.47-2.21-.15.11c-.11-.18-.22-.37-.33-.52l-1.25-2.02,1.18-1.14.4.48.77-.99.15.26,1.73-1.62,4.04-2.39-.15.44c-.07.22-.15.48-.18.66l-.33.59-.55,2.65c-.15.26-.22.48-.29.62l-.48,1.69.07.04Zm38.31,24.52s.11-.07.15-.11c1.76-1.66,4.01-2.68,6.77-3.31l4.89-1.03,1.29-.29-1.69-.63-2.39-.88.48-.48-1.36-1.1.22-.4.22-.44-1.43-.88.07-1.03-1.03-.04.04-.99-2.65-1.47.15-.11-.96-1.1-.4-.44.85-.33.55-.22v-.04l1.36.44-.15-.59,1.32.48.04-.74,1.14.66v-.59l1.32.55-.04-.52,2.1.99-.15-.55,1.18.48v-.18l.77.59.88.62-.07-.51,1.18,1.14.85-4.38c.99-4.38,2.43-8.13,4.19-11.18l.37-.4,1.91-1.4-.77-.48c2.5-3.35,5.48-5.41,8.83-6.03,8.71-1.62,18.5,6.88,25.63,22.21.11.22.22.48.33.7l.44.66.88.44v30.96h45.04l.7,1.43.77-1.43h1.32l-1.03,3.68.07.44c.63,3.35.29,7.17-.96,11.4l-.88,2.87,2.83-.52.18.85,2.06-.77c.11-.04.26-.07.4-.15l-.04.88,2.57-.92c.18-.07.37-.15.66-.18l.18.99,2.17-.96c.11-.07.29-.11.33-.15h.29l.04.7,2.39-.4c.11-.04.22-.04.29-.04l-.04.85,2.28-.44c.15-.04.33-.04.48-.04l.04.85,2.1-.4c.18-.04.33-.04.48-.04l.04.66,2.1-.11,2.1.51.4-.07c.37.04.7.07,1.03.11l.04.26c-.29.18-.59.37-.85.52l-1.95,1.21-2.46.92.29.55c-.15.07-.26.11-.37.11l-1.91.7.15.48c-.18.11-.37.15-.59.22l-2.02.77.18.37c-.15.04-.29.07-.55.11l-2.46.74.29.48c-.15.04-.29.04-.48.04l-2.13.11.15.77-.77.11-2.43.48.15.37c-.15,0-.29.04-.44.04l-2.24.07.18.81-3.49.74,3.13,2.43c7.32,5.74,11.88,12.17,12.8,18.2.11.85.18,1.69.15,2.57-2.65,4.41-5.7,8.75-9.23,12.94-1.03.52-2.13.99-3.31,1.43l-.37.15c-1.73.59-3.6,1.1-5.59,1.47-.51.07-1.07.15-1.65.26l-2.68.4.62,2.06c.59,1.76.99,3.49,1.25,5.15.07.4.11.81.18,1.21-6.25,5.81-13.42,11.36-21.44,16.66l-3.2,2.13h14.78l.33.33c.15.15.26.29.44.55l-.92.48,1.76,1.8c.11.11.22.29.33.48l-.74.4,1.54,1.73c.15.18.29.37.4.59l-.63.4,1.25,1.58c.22.22.33.4.44.59l-.88.29,1.4,1.98c.04.07.07.11.11.18l-.92.11,1.43,2.35c.07.18.15.37.22.55l-.59.29.7,1.36c-1.69.77-3.35,1.29-4.96,1.51l-.33-.44-.4.4c-.11-.11-.18-.26-.29-.4l-1.62-1.73-.22.29s-.07-.11-.11-.18l-1.36-2.1-.48.52c-.11-.18-.22-.4-.33-.63l-1.14-1.76-.37.22c-.07-.18-.18-.4-.29-.66l-1.25-1.99-.33.29c0-.07-.04-.15-.07-.22l-1.95-4.74-1.51,4.93c-.33,1.07-.7,2.06-1.07,3.02-.29.85-.66,1.65-.99,2.39-.18.4-.4.81-.63,1.21-2.79,5.33-6.54,8.6-10.92,9.41-1.14.22-2.32.26-3.57.11l-1.95-.26-.07.88c-.07-.22-.18-.4-.29-.62l-.66-.7-.59-.26c-.29-.11-.55-.22-.88-.33l-.96-.33.07-.07-1.62-.99c-4.3-2.79-8.57-7.72-12.35-14.27l-1.1-1.91-1.69,1.43c-.74.66-1.43,1.25-2.21,1.8l-.59.44-.04.18-.29-.07-.26,1.76-.37-.15-.37,2.02-.59-.18-.18,1.32-2.54,4.93c-.04-.11-.07-.26-.11-.33v-.7l-.85-2.72c-.04-.07-.04-.15-.04-.18l-.48-1.84-.07.04-.22-.74-1.8.33c-1.95.37-3.82.33-5.63-.11-.07,0-.18,0-.26-.04-.51-.11-1.03-.29-1.54-.52-.59-.22-1.14-.48-1.69-.81-5.37-2.98-9.23-9.96-10.74-19.52l-.85-5.18c.04-.07.07-.15.07-.18l.18-.4-.22-5.66-.92.74-.22-1.43-.26,1.88-1.47,1.18c-.99.81-1.84,1.84-2.46,2.9.66-1.4,1.65-2.61,2.79-3.53l-2.02-3.05c-.85.44-1.54,1.03-2.1,1.69v-.04c.18-.22.37-.44.55-.66l1.91-2.46-3.09-.48c-4.45-.7-8.02-2.61-10.22-5.37l-1.62-2.21-.77.29.07-.33-2.24-.04,1.4-1.43.85-.44-.29-1.36c-1.4-6.14.63-14.01,5.66-22.25l.92-1.54-1.54-.96c-4.96-3.13-8.49-6.69-10.11-10.3l4.3.18-1.58-1.58c.33-.04.51-.07.51-.07l4.89-.52-6.73-4.74,1.91-2.02-3.2-.63c2.24-3.97,7.43-7.1,14.67-8.75.33-.07.7-.15,1.07-.22l2.28-.44-.96-2.13c-.55-1.25-1.07-2.46-1.51-3.68-1.21-3.31-1.95-6.55-2.21-9.49l-.07-1.1-1.03-.44c-.33-.15-.59-.26-.85-.44l.55-.62-2.24-1.07c-.07-.04-.22-.11-.33-.22l.4-.55-1.95-.99s-.11-.07-.15-.11l.48-.48-2.1-1.14c-.22-.15-.4-.29-.55-.44l.48-.51-1.76-1.18s-.04,0-.07-.04l.26-.18-1.4-1.51-.18-.18.7-.48-2.02-1.4.44-.29-1.58-1.58-.88-1.62-.37-.26c-.26-.29-.48-.63-.7-.88l1.18.4,1.07.55.37-.15,2.46.77.26.07.07-.15c.07.07.18.11.29.18l1.73.77.15-.29,2.21,1.1.11-.26c.07.04.15.11.22.18l.99.66h.04l1.1.7.18-.55c.04.07.11.11.18.18l1.76,1.32.22-.33c.11.07.22.18.33.29l1.84,1.29.15-.26.11.07,1.07-1.36c.22-.33.48-.59.77-.88.18-.18.37-.33.63-.59Zm12.94-38.86c-.44-.22-.85-.52-1.18-.81l-.11-.11.51-.7-1.76-1.07c-.4-.22-.99-.59-1.25-.96l-.11-.15.81-.63-1.99-1.43c-.44-.33-.77-.59-.92-.77l-.04-.07.88-.55-1.99-1.62c-.33-.29-.62-.59-.88-.96l-.18-.29.37-.55-1.25-1.21c-.26-.22-.51-.48-.74-.81l-.18-.18.44-.44-1.18-1.4c-.11-.15-.22-.26-.26-.33l-.04-.07,1.1-.66-2.13-1.36-.4-.59-.22-.22c-.37-.51-.74-1.03-1.07-1.58l.74-.92.44.15c.44.15.85.29,1.58.62l.63.26.04-.07.7-1.65-.18.88-.51.77,1.62.96.29-.44.55.15s.11.04.37.18l1.8.88.22-.55h.04c.44.18.77.37,1.03.55l1.99,1.07.26-.55c.37.15.77.37,1.14.63l2.1,1.03.18-.48.18.04c.11.04.4.18.88.62l1.95,1.69.4-.99.11.04c.4.18.85.51,1.29.96l1.47,1.54.55-.74.11.07c.44.29.85.7,1.14.99l1.69,1.76.48-.81.07.07c.29.18.51.33.7.55l3.53,3.93-.33-5.3c-.88-13.05,2.54-22.61,9.6-26.91,1.4-.85,2.87-1.47,4.56-1.88l1.91-.52-.62-1.84c-.11-.37-.18-.7-.22-.92-.04-.4.07-.44.37-.55l.18.33c.26.92.85,1.73,1.8,2.46l.52.48h3.57l.44-1.25c.11-.33.26-.63.51-1.07l.37.04.11.07-.62,2.39,1.84.4c1.29.26,2.61.62,3.93,1.1.22.07.4.15.62.22v58.02l-.15-.07c-7.76-14.74-17.98-22.39-27.8-20.59-4.19.81-7.94,3.31-10.96,7.28-.44-.26-.85-.52-1.21-.85l-.07-.04.77-.85-2.17-1.1c-.44-.18-.81-.48-1.21-.81l-.11-.15.62-.7-2.06-1.1Zm167.67,138.36l-.26-.77.4.15c-.04.18-.07.4-.15.62Zm-2.06-6.47l-2.39-.66.44.81-2.35-.99.22.74-.15-.11.55,4.05c.66,4.56.81,8.86.48,12.76-.15,1.91-.44,3.71-.85,5.41-3.27,5.81-7.57,10.96-12.61,15.26-1.03.33-2.13.55-3.27.66-9.63.92-22.1-4.96-34.27-16.36,18.2-6.32,32.17-38.24,32.17-49.38v-47.14h25.55v6.43c-.4.37-.81.74-1.21,1.1-1.91,1.69-4.16,3.35-6.66,4.93l-1.95,1.25,1.65,1.62c2.57,2.54,4.82,5.15,6.69,7.76.51.7.99,1.4,1.47,2.1v29.97c-.37.4-.77.77-1.18,1.1-.7.59-1.47,1.14-2.28,1.69l-5.22,3.38h4.56l-.44,1.03,2.02.74-.15,1.21,1.99.29.37,1.1.33-.11v2.9c0,1.88-.07,3.75-.29,5.59l-1.88-.15.4.55-1.99-.11.22.59Zm-59.75,24.34c.04.18.07.37.11.7l.04.48h-.37l.55,2.65-.22-.04.33,2.83c.04.18.07.33.07.51v.59l-.33-.04.18,2.5-.04.81h-.07l-.18,2.61h-.15l-.07,2.13-.81,5.04.07.15c0,.26,0,.55-.04.81l-.96.15c-.04-.07-.07-.18-.11-.26-.15-.33-.29-.7-.44-1.18l-.66-1.32-1.25-3.12-.33.18-.92-2.61-.22.04-.07-.18c-.11-.26-.18-.51-.26-.81l-.7-2.24-.33.18-.04-.07c-.04-.18-.11-.48-.15-.7l-.48-2.13-.37.11-.11-.29c-.15-.33-.18-.7-.22-1.18l-.37-1.95-.44.04-.81-2.61-2.17,2.79c-2.46,3.16-5.07,5.7-7.76,7.61l-.59-2.57h.04l-.88-3.2c-.04-.11-.11-.26-.15-.37l.18-.11-1.14-2.35.15-.07-1.32-2.57.33-.18-1.36-2.43h24.34l.48,1.69Zm-22.83,19.23l.22.7c.07.33.18.62.26.99l-.26.11c-.26-.18-.52-.4-.85-.7l-1.4-1.54c.44-.15.92-.29,1.36-.51l.66.96Zm-13.71-23.24c6.25-4.3,11.99-8.79,17.13-13.49v.22l1.51,2.1c.11.18.26.4.4.59l-1.73-1.36-.77,2.57c-.51,1.84-1.4,3.35-2.57,4.63-1.36,1.4-3.05,2.39-5.15,3.02l-3.27.85.59.88h-6.14Zm19.71-21.91c.07,0,.18-.04.26-.04,1.14-.22,2.28-.48,3.35-.77-.96,1.07-2.02,2.13-3.09,3.16-.11-.77-.29-1.54-.51-2.35Zm-3.09,19.71c1.1-1.18,1.99-2.46,2.65-3.9.4.18.88.37,1.4.55l.92.33.85-.15c1.54-.29,2.72-1.54,2.9-3.05l.22-2.39-2.35-1.18c-.7-.33-1.21-.74-1.51-1.25l-.88-1.21c0-.26,0-.48-.04-.7-.04-.52-.04-1.03-.11-1.58v-.04c2.57-2.43,4.96-4.93,7.21-7.46,1.25-.51,2.43-1.07,3.49-1.69h1.36v-.81c3.97-2.61,6.73-6.07,7.98-10.04.15-.44.26-.85.33-1.32l.29-1.58c.15-1.18.18-2.39.07-3.57v-.04c5.44-9.82,8.71-20,9.82-30.48l2.21-21.55h18.57v47.14c0,10.63-14.3,42.84-31.84,47.58-.15-.15-.33-.33-.51-.52l-.74-.48-3.35-.33.55,1.91h-22.21c.99-.62,1.91-1.36,2.72-2.21Zm18.38-62.73c.11-.07.26-.11.37-.15l1.32-.7.48-.33c.29-.11.55-.22.81-.33l1.29-.7.59-.44c.18-.11.4-.18.59-.29l1.07-.59.55-.44c.11-.04.26-.11.4-.15l3.01-1.47-.26-.48.74-.51c.11-.04.26-.11.33-.18.55-.29,1.14-.62,1.62-.88l.88-.48c-1.03,8.9-3.71,17.61-8.02,26.07-1.47-5.48-5.33-11.03-11.07-16.1l1.91-.7c.22-.04.4-.07.4-.11l3.05-.77-.07-.26Zm3.27-15.88v-.07l-2.72-.29v-.11l-3.27-.22c-.15,0-.37-.04-.48-.04l-.04-.29-2.35.33v-.18l-3.46.4-.07-.44-.66.15c.74-3.53.88-6.84.37-9.85v-.04l.96-3.31c.07-.18.15-.37.22-.51h24.34l-1.95,19.19-.04-.11-.11-2.72-2.24-.26c-.62-.11-1.32-.22-2.17-.29h-.04l-1.07-.22.04-.55-5.26-.55Zm61.55,4.45c-1.25-1.54-2.57-3.09-4.01-4.6,1.43-.99,2.79-1.99,4.01-2.98v7.57Zm0-44.75v21.22h-120.2v-403.36h120.2v382.15Zm-99.24,140.09c-.99-.4-1.95-.96-2.9-1.65.18-.37.33-.77.51-1.18l.07.07c.04.11.11.22.18.29l.81,1.14.81.7c.18.26.33.44.51.62Zm-86.19-30.85h-.07s.04-.04.04-.04l.04.04Zm-13.86-108.36l-5.55-1.84-3.82-1.29-2.72-.92,2.98,4.05.48.62,2.98,4.08.11.15c.37.48.7.92,1.07,1.4,0,.04.04.07.07.11l.22.33-.52.33,3.05,3.75-.07.04,1.73,2.32-.04.04,1.88,2.28-.26.26,2.1,1.69-.11.11,1.95,1.62-.26.26,2.87,2.17c.33.26.63.44.96.63.4,3.57,1.47,7.43,3.05,11.29-7.13,1.8-12.35,4.89-15.22,9.01-.85,1.21-1.51,2.5-1.91,3.9-.18.55-.33,1.1-.4,1.66,0,.11-.04.26-.04.37-.15.88-.18,1.76-.11,2.65.04.77.15,1.54.33,2.32.18.92.48,1.8.88,2.68v.04c1.69,4.04,5.15,7.91,10.19,11.29-4.52,7.91-6.4,15.63-5.44,22.02l-6.03,3.24,2.02.52s-.07.07-.07.07l-3.9,2.9,7.61.63-.55,2.54,4.45-1.58c2.32,2.9,5.63,5,9.67,6.14-.4.55-.88.92-1.69,1.36-1.51.81-2.17,2.61-1.62,4.12.48,1.4,1.69,2.32,3.16,2.35-.15.15-.29.33-.44.48-1.1,1.07-1.4,2.68-.7,3.97.62,1.4,2.17,2.17,3.82,1.88l1.54-.81c.37-.29.74-.59,1.1-.96l.92.92c.59.55,1.36.88,2.17.92,1.99,10,6.32,17.14,12.54,20.37-1.1,1.84-2.5,3.31-4.23,4.3-7.54,4.49-19.6-.22-31.44-12.21l-.63-.48-3.35-.52.7,2.68c0,.07,0,.11.04.18h-.51l.66,2.68-.37.04.4,1.73h-.11l.33,2.72-.29-.04.18,2.46v.07h-.04l-.15,1.73h-.15l-.07,2.13-.66,3.82-.18-.7-.44-.74-.99-2.68-.26.07-.66-1.87-.15.04s-.04-.11-.07-.22l-.63-2.46-.26.15-.37-1.84-.4.11c-.04-.15-.04-.29-.04-.51l-.22-1.95-.48.04-.7-2.46-2.24,2.76c-2.21,2.76-4.52,4.85-6.84,6.21-2.72,1.62-5.41,2.21-7.94,1.73-6.88-1.25-11.91-10.41-13.13-23.86l-.18-1.91-1.91.26c-1.91.26-3.79.22-5.48-.18-1.54-.26-2.94-.81-4.23-1.58l-.85-.77-1.73-1.54-.48,3.42c-.22,1.43-.96,2.5-2.43,3.46l-.07-.07c.88-.81,1.88-2.24,1.65-4.52l-.29-4.08-.26-.4c-1.69-2.79-2.68-6.4-2.94-10.7l-.18-3.05-2.46,1.51-.44-.77-1.65,1.47c-.07.07-.18.15-.29.22l-.29-.81-2.06,1.77c-.18.15-.37.29-.37.37h-.07l-.55-.88-1.69,1.65c-.07.07-.18.18-.33.26l.92,1.47h-.04l-.66-.7-.22-.77-.22-.74-1.99,1.18-.33.18s-.11.07-.15.07l-.22-.77-2.02,1.18c-.15.07-.26.15-.4.22l-.33-.77-1.8,1.07c-.11.07-.26.15-.37.18l-.26-.59-1.91.85-1.21.11c-.07,0-.4.07-.44.07h-.44l-.37.26c-.33.07-.63.15-.92.18l-.11-.15c.18-.26.4-.48.59-.74l.55-.48.92-1.36,1.84-1.62-.4-.4c.11-.11.18-.15.18-.15l1.65-1.29-.37-.44c.15-.15.29-.26.44-.37l1.73-1.43-.33-.33c.11-.04.22-.11.4-.22l2.02-1.51-.4-.37c.11-.04.22-.07.37-.15l1.91-.85-.37-.62c.22-.11.44-.22.66-.33l2.1-1.29-.26-.29c.11-.04.26-.11.37-.18l2.02-.88-.4-.62,2.98-1.88-3.79-1.21c-11.84-3.79-19.12-10.59-19.45-18.16-.33-6.25,4.01-12.39,12.17-17.25.59-.33,1.18-.62,1.91-1.03l1.91-1.03-1.32-1.73c-2.06-2.65-3.53-5.22-4.41-7.69l-.18-.55-2.1-1.47c-.07-.04-.15-.07-.18-.11l1.65.55-.18-2.72c-.11-1.88.15-3.53.85-5.07.85-1.95,2.24-3.57,4.27-4.89l2.24-1.51-1.4-.96.55-.55-2.32-1.1c-.15-.11-.33-.18-.52-.33l.66-.7-2.21-1.1c-.15-.11-.29-.18-.44-.29l.55-.63-2.02-1.1c-.18-.11-.37-.22-.51-.33l.44-.59-1.76-1.07c-.22-.15-.4-.26-.51-.37l.66-.51-1.95-1.43c-.07-.07-.15-.11-.22-.15l.74-.44-1.99-1.65c-.15-.11-.29-.26-.4-.4l.44-.44-1.32-1.25c-.15-.18-.33-.33-.51-.55l.29-.33-.88-1.1,1.07-.7-2.13-1.29-.51-.59c-.15-.26-.29-.48-.48-.74l.15-.15c.29.07.59.18,1.07.4l2.06,1.03.22-.33,2.06.96.15-.37c.07.04.15.11.22.15l1.91,1.14.22-.52c.11.07.26.15.37.22l2.1,1.14.11-.4s.11.07.15.11l2.02,1.54.26-.62c.15.11.29.22.44.4l1.73,1.25.22-.29c.15.11.29.26.44.4l1.88,1.51.18-.37s.07.04.07.07l3.49,3.86-.29-5.22c-.51-9.38,1.99-16.18,7.02-19.19,1.03-.59,2.06-1.03,3.24-1.29l1.95-.48-.22-.62c.11.11.22.18.37.29l.51.44,2.76.04-.04.04,1.87.4c4.93,1.1,10.48,4.16,16.11,8.86l1.69,1.43,1.32-2.32c.37-.7.74-1.36,1.18-2.02l.4-.59v-.15l.29-.04-.44-1.91h.26l-.15-1.65.59.04-.29-1.43.07-1.76.63-3.16-.04-.18v-.18l.15.15v.33l1.8,2.28c.07.15.15.29.22.37l.96,1.54.11-.07.52.66,1.58-.92c1.73-1.03,3.57-1.65,5.41-1.84,1.73-.18,3.49,0,5.22.55,2.13.62,4.23,1.8,6.25,3.46,2.5,2.02,4.89,4.82,7.06,8.24-.04,0-.07-.04-.11-.04Zm-264.3,123.51c.04.22.11.44.15.7l-.66-.07.77,2.72c.04.15.04.33.07.7l.04.26h-.4l.55,2.35c0,.11.07.33.07.55h-.26l.37,2.72c.04.18.07.4.07.55l-.04.59-.33-.04.22,2.5-.04.77h-.07l-.15,2.21-.15-.04-.11,2.61h-.04l-.81,5.04.11.15c0,.26-.04.55-.04.81l-.96.15-.11-.26c-.15-.33-.29-.7-.44-1.03l-.15-.59-.48-.81-1.36-3.16-.29.15-.96-2.68-.15.04-.07-.15c-.11-.22-.18-.48-.26-.77l-.7-2.35-.37.18v-.04c-.07-.15-.11-.48-.15-.62l-.44-2.1-.4.11-.15-.37c-.11-.29-.18-.66-.18-1.1l-.33-1.95-.48.04-.77-2.68-2.21,2.83c-3.05,3.86-6.21,6.8-9.41,8.75-1.84,1.1-3.64,1.87-5.41,2.32,3.2-4.38,5.44-10.81,6.36-18.75,3.05.11,5.88-.37,8.49-1.54.7,1.43,1.88,2.68,3.57,3.71,1.8,1.07,4.01.22,4.96-1.14,1.1-1.4.96-3.35-.33-4.52l-.29-.29c-.33-.26-.59-.63-.51-1.54l.26-3.24v-.04c1.47-2.54,2.46-5.59,2.94-9.05l.55.33.22-.37,2.5,1.18c.51.81,1.1,1.54,1.76,2.21,2.98,3.09,7.06,4.85,12.13,5.26,3.01.22,6.32-.04,9.89-.81l-.4,1.65c-.07.18-.15.37-.18.59l-.63,2.87v.11l-1.03,4.26-.18,1.91.15.04-.11.59c-.04.15-.07.29-.15.48l-.88,4.34,2.87.99,2.65,1.73,1.51-1.73c.33-.37.66-.74,1.03-1.21l.33.55,3.49-4.52.04.07,1.84-2.21.04.07,2.43-3.13.29.26,1.43-2.61.07.07,1.4-2.5.29.26.22-.4c1.73,7.83,4.23,14.56,7.43,19.89-.74.66-1.51,1.25-2.35,1.76-10.48,6.36-27.32.15-43.87-16.33l-.74-.44-3.38-.48.77,2.68Zm-36.77,21.84c-.11.04-.26.04-.37.07-2.54.48-5.18-.11-7.94-1.73-2.32-1.36-4.6-3.46-6.84-6.21l-2.21-2.76-.7,2.46-.7-.04-.04,1.95c0,.29,0,.51-.11.74l-.04.07-.51-.07-.18,1.51-.33-.22-.51,2.54c0,.11-.04.15-.04.22l-.26-.04-.55,1.76-.44-.22-.44,2.17-.99,2.17-.63-2.94-.26-3.31h-.04l-.07-1.73h-.07l.11-2.35-1.91.44v-.04l1.73-.66.11-2.24.37-2.17-.26.04.48-2.76-.26.04.44-2.46-3.35.51-.44.44c-9.82,9.96-19.82,14.89-27.25,13.68-2.83-1.51-5.52-3.27-8.05-5.22-2.83-4.26-3.86-10.85-2.83-18.9l.44-3.42.29-.99-1.4.62.15-.33-1.91.55.07-.26-1.1.07.33-.44-2.35.18.22-.4-1.62.04.18-.62-1.07.22.15-.59-1.32-.04.37-.48-1.51-.07-1.03-.96,1.43-.99,3.13-.52.33-1.03.99.11.22-.66,1.65-.29-.15-.96,1.58-.59-.22-.55h4.3l-5.3-3.38c-2.61-1.62-4.49-3.71-5.55-6.21-.15-.29-.33-.66-.44-1.03l-.37-1.21-.15-.44-.11.04-.07-.51-.74.29-1.4.52c-.11.07-.26.11-.37.15l-.18-.74-2.02.99s-.07,0-.07.04l.07-.74-2.61.77s-.11.04-.15.04v-.44l-2.17.4h-.07c-.04-.92-.07-1.88-.07-2.79v-2.98l.37-.22-.07-.15,2.06-.7-.22-.48c.18-.07.37-.11.59-.15l2.28-.62-.15-.37,2.21-.48-.15-.44c.15-.04.26-.07.33-.07l2.43-.26-.29-.74c.29-.07.55-.11.88-.11h.11l.99-.07.44-.99c.85-1.76,1.95-3.6,3.27-5.44l.04-.04c.26-.37.51-.74.81-1.14.4-.51.85-.99,1.29-1.51.37-.44.77-.88,1.18-1.32.4-.44.81-.88,1.25-1.32l.66-.66.29-.33.66-.66-.11-.07.88.04,1.65-29.23,1.77-.37-.37-1.8c-.48-2.39-.77-4.71-.88-6.88v-.22l.4-7.54.04-.11c.48-2.87,1.43-5.37,2.76-7.43l.77-1.18-1.36-1.51-.18-.96.04.04,2.1.7.04-.29.62.52,2.13-1.43c3.05-1.88,6.84-2.39,11.21-1.54l3.2.66-1.03-2.9c.26.52.59.96.96,1.4l2.94-2.21c-.55-.88-.96-1.91-1.21-2.98.26.81.59,1.62,1.03,2.35l1.03,1.69-.37,1.65.66-1.14.55.99,2.13-5.18v-.59l2.5-4.52c5.52-9.85,12.69-15.08,19.78-14.34,1.84.18,3.64.81,5.59,1.95l1.54.92.44-.7h.07l.81-1.32.11.07.96-1.58.63-.85.29-.22.11-.48c.04-.11.11-.18.15-.29l.04.22-.04.18.59,2.35v.48l-.07,2.39.11-.04-.15.88.51.04-.11,1.84h.22l-.33,2.1.55.59c.44.66.81,1.32,1.21,2.02l1.29,2.32,1.73-1.43c5.59-4.71,11.18-7.76,16.07-8.86l1.62-.44h1.18l1.95-.18.52-.37.22-.22-.18.62.77.18,1.18.29c.88.18,1.69.52,2.46.92.26.11.51.22.74.37,5.07,3.02,7.57,9.82,7.02,19.19l-.22,3.71-.07,1.51.66-.7,2.83-3.16s.04-.07.07-.07l.4.66,1.69-1.8c.15-.15.29-.29.44-.4l.44.59,1.47-1.54c.18-.18.33-.33.44-.4l.4.88,1.88-1.76.15-.15.22.62,1.99-1.36c.15-.07.26-.15.37-.22l.37.74,1.8-1.36c.11-.11.26-.18.48-.29l.22.37,1.69-.81.29.44,2.24-1.25c.26-.11.55-.22.81-.29l.15.15c-.15.22-.29.44-.4.62l-2.65,2.02,1.03.66-1.07,1.32.33.29c-.15.11-.26.26-.4.37l-1.14,1.43.26.26c-.11.18-.26.29-.37.4l-1.76,1.8.48.29c-.07.04-.11.07-.18.15l-1.76,1.58.48.37c-.15.11-.33.22-.51.37l-1.54,1.36.22.29c-.15.11-.33.22-.51.33l-1.8,1.36.33.37c-.15.11-.33.18-.48.29l-2.21,1.1.66.7c-.15.15-.33.22-.51.33l-2.32,1.1.55.55-1.4.96,2.28,1.51c2.02,1.32,3.42,2.94,4.26,4.85.66,1.58.96,3.24.81,5.11l-.15,2.72,1.65-.55c-.07.04-.11.07-.15.11l-2.13,1.47-.22.55c-.88,2.46-2.35,5.04-4.38,7.69l-1.21,1.8,1.91,1.03c.63.33,1.21.62,1.77.96,8.2,4.85,12.54,10.99,12.21,17.25-.37,7.57-7.65,14.38-19.49,18.16l-1.54.48-2.24.74,1.88,1.18,1.14.7-.44.62,2.02.88c.11.07.26.15.4.18l-.48.51,2.32,1.07c.18.07.37.18.66.37l-.33.62,1.91.85c.15.04.29.11.44.18t.04.04l-.59.55,2.28,1.36c.07.04.11.07.15.07l-.48.48,1.88,1.29c.15.11.29.22.44.37l-.51.66,1.8,1.07s.15.07.33.26l-.37.48,1.43,1.18.85,1.18.22.29.18.4.44.26c.18.22.4.44.59.7l-.07.15c-.33-.04-.62-.11-.96-.18l-.77-.26s-.37-.07-.48-.07l-1.43-.18-1.91-.81-.18.59c-.07-.04-.15-.11-.22-.15l-1.91-.81-.22.52c-.11-.07-.26-.15-.4-.22l-2.1-.92-.15.51s-.07-.04-.11-.07l-2.43-1.07-.15.44c-.11-.07-.26-.18-.33-.26l-1.65-1.62-.04-.04-.52.88c-.15-.11-.29-.22-.44-.37l-2.17-1.47-.18.55c-.11-.11-.22-.18-.33-.26l-.63-.55-1.03-.92-.44.77-2.46-1.54-.18,3.09c-.26,4.3-1.25,7.91-2.94,10.7l-.22.4-.33,4.08c-.18,2.13.62,3.49,1.58,4.45l-.11.04c-1.32-.85-2.06-1.91-2.28-3.35l-.48-3.46-2.57,2.35c-2.72,1.66-6.07,2.24-9.74,1.76l-1.88-.26-.18,1.91c-.88,9.85-3.82,17.43-8.05,21.22-1.43,1.32-3.05,2.21-4.74,2.57Zm-80.6-29.93c-.22-.51-.44-1.03-.62-1.54l1.03.92-.4.62Zm-1.51-4.15l.18.11-.15.04s-.07-.07-.04-.15Zm-.51-1.62c-.92-3.09-1.58-6.29-1.95-9.6h.59v.07l3.46-.11h.07l.07.29,2.24-.48.04.18.77-.18c1.1,2.43,2.79,4.56,5.04,6.32l-.66.26v.11l-1.1-.33-.7,2.21-7.87,1.25Zm13.46-114.65c-.18-2.65.18-5,1.1-7.28.66-1.54,1.62-2.98,2.79-4.26v22.65c-.99-1.73-1.8-3.42-2.43-5.04l-.22-.55-2.72-1.88c-1.21-.88-2.79-1.43-4.56-1.58l-.51-.04-.04-.18c-.04-.11.04-.29.22-.4l.55-.04c1.21,0,2.39.15,3.42.48l2.61.85-.22-2.72Zm3.9,76.22l-.4-.26c-7.1-4.38-11.14-9.52-11.44-14.38-.07-.77-.04-1.54.11-2.28.15-.81.4-1.58.74-2.32,1.62-3.46,5.48-6.29,10.99-8.05v27.28Zm2.94-51.55c-.22.55-.44,1.1-.63,1.69v-5.33l.77.88-.15,2.76Zm2.28-40.59l-1.51-1.07.63-.66-2.02-.92v-19.67l.15.15,1.51,1.54.55-.74.07.07c.37.22.74.55,1.18.99l.55.59-1.1,19.71Zm-2.02,1.65l2.02-1.36-1.73,30.78-.99-.26c-.07-.07-.11-.18-.18-.26v-28.28c.29-.22.59-.44.88-.62Zm-3.2,35.52v23.86c-6.21,1.76-10.81,4.74-13.35,8.57-1.62-2.68-2.54-5.55-2.68-8.49-.55-8.64,5.15-17.1,16.03-23.94Zm-15.15,36.51c-.11.29-.18.59-.22.88-1.21,6.62,2.83,13.53,11.14,19.23-2.72,2.98-4.96,6.14-6.55,9.23-.37.07-.7.15-1.07.26l-3.38,1.03.11.33-2.87,1.21-1.73.88v-45.41c.29,4.41,1.84,8.57,4.56,12.35Zm135.9,58.28c-.92.04-1.84.04-2.68-.04-.07,0-.15,0-.22-.04-2.06-.18-3.9-.62-5.52-1.36.07,0,.11,0,.18.04l1.14.26.59.04c.15.04.29.11.48.15l3.13.88.15-.51.85.11c.07.04.18.07.33.11.55.15,1.1.29,1.58.37Zm-114.13-156.42l-.04.04-2.9-1.91-.18.26c-.26-.15-.51-.29-.77-.4l-.4-.18v-390.71c0-19.89,16.18-36.11,36.11-36.11h37.17c-31.58,38.98-49.75,86-52.54,136.16l-16.44,292.87Zm-6.62,19.16l-.85-.4c-.4-.22-.81-.48-1.18-.81l-.11-.11.62-.74-2.06-1.1c-.44-.26-.88-.55-1.18-.81l-.11-.11.51-.7-1.76-1.03c-.4-.26-.96-.63-1.25-.96l-.11-.18.77-.62-1.95-1.43c-.44-.29-.77-.59-.92-.81l-.04-.04.92-.51-2.06-1.66c-.33-.29-.59-.59-.88-.96l-.07-.18.48-.52-1.32-1.25c-.29-.29-.59-.55-.88-.92l-.18-.22.44-.44-1.14-1.4c-.11-.11-.22-.22-.26-.29l-.04-.07,1.1-.7-2.13-1.32-.4-.55c-.07-.11-.22-.26-.26-.26-.33-.51-.7-1.03-1.03-1.58l.74-.96.44.18c.4.15.85.29,1.29.48l2.61,1.25.26-.4.59.15c.11.04.22.11.37.18l1.8.85.18-.51h.04c.44.18.77.37,1.03.55l1.95,1.07.26-.59c.37.15.77.37,1.21.66l2.1.99.15-.44.18.04c.15.07.48.26.85.59l1.29,1.18v17.43Zm-12.65,144.54l-.51,1.69c-.33-.55-.62-1.14-.88-1.73l1.4.04Zm-.44,1.84l1.32-.29-.26.51,1.18-.11-.18.26,3.31-.22-.51,1.58.4-.11-1.1,2.06,3.53-1.54-.88,2.76,2.17-1.51c-.18,3.68.04,6.99.66,9.93-3.79-3.93-7.06-8.42-9.63-13.31Zm50.93,30.81c-6.99,0-13.68-1.25-19.86-3.53,5.99-1.4,12.65-5.15,19.23-11.07v.07h.04l-.22,4.52h.18l.22,3.05.22,2.24h.04l.44,4.52.22-.07c0,.07.04.18.04.26h-.55Zm7.68,0l.07-.18c.04-.07.07-.18.11-.29l.04-.07.33.15,1.47-3.79.07.04,1.07-2.72.07.04.66-1.88c1.84,1.91,3.75,3.46,5.66,4.6,3.53,2.1,7.06,2.83,10.48,2.17,2.02-.37,3.9-1.18,5.59-2.46,3.75.15,7.54-.96,11.33-3.27,2.83-1.73,5.59-4.08,8.27-7.1l.74,1.91c.07.22.15.44.22.62l1.25,2.79c.04.07.07.15.07.22l1.84,4.38.99,1.65.11-.04.37.66c.04.18.11.37.18.55l.37.88c.15.37.26.7.44,1.1v.04h-51.81Zm59.31,0l.11-1.21c.07-.62.11-1.25.15-1.91l.63.26.22-6.03.07.04.22-3.2h.07l.15-4.12.37.04-.37-3.16h.11l-.37-3.13.4.07-.11-.74c16.66,15,33.5,20.11,44.67,13.31.88-.55,1.73-1.14,2.5-1.76,4.67,6.58,10.48,10.48,16.91,10.99.51.04,1.03.04,1.51.04,8.79,0,17.17-6.07,24.01-17.36l.99,2.72.99-3.16,2.35,3.9.37-2.65.44.59.59-1.88,3.02,2.46v-.44l1.29,1.07.07-.85,1.43,1.54.74-2.17,3.46,2.35v-1.07l1.1.74.15-3.68,5.07-.55-1.36-1.99,3.53.59-8.31-8.05.85-2.61-1.65-.55.37-.4-.66-.96.33-.18c.51-.04,1.03-.07,1.51-.11l-.29.59,2.32,1.62,1.99,2.28,1.84-1.25c.37-.18.66-.4,1.07-.66l.15.55,4.19-3.16.07.11.66-.44,1.47-1.07.04.07,2.02-1.47.77-.59.18.29,1.91-1.91.04.07,1.88-1.84.18.29.11-.15c-.15,2.57-.15,5.07,0,7.43.04,1.76.22,3.46.4,5.07,1.58,11.99,6.66,20.48,14.49,23.35,7.98,2.94,17.25-.15,26.44-8.64l.22,2.76,1.65-2.61,1.18,4.08.96-2.32.26.51.96-1.54,2.13,2.98.07-.37.85,1.21.26-.66.85,1.65,1.21-1.8,2.5,2.98.26-.96.81.92,1.07-3.31,4.67.77-.66-1.95,3.05,1.4-5.48-9.41,1.4-2.17-1.21-.81.29-.18-.33-.96.11-.04c3.38.81,6.66.77,9.74-.07.07-.04.11-.04.18-.07l.04.07v.07l1.51,2.94.29-.15c.04.07.07.11.11.15l1.03,1.36.48.51c.11.15.22.33.33.48l1.03,1.32.66.62c.07.11.18.18.26.29l1.32,1.4c.07.11.15.22.22.33l.99,1.32,1.43,1.25.07-.04.7.59c.04.07.07.15.15.22l8.49,9.85h-215.95Zm216.31,0l-.55-5.33-.55-5.81c-.07-.66-.15-1.29-.22-1.99,0-.07-.04-.11-.04-.18v-.62l.62-.04-.37-2.02-.4-3.27h.07l-.33-3.16h.07l-.51-3.27.33-.11-.55-1.51c.92.11,1.88.11,2.87.07,1.69,14.38,7.61,23.79,15.96,25.3,3.42.66,6.95-.07,10.48-2.17,1.95-1.14,3.86-2.68,5.7-4.6l.26.7c.04.15.11.29.15.4l2.24,5.44.88,1.69.15-.07.04.07c.04.15.07.26.15.4l.04.07h-36.48Zm43.57,0c.04-.07.04-.18.04-.26l.48.18.18-4.63.07.04.18-2.28.07.04.15-3.09.37.04-.26-2.35h.07l-.22-2.21h.15c11.99,10.74,24.12,14.34,32.39,9.45,2.43-1.43,4.38-3.46,5.81-6.03.15.04.26.07.4.11,1.84.48,3.75.62,5.85.44l.63,2.57.18-.04c0,.22.07.4.11.63l1.47,7.39h-48.13Zm50.19,0l3.09-6.14.26-.55.44.22,1.54-3.6h.11l.63-1.32.15.04.88-2.17.37.11.51-2.54c.07-.07.15-.11.22-.18,3.31,5.41,6.91,9.56,10.74,12.43l-.37.4,1.14,1.98c.29.55.74.99,1.25,1.32h-20.96Zm93.17,0h-57.21c4.41-1.47,8.13-4.89,10.99-10.07,2.13,1.47,4.45,2.39,6.84,2.83,1.07.18,2.1.26,3.24.26l.48.33c.11.15.22.22.29.33l2.46,2.46.4-.48.63.44c.07.07.18.18.26.26.33.33.7.59,1.03.88l2.32,1.95,1.99-1.77,2.46-.99-.51-2.24c-.11-.62-.26-1.25-.48-2.06-.04-.07-.04-.11-.07-.18l-.15-.99.59-.18-.48-1.47c2.61-1.65,5.15-3.9,7.65-6.65l.77,1.91c.04.18.11.4.18.63l.81,1.91.44.81c.04.07.07.15.11.26l1.8,4.38.99,1.65.15-.04.33.7c.04.15.11.33.18.51l.37.88c.15.33.29.7.48,1.1l1.07,2.24,3.02-.92,3.27-.15.22-2.32c.07-.55.11-1.14.15-1.95l.63.26.22-6.07h.11l.18-3.09.07.04.15-4.16.4.07-.4-3.31h.11l-.33-3.02.4.07-.11-.77c11.58,10.48,23.05,16.18,32.95,16.33-9.08,5.92-19.86,9.38-31.44,9.38Zm54.68-39.56c-.04-1.36-.11-2.76-.22-4.19l1.18.81c-.26,1.14-.59,2.28-.96,3.38Zm2.87-499.07h-124.8v312.72c-.59-.18-1.18-.37-1.76-.51l.33-.88-2.06-1.73c-1.32-1.1-3.2-1.25-4.63-.37-.51.33-.99.77-1.43,1.51-.04-.07-.07-.18-.11-.29l-.55-1.76-1.73-.66c-1.14-.4-2.46-.29-3.49.37-1.29.77-1.99,2.13-1.88,3.79-1.36.48-2.65,1.07-3.86,1.84-7.54,4.6-11.58,13.9-11.51,26.44l-1.36-.96-.15.26-2.9-1.91-.18.22c-.26-.15-.52-.29-.77-.4l-3.57-1.58-.04.11h-.04l-1.84-.7-.96-.18c-.29-.15-.59-.26-.92-.4l-1.54-.48-.66-.11c-.22-.11-.44-.22-.66-.29l-3.53-1.62-.26.7-1.65-.44c-.18-.07-.33-.15-.48-.22-.55-.22-1.03-.37-1.54-.55l-3.42-1.21-1.43,2.79-2.32,2.1,1.43,2.13c.44.7.92,1.43,1.51,2.28.11.07.18.18.26.26l.88,1.66-.55.44,2.28,2.87s.04.07.07.07l-.07.07,1.65,2.5-.07.04,2.17,3.27.04.07,2.28,3.09c.18.22.4.48.66.66l-.18.26,2.57,2.39s.04,0,.04.04l-.15.18,2.83,2.5s.04,0,.04.04l-.37.37,3.09,2.5s.07.07.11.07l-.33.33.99.7c-2.32,1.99-4.08,4.3-5.22,7.02-.07.18-.15.37-.22.59l-1.65-1.69.33,2.61-.4-.29-.04,1.69-2.98-1.29.07.29-1.18-.59.07.59-1.36-.85-.11,1.99-3.42-1.18.26.85-.99-.29.74,3.2-4.12,1.58,1.29,1.1-3.2.29,9.01,5.04-.11,2.35,1.21.07-.11.15.62.51c-1.58.52-3.05,1.21-4.38,2.1-.88-.92-2.13-1.25-3.38-.85.07-.15.15-.33.22-.48.66-1.36.37-2.98-.7-3.93-1.07-1.1-2.79-1.32-4.19-.44l-1.18,1.25c-.26.4-.44.81-.66,1.21l-1.1-.52c-.74-.29-1.54-.33-2.32-.11-4.19-6.91-9.34-11.58-14.74-13.57-.04-.07-.11-.15-.18-.22-1.51-1.51-3.35-2.79-5.52-3.79l.88-2.87-.18-.07c.11-.29.22-.59.33-.88l3.64-10.44-9.78,6.29-.26-.44-3.42,2.46-.07-.07-1.62,1.1-.11-.11-1.95,1.51-.29-.29-.04.04-1.84-3.02-.59,5.07c-.07-7.24-1.21-13.42-3.31-18.46l.62-.22.04-2.43c.07-1.54-.88-3.01-2.35-3.53-.4-.15-.7-.26-1.29-.22l.77-1.14-.51-1.66c-.37-1.03-1.18-1.88-2.24-2.28-1.21-.44-2.5-.18-3.6.7-.96-.62-1.99-1.1-3.09-1.51-6.95-2.54-15.11-.44-23.27,5.99l-.07-1.18-.26.04-.26-2.87h-.26c-.04-.18-.07-.33-.11-.52l-.44-1.62-.29-.66c-.04-.29-.11-.59-.22-.88l-.48-1.58-.4-.85c-.07-.22-.15-.48-.22-.7l-.48-1.29-.29-.51c-.04-.18-.07-.37-.11-.55l-.88-3.46-.63.18-.48-1.07c-.04-.15-.07-.26-.11-.37-.15-.48-.29-.88-.44-1.32l-1.1-3.12-2.76.55-2.79-.44-.7,2.28c-.26.66-.48,1.36-.74,2.21,0,.11-.04.18-.04.26l-.51,1.25-.62-.11-.74,3.05h-.04l-.77,2.32-.07-.04-1.03,3.27h-.04l-.88,3.38c-.04.18-.07.37-.11.55l-.26.04-.18,2.94h-.22l-.18,3.27-.44-.04-.04,3.42-.4-.04.07.96c-2.46-.4-4.85-.33-7.13.33-1.76.48-3.38,1.25-4.89,2.32-.26-.4-.55-.81-.88-1.21l-.96-1.1-.81-.29c-1.54-.55-3.27-.07-4.27,1.21l-1.51,2.1,1.54,2.32c.48.7.74,1.47.77,2.13l.15,1.76c-1.32,2.32-2.43,5-3.27,8.02-.18-.04-.33-.11-.52-.18-1.76-.66-3.49-1.18-5.15-1.58.85-14.49-3.57-25.45-12.35-30.33-2.1-1.21-4.41-1.99-7.1-2.39l.18-1.36-.11-1.95-.22-.04c.07-.4.11-.81.11-1.21l.77-11.62-7.5,8.38-.81.96-.4-.4-2.83,3.53-.07-.04-1.47,1.76-.15-.11-1.62,2.17-.37-.22-1.29,2.57c-.29.11-.59.26-.88.4-2.28-7.83-5.37-14.19-9.16-18.94l.63-.44-.63-2.5c-.37-1.58-1.76-2.79-3.42-2.9h-.26c-.44,0-.88.07-1.43.26l.55-1.69-.96-1.51c-.66-.99-1.73-1.62-2.9-1.69-1.4-.15-2.68.55-3.53,1.84-1.25-.37-2.54-.62-3.82-.7-8.16-.66-16.25,4.12-23.02,13.46l-.48-1.36-.22.11-1.14-3.02-.29.11c-.11-.22-.18-.44-.33-.62l-1.88-3.24-.11.07-.92-1.47-.66-.7c-.15-.26-.29-.51-.44-.74l-.88-1.21-.48-.48c-.11-.18-.18-.37-.33-.55l-1.88-3.27-.55.4-.96-1.14c-.07-.15-.15-.26-.22-.4-.26-.4-.55-.85-.85-1.21l-2.02-2.9-2.65,1.36-2.94.37-.11,2.46c-.04.77-.07,1.58-.07,2.57,0,.11,0,.18.04.29l-.22,1.65-.66.04.11,3.42-.15,2.76h-.11l-.11,3.79h-.04l.07,3.68c0,.22.04.48.07.74l-.26.07.66,3.24-.22.04.77,3.53-.48.11.99,3.64-.44.07.37,1.03c-2.79.26-5.33,1.07-7.61,2.46-1.76,1.07-3.27,2.43-4.56,4.05-.48-.4-.96-.81-1.47-1.18l-1.03-.66c.22-1.14-.07-2.32-.85-3.16-1.25-1.58-3.46-1.95-5.33-.81l-.33.26c.18-.74.48-1.51.88-2.32.74-1.58.37-3.49-.88-4.6-1.25-1.25-3.27-1.47-4.93-.48l-.44.33-.92,1.25c-.51.85-.96,1.76-1.32,2.72l-.26-.77-1.65-.7c-.99-.4-2.13-.4-3.16.07-8.46-13.79-19.45-20.92-30.41-19.64-2.61.29-5.15,1.07-7.76,2.43l-1.69-3.09-.51.29c-.04-.07-.07-.11-.11-.11-.18-.4-.4-.77-.66-1.18l-6.43-10.26-1.36,13.13-.59-.07-.74,10.22-.44.04.48,2.94c-.22.37-.4.74-.63,1.1-7.02-5.48-13.79-9.12-20.19-10.88l.29-.85-2.02-1.69c-1.29-1.1-3.2-1.29-4.67-.4-.48.33-.96.77-1.4,1.51-.04-.07-.07-.18-.11-.29l-.59-1.76-1.73-.66c-1.14-.4-2.43-.29-3.49.37-1.29.77-1.95,2.13-1.84,3.79-1.36.48-2.65,1.07-3.86,1.8-4.89,2.98-8.31,7.94-10.04,14.49l15.81-281.51c2.83-50.48,21.33-97.73,53.57-136.71l1.54-1.91h-42.06c-21.22,0-38.42,17.25-38.42,38.42v389.68l-.85-.37-.04.11h-.04l-1.84-.7-.99-.18c-.29-.15-.59-.29-.88-.4l-1.54-.51-.7-.07c-.18-.11-.4-.22-.66-.33l-3.53-1.58-.26.66-1.65-.4c-.15-.07-.33-.15-.48-.22-.51-.22-.99-.37-1.51-.55l-3.46-1.18-1.29,2.54v-391.85c0-25.63,20.85-46.48,46.48-46.48,37.06,0,37.06-34.97,37.06-58.06,0-16.03-13.05-29.08-29.08-29.08h-20.74c-18.61,0-33.72-15.11-33.72-33.68s15.11-33.72,33.72-33.72h19.78l36.77,51.44c2.72,3.82,7.35,6.14,12.35,6.14h379.57c5,0,9.6-2.28,12.35-6.07l37.06-51.51h20c18.61,0,33.72,15.11,33.72,33.72s-15.11,33.68-33.72,33.68h-24.64c-8.02,0-15.3,3.27-20.55,8.53-5.26,5.29-8.53,12.54-8.53,20.55,0,24.93,4.27,58.06,40.96,58.06,25.63,0,46.48,20.85,46.48,46.48v56Z"/>
</svg>