<?xml version="1.0" encoding="UTF-8"?>
<svg id="Camada_1" data-name="Camada 1" xmlns="http://www.w3.org/2000/svg" viewBox="0 0 3539.75 1304.14">
  <defs>
    <style>
      .cls-1 {
        fill: #83dd3c;
      }
    </style>
  </defs>
  <g>
    <path class="cls-1" d="m2029.72,232c-2.46-4.79-7.59-7.78-13.38-7.78h-493c-5.79,0-10.91,2.98-13.38,7.77-2.19,4.27-1.81,9.17,1.01,13.13l11.47,16.05,8.25,11.54,36.8,51.47c2.73,3.82,7.35,6.12,12.36,6.12h379.57c4.99,0,9.6-2.28,12.34-6.08l37.08-51.51,8.31-11.54,11.51-16c2.86-3.96,3.25-8.88,1.05-13.16Zm-6.67,9.1l-14.45,20.07-8.3,11.54-34.16,47.45c-1.42,1.97-4,3.2-6.73,3.2h-379.57c-2.73,0-5.31-1.23-6.73-3.22l-33.91-47.44-8.25-11.54-14.35-20.08c-1.79-2.5-1.07-4.79-.49-5.93.99-1.93,3.42-4,7.22-4h493c3.81,0,6.22,2.07,7.22,4.02.58,1.14,1.3,3.44-.5,5.93Z"/>
    <path class="cls-1" d="m2016.06,415.7c-20.88,0-29.39-13.47-29.39-46.49,0-9.66,7.85-17.53,17.52-17.53h24.66c24.96,0,45.26-20.3,45.26-45.26s-20.3-45.26-45.26-45.26h-517.94c-24.96,0-45.26,20.3-45.26,45.26s20.3,45.26,45.26,45.26h20.75c9.66,0,17.53,7.87,17.53,17.53,0,32.14-3.69,46.49-25.49,46.49-32.01,0-58.05,26.05-58.05,58.05v537.08c0,38.1,30.99,69.09,69.09,69.09h470.28c38.1,0,69.09-30.99,69.09-69.09V473.75c0-31.99-26.04-58.05-58.05-58.05Zm46.5,595.13c0,31.73-25.82,57.54-57.54,57.54h-470.28c-31.73,0-57.54-25.82-57.54-57.54V473.75c0-25.64,20.87-46.49,46.5-46.49,37.03,0,37.03-34.94,37.03-58.05,0-16.03-13.04-29.08-29.08-29.08h-20.75c-18.58,0-33.71-15.13-33.71-33.71s15.13-33.71,33.71-33.71h517.94c18.58,0,33.71,15.13,33.71,33.71s-15.13,33.71-33.71,33.71h-24.66c-8.02,0-15.28,3.26-20.55,8.52-5.26,5.28-8.52,12.54-8.52,20.55,0,24.91,4.25,58.05,40.95,58.05,25.64,0,46.5,20.85,46.5,46.49v537.08Z"/>
    <path class="cls-1" d="m2034.7,937.73v51.76c0,11.44-16.67,48.16-36.13,48.16h-35.85c30.74-21.18,48.43-46.64,51.22-73.79l2.21-21.52.49-4.62h-2.33l-.47,4.62-2.19,21.28c-2.82,27.36-21.25,53.02-53.33,74.22l-3.22,2.12h43.48c21.15,0,38.44-38.12,38.44-50.47v-51.76h-2.31Z"/>
    <path class="cls-1" d="m1937.74,529.75v412.6h132.9v-412.6h-132.9Zm128.29,407.98h-123.68v-403.35h123.68v403.35Z"/>
    <path class="cls-1" d="m1535.33,440.7c-21.19,0-38.43,17.23-38.43,38.43v510.36l2.31.06,23.06-410.26c2.83-50.47,21.35-97.73,53.59-136.69l1.56-1.9h-42.09Zm-15.37,138.47l-20.75,369.18v-469.23c0-19.92,16.2-36.11,36.11-36.11h37.2c-31.58,38.97-49.75,86-52.56,136.16Z"/>
  </g>
  <g>
    <g>
      <path class="cls-1" d="m2634.62,186.56h34.24v6.85h-13.7v27.3h-6.85v-27.3h-13.7v-6.85Z"/>
      <path class="cls-1" d="m2674.64,186.56h27.39v6.85h-20.55v6.85h20.55v6.85h-20.55v13.6h-6.85v-34.15Zm27.39,6.85h6.85v6.85h-6.85v-6.85Zm0,13.7h6.85v13.6h-6.85v-13.6Z"/>
      <path class="cls-1" d="m2714.67,186.56h34.24v6.85h-13.7v20.54h13.7v6.76h-34.24v-6.76h13.7v-20.54h-13.7v-6.85Z"/>
      <path class="cls-1" d="m2754.7,186.56h27.39v6.85h-20.55v6.85h20.55v6.85h-20.55v13.6h-6.85v-34.15Zm27.39,6.85h6.85v6.85h-6.85v-6.85Z"/>
      <path class="cls-1" d="m2794.72,186.56h6.85v27.39h27.39v6.76h-34.24v-34.15Z"/>
      <path class="cls-1" d="m2834.75,186.56h34.24v6.85h-27.39v6.85h20.55v6.85h-20.55v6.85h27.39v6.76h-34.24v-34.15Z"/>
      <path class="cls-1" d="m2890.97,179.71h6.85v6.85h-3.42v6.85h-3.43v-13.7Zm10.27,0h6.85v6.85h-3.43v6.85h-3.42v-13.7Z"/>
      <path class="cls-1" d="m2913.87,193.4h6.85v6.85h20.55v-6.85h6.85v27.3h-6.85v-13.6h-20.55v13.6h-6.85v-27.3Zm6.85-6.85h20.55v6.85h-20.55v-6.85Z"/>
      <path class="cls-1" d="m2953.9,179.71h6.85v6.85h-3.42v6.85h-3.43v-13.7Zm10.27,0h6.85v6.85h-3.43v6.85h-3.42v-13.7Z"/>
      <path class="cls-1" d="m2993,193.4h6.85v6.85h20.55v-6.85h6.85v27.3h-6.85v-13.6h-20.55v13.6h-6.85v-27.3Zm6.85-6.85h20.55v6.85h-20.55v-6.85Z"/>
      <path class="cls-1" d="m3033.02,186.56h27.39v6.85h-20.55v6.85h20.55v6.85h-20.55v13.6h-6.85v-34.15Zm27.39,6.85h6.85v6.85h-6.85v-6.85Zm0,13.7h6.85v13.6h-6.85v-13.6Z"/>
      <path class="cls-1" d="m3073.05,186.56h34.24v6.85h-13.7v27.3h-6.85v-27.3h-13.7v-6.85Z"/>
      <path class="cls-1" d="m3113.07,213.95h6.85v6.76h-6.85v-6.76Z"/>
      <path class="cls-1" d="m3125.71,213.95h6.85v6.76h-6.85v-6.76Z"/>
      <path class="cls-1" d="m3138.34,213.95h6.85v6.76h-6.85v-6.76Z"/>
      <path class="cls-1" d="m2634.62,250.26h6.85v20.55h-6.85v-20.55Zm6.85-6.85h20.55v6.85h-20.55v-6.85Zm0,27.39h13.7v6.76h-13.7v-6.76Zm13.7-6.85h6.85v6.85h-6.85v-6.85Zm6.85-13.7h6.85v13.7h-6.85v-13.7Zm0,20.55h6.85v6.76h-6.85v-6.76Z"/>
      <path class="cls-1" d="m2674.64,243.41h6.85v27.39h-6.85v-27.39Zm6.85,27.39h20.55v6.76h-20.55v-6.76Zm20.55-27.39h6.85v27.39h-6.85v-27.39Z"/>
      <path class="cls-1" d="m2714.67,250.26h6.85v6.85h20.55v-6.85h6.85v27.3h-6.85v-13.61h-20.55v13.61h-6.85v-27.3Zm6.85-6.85h20.55v6.85h-20.55v-6.85Z"/>
      <path class="cls-1" d="m2754.7,243.41h27.39v6.85h-20.55v20.55h20.55v6.76h-27.39v-34.15Zm27.39,6.85h6.85v20.55h-6.85v-20.55Z"/>
      <path class="cls-1" d="m2794.72,243.41h27.39v6.85h-20.55v6.85h20.55v6.85h-20.55v13.61h-6.85v-34.15Zm27.39,6.85h6.85v6.85h-6.85v-6.85Zm0,13.7h6.85v13.61h-6.85v-13.61Z"/>
      <path class="cls-1" d="m2834.75,243.41h6.85v27.39h-6.85v-27.39Zm6.85,27.39h20.55v6.76h-20.55v-6.76Zm20.55-27.39h6.85v27.39h-6.85v-27.39Z"/>
      <path class="cls-1" d="m2874.77,243.41h27.39v6.85h-20.55v6.85h20.55v6.85h-20.55v13.61h-6.85v-34.15Zm27.39,6.85h6.85v6.85h-6.85v-6.85Z"/>
      <path class="cls-1" d="m2914.8,243.41h6.85v27.39h27.39v6.76h-34.24v-34.15Z"/>
      <path class="cls-1" d="m2954.82,243.41h34.24v6.85h-27.39v6.85h20.55v6.85h-20.55v6.85h27.39v6.76h-34.24v-34.15Z"/>
      <path class="cls-1" d="m3011.05,236.57h6.85v6.85h-3.42v6.85h-3.43v-13.7Zm10.27,0h6.85v6.85h-3.43v6.85h-3.42v-13.7Z"/>
      <path class="cls-1" d="m3033.95,250.26h6.85v6.85h20.55v-6.85h6.85v27.3h-6.85v-13.61h-20.55v13.61h-6.85v-27.3Zm6.85-6.85h20.55v6.85h-20.55v-6.85Z"/>
      <path class="cls-1" d="m3073.98,236.57h6.85v6.85h-3.42v6.85h-3.43v-13.7Zm10.27,0h6.85v6.85h-3.43v6.85h-3.42v-13.7Z"/>
      <path class="cls-1" d="m2634.62,300.27h6.85v13.7h20.55v-13.7h6.85v34.15h-6.85v-13.6h-20.55v13.6h-6.85v-34.15Z"/>
      <path class="cls-1" d="m2674.64,300.27h6.85v27.39h-6.85v-27.39Zm6.85,27.39h20.55v6.76h-20.55v-6.76Zm20.55-27.39h6.85v27.39h-6.85v-27.39Z"/>
      <path class="cls-1" d="m2714.67,300.27h6.85v6.85h6.85v6.85h-6.85v20.45h-6.85v-34.15Zm13.7,13.7h6.85v6.85h-6.85v-6.85Zm13.7-13.7h6.85v34.15h-6.85v-20.45h-6.85v-6.85h6.85v-6.85Z"/>
      <path class="cls-1" d="m2754.7,307.12h6.85v20.54h-6.85v-20.54Zm6.85-6.85h20.55v6.85h-20.55v-6.85Zm0,27.39h20.55v6.76h-20.55v-6.76Zm20.55-20.54h6.85v20.54h-6.85v-20.54Z"/>
      <path class="cls-1" d="m2794.72,300.27h27.39v6.85h-20.55v6.85h20.55v6.85h-20.55v13.6h-6.85v-34.15Zm27.39,6.85h6.85v6.85h-6.85v-6.85Zm0,13.7h6.85v13.6h-6.85v-13.6Z"/>
      <path class="cls-1" d="m2834.75,327.67h6.85v6.76h-6.85v-6.76Z"/>
    </g>
    <g>
      <path class="cls-1" d="m486.93,186.55h27.39v6.85h-20.55v6.85h20.55v6.85h-20.55v6.85h20.55v6.76h-27.39v-34.15Zm27.39,6.85h6.85v6.85h-6.85v-6.85Zm0,13.7h6.85v6.85h-6.85v-6.85Z"/>
      <path class="cls-1" d="m526.95,186.55h6.85v27.39h-6.85v-27.39Zm6.85,27.39h20.55v6.76h-20.55v-6.76Zm20.55-27.39h6.85v27.39h-6.85v-27.39Z"/>
      <path class="cls-1" d="m566.98,186.55h6.85v6.85h-6.85v-6.85Zm6.85,6.85h6.85v6.85h-6.85v-6.85Zm6.85,6.85h6.85v20.45h-6.85v-20.45Zm6.85-6.85h6.85v6.85h-6.85v-6.85Zm6.85-6.85h6.85v6.85h-6.85v-6.85Z"/>
      <path class="cls-1" d="m623.2,186.55h6.85v20.54h6.85v6.85h-6.85v6.76h-6.85v-34.15Zm13.7,13.7h6.85v6.85h-6.85v-6.85Zm13.7-13.7h6.85v34.15h-6.85v-6.76h-6.85v-6.85h6.85v-20.54Z"/>
      <path class="cls-1" d="m663.23,186.55h34.24v6.85h-27.39v6.85h20.55v6.85h-20.55v6.85h27.39v6.76h-34.24v-34.15Z"/>
      <path class="cls-1" d="m703.25,186.55h34.24v6.85h-27.39v6.85h20.55v6.85h-20.55v6.85h27.39v6.76h-34.24v-34.15Z"/>
      <path class="cls-1" d="m743.28,186.55h27.39v6.85h-20.55v20.55h20.55v6.76h-27.39v-34.15Zm27.39,6.85h6.85v20.55h-6.85v-20.55Z"/>
      <path class="cls-1" d="m799.5,193.4h6.85v20.55h-6.85v-20.55Zm6.85-6.85h6.85v6.85h-6.85v-6.85Zm0,27.39h6.85v6.76h-6.85v-6.76Z"/>
      <path class="cls-1" d="m818.98,193.4h6.85v6.85h20.55v-6.85h6.85v27.3h-6.85v-13.61h-20.55v13.61h-6.85v-27.3Zm6.85-6.85h20.55v6.85h-20.55v-6.85Z"/>
      <path class="cls-1" d="m859,186.55h6.85v6.85h6.85v6.85h-6.85v20.45h-6.85v-34.15Zm13.7,13.7h6.85v6.85h-6.85v-6.85Zm13.7-13.7h6.85v34.15h-6.85v-6.76h-6.85v-6.85h6.85v-20.54Z"/>
      <path class="cls-1" d="m899.03,186.55h27.39v6.85h-20.55v20.55h20.55v6.76h-27.39v-34.15Zm27.39,6.85h6.85v20.55h-6.85v-20.55Z"/>
      <path class="cls-1" d="m383.05,243.41h27.39v6.85h-20.55v6.85h20.55v6.85h-20.55v13.6h-6.85v-34.15Zm27.39,6.85h6.85v6.85h-6.85v-6.85Zm0,13.7h6.85v13.6h-6.85v-13.6Z"/>
      <path class="cls-1" d="m423.07,243.41h34.24v6.85h-27.39v6.85h20.55v6.85h-20.55v6.85h27.39v6.76h-34.24v-34.15Z"/>
      <path class="cls-1" d="m463.1,250.26h6.85v6.85h-6.85v-6.85Zm0,20.54h27.39v6.76h-27.39v-6.76Zm6.85-27.39h27.39v6.85h-27.39v-6.85Zm0,13.7h20.55v6.85h-20.55v-6.85Zm20.55,6.85h6.85v6.85h-6.85v-6.85Z"/>
      <path class="cls-1" d="m503.12,243.41h34.24v6.85h-27.39v6.85h20.55v6.85h-20.55v6.85h27.39v6.76h-34.24v-34.15Z"/>
      <path class="cls-1" d="m543.15,243.41h6.85v27.39h27.39v6.76h-34.24v-34.15Z"/>
      <path class="cls-1" d="m583.18,243.41h6.85v27.39h27.39v6.76h-34.24v-34.15Z"/>
      <path class="cls-1" d="m623.2,243.41h6.85v6.85h-6.85v-6.85Zm0,27.39h6.85v6.76h-6.85v-6.76Zm6.85-20.54h6.85v20.54h-6.85v-20.54Z"/>
      <path class="cls-1" d="m658.88,243.41h6.85v20.54h6.85v6.85h-6.85v6.76h-6.85v-34.15Zm13.7,13.7h6.85v6.85h-6.85v-6.85Zm13.7-13.7h6.85v34.15h-6.85v-6.76h-6.85v-6.85h6.85v-20.54Z"/>
      <path class="cls-1" d="m698.9,243.41h34.24v6.85h-13.7v20.54h13.7v6.76h-34.24v-6.76h13.7v-20.54h-13.7v-6.85Z"/>
      <path class="cls-1" d="m738.93,243.41h34.24v6.85h-13.7v27.3h-6.85v-27.3h-13.7v-6.85Z"/>
      <path class="cls-1" d="m778.95,243.41h6.85v13.7h20.55v-13.7h6.85v34.15h-6.85v-13.6h-20.55v13.6h-6.85v-34.15Z"/>
      <path class="cls-1" d="m818.98,250.26h6.85v20.54h-6.85v-20.54Zm6.85-6.85h20.55v6.85h-20.55v-6.85Zm0,27.39h20.55v6.76h-20.55v-6.76Zm20.55-20.54h6.85v20.54h-6.85v-20.54Z"/>
      <path class="cls-1" d="m859.01,243.41h6.85v27.39h-6.85v-27.39Zm6.85,27.39h20.55v6.76h-20.55v-6.76Zm20.55-27.39h6.85v27.39h-6.85v-27.39Z"/>
      <path class="cls-1" d="m899.03,243.41h34.24v6.85h-13.7v27.3h-6.85v-27.3h-13.7v-6.85Z"/>
      <path class="cls-1" d="m509.97,307.12h6.85v6.85h20.55v-6.85h6.85v27.3h-6.85v-13.61h-20.55v13.61h-6.85v-27.3Zm6.85-6.85h20.55v6.85h-20.55v-6.85Z"/>
      <path class="cls-1" d="m550,300.27h6.85v6.85h6.85v6.85h-6.85v20.45h-6.85v-34.15Zm13.7,13.7h6.85v6.85h-6.85v-6.85Zm13.7-13.7h6.85v34.15h-6.85v-6.76h-6.85v-6.85h6.85v-20.54Z"/>
      <path class="cls-1" d="m590.02,300.27h6.85v6.85h-6.85v-6.85Zm6.85,6.85h6.85v6.85h-6.85v-6.85Zm6.85,6.85h6.85v20.45h-6.85v-20.45Zm6.85-6.85h6.85v6.85h-6.85v-6.85Zm6.85-6.85h6.85v6.85h-6.85v-6.85Z"/>
      <path class="cls-1" d="m646.24,300.27h34.24v6.85h-13.7v27.3h-6.85v-27.3h-13.7v-6.85Z"/>
      <path class="cls-1" d="m686.27,300.27h27.39v6.85h-20.55v6.85h20.55v6.85h-20.55v13.61h-6.85v-34.15Zm27.39,6.85h6.85v6.85h-6.85v-6.85Zm0,13.7h6.85v13.61h-6.85v-13.61Z"/>
      <path class="cls-1" d="m726.29,307.12h6.85v20.55h-6.85v-20.55Zm6.85-6.85h20.55v6.85h-20.55v-6.85Zm0,27.39h20.55v6.76h-20.55v-6.76Zm20.55-20.55h6.85v20.55h-6.85v-20.55Z"/>
      <path class="cls-1" d="m766.32,300.27h6.85v27.39h-6.85v-27.39Zm6.85,27.39h20.55v6.76h-20.55v-6.76Zm20.55-27.39h6.85v27.39h-6.85v-27.39Z"/>
      <path class="cls-1" d="m806.35,300.27h27.39v6.85h-20.55v6.85h20.55v6.85h-20.55v6.85h20.55v6.76h-27.39v-34.15Zm27.39,6.85h6.85v6.85h-6.85v-6.85Zm0,13.7h6.85v6.85h-6.85v-6.85Z"/>
      <path class="cls-1" d="m846.37,300.27h6.85v27.39h27.39v6.76h-34.24v-34.15Z"/>
      <path class="cls-1" d="m886.4,300.27h34.24v6.85h-27.39v6.85h20.55v6.85h-20.55v6.85h27.39v6.76h-34.24v-34.15Z"/>
      <path class="cls-1" d="m926.42,327.67h6.85v6.76h-6.85v-6.76Z"/>
    </g>
    <g>
      <path class="cls-1" d="m306.13,564.13h34.24v6.85h-27.39v6.85h20.55v6.85h-20.55v6.85h27.39v6.76h-34.24v-34.15Z"/>
      <path class="cls-1" d="m346.16,570.98h6.85v6.85h20.55v-6.85h6.85v27.3h-6.85v-13.61h-20.55v13.61h-6.85v-27.3Zm6.85-6.85h20.55v6.85h-20.55v-6.85Z"/>
      <path class="cls-1" d="m386.18,570.98h6.85v20.55h-6.85v-20.55Zm6.85-6.85h20.55v6.85h-20.55v-6.85Zm0,27.39h20.55v6.76h-20.55v-6.76Zm20.55-20.55h6.85v6.85h-6.85v-6.85Zm0,13.7h6.85v6.85h-6.85v-6.85Z"/>
      <path class="cls-1" d="m426.21,564.13h6.85v13.7h20.55v-13.7h6.85v34.15h-6.85v-13.61h-20.55v13.61h-6.85v-34.15Z"/>
      <path class="cls-1" d="m482.43,564.13h27.39v6.85h-20.55v6.85h20.55v6.85h-20.55v6.85h20.55v6.76h-27.39v-34.15Zm27.39,6.85h6.85v6.85h-6.85v-6.85Zm0,13.7h6.85v6.85h-6.85v-6.85Z"/>
      <path class="cls-1" d="m522.46,570.98h6.85v6.85h20.55v-6.85h6.85v27.3h-6.85v-13.61h-20.55v13.61h-6.85v-27.3Zm6.85-6.85h20.55v6.85h-20.55v-6.85Z"/>
      <path class="cls-1" d="m562.48,564.13h34.24v6.85h-13.7v27.3h-6.85v-27.3h-13.7v-6.85Z"/>
      <path class="cls-1" d="m602.51,570.98h6.85v20.55h-6.85v-20.55Zm6.85-6.85h20.55v6.85h-20.55v-6.85Zm0,27.39h20.55v6.76h-20.55v-6.76Zm20.55-20.55h6.85v6.85h-6.85v-6.85Zm0,13.7h6.85v6.85h-6.85v-6.85Z"/>
      <path class="cls-1" d="m642.53,564.13h6.85v13.7h20.55v-13.7h6.85v34.15h-6.85v-13.61h-20.55v13.61h-6.85v-34.15Z"/>
      <path class="cls-1" d="m698.75,570.98h6.85v20.55h-6.85v-20.55Zm6.85-6.85h20.55v6.85h-20.55v-6.85Zm0,27.39h20.55v6.76h-20.55v-6.76Zm20.55-20.55h6.85v20.55h-6.85v-20.55Z"/>
      <path class="cls-1" d="m738.78,564.13h34.24v6.85h-27.39v6.85h20.55v6.85h-20.55v13.61h-6.85v-34.15Z"/>
      <path class="cls-1" d="m65.98,627.84h6.85v6.85h-6.85v-6.85Zm0,20.55h27.39v6.76h-27.39v-6.76Zm6.85-27.39h27.39v6.85h-27.39v-6.85Zm0,13.7h20.55v6.85h-20.55v-6.85Zm20.55,6.85h6.85v6.85h-6.85v-6.85Z"/>
      <path class="cls-1" d="m106.01,620.99h27.39v6.85h-20.55v6.85h20.55v6.85h-20.55v13.61h-6.85v-34.15Zm27.39,6.85h6.85v6.85h-6.85v-6.85Z"/>
      <path class="cls-1" d="m146.03,620.99h34.24v6.85h-27.39v6.85h20.55v6.85h-20.55v6.85h27.39v6.76h-34.24v-34.15Z"/>
      <path class="cls-1" d="m186.06,627.84h6.85v20.55h-6.85v-20.55Zm6.85-6.85h20.55v6.85h-20.55v-6.85Zm0,27.39h20.55v6.76h-20.55v-6.76Zm20.55-20.55h6.85v6.85h-6.85v-6.85Zm0,13.7h6.85v6.85h-6.85v-6.85Z"/>
      <path class="cls-1" d="m226.08,620.99h34.24v6.85h-13.7v20.55h13.7v6.76h-34.24v-6.76h13.7v-20.55h-13.7v-6.85Z"/>
      <path class="cls-1" d="m266.11,620.99h6.85v6.85h6.85v6.85h-6.85v20.45h-6.85v-34.15Zm13.7,13.7h6.85v6.85h-6.85v-6.85Zm13.7-13.7h6.85v34.15h-6.85v-20.45h-6.85v-6.85h6.85v-6.85Z"/>
      <path class="cls-1" d="m306.14,620.99h34.24v6.85h-27.39v6.85h20.55v6.85h-20.55v6.85h27.39v6.76h-34.24v-34.15Z"/>
      <path class="cls-1" d="m346.16,620.99h6.85v6.85h6.85v6.85h-6.85v20.45h-6.85v-34.15Zm13.7,13.7h6.85v6.85h-6.85v-6.85Zm13.7-13.7h6.85v34.15h-6.85v-6.76h-6.85v-6.85h6.85v-20.54Z"/>
      <path class="cls-1" d="m386.19,627.84h6.85v6.85h-6.85v-6.85Zm0,20.55h27.39v6.76h-27.39v-6.76Zm6.85-27.39h27.39v6.85h-27.39v-6.85Zm0,13.7h20.55v6.85h-20.55v-6.85Zm20.55,6.85h6.85v6.85h-6.85v-6.85Z"/>
      <path class="cls-1" d="m442.41,620.99h34.24v6.85h-13.7v20.55h13.7v6.76h-34.24v-6.76h13.7v-20.55h-13.7v-6.85Z"/>
      <path class="cls-1" d="m482.43,627.84h6.85v6.85h-6.85v-6.85Zm0,20.55h27.39v6.76h-27.39v-6.76Zm6.85-27.39h27.39v6.85h-27.39v-6.85Zm0,13.7h20.55v6.85h-20.55v-6.85Zm20.55,6.85h6.85v6.85h-6.85v-6.85Z"/>
      <path class="cls-1" d="m538.65,620.99h6.85v27.39h-6.85v-27.39Zm6.85,27.39h20.55v6.76h-20.55v-6.76Zm20.55-27.39h6.85v27.39h-6.85v-27.39Z"/>
      <path class="cls-1" d="m578.68,620.99h6.85v6.85h6.85v6.85h-6.85v20.45h-6.85v-34.15Zm13.7,13.7h6.85v6.85h-6.85v-6.85Zm13.7-13.7h6.85v34.15h-6.85v-6.76h-6.85v-6.85h6.85v-20.54Z"/>
      <path class="cls-1" d="m618.71,620.99h34.24v6.85h-13.7v20.55h13.7v6.76h-34.24v-6.76h13.7v-20.55h-13.7v-6.85Z"/>
      <path class="cls-1" d="m658.73,627.84h6.85v20.55h-6.85v-20.55Zm6.85-6.85h20.55v6.85h-20.55v-6.85Zm0,27.39h13.7v6.76h-13.7v-6.76Zm13.7-6.85h6.85v6.85h-6.85v-6.85Zm6.85-13.7h6.85v13.7h-6.85v-13.7Zm0,20.55h6.85v6.76h-6.85v-6.76Z"/>
      <path class="cls-1" d="m698.76,620.99h6.85v27.39h-6.85v-27.39Zm6.85,27.39h20.55v6.76h-20.55v-6.76Zm20.55-27.39h6.85v27.39h-6.85v-27.39Z"/>
      <path class="cls-1" d="m738.78,620.99h34.24v6.85h-27.39v6.85h20.55v6.85h-20.55v6.85h27.39v6.76h-34.24v-34.15Z"/>
      <path class="cls-1" d="m169.86,684.7h6.85v6.85h20.55v-6.85h6.85v27.3h-6.85v-13.6h-20.55v13.6h-6.85v-27.3Zm6.85-6.85h20.55v6.85h-20.55v-6.85Z"/>
      <path class="cls-1" d="m209.89,677.85h6.85v6.85h6.85v6.85h-6.85v20.45h-6.85v-34.15Zm13.7,13.7h6.85v6.85h-6.85v-6.85Zm13.7-13.7h6.85v34.15h-6.85v-6.76h-6.85v-6.85h6.85v-20.55Z"/>
      <path class="cls-1" d="m249.91,677.85h27.39v6.85h-20.55v20.54h20.55v6.76h-27.39v-34.15Zm27.39,6.85h6.85v20.54h-6.85v-20.54Z"/>
      <path class="cls-1" d="m306.13,677.85h6.85v20.55h6.85v6.85h-6.85v6.76h-6.85v-34.15Zm13.7,13.7h6.85v6.85h-6.85v-6.85Zm13.7-13.7h6.85v34.15h-6.85v-6.76h-6.85v-6.85h6.85v-20.55Z"/>
      <path class="cls-1" d="m346.16,677.85h34.24v6.85h-13.7v20.54h13.7v6.76h-34.24v-6.76h13.7v-20.54h-13.7v-6.85Z"/>
      <path class="cls-1" d="m386.19,677.85h6.85v27.39h27.39v6.76h-34.24v-34.15Z"/>
      <path class="cls-1" d="m426.21,677.85h6.85v27.39h27.39v6.76h-34.24v-34.15Z"/>
      <path class="cls-1" d="m482.43,677.85h6.85v6.85h6.85v6.85h-6.85v20.45h-6.85v-34.15Zm13.7,13.7h6.85v6.85h-6.85v-6.85Zm13.7-13.7h6.85v34.15h-6.85v-6.76h-6.85v-6.85h6.85v-20.55Z"/>
      <path class="cls-1" d="m522.46,677.85h34.24v6.85h-27.39v6.85h20.55v6.85h-20.55v6.85h27.39v6.76h-34.24v-34.15Z"/>
      <path class="cls-1" d="m562.48,677.85h6.85v20.55h-6.85v-20.55Zm6.85,20.55h6.85v6.85h-6.85v-6.85Zm6.85,6.85h6.85v6.76h-6.85v-6.76Zm6.85-6.85h6.85v6.85h-6.85v-6.85Zm6.85-20.55h6.85v20.55h-6.85v-20.55Z"/>
      <path class="cls-1" d="m602.51,677.85h34.24v6.85h-27.39v6.85h20.55v6.85h-20.55v6.85h27.39v6.76h-34.24v-34.15Z"/>
      <path class="cls-1" d="m642.53,677.85h27.39v6.85h-20.55v6.85h20.55v6.85h-20.55v13.6h-6.85v-34.15Zm27.39,6.85h6.85v6.85h-6.85v-6.85Zm0,13.7h6.85v13.6h-6.85v-13.6Z"/>
      <path class="cls-1" d="m698.76,677.85h27.39v6.85h-20.55v6.85h20.55v6.85h-20.55v6.85h20.55v6.76h-27.39v-34.15Zm27.39,6.85h6.85v6.85h-6.85v-6.85Zm0,13.7h6.85v6.85h-6.85v-6.85Z"/>
      <path class="cls-1" d="m738.78,677.85h34.24v6.85h-27.39v6.85h20.55v6.85h-20.55v6.85h27.39v6.76h-34.24v-34.15Z"/>
      <path class="cls-1" d="m365.92,734.71h27.39v6.85h-20.55v6.85h20.55v6.85h-20.55v13.6h-6.85v-34.15Zm27.39,6.85h6.85v6.85h-6.85v-6.85Zm0,13.7h6.85v13.6h-6.85v-13.6Z"/>
      <path class="cls-1" d="m405.94,734.71h34.24v6.85h-27.39v6.85h20.55v6.85h-20.55v6.85h27.39v6.76h-34.24v-34.15Z"/>
      <path class="cls-1" d="m445.97,741.56h6.85v20.54h-6.85v-20.54Zm6.85-6.85h20.55v6.85h-20.55v-6.85Zm0,27.39h20.55v6.76h-20.55v-6.76Zm20.55-20.54h6.85v6.85h-6.85v-6.85Zm0,13.7h6.85v6.85h-6.85v-6.85Z"/>
      <path class="cls-1" d="m485.99,734.71h6.85v27.39h-6.85v-27.39Zm6.85,27.39h20.55v6.76h-20.55v-6.76Zm20.55-27.39h6.85v27.39h-6.85v-27.39Z"/>
      <path class="cls-1" d="m526.02,734.71h6.85v27.39h27.39v6.76h-34.24v-34.15Z"/>
      <path class="cls-1" d="m566.05,734.71h34.24v6.85h-13.7v27.3h-6.85v-27.3h-13.7v-6.85Z"/>
      <path class="cls-1" d="m606.07,734.71h6.85v27.39h-6.85v-27.39Zm6.85,27.39h20.55v6.76h-20.55v-6.76Zm20.55-27.39h6.85v27.39h-6.85v-27.39Z"/>
      <path class="cls-1" d="m646.1,734.71h27.39v6.85h-20.55v6.85h20.55v6.85h-20.55v13.6h-6.85v-34.15Zm27.39,6.85h6.85v6.85h-6.85v-6.85Zm0,13.7h6.85v13.6h-6.85v-13.6Z"/>
      <path class="cls-1" d="m686.12,734.71h34.24v6.85h-27.39v6.85h20.55v6.85h-20.55v6.85h27.39v6.76h-34.24v-34.15Z"/>
      <path class="cls-1" d="m726.15,734.71h27.39v6.85h-20.55v20.54h20.55v6.76h-27.39v-34.15Zm27.39,6.85h6.85v20.54h-6.85v-20.54Z"/>
      <path class="cls-1" d="m766.17,762.1h6.85v6.76h-6.85v-6.76Z"/>
    </g>
    <g>
      <path class="cls-1" d="m115.54,983.41h6.85v20.55h-6.85v-20.55Zm6.85-6.85h20.55v6.85h-20.55v-6.85Zm0,27.39h20.55v6.76h-20.55v-6.76Zm20.55-20.55h6.85v20.55h-6.85v-20.55Z"/>
      <path class="cls-1" d="m155.57,976.57h6.85v27.39h-6.85v-27.39Zm6.85,27.39h20.55v6.76h-20.55v-6.76Zm20.55-27.39h6.85v27.39h-6.85v-27.39Z"/>
      <path class="cls-1" d="m195.59,976.57h27.39v6.85h-20.55v6.85h20.55v6.85h-20.55v13.6h-6.85v-34.15Zm27.39,6.85h6.85v6.85h-6.85v-6.85Zm0,13.7h6.85v13.6h-6.85v-13.6Z"/>
      <path class="cls-1" d="m251.81,976.57h27.39v6.85h-20.55v6.85h20.55v6.85h-20.55v13.6h-6.85v-34.15Zm27.39,6.85h6.85v6.85h-6.85v-6.85Z"/>
      <path class="cls-1" d="m291.84,976.57h27.39v6.85h-20.55v6.85h20.55v6.85h-20.55v13.6h-6.85v-34.15Zm27.39,6.85h6.85v6.85h-6.85v-6.85Zm0,13.7h6.85v13.6h-6.85v-13.6Z"/>
      <path class="cls-1" d="m331.86,983.41h6.85v20.55h-6.85v-20.55Zm6.85-6.85h20.55v6.85h-20.55v-6.85Zm0,27.39h20.55v6.76h-20.55v-6.76Zm20.55-20.55h6.85v20.55h-6.85v-20.55Z"/>
      <path class="cls-1" d="m371.89,990.26h6.85v13.7h-6.85v-13.7Zm6.85,13.7h20.55v6.76h-20.55v-6.76Zm13.7-27.39h13.7v27.39h-6.85v-20.55h-6.85v-6.85Z"/>
      <path class="cls-1" d="m411.92,976.57h34.24v6.85h-27.39v6.85h20.55v6.85h-20.55v6.85h27.39v6.76h-34.24v-34.15Z"/>
      <path class="cls-1" d="m451.94,983.41h6.85v20.55h-6.85v-20.55Zm6.85-6.85h20.55v6.85h-20.55v-6.85Zm0,27.39h20.55v6.76h-20.55v-6.76Zm20.55-20.55h6.85v6.85h-6.85v-6.85Zm0,13.7h6.85v6.85h-6.85v-6.85Z"/>
      <path class="cls-1" d="m491.97,976.57h34.24v6.85h-13.7v27.3h-6.85v-27.3h-13.7v-6.85Z"/>
      <path class="cls-1" d="m548.19,983.41h6.85v20.55h-6.85v-20.55Zm6.85-6.85h27.39v6.85h-27.39v-6.85Zm0,27.39h20.55v6.76h-20.55v-6.76Zm6.85-13.7h20.54v13.7h-6.85v-6.85h-13.7v-6.85Z"/>
      <path class="cls-1" d="m588.21,983.41h6.85v20.55h-6.85v-20.55Zm6.85-6.85h20.55v6.85h-20.55v-6.85Zm0,27.39h20.55v6.76h-20.55v-6.76Zm20.55-20.55h6.85v20.55h-6.85v-20.55Z"/>
      <path class="cls-1" d="m628.24,976.57h34.24v6.85h-27.39v6.85h20.55v6.85h-20.55v6.85h27.39v6.76h-34.24v-34.15Z"/>
      <path class="cls-1" d="m668.26,983.41h6.85v6.85h-6.85v-6.85Zm0,20.55h27.39v6.76h-27.39v-6.76Zm6.85-27.39h27.39v6.85h-27.39v-6.85Zm0,13.7h20.55v6.85h-20.55v-6.85Zm20.55,6.85h6.85v6.85h-6.85v-6.85Z"/>
      <path class="cls-1" d="m724.49,976.57h27.39v6.85h-20.55v6.85h20.55v6.85h-20.55v6.85h20.55v6.76h-27.39v-34.15Zm27.39,6.85h6.85v6.85h-6.85v-6.85Zm0,13.7h6.85v6.85h-6.85v-6.85Z"/>
      <path class="cls-1" d="m764.51,976.57h34.24v6.85h-27.39v6.85h20.55v6.85h-20.55v6.85h27.39v6.76h-34.24v-34.15Z"/>
      <path class="cls-1" d="m804.54,976.57h6.85v6.85h-6.85v-6.85Zm6.85,6.85h6.85v6.85h-6.85v-6.85Zm6.85,6.85h6.85v20.45h-6.85v-20.45Zm6.85-6.85h6.85v6.85h-6.85v-6.85Zm6.85-6.85h6.85v6.85h-6.85v-6.85Z"/>
      <path class="cls-1" d="m844.56,983.41h6.85v20.55h-6.85v-20.55Zm6.85-6.85h20.55v6.85h-20.55v-6.85Zm0,27.39h20.55v6.76h-20.55v-6.76Zm20.55-20.55h6.85v20.55h-6.85v-20.55Z"/>
      <path class="cls-1" d="m884.59,976.57h6.85v6.85h6.85v6.85h-6.85v20.45h-6.85v-34.15Zm13.7,13.7h6.85v6.85h-6.85v-6.85Zm13.7-13.7h6.85v34.15h-6.85v-6.76h-6.85v-6.85h6.85v-20.55Z"/>
      <path class="cls-1" d="m924.61,976.57h27.39v6.85h-20.55v20.55h20.55v6.76h-27.39v-34.15Zm27.39,6.85h6.85v20.55h-6.85v-20.55Z"/>
      <path class="cls-1" d="m181.52,1033.42h34.24v6.85h-13.7v27.3h-6.85v-27.3h-13.7v-6.85Z"/>
      <path class="cls-1" d="m221.55,1033.42h6.85v13.7h20.55v-13.7h6.85v34.15h-6.85v-13.61h-20.55v13.61h-6.85v-34.15Z"/>
      <path class="cls-1" d="m261.58,1033.42h34.24v6.85h-27.39v6.85h20.55v6.85h-20.55v6.85h27.39v6.76h-34.24v-34.15Z"/>
      <path class="cls-1" d="m317.8,1040.27h6.85v6.85h-6.85v-6.85Zm0,20.55h27.39v6.76h-27.39v-6.76Zm6.85-27.4h27.39v6.85h-27.39v-6.85Zm0,13.7h20.55v6.85h-20.55v-6.85Zm20.55,6.85h6.85v6.85h-6.85v-6.85Z"/>
      <path class="cls-1" d="m357.82,1040.27h6.85v6.85h20.55v-6.85h6.85v27.3h-6.85v-13.61h-20.55v13.61h-6.85v-27.3Zm6.85-6.85h20.55v6.85h-20.55v-6.85Z"/>
      <path class="cls-1" d="m397.85,1033.42h6.85v27.4h27.39v6.76h-34.24v-34.15Z"/>
      <path class="cls-1" d="m437.87,1033.42h34.24v6.85h-27.39v6.85h20.55v6.85h-20.55v6.85h27.39v6.76h-34.24v-34.15Z"/>
      <path class="cls-1" d="m494.09,1040.27h6.85v20.55h-6.85v-20.55Zm6.85-6.85h20.55v6.85h-20.55v-6.85Zm0,27.4h20.55v6.76h-20.55v-6.76Zm20.55-20.55h6.85v20.55h-6.85v-20.55Z"/>
      <path class="cls-1" d="m534.12,1033.42h34.24v6.85h-27.39v6.85h20.55v6.85h-20.55v13.61h-6.85v-34.15Z"/>
      <path class="cls-1" d="m590.34,1040.27h6.85v6.85h20.55v-6.85h6.85v27.3h-6.85v-13.61h-20.55v13.61h-6.85v-27.3Zm6.85-6.85h20.55v6.85h-20.55v-6.85Z"/>
      <path class="cls-1" d="m630.37,1040.27h6.85v6.85h-6.85v-6.85Zm0,20.55h27.39v6.76h-27.39v-6.76Zm6.85-27.4h27.39v6.85h-27.39v-6.85Zm0,13.7h20.55v6.85h-20.55v-6.85Zm20.55,6.85h6.85v6.85h-6.85v-6.85Z"/>
      <path class="cls-1" d="m670.39,1040.27h6.85v6.85h-6.85v-6.85Zm0,20.55h27.39v6.76h-27.39v-6.76Zm6.85-27.4h27.39v6.85h-27.39v-6.85Zm0,13.7h20.55v6.85h-20.55v-6.85Zm20.55,6.85h6.85v6.85h-6.85v-6.85Z"/>
      <path class="cls-1" d="m710.42,1033.42h34.24v6.85h-27.39v6.85h20.55v6.85h-20.55v6.85h27.39v6.76h-34.24v-34.15Z"/>
      <path class="cls-1" d="m750.44,1033.42h34.24v6.85h-13.7v27.3h-6.85v-27.3h-13.7v-6.85Z"/>
      <path class="cls-1" d="m790.47,1040.27h6.85v6.85h-6.85v-6.85Zm0,20.55h27.39v6.76h-27.39v-6.76Zm6.85-27.4h27.39v6.85h-27.39v-6.85Zm0,13.7h20.55v6.85h-20.55v-6.85Zm20.55,6.85h6.85v6.85h-6.85v-6.85Z"/>
      <path class="cls-1" d="m830.5,1060.82h6.85v6.76h-6.85v-6.76Z"/>
      <path class="cls-1" d="m843.13,1060.82h6.85v6.76h-6.85v-6.76Z"/>
      <path class="cls-1" d="m855.76,1060.82h6.85v6.76h-6.85v-6.76Z"/>
      <path class="cls-1" d="m884.59,1033.42h6.85v20.55h6.85v6.85h-6.85v6.76h-6.85v-34.15Zm13.7,13.7h6.85v6.85h-6.85v-6.85Zm13.7-13.7h6.85v34.15h-6.85v-6.76h-6.85v-6.85h6.85v-20.55Z"/>
      <path class="cls-1" d="m924.61,1033.42h34.24v6.85h-27.39v6.85h20.55v6.85h-20.55v6.85h27.39v6.76h-34.24v-34.15Z"/>
      <path class="cls-1" d="m239.18,1097.13h6.85v20.55h-6.85v-20.55Zm6.85-6.85h20.55v6.85h-20.55v-6.85Zm0,27.4h20.55v6.76h-20.55v-6.76Zm20.55-20.55h6.85v6.85h-6.85v-6.85Zm0,13.7h6.85v6.85h-6.85v-6.85Z"/>
      <path class="cls-1" d="m279.21,1090.28h6.85v27.4h-6.85v-27.4Zm6.85,27.4h20.55v6.76h-20.55v-6.76Zm20.55-27.4h6.85v27.4h-6.85v-27.4Z"/>
      <path class="cls-1" d="m319.23,1090.28h6.85v27.4h27.39v6.76h-34.24v-34.15Z"/>
      <path class="cls-1" d="m359.26,1090.28h34.24v6.85h-13.7v27.3h-6.85v-27.3h-13.7v-6.85Z"/>
      <path class="cls-1" d="m399.28,1090.28h34.24v6.85h-13.7v20.55h13.7v6.76h-34.24v-6.76h13.7v-20.55h-13.7v-6.85Z"/>
      <path class="cls-1" d="m439.31,1090.28h6.85v20.55h-6.85v-20.55Zm6.85,20.55h6.85v6.85h-6.85v-6.85Zm6.85,6.85h6.85v6.76h-6.85v-6.76Zm6.85-6.85h6.85v6.85h-6.85v-6.85Zm6.85-20.55h6.85v20.55h-6.85v-20.55Z"/>
      <path class="cls-1" d="m479.34,1097.13h6.85v6.85h20.55v-6.85h6.85v27.3h-6.85v-13.61h-20.55v13.61h-6.85v-27.3Zm6.85-6.85h20.55v6.85h-20.55v-6.85Z"/>
      <path class="cls-1" d="m519.36,1090.28h34.24v6.85h-13.7v27.3h-6.85v-27.3h-13.7v-6.85Z"/>
      <path class="cls-1" d="m559.39,1090.28h34.24v6.85h-27.39v6.85h20.55v6.85h-20.55v6.85h27.39v6.76h-34.24v-34.15Z"/>
      <path class="cls-1" d="m615.61,1097.13h6.85v6.85h20.55v-6.85h6.85v27.3h-6.85v-13.61h-20.55v13.61h-6.85v-27.3Zm6.85-6.85h20.55v6.85h-20.55v-6.85Z"/>
      <path class="cls-1" d="m671.83,1090.28h27.39v6.85h-20.55v6.85h20.55v6.85h-20.55v13.61h-6.85v-34.15Zm27.39,6.85h6.85v6.85h-6.85v-6.85Z"/>
      <path class="cls-1" d="m711.85,1090.28h6.85v27.4h-6.85v-27.4Zm6.85,27.4h20.55v6.76h-20.55v-6.76Zm20.55-27.4h6.85v27.4h-6.85v-27.4Z"/>
      <path class="cls-1" d="m751.88,1090.28h27.39v6.85h-20.55v6.85h20.55v6.85h-20.55v13.61h-6.85v-34.15Zm27.39,6.85h6.85v6.85h-6.85v-6.85Zm0,13.7h6.85v13.61h-6.85v-13.61Z"/>
      <path class="cls-1" d="m791.91,1090.28h27.39v6.85h-20.55v6.85h20.55v6.85h-20.55v13.61h-6.85v-34.15Zm27.39,6.85h6.85v6.85h-6.85v-6.85Z"/>
      <path class="cls-1" d="m831.93,1097.13h6.85v20.55h-6.85v-20.55Zm6.85-6.85h20.55v6.85h-20.55v-6.85Zm0,27.4h20.55v6.76h-20.55v-6.76Zm20.55-20.55h6.85v20.55h-6.85v-20.55Z"/>
      <path class="cls-1" d="m871.96,1097.13h6.85v6.85h-6.85v-6.85Zm0,20.55h27.39v6.76h-27.39v-6.76Zm6.85-27.4h27.39v6.85h-27.39v-6.85Zm0,13.7h20.55v6.85h-20.55v-6.85Zm20.55,6.85h6.85v6.85h-6.85v-6.85Z"/>
      <path class="cls-1" d="m911.98,1090.28h34.24v6.85h-27.39v6.85h20.55v6.85h-20.55v6.85h27.39v6.76h-34.24v-34.15Z"/>
      <path class="cls-1" d="m952.01,1117.68h6.85v6.76h-6.85v-6.76Z"/>
    </g>
    <g>
      <path class="cls-1" d="m2790.56,567.65h6.85v20.54h6.85v6.85h-6.85v6.76h-6.85v-34.15Zm13.7,13.7h6.85v6.85h-6.85v-6.85Zm13.7-13.7h6.85v34.15h-6.85v-6.76h-6.85v-6.85h6.85v-20.54Z"/>
      <path class="cls-1" d="m2830.58,567.65h34.24v6.85h-27.39v6.85h20.55v6.85h-20.55v6.85h27.39v6.76h-34.24v-34.15Z"/>
      <path class="cls-1" d="m2886.8,567.65h27.39v6.85h-20.55v20.54h20.55v6.76h-27.39v-34.15Zm27.39,6.85h6.85v20.54h-6.85v-20.54Z"/>
      <path class="cls-1" d="m2926.83,574.5h6.85v20.54h-6.85v-20.54Zm6.85-6.85h20.55v6.85h-20.55v-6.85Zm0,27.39h20.55v6.76h-20.55v-6.76Zm20.55-20.54h6.85v20.54h-6.85v-20.54Z"/>
      <path class="cls-1" d="m2983.05,567.65h6.85v6.85h6.85v6.85h-6.85v20.45h-6.85v-34.15Zm13.7,13.7h6.85v6.85h-6.85v-6.85Zm13.7-13.7h6.85v34.15h-6.85v-6.76h-6.85v-6.85h6.85v-20.54Z"/>
      <path class="cls-1" d="m3023.08,574.5h6.85v20.54h-6.85v-20.54Zm6.85-6.85h20.55v6.85h-20.55v-6.85Zm0,27.39h20.55v6.76h-20.55v-6.76Zm20.55-20.54h6.85v20.54h-6.85v-20.54Z"/>
      <path class="cls-1" d="m3063.1,567.65h34.24v6.85h-13.7v27.3h-6.85v-27.3h-13.7v-6.85Z"/>
      <path class="cls-1" d="m3119.32,567.65h27.39v6.85h-20.55v6.85h20.55v6.85h-20.55v13.6h-6.85v-34.15Zm27.39,6.85h6.85v6.85h-6.85v-6.85Zm0,13.7h6.85v13.6h-6.85v-13.6Z"/>
      <path class="cls-1" d="m3159.35,567.65h34.24v6.85h-27.39v6.85h20.55v6.85h-20.55v6.85h27.39v6.76h-34.24v-34.15Z"/>
      <path class="cls-1" d="m3199.37,574.5h6.85v20.54h-6.85v-20.54Zm6.85-6.85h20.55v6.85h-20.55v-6.85Zm0,27.39h20.55v6.76h-20.55v-6.76Zm20.55-20.54h6.85v6.85h-6.85v-6.85Zm0,13.7h6.85v6.85h-6.85v-6.85Z"/>
      <path class="cls-1" d="m3239.4,574.5h6.85v20.54h-6.85v-20.54Zm6.85-6.85h20.55v6.85h-20.55v-6.85Zm0,27.39h20.55v6.76h-20.55v-6.76Zm20.55-20.54h6.85v20.54h-6.85v-20.54Z"/>
      <path class="cls-1" d="m3279.43,567.65h6.85v6.85h6.85v6.85h-6.85v20.45h-6.85v-34.15Zm13.7,13.7h6.85v6.85h-6.85v-6.85Zm13.7-13.7h6.85v34.15h-6.85v-20.45h-6.85v-6.85h6.85v-6.85Z"/>
      <path class="cls-1" d="m3319.45,567.65h6.85v6.85h6.85v6.85h-6.85v20.45h-6.85v-34.15Zm13.7,13.7h6.85v6.85h-6.85v-6.85Zm13.7-13.7h6.85v34.15h-6.85v-20.45h-6.85v-6.85h6.85v-6.85Z"/>
      <path class="cls-1" d="m3359.48,567.65h34.24v6.85h-27.39v6.85h20.55v6.85h-20.55v6.85h27.39v6.76h-34.24v-34.15Z"/>
      <path class="cls-1" d="m3399.5,567.65h6.85v6.85h6.85v6.85h-6.85v20.45h-6.85v-34.15Zm13.7,13.7h6.85v6.85h-6.85v-6.85Zm13.7-13.7h6.85v34.15h-6.85v-6.76h-6.85v-6.85h6.85v-20.54Z"/>
      <path class="cls-1" d="m3439.53,567.65h27.39v6.85h-20.55v20.54h20.55v6.76h-27.39v-34.15Zm27.39,6.85h6.85v20.54h-6.85v-20.54Z"/>
      <path class="cls-1" d="m2790.56,631.35h6.85v20.55h-6.85v-20.55Zm6.85-6.85h20.55v6.85h-20.55v-6.85Zm0,27.39h20.55v6.76h-20.55v-6.76Zm20.55-20.55h6.85v6.85h-6.85v-6.85Zm0,13.7h6.85v6.85h-6.85v-6.85Z"/>
      <path class="cls-1" d="m2830.58,631.35h6.85v20.55h-6.85v-20.55Zm6.85-6.85h20.55v6.85h-20.55v-6.85Zm0,27.39h20.55v6.76h-20.55v-6.76Zm20.55-20.55h6.85v20.55h-6.85v-20.55Z"/>
      <path class="cls-1" d="m2870.61,624.51h6.85v6.85h6.85v6.85h-6.85v20.45h-6.85v-34.15Zm13.7,13.7h6.85v6.85h-6.85v-6.85Zm13.7-13.7h6.85v34.15h-6.85v-6.76h-6.85v-6.85h6.85v-20.54Z"/>
      <path class="cls-1" d="m2910.64,631.35h6.85v6.85h-6.85v-6.85Zm0,20.55h27.39v6.76h-27.39v-6.76Zm6.85-27.39h27.39v6.85h-27.39v-6.85Zm0,13.7h20.55v6.85h-20.55v-6.85Zm20.55,6.85h6.85v6.85h-6.85v-6.85Z"/>
      <path class="cls-1" d="m2950.66,624.51h6.85v27.39h-6.85v-27.39Zm6.85,27.39h20.55v6.76h-20.55v-6.76Zm20.55-27.39h6.85v27.39h-6.85v-27.39Z"/>
      <path class="cls-1" d="m2990.69,624.51h6.85v6.85h6.85v6.85h-6.85v20.45h-6.85v-34.15Zm13.7,13.7h6.85v6.85h-6.85v-6.85Zm13.7-13.7h6.85v34.15h-6.85v-20.45h-6.85v-6.85h6.85v-6.85Z"/>
      <path class="cls-1" d="m3030.71,624.51h27.39v6.85h-20.55v6.85h20.55v6.85h-20.55v13.61h-6.85v-34.15Zm27.39,6.85h6.85v6.85h-6.85v-6.85Z"/>
      <path class="cls-1" d="m3070.74,624.51h34.24v6.85h-13.7v27.3h-6.85v-27.3h-13.7v-6.85Z"/>
      <path class="cls-1" d="m3110.76,624.51h34.24v6.85h-13.7v20.55h13.7v6.76h-34.24v-6.76h13.7v-20.55h-13.7v-6.85Z"/>
      <path class="cls-1" d="m3150.79,631.35h6.85v20.55h-6.85v-20.55Zm6.85-6.85h20.55v6.85h-20.55v-6.85Zm0,27.39h20.55v6.76h-20.55v-6.76Zm20.55-20.55h6.85v20.55h-6.85v-20.55Z"/>
      <path class="cls-1" d="m3190.82,624.51h6.85v6.85h6.85v6.85h-6.85v20.45h-6.85v-34.15Zm13.7,13.7h6.85v6.85h-6.85v-6.85Zm13.7-13.7h6.85v34.15h-6.85v-6.76h-6.85v-6.85h6.85v-20.54Z"/>
      <path class="cls-1" d="m2790.56,681.37h6.85v20.54h6.85v6.85h-6.85v6.76h-6.85v-34.15Zm13.7,13.7h6.85v6.85h-6.85v-6.85Zm13.7-13.7h6.85v34.15h-6.85v-6.76h-6.85v-6.85h6.85v-20.54Z"/>
      <path class="cls-1" d="m2830.58,681.37h34.24v6.85h-13.7v20.55h13.7v6.76h-34.24v-6.76h13.7v-20.55h-13.7v-6.85Z"/>
      <path class="cls-1" d="m2870.61,681.37h34.24v6.85h-13.7v27.3h-6.85v-27.3h-13.7v-6.85Z"/>
      <path class="cls-1" d="m2910.64,681.37h6.85v13.7h20.55v-13.7h6.85v34.15h-6.85v-13.61h-20.55v13.61h-6.85v-34.15Z"/>
      <path class="cls-1" d="m2950.66,688.21h6.85v20.55h-6.85v-20.55Zm6.85-6.85h20.55v6.85h-20.55v-6.85Zm0,27.39h20.55v6.76h-20.55v-6.76Zm20.55-20.55h6.85v20.55h-6.85v-20.55Z"/>
      <path class="cls-1" d="m2990.69,681.37h6.85v27.39h-6.85v-27.39Zm6.85,27.39h20.55v6.76h-20.55v-6.76Zm20.55-27.39h6.85v27.39h-6.85v-27.39Z"/>
      <path class="cls-1" d="m3030.71,681.37h34.24v6.85h-13.7v27.3h-6.85v-27.3h-13.7v-6.85Z"/>
      <path class="cls-1" d="m3086.93,681.37h34.24v6.85h-13.7v27.3h-6.85v-27.3h-13.7v-6.85Z"/>
      <path class="cls-1" d="m3126.96,681.37h6.85v13.7h20.55v-13.7h6.85v34.15h-6.85v-13.61h-20.55v13.61h-6.85v-34.15Z"/>
      <path class="cls-1" d="m3166.98,681.37h34.24v6.85h-27.39v6.85h20.55v6.85h-20.55v6.85h27.39v6.76h-34.24v-34.15Z"/>
      <path class="cls-1" d="m3223.21,688.21h6.85v6.85h20.55v-6.85h6.85v27.3h-6.85v-13.61h-20.55v13.61h-6.85v-27.3Zm6.85-6.85h20.55v6.85h-20.55v-6.85Z"/>
      <path class="cls-1" d="m3263.23,681.37h27.39v6.85h-20.55v20.55h20.55v6.76h-27.39v-34.15Zm27.39,6.85h6.85v20.55h-6.85v-20.55Z"/>
      <path class="cls-1" d="m3303.26,681.37h6.85v20.54h-6.85v-20.54Zm6.85,20.54h6.85v6.85h-6.85v-6.85Zm6.85,6.85h6.85v6.76h-6.85v-6.76Zm6.85-6.85h6.85v6.85h-6.85v-6.85Zm6.85-20.54h6.85v20.54h-6.85v-20.54Z"/>
      <path class="cls-1" d="m3343.28,681.37h34.24v6.85h-13.7v20.55h13.7v6.76h-34.24v-6.76h13.7v-20.55h-13.7v-6.85Z"/>
      <path class="cls-1" d="m3383.31,688.21h6.85v20.55h-6.85v-20.55Zm6.85-6.85h20.55v6.85h-20.55v-6.85Zm0,27.39h20.55v6.76h-20.55v-6.76Zm20.55-20.55h6.85v6.85h-6.85v-6.85Zm0,13.7h6.85v6.85h-6.85v-6.85Z"/>
      <path class="cls-1" d="m3423.33,681.37h34.24v6.85h-27.39v6.85h20.55v6.85h-20.55v6.85h27.39v6.76h-34.24v-34.15Z"/>
      <path class="cls-1" d="m2790.56,745.08h6.85v20.54h-6.85v-20.54Zm6.85-6.85h20.55v6.85h-20.55v-6.85Zm0,27.39h20.55v6.76h-20.55v-6.76Zm20.55-20.54h6.85v20.54h-6.85v-20.54Z"/>
      <path class="cls-1" d="m2830.58,738.22h34.24v6.85h-27.39v6.85h20.55v6.85h-20.55v13.6h-6.85v-34.15Z"/>
      <path class="cls-1" d="m2886.8,745.08h6.85v6.85h20.55v-6.85h6.85v27.3h-6.85v-13.6h-20.55v13.6h-6.85v-27.3Zm6.85-6.85h20.55v6.85h-20.55v-6.85Z"/>
      <path class="cls-1" d="m2943.02,745.08h6.85v6.85h-6.85v-6.85Zm0,20.54h27.39v6.76h-27.39v-6.76Zm6.85-27.39h27.39v6.85h-27.39v-6.85Zm0,13.7h20.55v6.85h-20.55v-6.85Zm20.55,6.85h6.85v6.85h-6.85v-6.85Z"/>
      <path class="cls-1" d="m2983.05,738.22h27.39v6.85h-20.55v6.85h20.55v6.85h-20.55v13.6h-6.85v-34.15Zm27.39,6.85h6.85v6.85h-6.85v-6.85Z"/>
      <path class="cls-1" d="m3023.08,738.22h34.24v6.85h-27.39v6.85h20.55v6.85h-20.55v6.85h27.39v6.76h-34.24v-34.15Z"/>
      <path class="cls-1" d="m3063.1,745.08h6.85v20.54h-6.85v-20.54Zm6.85-6.85h20.55v6.85h-20.55v-6.85Zm0,27.39h20.55v6.76h-20.55v-6.76Zm20.55-20.54h6.85v6.85h-6.85v-6.85Zm0,13.7h6.85v6.85h-6.85v-6.85Z"/>
      <path class="cls-1" d="m3103.13,738.22h34.24v6.85h-13.7v20.54h13.7v6.76h-34.24v-6.76h13.7v-20.54h-13.7v-6.85Z"/>
      <path class="cls-1" d="m3143.15,745.08h6.85v6.85h20.55v-6.85h6.85v27.3h-6.85v-13.6h-20.55v13.6h-6.85v-27.3Zm6.85-6.85h20.55v6.85h-20.55v-6.85Z"/>
      <path class="cls-1" d="m3183.18,738.22h6.85v27.39h27.39v6.76h-34.24v-34.15Z"/>
      <path class="cls-1" d="m3223.21,738.22h34.24v6.85h-13.7v20.54h13.7v6.76h-34.24v-6.76h13.7v-20.54h-13.7v-6.85Z"/>
      <path class="cls-1" d="m3263.23,745.08h6.85v6.85h-6.85v-6.85Zm0,20.54h27.39v6.76h-27.39v-6.76Zm6.85-27.39h27.39v6.85h-27.39v-6.85Zm0,13.7h20.55v6.85h-20.55v-6.85Zm20.55,6.85h6.85v6.85h-6.85v-6.85Z"/>
      <path class="cls-1" d="m3303.26,738.22h34.24v6.85h-13.7v27.3h-6.85v-27.3h-13.7v-6.85Z"/>
      <path class="cls-1" d="m3343.28,765.62h6.85v6.76h-6.85v-6.76Z"/>
    </g>
    <g>
      <path class="cls-1" d="m2584.02,976.57h6.85v27.39h27.39v6.76h-34.24v-34.15Z"/>
      <path class="cls-1" d="m2624.05,983.41h6.85v6.85h20.55v-6.85h6.85v27.3h-6.85v-13.6h-20.55v13.6h-6.85v-27.3Zm6.85-6.85h20.55v6.85h-20.55v-6.85Z"/>
      <path class="cls-1" d="m2664.08,976.57h27.39v6.85h-20.55v6.85h20.55v6.85h-20.55v6.85h20.55v6.76h-27.39v-34.15Zm27.39,6.85h6.85v6.85h-6.85v-6.85Zm0,13.7h6.85v6.85h-6.85v-6.85Z"/>
      <path class="cls-1" d="m2704.1,976.57h34.24v6.85h-27.39v6.85h20.55v6.85h-20.55v6.85h27.39v6.76h-34.24v-34.15Z"/>
      <path class="cls-1" d="m2744.13,976.57h6.85v27.39h27.39v6.76h-34.24v-34.15Z"/>
      <path class="cls-1" d="m2800.35,983.41h6.85v20.55h-6.85v-20.55Zm6.85-6.85h20.55v6.85h-20.55v-6.85Zm0,27.39h20.55v6.76h-20.55v-6.76Zm20.55-20.55h6.85v6.85h-6.85v-6.85Zm0,13.7h6.85v6.85h-6.85v-6.85Z"/>
      <path class="cls-1" d="m2840.37,983.41h6.85v20.55h-6.85v-20.55Zm6.85-6.85h20.55v6.85h-20.55v-6.85Zm0,27.39h20.55v6.76h-20.55v-6.76Zm20.55-20.55h6.85v20.55h-6.85v-20.55Z"/>
      <path class="cls-1" d="m2880.4,976.57h6.85v6.85h6.85v6.85h-6.85v20.45h-6.85v-34.15Zm13.7,13.7h6.85v6.85h-6.85v-6.85Zm13.7-13.7h6.85v34.15h-6.85v-6.76h-6.85v-6.85h6.85v-20.55Z"/>
      <path class="cls-1" d="m2920.43,976.57h34.24v6.85h-13.7v27.3h-6.85v-27.3h-13.7v-6.85Z"/>
      <path class="cls-1" d="m2960.45,983.41h6.85v6.85h20.55v-6.85h6.85v27.3h-6.85v-13.6h-20.55v13.6h-6.85v-27.3Zm6.85-6.85h20.55v6.85h-20.55v-6.85Z"/>
      <path class="cls-1" d="m3000.48,976.57h34.24v6.85h-13.7v20.55h13.7v6.76h-34.24v-6.76h13.7v-20.55h-13.7v-6.85Z"/>
      <path class="cls-1" d="m3040.5,976.57h6.85v6.85h6.85v6.85h-6.85v20.45h-6.85v-34.15Zm13.7,13.7h6.85v6.85h-6.85v-6.85Zm13.7-13.7h6.85v34.15h-6.85v-6.76h-6.85v-6.85h6.85v-20.55Z"/>
      <path class="cls-1" d="m3080.53,976.57h34.24v6.85h-13.7v20.55h13.7v6.76h-34.24v-6.76h13.7v-20.55h-13.7v-6.85Z"/>
      <path class="cls-1" d="m3120.55,976.57h6.85v6.85h6.85v6.85h-6.85v20.45h-6.85v-34.15Zm13.7,13.7h6.85v6.85h-6.85v-6.85Zm13.7-13.7h6.85v34.15h-6.85v-6.76h-6.85v-6.85h6.85v-20.55Z"/>
      <path class="cls-1" d="m3160.58,983.41h6.85v20.55h-6.85v-20.55Zm6.85-6.85h27.39v6.85h-27.39v-6.85Zm0,27.39h20.55v6.76h-20.55v-6.76Zm6.85-13.7h20.55v13.7h-6.85v-6.85h-13.7v-6.85Z"/>
      <path class="cls-1" d="m2584.02,1040.27h6.85v6.85h-6.85v-6.85Zm0,20.55h27.39v6.76h-27.39v-6.76Zm6.85-27.4h27.39v6.85h-27.39v-6.85Zm0,13.7h20.55v6.85h-20.55v-6.85Zm20.55,6.85h6.85v6.85h-6.85v-6.85Z"/>
      <path class="cls-1" d="m2624.05,1033.42h34.24v6.85h-13.7v27.3h-6.85v-27.3h-13.7v-6.85Z"/>
      <path class="cls-1" d="m2664.08,1033.42h27.39v6.85h-20.55v6.85h20.55v6.85h-20.55v13.61h-6.85v-34.15Zm27.39,6.85h6.85v6.85h-6.85v-6.85Zm0,13.7h6.85v13.61h-6.85v-13.61Z"/>
      <path class="cls-1" d="m2704.1,1040.27h6.85v6.85h20.55v-6.85h6.85v27.3h-6.85v-13.61h-20.55v13.61h-6.85v-27.3Zm6.85-6.85h20.55v6.85h-20.55v-6.85Z"/>
      <path class="cls-1" d="m2744.13,1033.42h6.85v6.85h6.85v6.85h-6.85v20.45h-6.85v-34.15Zm13.7,13.7h6.85v6.85h-6.85v-6.85Zm13.7-13.7h6.85v34.15h-6.85v-6.76h-6.85v-6.85h6.85v-20.55Z"/>
      <path class="cls-1" d="m2784.15,1040.27h6.85v20.55h-6.85v-20.55Zm6.85-6.85h27.39v6.85h-27.39v-6.85Zm0,27.4h20.55v6.76h-20.55v-6.76Zm6.85-13.7h20.55v13.7h-6.85v-6.85h-13.7v-6.85Z"/>
      <path class="cls-1" d="m2824.18,1033.42h34.24v6.85h-27.39v6.85h20.55v6.85h-20.55v6.85h27.39v6.76h-34.24v-34.15Z"/>
      <path class="cls-1" d="m2864.2,1033.42h27.39v6.85h-20.55v6.85h20.55v6.85h-20.55v13.61h-6.85v-34.15Zm27.39,6.85h6.85v6.85h-6.85v-6.85Zm0,13.7h6.85v13.61h-6.85v-13.61Z"/>
      <path class="cls-1" d="m2920.43,1040.27h6.85v6.85h-6.85v-6.85Zm0,20.55h27.39v6.76h-27.39v-6.76Zm6.85-27.4h27.39v6.85h-27.39v-6.85Zm0,13.7h20.55v6.85h-20.55v-6.85Zm20.55,6.85h6.85v6.85h-6.85v-6.85Z"/>
      <path class="cls-1" d="m2960.45,1033.42h34.24v6.85h-13.7v27.3h-6.85v-27.3h-13.7v-6.85Z"/>
      <path class="cls-1" d="m3000.48,1033.42h27.39v6.85h-20.55v6.85h20.55v6.85h-20.55v13.61h-6.85v-34.15Zm27.39,6.85h6.85v6.85h-6.85v-6.85Zm0,13.7h6.85v13.61h-6.85v-13.61Z"/>
      <path class="cls-1" d="m3040.5,1040.27h6.85v6.85h20.55v-6.85h6.85v27.3h-6.85v-13.61h-20.55v13.61h-6.85v-27.3Zm6.85-6.85h20.55v6.85h-20.55v-6.85Z"/>
      <path class="cls-1" d="m3080.53,1033.42h34.24v6.85h-13.7v20.55h13.7v6.76h-34.24v-6.76h13.7v-20.55h-13.7v-6.85Z"/>
      <path class="cls-1" d="m3120.55,1033.42h6.85v6.85h6.85v6.85h-6.85v20.45h-6.85v-34.15Zm13.7,13.7h6.85v6.85h-6.85v-6.85Zm13.7-13.7h6.85v34.15h-6.85v-6.76h-6.85v-6.85h6.85v-20.55Z"/>
      <path class="cls-1" d="m3160.58,1040.27h6.85v6.85h-6.85v-6.85Zm0,20.55h27.39v6.76h-27.39v-6.76Zm6.85-27.4h27.39v6.85h-27.39v-6.85Zm0,13.7h20.55v6.85h-20.55v-6.85Zm20.55,6.85h6.85v6.85h-6.85v-6.85Z"/>
      <path class="cls-1" d="m2584.02,1090.28h34.24v6.85h-13.7v20.55h13.7v6.76h-34.24v-6.76h13.7v-20.55h-13.7v-6.85Z"/>
      <path class="cls-1" d="m2624.05,1090.28h6.85v6.85h6.85v6.85h-6.85v20.45h-6.85v-34.15Zm13.7,13.7h6.85v6.85h-6.85v-6.85Zm13.7-13.7h6.85v34.15h-6.85v-6.76h-6.85v-6.85h6.85v-20.55Z"/>
      <path class="cls-1" d="m2664.08,1090.28h34.24v6.85h-27.39v6.85h20.55v6.85h-20.55v13.61h-6.85v-34.15Z"/>
      <path class="cls-1" d="m2704.1,1097.13h6.85v20.55h-6.85v-20.55Zm6.85-6.85h20.55v6.85h-20.55v-6.85Zm0,27.4h20.55v6.76h-20.55v-6.76Zm20.55-20.55h6.85v20.55h-6.85v-20.55Z"/>
      <path class="cls-1" d="m2744.13,1090.28h27.39v6.85h-20.55v6.85h20.55v6.85h-20.55v13.61h-6.85v-34.15Zm27.39,6.85h6.85v6.85h-6.85v-6.85Zm0,13.7h6.85v13.61h-6.85v-13.61Z"/>
      <path class="cls-1" d="m2784.15,1090.28h6.85v6.85h6.85v6.85h-6.85v20.45h-6.85v-34.15Zm13.7,13.7h6.85v6.85h-6.85v-6.85Zm13.7-13.7h6.85v34.15h-6.85v-20.45h-6.85v-6.85h6.85v-6.85Z"/>
      <path class="cls-1" d="m2824.18,1097.13h6.85v6.85h20.55v-6.85h6.85v27.3h-6.85v-13.61h-20.55v13.61h-6.85v-27.3Zm6.85-6.85h20.55v6.85h-20.55v-6.85Z"/>
      <path class="cls-1" d="m2864.2,1090.28h34.24v6.85h-13.7v27.3h-6.85v-27.3h-13.7v-6.85Z"/>
      <path class="cls-1" d="m2904.23,1090.28h34.24v6.85h-13.7v20.55h13.7v6.76h-34.24v-6.76h13.7v-20.55h-13.7v-6.85Z"/>
      <path class="cls-1" d="m2944.26,1097.13h6.85v20.55h-6.85v-20.55Zm6.85-6.85h20.55v6.85h-20.55v-6.85Zm0,27.4h20.55v6.76h-20.55v-6.76Zm20.55-20.55h6.85v20.55h-6.85v-20.55Z"/>
      <path class="cls-1" d="m2984.28,1090.28h6.85v6.85h6.85v6.85h-6.85v20.45h-6.85v-34.15Zm13.7,13.7h6.85v6.85h-6.85v-6.85Zm13.7-13.7h6.85v34.15h-6.85v-6.76h-6.85v-6.85h6.85v-20.55Z"/>
      <path class="cls-1" d="m3024.31,1117.68h6.85v6.76h-6.85v-6.76Z"/>
    </g>
    <g>
      <polygon class="cls-1" points="1663 551.78 1254.02 551.78 1254.02 267.51 1041.85 267.51 1041.85 262.08 1259.46 262.08 1259.46 546.34 1663 546.34 1663 551.78"/>
      <path class="cls-1" d="m1042.57,279.11c-7.9,0-14.31-6.41-14.31-14.31s6.41-14.31,14.31-14.31,14.31,6.41,14.31,14.31-6.41,14.31-14.31,14.31Z"/>
      <circle class="cls-1" cx="1662.49" cy="549.06" r="10.22"/>
    </g>
    <g>
      <polygon class="cls-1" points="1744.73 756.95 1142.96 756.95 1142.96 675.28 859.19 675.28 859.19 669.84 1148.4 669.84 1148.4 751.51 1744.73 751.51 1744.73 756.95"/>
      <path class="cls-1" d="m859.9,686.87c-7.9,0-14.31-6.41-14.31-14.31s6.41-14.31,14.31-14.31,14.31,6.41,14.31,14.31-6.41,14.31-14.31,14.31Z"/>
      <path class="cls-1" d="m1744.21,764.45c5.65,0,10.22-4.58,10.22-10.22s-4.58-10.22-10.22-10.22-10.22,4.58-10.22,10.22,4.58,10.22,10.22,10.22Z"/>
    </g>
    <g>
      <polygon class="cls-1" points="1276.31 1057.53 1068.75 1057.53 1068.75 1052.09 1270.87 1052.09 1270.87 933.46 1663 933.46 1663 938.9 1276.31 938.9 1276.31 1057.53"/>
      <path class="cls-1" d="m1069.47,1069.12c-7.9,0-14.31-6.41-14.31-14.31s6.41-14.31,14.31-14.31,14.31,6.41,14.31,14.31-6.41,14.31-14.31,14.31Z"/>
      <circle class="cls-1" cx="1662.49" cy="936.18" r="10.22"/>
    </g>
    <g>
      <polygon class="cls-1" points="2284.76 381.09 1843.71 381.09 1843.71 375.65 2279.32 375.65 2279.32 262.08 2550.39 262.08 2550.39 267.51 2284.76 267.51 2284.76 381.09"/>
      <path class="cls-1" d="m2549.67,250.48c7.9,0,14.31,6.41,14.31,14.31s-6.41,14.31-14.31,14.31-14.31-6.41-14.31-14.31,6.41-14.31,14.31-14.31Z"/>
      <path class="cls-1" d="m1844.22,368.15c-5.65,0-10.22,4.58-10.22,10.22s4.58,10.22,10.22,10.22,10.22-4.58,10.22-10.22-4.58-10.22-10.22-10.22Z"/>
    </g>
    <g>
      <polygon class="cls-1" points="2494.56 1074.07 2301.65 1074.07 2301.65 839.8 2048.74 839.8 2048.74 834.36 2307.09 834.36 2307.09 1068.63 2494.56 1068.63 2494.56 1074.07"/>
      <circle class="cls-1" cx="2493.84" cy="1071.35" r="14.31"/>
      <path class="cls-1" d="m2049.25,826.86c-5.65,0-10.22,4.58-10.22,10.22s4.58,10.22,10.22,10.22,10.22-4.58,10.22-10.22-4.58-10.22-10.22-10.22Z"/>
    </g>
    <g>
      <rect class="cls-1" x="1843.71" y="648.91" width="877.17" height="5.44"/>
      <path class="cls-1" d="m2720.16,637.31c7.9,0,14.31,6.41,14.31,14.31s-6.41,14.31-14.31,14.31-14.31-6.41-14.31-14.31,6.41-14.31,14.31-14.31Z"/>
      <path class="cls-1" d="m1844.22,641.4c-5.65,0-10.22,4.58-10.22,10.22s4.58,10.22,10.22,10.22,10.22-4.58,10.22-10.22-4.58-10.22-10.22-10.22Z"/>
    </g>
  </g>
</svg>