<?xml version="1.0" encoding="UTF-8"?>
<svg id="Camada_1" data-name="Camada 1" xmlns="http://www.w3.org/2000/svg" viewBox="0 0 1080 1080">
  <defs>
    <style>
      .cls-1 {
        fill: #83dd3c;
      }
    </style>
  </defs>
  <path class="cls-1" d="m844.22,638.63v-94.04s0,0,0,0v-182.92c0-11.77-3.53-22.76-9.6-31.92-.33-.51-.7-1.03-1.07-1.51-10.48-14.89-27.8-24.64-47.36-24.64-20.88,0-29.42-13.46-29.42-46.48,0-9.67,7.87-17.54,17.54-17.54h24.64c24.97,0,45.26-20.3,45.26-45.23s-20.3-45.26-45.26-45.26h-11.69l11.55-16.03c2.83-3.93,3.24-8.86,1.03-13.13-2.46-4.82-7.57-7.79-13.38-7.79h-492.97c-5.81,0-10.92,2.98-13.38,7.76-2.21,4.26-1.8,9.19.99,13.13l11.47,16.07h-11.55c-24.93,0-45.23,20.3-45.23,45.26s20.3,45.23,45.23,45.23h20.77c9.63,0,17.5,7.87,17.5,17.54,0,32.14-3.68,46.48-25.48,46.48-31.99,0-58.02,26.07-58.02,58.06v537.09c0,.16,0,.31,0,.47h0c0,.34.01.68.02,1.02,0,.39,0,.78.02,1.15.04.48.04.96.07,1.43.02.3.07.58.09.88.02.31.03.61.05.92h.05c2.98,35.36,32.64,63.21,68.79,63.21h470.25c35.71,0,65.18-27.21,68.72-62.02.15-1.35.26-2.71.29-4.1l-.07-.1s0,0,0-.01l.07-.07c.04-.85.07-1.69.07-2.54v-188.48h0s0,0,0,0v-71.88s0,0,0-.02Zm-31.78,303.85c-1.03.33-2.1.55-3.24.66-9.63.92-22.1-4.96-34.27-16.36-.02-.02-.04-.03-.05-.05,18.24-6.3,32.23-38.2,32.23-49.33v-47.14h25.56v6.43c-.4.37-.81.74-1.21,1.1-1.91,1.69-4.16,3.35-6.66,4.93l-1.95,1.25,1.65,1.62c2.57,2.54,4.82,5.15,6.69,7.76.51.7.99,1.4,1.47,2.1v29.97c-.37.4-.77.77-1.18,1.1-.7.59-1.47,1.14-2.28,1.69l-5.22,3.38h4.56l-.44,1.03,2.02.74-.15,1.21,1.99.29.37,1.1.33-.11v2.9c0,1.89-.12,3.75-.31,5.59l-1.86-.15.4.55-1.99-.11.22.59-2.39-.66.44.81-2.35-.99.22.74-.15-.11.55,4.05c.66,4.56.81,8.86.48,12.76-.15,1.91-.44,3.71-.85,5.4-3.32,5.79-7.58,10.96-12.62,15.26h-.03Zm-43.53-14.6l.48,1.69c.04.18.07.37.11.7l.04.48h-.37l.55,2.65-.22-.04.33,2.83c.04.18.07.33.07.51v.59l-.33-.04.18,2.5-.04.81h-.07l-.18,2.61h-.15l-.07,2.13-.81,5.04.07.15c0,.26,0,.55-.04.81l-.96.15c-.04-.07-.07-.18-.11-.26-.15-.33-.29-.7-.44-1.18l-.66-1.32-1.25-3.12-.33.18-.92-2.61-.22.04-.07-.18c-.11-.26-.18-.51-.26-.81l-.7-2.24-.33.18-.04-.07c-.04-.18-.11-.48-.15-.7l-.48-2.13-.37.11-.11-.29c-.15-.33-.18-.7-.22-1.18l-.37-1.95-.44.04-.81-2.61-2.17,2.79c-2.46,3.16-5.07,5.7-7.76,7.61l-.59-2.57h.04l-.88-3.2c-.04-.11-.11-.26-.15-.37l.18-.11-1.14-2.35.15-.07-1.32-2.57.33-.18-1.36-2.43h24.12c.07,0,.14-.01.22-.02v.02Zm-22.36,20.92l.22.7c.07.33.18.62.26.99l-.26.11c-.26-.18-.51-.4-.85-.7l-1.4-1.54c.44-.15.92-.29,1.36-.51l.66.96Zm-19.93-6.14c-.18.4-.4.81-.63,1.21-2.79,5.33-6.55,8.6-10.92,9.41-1.14.22-2.32.26-3.57.11l-1.95-.26-.07.88c-.07-.22-.18-.4-.29-.62l-.66-.7-.59-.26c-.29-.11-.55-.22-.88-.33l-.96-.33.07-.07-1.62-.99c-4.3-2.79-8.57-7.72-12.35-14.27l-1.1-1.91-1.69,1.43c-.74.66-1.43,1.25-2.21,1.8l-.59.44-.04.18-.29-.07-.26,1.76-.37-.15-.37,2.02-.59-.18-.18,1.32-2.54,4.93c-.04-.11-.07-.26-.11-.33v-.7l-.85-2.72c-.04-.07-.04-.15-.04-.18l-.48-1.84-.07.04-.22-.74-1.8.33c-1.95.37-3.82.33-5.63-.11-.07,0-.18,0-.26-.04-.52-.11-1.03-.29-1.54-.52-.59-.22-1.14-.48-1.69-.81-5.37-2.98-9.23-9.96-10.74-19.52l-.85-5.18c.04-.07.07-.15.07-.18l.18-.4-.22-5.66-.92.74-.22-1.43-.26,1.88-1.47,1.18c-.99.81-1.84,1.84-2.46,2.9.66-1.4,1.65-2.61,2.79-3.53l-2.02-3.05c-.85.44-1.54,1.03-2.1,1.69v-.04c.18-.22.37-.44.55-.66l1.91-2.46-3.09-.48c-4.45-.7-8.02-2.61-10.22-5.37l-1.62-2.21-.77.29.07-.33-2.24-.04,1.4-1.43.85-.44-.29-1.36c-1.32-5.85.44-13.27,4.96-21.07l.04.15.66-1.32.04-.07.88-1.47-.11-.07-1.43-.88c-.33-.18-.62-.4-.92-.59-4.49-2.98-7.68-6.33-9.19-9.71l.59.04,3.71.15-1.58-1.58c.33-.04.51-.07.51-.07l4.89-.52-1.43-1.03h-.04l-5.26-3.71,1.91-2.02-3.2-.63c2.24-3.97,7.43-7.1,14.67-8.75.33-.07.7-.15,1.07-.22l2.28-.44-.96-2.13c-.55-1.25-1.07-2.46-1.51-3.68-1.21-3.31-1.95-6.55-2.21-9.49l-.07-1.1-1.03-.44c-.33-.15-.59-.26-.85-.44l.55-.62-2.24-1.07c-.07-.04-.22-.11-.33-.22l.4-.55-1.95-.99s-.11-.07-.15-.11l.48-.48-2.1-1.14c-.22-.15-.4-.29-.55-.44l.48-.51-1.76-1.18s-.04,0-.07-.04l.26-.18-1.4-1.51-.18-.18.7-.48-2.02-1.4.44-.29-1.58-1.58-.88-1.62-.37-.26c-.26-.29-.48-.63-.7-.88l1.18.4,1.07.55.37-.15,2.46.77.26.07.07-.15c.07.07.18.11.29.18l1.73.77.15-.29,2.21,1.1.11-.26c.07.04.15.11.22.18l.99.66h.04l1.1.7.18-.55c.04.07.11.11.18.18l1.76,1.32.22-.33c.11.07.22.18.33.29l1.84,1.29.15-.26.11.07,1.07-1.36c.22-.33.48-.59.77-.88.18-.18.37-.33.63-.59.04-.04.11-.07.15-.11,1.77-1.66,4.01-2.68,6.77-3.31l4.89-1.03,1.29-.29-1.69-.63-2.39-.88.48-.48-1.36-1.1.22-.4.22-.44-1.43-.88.07-1.03-1.03-.04.04-.99-2.65-1.47.15-.11-.96-1.1-.4-.44.85-.33.55-.22v-.04l1.36.44-.15-.59,1.32.48.04-.74,1.14.66v-.59l1.32.55-.04-.52,2.1.99-.15-.55,1.18.48v-.18l.77.59.88.62-.07-.51,1.18,1.14.85-4.38c.99-4.38,2.43-8.13,4.19-11.18l.37-.4,1.91-1.4-.77-.48c2.02-2.72,4.34-4.56,6.95-5.52.62-.22,1.25-.4,1.88-.51.81-.15,1.62-.22,2.43-.15,8.09.15,16.73,8.46,23.2,22.36.11.22.22.48.33.7l.44.66.85.44h.04v30.96h45.04l.7,1.43.77-1.43h1.32l-1.03,3.68.07.44c.63,3.35.29,7.17-.96,11.4l-.88,2.87,2.83-.52.18.85,2.06-.77c.11-.04.26-.07.4-.15l-.04.88,2.57-.92c.18-.07.37-.15.66-.18l.18.99,2.17-.96c.11-.07.29-.11.33-.15h.29l.04.7,2.39-.4c.11-.04.22-.04.29-.04l-.04.85,2.28-.44c.15-.04.33-.04.48-.04l.04.85,2.1-.4c.18-.04.33-.04.48-.04l.04.66,2.1-.11,2.1.51.4-.07c.37.04.7.07,1.03.11l.04.26c-.29.18-.59.37-.85.52l-1.95,1.21-2.46.92.29.55c-.15.07-.26.11-.37.11l-1.91.7.15.48c-.18.11-.37.15-.59.22l-2.02.77.18.37c-.15.04-.29.07-.55.11l-2.46.74.29.48c-.15.04-.29.04-.48.04l-2.13.11.15.77-.77.11-2.43.48.15.37c-.15,0-.29.04-.44.04l-2.24.07.18.81-3.49.74,3.13,2.43c7.32,5.74,11.88,12.17,12.8,18.2.11.82.17,1.64.14,2.5-2.63,4.43-5.71,8.77-9.24,13.03-1.03.51-2.12.99-3.29,1.43l-.37.15c-1.73.59-3.6,1.1-5.59,1.47-.51.07-1.07.15-1.65.26l-2.68.4.62,2.06c.59,1.76.99,3.49,1.25,5.15.07.39.11.79.18,1.18-6.28,5.82-13.4,11.4-21.43,16.69l-3.24,2.13h14.82l.33.33c.15.15.26.29.44.55l-.92.48,1.76,1.8c.11.11.22.29.33.48l-.74.4,1.54,1.73c.15.18.29.37.4.59l-.63.4,1.25,1.58c.22.22.33.4.44.59l-.88.29,1.4,1.98c.04.07.07.11.11.18l-.92.11,1.43,2.35c.07.18.15.37.22.55l-.59.29.7,1.36c-1.69.77-3.35,1.29-4.96,1.51l-.33-.44-.4.4c-.11-.11-.18-.26-.29-.4l-1.62-1.73-.22.29s-.07-.11-.11-.18l-1.36-2.1-.48.52c-.11-.18-.22-.4-.33-.63l-1.14-1.76-.37.22c-.07-.18-.18-.4-.29-.66l-1.25-1.99-.33.29c0-.07-.04-.15-.07-.22l-1.95-4.74-1.51,4.93c-.33,1.07-.7,2.06-1.07,3.02-.29.85-.66,1.65-.99,2.39Zm-97.77-5.11c0,.07,0,.11.04.18h-.51l.66,2.68-.37.04.4,1.73h-.11l.33,2.72-.29-.04.18,2.46v.07h-.04l-.15,1.73h-.15l-.07,2.13-.66,3.82-.18-.7-.44-.74-.99-2.68-.26.07-.66-1.87-.15.04s-.04-.11-.07-.22l-.62-2.46-.26.15-.37-1.84-.4.11c-.04-.15-.04-.29-.04-.51l-.22-1.95-.48.04-.7-2.46-2.24,2.76c-2.21,2.76-4.52,4.85-6.84,6.21-2.72,1.62-5.41,2.21-7.94,1.73-6.88-1.25-11.91-10.41-13.13-23.86l-.18-1.91-1.91.26c-1.91.26-3.79.22-5.48-.18-1.54-.26-2.94-.81-4.23-1.58l-.85-.77-1.73-1.54-.48,3.42c-.22,1.43-.96,2.5-2.43,3.46l-.07-.07c.88-.81,1.88-2.24,1.65-4.52l-.29-4.08-.26-.4c-1.69-2.79-2.68-6.4-2.94-10.7l-.18-3.05-2.46,1.51-.44-.77-1.65,1.47c-.07.07-.18.15-.29.22l-.29-.81-2.06,1.77c-.18.15-.37.29-.37.37h-.07l-.55-.88-1.69,1.65c-.07.07-.18.18-.33.26l.92,1.47h-.04l-.66-.7-.22-.77-.22-.74-1.99,1.18-.33.18s-.11.07-.15.07l-.22-.77-2.02,1.18c-.15.07-.26.15-.4.22l-.33-.77-1.8,1.07c-.11.07-.26.15-.37.18l-.26-.59-1.91.85-1.21.11c-.07,0-.4.07-.44.07h-.44l-.37.26c-.33.07-.63.15-.92.18l-.11-.15c.18-.26.4-.48.59-.74l.55-.48.92-1.36,1.84-1.62-.4-.4c.11-.11.18-.15.18-.15l1.65-1.29-.37-.44c.15-.15.29-.26.44-.37l1.73-1.43-.33-.33c.11-.04.22-.11.4-.22l2.02-1.51-.4-.37c.11-.04.22-.07.37-.15l1.91-.85-.37-.62c.22-.11.44-.22.66-.33l2.1-1.29-.26-.29c.11-.04.26-.11.37-.18l2.02-.88-.4-.62,2.98-1.88-3.79-1.21c-11.84-3.79-19.12-10.59-19.45-18.16-.33-6.25,4.01-12.39,12.17-17.25.59-.33,1.18-.62,1.91-1.03l1.91-1.03-1.32-1.73c-2.06-2.65-3.53-5.22-4.41-7.69l-.18-.55-2.1-1.47c-.07-.04-.15-.07-.18-.11l1.65.55-.18-2.72c-.11-1.88.15-3.53.85-5.07.85-1.95,2.24-3.57,4.27-4.89l2.24-1.51-1.4-.96.55-.55-2.32-1.1c-.15-.11-.33-.18-.51-.33l.66-.7-2.21-1.1c-.15-.11-.29-.18-.44-.29l.55-.63-2.02-1.1c-.18-.11-.37-.22-.51-.33l.44-.59-1.76-1.07c-.22-.15-.4-.26-.51-.37l.66-.51-1.95-1.43c-.07-.07-.15-.11-.22-.15l.74-.44-1.99-1.65c-.15-.11-.29-.26-.4-.4l.44-.44-1.32-1.25c-.15-.18-.33-.33-.51-.55l.29-.33-.88-1.1,1.07-.7-2.13-1.29-.51-.59c-.15-.26-.29-.48-.48-.74l.15-.15c.29.07.59.18,1.07.4l2.06,1.03.22-.33,2.06.96.15-.37c.07.04.15.11.22.15l1.91,1.14.22-.52c.11.07.26.15.37.22l2.1,1.14.11-.4s.11.07.15.11l2.02,1.54.26-.62c.15.11.29.22.44.4l1.73,1.25.22-.29c.15.11.29.26.44.4l1.88,1.51.18-.37s.07.04.07.07l3.49,3.86-.29-5.22c-.26-4.6.22-8.6,1.36-11.8.44-1.29.99-2.43,1.65-3.42,1.07-1.69,2.43-3.02,4.01-3.97,1.03-.59,2.06-1.03,3.24-1.29l1.95-.48-.22-.62c.11.11.22.18.37.29l.51.44,1.54.04h1.21l-.04.04,1.88.4c.29.07.55.15.85.22,3.93,1.03,8.2,3.27,12.61,6.55-.4,2.61-.44,5.11-.07,7.43l-6.07,3.24,1.99.55-3.9,2.9,7.57.66-.55,2.54,4.45-1.58c2.32,2.9,5.63,5,9.67,6.14v.04c-.4.52-.88.92-1.65,1.32-1.51.81-2.21,2.61-1.65,4.15.48,1.36,1.69,2.28,3.24,2.32-.15.15-.29.29-.48.44-1.1,1.03-1.4,2.72-.74,4.01.62,1.4,2.21,2.24,3.82,1.88l1.58-.77c.37-.33.74-.63,1.07-.99l.96.96c.59.51,1.32.85,2.17.88,1.73,8.75,5.41,15.44,10.52,19.12.04.33.11.66.18.99.18.92.48,1.8.88,2.68v.04c1.69,4.04,5.15,7.91,10.19,11.29-4.52,7.91-6.4,15.63-5.44,22.02l-6.03,3.24,2.02.52s-.07.07-.07.07l-3.9,2.9,7.61.63-.55,2.54,4.45-1.58c2.32,2.9,5.63,5,9.67,6.14-.4.55-.88.92-1.69,1.36-1.51.81-2.17,2.61-1.62,4.12.48,1.4,1.69,2.32,3.16,2.35-.15.15-.29.33-.44.48-1.1,1.07-1.4,2.68-.7,3.97.62,1.4,2.17,2.17,3.82,1.88l1.54-.81c.37-.29.74-.59,1.1-.96l.92.92c.59.55,1.36.88,2.17.92,1.99,10,6.32,17.14,12.54,20.37-1.1,1.84-2.5,3.31-4.23,4.3-7.54,4.49-19.6-.22-31.44-12.21l-.63-.48-3.35-.52.7,2.68Zm-74.16-6.36l-.81.26.62,1.76-.92.55.88,1.58-.59.88.96.66-.63.96,1.8,3.13-.29.04.4,2.06s.04.15.07.26c-.11,0-.18-.04-.29-.04l-1.54-.22-.04.18-1.07-1.18-.18.7-1.1-1.32-.52.74-.62-1.1-.29.48-1.07-1.43-.22.55-1.47-2.17-.18.63-.81-1.18-.22.33-.88-2.02-.22.52-.55-1.84-3.05,3.38c-8.9,9.34-18.09,13.2-25.33,10.52-5.99-2.21-10.04-8.6-11.69-17.83-.29-1.51-.51-3.09-.62-4.71-.26-2.79-.33-5.81-.15-8.97.04-1.8.18-3.68.4-5.59l-.07-.81-1.73-2.94-1.65,2.28s-.04.07-.07.11l-.33-.52-.07.11-1.58,2.21c-.07.11-.15.18-.37.4l-.22.18-.26-.26-1.25,1.58-.07-.15-1.62,1.65-.26.29-.29.29-.11.07-.18-.26-1.69,1.58-.11.11-.33.22-.04-.04-1.69,1.18-.11-.15-1.51,1.14-.11.11-3.97,2.21-.04.18c-.07.07-.18.11-.26.18l-.26-.26.22-.37,2.35-4.34-.26-.15.48-.77.74-1.21-.11-.11c.07-.11.15-.26.29-.44l1.43-2.02-.33-.11.11-.11,1.4-1.65-.37-.26.04-.04c.11-.22.29-.4.55-.62l1.32-1.43-.29-.33,1.54-2.21-3.57.04c-4.27,0-7.65-.51-10.59-1.58-3.49-1.29-5.99-3.31-7.43-5.96-2.43-4.41-1.65-10.33,1.88-16.77.18-.29.37-.62.55-.92,2.21-3.79,5.37-7.72,9.34-11.66l1.36-1.36-1.4-1.29c-3.16-2.94-5.07-6.43-5.55-9.78,0-.15,0-.29-.04-.4l.11-3.35-2.9,1.73c-1.47.88-3.05,1.03-4.78.4l-.37-.11c-.07-.07-.18-.44.04-.59,1.32.26,3.31.15,5.22-1.69l3.38-3.2.15-.44c1.29-3.6,3.79-7.13,7.46-10.48l2.13-1.98-2.68-1.07s-.07-.04-.15-.07l.33-.88-2.17-.37c-.26-.04-.51-.11-.85-.22l.51-.85-2.68-.44c-.29-.07-.55-.15-.74-.15l-.22-.15.37-.99-2.32-.26c-.15-.04-.37-.07-.51-.15-.15-.04-.26-.07-.33-.15l.48-.7-2.57-.92c-.22-.11-.37-.15-.48-.26l.52-.74-2.21-.81c-.29-.11-.55-.22-.74-.37l.4-.77-1.95-.74c-.37-.11-.63-.29-.77-.37l.33-.66-1.88-.99-.96-.96c-.07-.07-.44-.4-.44-.4l-.37-.33-.4-.15c-.37-.26-.7-.55-1.03-.85l.18-.55c.44,0,.92.04,1.43.04l.74.11.22-.04.15.04,1.95-.18,2.06.44.04-.66c.37.04.55.11.63.15l2.02.4.15-.55c.33,0,.63.07.92.15l2.21.37.04-.48c.11,0,.37.07.85.26l2.46.59v-.63c.07.04.15.07.22.07.18.07.33.15.62.29l1.84.96.26-.77.18.07c.29.11.59.26.88.4l2.35.77.04-.44c.29.11.55.26.81.37l1.95.96.22-.77,3.53,1.21-1.43-3.68c-1.18-2.98-2.06-5.85-2.65-8.6-1.4-6.88-.96-12.94,1.29-17.5.85-1.84,2.02-3.42,3.49-4.71,2.28-2.06,5.19-3.38,8.53-3.9.74,7.5,3.71,13.02,8.71,16.03,8.31,4.89,20.48,1.25,32.5-9.56v.07h.04l-.22,4.52h.18l.22,3.05.22,2.28h.04l.48,4.52.18-.11c.04.15.04.29.04.4-.04-.04-.11-.07-.15-.07l-2.94-1.07-1.21,2.32-1.95,1.76,1.25,1.88c.29.52.63.99,1.14,1.76.04.07.07.11.11.15l.44.81-.44.4,1.69,2.21,1.1,1.77-.04.04,1.62,2.5v.04l1.91,2.65c.07.07.15.18.18.26l-.15.18,1.88,1.76-.11.11,2.1,1.91-.26.29,2.28,1.91-.26.29.66.44c-1.54,1.43-2.72,3.05-3.53,4.89-.62,1.4-.99,2.87-1.1,4.41-.44-.04-.96,0-1.47-.04l-.96.04-.7.4c-1.32.77-1.99,2.32-1.65,3.82l.63,2.32,2.57.26c.7.07,1.32.26,1.76.62l1.21.81c.81,2.1,1.95,4.23,3.46,6.4-.04.04-.11.07-.18.11-9.41,5.59-14.38,12.91-13.97,20.59.4,8.57,7.21,15.88,18.86,20.37l-1.51,1.25c-.15.07-.29.18-.29.22l-2.54,1.76.15.22-.26.26-.99,1.07-.37.48c-.22.18-.4.37-.59.55l-.92,1.07-.44.66c-.15.15-.29.29-.4.44l-.77.88-.37.55c-.07.11-.18.22-.29.33l-2.28,2.32.37.4-.48.7c-.11.07-.18.18-.22.22-.44.48-.85.96-1.25,1.43l-1.47,1.73,1.65,2.06.99,2.43,2.17-.48c.62-.11,1.29-.26,2.02-.48.04,0,.11,0,.15-.04l.92-.15.15.51,2.72-.77v.04l2.28-.51.04.11,2.68-.7.04.07,3.09-.88c.15-.04.26-.07.37-.11l.15.26,2.1-1.07.04.15,3.01-1.51.22.37.52-.33c.51,3.46,1.51,6.51,2.98,9.05l.26,3.27c.07.92-.22,1.29-.55,1.54l-.26.29c-1.29,1.18-1.43,3.13-.4,4.45.99,1.43,3.24,2.28,5,1.21l.33-.18c1.47-.92,2.57-2.1,3.24-3.53.44.18.85.37,1.32.52l-.66.22,1.21,2.06c.18.29.29.59.33.85v.11l-.66.18.88,1.91c.07.15.11.29.15.4l-.4.04.48,2.02c.04.18.07.33.11.51l-.88.07,1.07,2.32c0,.07.04.15.04.26l-.51.04.51,2.13v.62l-.07,1.51.18.4c.07.63.15,1.18.18,1.76v.15l-.66-.81-1.29-1.76-.37-.11-2.21-2.28-.11.07c-.11-.15-.18-.33-.29-.52l-1.1-1.62-.29.22c-.11-.15-.22-.33-.33-.51l-1.21-1.84-.29.22c-.07-.11-.15-.29-.22-.48l-1.18-2.32-.44.4c-.07-.11-.15-.29-.18-.52l-.52-2.17-.77.33c-.07-.22-.15-.48-.26-.74l-.92-2.02-.26.15-.07-.15-1.62.63c-.4.18-.85.29-1.25.4-3.05.85-6.32.7-9.71-.44l-5.92-1.99,2.76,3.42Zm-81.15-9.38l-.85.52,1.18,1.65-.81.85,1.36,1.4-.33,1.03,1.21.4-.44,1.29,3.01,2.94-.4.11.96,1.91s.07.11.29.48c-.15,0-.37.04-.63.07l-1.51.22-.04.37-1.47-.96.04.81-1.65-1.1-.33.99-1.03-.99-.15.52-1.51-1.1-.07.66-2.17-1.84v.66l-1.32-1.07-.15.48-1.47-1.8-.07.74-1.18-1.95-.22.62v-.07l-1.95,3.6c-6.69,12.65-15.41,19.52-23.94,18.83-5.52-.44-10.52-3.93-14.63-9.89-.74-1.07-1.43-2.17-2.1-3.38-3.27-5.92-5.81-13.64-7.32-22.72l-.29-.77-2.46-2.35-.96,2.61c-.07.15-.11.29-.18.44l-.48-.44-.96,2.65c-.07.15-.15.26-.29.59l-.07.11-.33-.26-.92,2.17c-.04.11-.07.18-.15.37l-.18-.18-1.29,2.39c-.07.18-.15.33-.22.44l-.22.26-.26-.26-1.32,2.21-.37.48-.04-.04-1.62,1.91-.11-.07-1.14,1.51-3.46,3.46-.04.18c-.11.15-.26.33-.37.48l-.62-.33v-.11c.11-.33.18-.7.22-.99l1.07-4.67-.29-.04.74-2.54-.18-.07.04-.04c.04-.22.11-.44.22-.7l.85-2.39h-.4c.04-.11.11-.22.18-.37l.88-1.95-.4-.15.07-.26c.04-.26.18-.55.44-.88l.85-1.76-.4-.22.92-2.57-3.42.96c-2.17.62-4.27,1.07-6.21,1.29l.66-1.65,1.65-2.06-1.47-1.69c-.4-.51-.85-.99-1.14-1.32l-.22-.22-.63-.85.4-.4-1.99-2.02.04-.04-1.51-1.73.07-.04-1.73-1.98.04-.04-2.43-2.54-.22-.22.15-.22-1.91-1.32.11-.11-2.5-1.8c11.62-4.49,18.42-11.8,18.86-20.37.4-7.69-4.6-15-14.01-20.59-.07-.04-.11-.07-.18-.11,1.51-2.17,2.68-4.3,3.49-6.4l1.25-.85c.4-.33.99-.52,1.73-.59l2.57-.26.63-2.39c.33-1.43-.37-2.98-1.65-3.71l-.7-.44-1.32-.04c-.37,0-.74,0-1.1.04-.15-1.54-.51-3.02-1.14-4.45-.77-1.8-1.99-3.42-3.53-4.85l.66-.44-.26-.29,2.32-1.91-.29-.29,1.36-1.47c.11-.07.22-.18.29-.26l.99-.92.63-.88c.22-.22.48-.48.66-.74l.88-1.18.26-.51c.18-.22.37-.44.55-.66l.81-1.21.29-.66c.15-.18.29-.37.4-.52l.63-.99.22-.55c.11-.11.18-.22.29-.33l1.91-2.54-.44-.37.4-.81c.11-.11.22-.26.33-.44.37-.52.7-.99.92-1.43l1.14-1.73.15-.22-1.32-1.18-.63-.59-.51-1.03-.66-1.29-.11.04-2.83,1.03c-.4.11-.77.26-1.14.4-.04.04-.11.04-.15.07l-.92.29-.22-.59-1.76.81-2.9,1.14-.04-.15-2.72,1.1-.04-.11-3.05,1.4-.22.11-.18-.22-2.06,1.4-.11-.15-.66.48c-.26-8.93-3.35-15.52-8.9-18.79-.59-.37-1.25-.66-1.91-.92.44-1.4,1.07-2.72,1.84-3.93.22-.33.44-.66.7-.99,2.83-3.86,7.28-6.43,13.09-7.57,2.24-.48,4.67-.7,7.28-.74,1.18-.04,2.39,0,3.68.11.29,0,.63,0,.92.04.81.07,1.62.15,2.76.29l2.13.26-.07-2.17c-.22-4.27.15-8.05,1.03-11.29l.15-.59-.52-1.47-.51-1.43c-.26-.81-.66-1.54-1.25-2.28-.4-.51-.85-.99-1.4-1.43l-.15-.15.18-.29.33.26c.74.51,1.36,1.07,1.88,1.62.15.18.26.37.4.55l1.62,2.24,1.43-2.35c.04-.07.07-.11.15-.18,1.25-1.99,2.76-3.49,4.6-4.63,2.35-1.4,5.04-2.1,8.24-1.99l2.68.07-.66-1.88.85-.15-1.21-2.24c-.22-.4-.4-.85-.55-1.32l1.1-.22-1.14-2.17c-.18-.37-.33-.77-.44-1.25l.92-.18-1.03-2.13c-.18-.4-.37-.85-.44-1.21v-.04l.81-.26-.81-1.88c-.26-.59-.4-1.07-.4-1.36l.99-.11-.77-2.28c-.15-.4-.22-.74-.26-.96l1.03.07-.7-2.54c-.07-.18-.11-.4-.11-.59l1.69-.04-1.03-.7-.33-1.8c-.07-.37-.15-.74-.15-1.14l-.04-.15.55-.07-.11-1.76v-.4l1.18.07-.85-2.24.07-.26-.07-.44c-.04-.11-.04-.26-.04-.26,0-.55,0-1.1.04-1.66l.88-.26.22.29c.22.33.48.66.85,1.32l1.18,2.17.44-.18.29.37c.07.11.11.22.18.33l.96,1.73.44-.29c.18.33.29.63.37.85l.96,2.02.55-.29c.15.26.33.62.48.99l1.1,2.06.37-.29.04.04c.07.11.22.4.29.85l.51,2.57.96-.59c.18.33.33.81.44,1.36l.29,2.13.85-.26c.15.44.22.92.29,1.32l.37,2.43.81-.37c.11.26.15.48.18.74l.59,5.22,2.79-4.49c6.4-10.26,14.08-15.52,21.73-14.97,1.51.11,2.94.48,4.41,1.03l1.88.74.55-1.88c.11-.29.22-.59.66-.96l-.07.22c-.29.88-.29,1.8,0,2.9l.18.66,2.79,2.02,1.07-.77c.26-.15.52-.29,1.03-.33v.04l-1.84,1.43,1.32,1.47c3.42,3.75,6.36,9.16,8.64,15.74l-6.4,4.23,7.8.22c.07.29.18.59.26.92l.55,2.13,2.46-1.18c.88-.44,1.8-.85,2.72-1.18l2.57-.11h.77c-.33,6.69-1.62,12.94-3.71,17.98l-.4.99.7.85c.44.55.77,1.1,1.07,1.65l.04.15-.88.33,1.43,1.91c.11.18.29.44.51.92l.07.22-.77.33,1.4,1.88c.15.22.29.51.44.85l-.77.26,1.32,1.99c.26.4.44.74.51,1.1l.11.44-.7.26.99,1.84c.11.26.22.48.26.7l.04.22-.44.07.59,1.99c.11.37.18.66.26.96l-.96.15.59,1.07c-.81,2.13-1.29,4.45-1.47,6.95-.15,1.76-.15,3.6.04,5.52.29,3.53,1.1,7.24,2.39,11.18l-.04.15-1.47-.37-.99-.11c-.22-.07-.48-.18-.51-.15l-3.16-.88-.07.26c-.22-.04-.4-.07-.63-.07l-1.65-.15-.66.07c-.37-.07-.66-.11-.96-.15l-1.62-.04-.81.07c-.26-.04-.51-.04-.77-.04l-1.36-.07-.7.15c-.18-.04-.37-.07-.55-.07l-3.46-.33-.07.59-1.25.07h-.37c-.66-.04-1.32-.07-2.17-.07l-2.39-.07-.55,2.76-1.4,2.54,1.88,1.43c.55.48,1.14.96,1.88,1.47.04.04.07.04.11.07l.99.88-.33.48,2.65,1.84-.04.04,2.13,1.69-.07.07,2.57,1.91-.07.07,2.87,1.99c.15.11.33.22.51.33l-.11.29,2.54,1.07-.11.18,3.46,1.51-.18.48.85.29c-2.87,3.02-4.96,6.18-6.18,9.45l-2.76,2.65c-.85.81-1.51.81-2.02.74l-.4-.07c-1.84-.26-3.57.92-3.97,2.68-.51,1.8.29,4.23,2.39,5.04l.4.11c1.91.7,3.79.77,5.59.29.81,3.24,2.5,6.29,4.96,8.97-3.6,3.71-6.47,7.39-8.57,10.99-.63,1.07-1.18,2.1-1.69,3.09-3.24,6.88-3.64,13.24-.85,18.35,1.88,3.46,5.04,6.03,9.38,7.65,2.54.92,5.41,1.47,8.6,1.69l-.62,1.14c-.11.11-.18.26-.29.44l-3.2,5.92-.66,1.65c-1.73.4-3.6.55-5.59.44l-6.25-.29,3.68,2.61Zm-104.47,7.02c.04.22.11.44.15.7l-.66-.07.77,2.72c.04.15.04.33.07.7l.04.26h-.4l.55,2.35c0,.11.07.33.07.55h-.26l.37,2.72c.04.18.07.4.07.55l-.04.59-.33-.04.22,2.5-.04.77h-.07l-.15,2.21-.15-.04-.11,2.61h-.04l-.81,5.04.11.15c0,.26-.04.55-.04.81l-.96.15-.11-.26c-.15-.33-.29-.7-.44-1.03l-.15-.59-.48-.81-1.36-3.16-.29.15-.96-2.68-.15.04-.07-.15c-.11-.22-.18-.48-.26-.77l-.7-2.35-.37.18v-.04c-.07-.15-.11-.48-.15-.62l-.44-2.1-.4.11-.15-.37c-.11-.29-.18-.66-.18-1.1l-.33-1.95-.48.04-.77-2.68-2.21,2.83c-3.05,3.86-6.21,6.8-9.41,8.75-1.84,1.1-3.64,1.87-5.4,2.31,3.2-4.38,5.44-10.81,6.36-18.75,3.05.11,5.88-.37,8.49-1.54.7,1.43,1.88,2.68,3.57,3.71,1.8,1.07,4.01.22,4.96-1.14,1.1-1.4.96-3.35-.33-4.52l-.29-.29c-.33-.26-.59-.63-.51-1.54l.26-3.24v-.04c1.47-2.54,2.46-5.59,2.94-9.05l.55.33.22-.37,2.5,1.18c.51.81,1.1,1.54,1.76,2.21,2.98,3.09,7.06,4.85,12.13,5.26,3.01.22,6.32-.04,9.89-.81l-.4,1.65c-.07.18-.15.37-.18.59l-.63,2.87v.11l-1.03,4.26-.18,1.91.15.04-.11.59c-.04.15-.07.29-.15.48l-.88,4.34,2.87.99,2.65,1.73,1.51-1.73c.33-.37.66-.74,1.03-1.21l.33.55,3.49-4.52.04.07,1.84-2.21.04.07,2.43-3.13.29.26,1.43-2.61.07.07,1.4-2.5.29.26.22-.4c1.73,7.83,4.23,14.56,7.43,19.89,0,0,0,0,0,0-.74.66-1.51,1.25-2.35,1.76-10.48,6.36-27.32.15-43.87-16.33l-.74-.44-3.38-.48.77,2.68Zm-32.03,19.27c-1.43,1.32-3.05,2.21-4.74,2.57h0c-.11.04-.26.04-.37.07-2.54.48-5.18-.11-7.94-1.73-2.32-1.36-4.6-3.46-6.84-6.21l-2.21-2.76-.7,2.46-.7-.04-.04,1.95c0,.29,0,.51-.11.74l-.04.07-.51-.07-.18,1.51-.33-.22-.51,2.54c0,.11-.04.15-.04.22l-.26-.04-.55,1.76-.44-.22-.44,2.17-.99,2.17-.62-2.94-.26-3.31h-.04l-.07-1.73h-.07l.11-2.35-1.91.44v-.04l1.73-.66.11-2.24.37-2.17-.26.04.48-2.76-.26.04.44-2.46-3.35.51-.44.44c-9.8,9.95-19.78,14.87-27.2,13.68-2.85-1.53-5.57-3.28-8.11-5.25-2.82-4.27-3.84-10.84-2.82-18.87l.44-3.42.29-.99-1.4.62.15-.33-1.91.55.07-.26-1.1.07.33-.44-2.35.18.22-.4-1.62.04.18-.62-1.07.22.15-.59-1.32-.04.37-.48-1.51-.07-1.03-.96,1.43-.99,3.13-.52.33-1.03.99.11.22-.66,1.65-.29-.15-.96,1.58-.59-.22-.55h4.3l-5.3-3.38c-2.61-1.62-4.49-3.71-5.55-6.21-.15-.29-.33-.66-.44-1.03l-.37-1.21-.15-.44h0s0,0,0,0l-.11.04-.07-.51h0s0,0,0,0l-.74.29h0s-1.39.52-1.39.52c-.11.07-.26.11-.37.15l-.18-.74-2.02.99s-.07,0-.07.04l.07-.74-2.61.77s-.11.04-.15.04v-.44l-2.17.4h-.06c-.04-.93-.09-1.86-.09-2.79v-2.98l.37-.22-.07-.15,2.06-.7-.22-.48c.18-.07.37-.11.59-.15l2.28-.62-.15-.37,2.21-.48-.15-.44c.15-.04.26-.07.33-.07l2.43-.26-.29-.74c.29-.07.55-.11.88-.11h.11l.99-.07.44-.99c.85-1.76,1.95-3.6,3.27-5.44l.04-.04c.26-.37.51-.74.81-1.14.4-.51.85-.99,1.29-1.51.37-.44.77-.88,1.18-1.32.4-.44.81-.88,1.25-1.32l.66-.66.29-.33.66-.66-.1-.06.83.03.48-8.09,1.19-21.14h.02l1.76-.37-.37-1.8c-.48-2.39-.77-4.71-.88-6.88v-.49l.41-7.28.03-.09c.48-2.87,1.43-5.37,2.76-7.43l.77-1.18-1.36-1.51-.18-.96.04.04,2.1.7.04-.29.62.52,2.13-1.43c3.05-1.88,6.84-2.39,11.21-1.54l3.2.66-1.03-2.9c.26.52.59.96.96,1.4l2.94-2.21c-.55-.88-.96-1.91-1.21-2.98.26.81.59,1.62,1.03,2.35l1.03,1.69-.37,1.65.66-1.14.55.99,2.13-5.18v-.59l2.5-4.52c5.52-9.85,12.69-15.08,19.78-14.34,1.84.18,3.64.81,5.59,1.95l1.54.92.44-.7h.07l.81-1.32.11.07.96-1.58.63-.85.29-.22.11-.48c.04-.11.11-.18.15-.29l.04.22-.04.18.59,2.35v.48l-.07,2.39.11-.04-.15.88.51.04-.11,1.84h.22l-.33,2.1.55.59c.44.66.81,1.32,1.21,2.02l1.29,2.32,1.73-1.43c5.59-4.71,11.18-7.76,16.07-8.86l1.62-.44h1.18l1.95-.18.52-.37.22-.22-.18.62.77.18,1.18.29c.88.18,1.69.52,2.46.92.26.11.51.22.74.37,5.07,3.02,7.57,9.82,7.02,19.19l-.22,3.71-.07,1.51.66-.7,2.83-3.16s.04-.07.07-.07l.4.66,1.69-1.8c.15-.15.29-.29.44-.4l.44.59,1.47-1.54c.18-.18.33-.33.44-.4l.4.88,1.88-1.76.15-.15.22.62,1.99-1.36c.15-.07.26-.15.37-.22l.37.74,1.8-1.36c.11-.11.26-.18.48-.29l.22.37,1.69-.81.29.44,2.24-1.25c.26-.11.55-.22.81-.29l.15.15c-.15.22-.29.44-.4.62l-2.65,2.02,1.03.66-1.07,1.32.33.29c-.15.11-.26.26-.4.37l-1.14,1.43.26.26c-.11.18-.26.29-.37.4l-1.76,1.8.48.29c-.07.04-.11.07-.18.15l-1.76,1.58.48.37c-.15.11-.33.22-.51.37l-1.54,1.36.22.29c-.15.11-.33.22-.51.33l-1.8,1.36.33.37c-.15.11-.33.18-.48.29l-2.21,1.1.66.7c-.15.15-.33.22-.51.33l-2.32,1.1.55.55-1.4.96,2.28,1.51c2.02,1.32,3.42,2.94,4.27,4.85.66,1.58.96,3.24.81,5.11l-.15,2.72,1.65-.55c-.07.04-.11.07-.15.11l-2.13,1.47-.22.55c-.88,2.46-2.35,5.04-4.38,7.69l-1.21,1.8,1.91,1.03c.62.33,1.21.62,1.76.96,8.2,4.85,12.54,10.99,12.21,17.25-.37,7.57-7.65,14.38-19.49,18.16l-1.54.48-2.24.74,1.88,1.18,1.14.7-.44.62,2.02.88c.11.07.26.15.4.18l-.48.51,2.32,1.07c.18.07.37.18.66.37l-.33.62,1.91.85c.15.04.29.11.44.18t.04.04l-.59.55,2.28,1.36c.07.04.11.07.15.07l-.48.48,1.88,1.29c.15.11.29.22.44.37l-.51.66,1.8,1.07s.15.07.33.26l-.37.48,1.43,1.18.85,1.18.22.29.18.4.44.26c.18.22.4.44.59.7l-.07.15c-.33-.04-.62-.11-.96-.18l-.77-.26s-.37-.07-.48-.07l-1.43-.18-1.91-.81-.18.59c-.07-.04-.15-.11-.22-.15l-1.91-.81-.22.52c-.11-.07-.26-.15-.4-.22l-2.1-.92-.15.51s-.07-.04-.11-.07l-2.43-1.07-.15.44c-.11-.07-.26-.18-.33-.26l-1.65-1.62-.04-.04-.51.88c-.15-.11-.29-.22-.44-.37l-2.17-1.47-.18.55c-.11-.11-.22-.18-.33-.26l-.63-.55-1.03-.92-.44.77-2.46-1.54-.18,3.09c-.26,4.3-1.25,7.91-2.94,10.7l-.22.4-.33,4.08c-.18,2.13.62,3.49,1.58,4.45l-.11.04c-1.32-.85-2.06-1.91-2.28-3.35l-.48-3.46-2.57,2.35c-2.72,1.66-6.07,2.24-9.74,1.76l-1.87-.26-.18,1.91c-.88,9.85-3.82,17.43-8.05,21.22h0Zm-83.17-22.76c-.3-.57-.6-1.15-.88-1.73l1.39.04-.51,1.69h0Zm10.11-536.95l.29-.07-.37-1.58.44.04-.37-1.95h.74l-.18-.59.55.18-.7-3.02.26-1.25.37-1.54-.11-.29.04-.15c0,.07.04.11.11.18l-.04.26,2.02,2.72v130.2l-1.1-.92-.33,2.57-7.28-2.02,2.68,4.04-2.06-.18,4.49,5.07c-2.21,4.05-3.24,9.23-3.05,15.11-3.97-3.97-6.73-11.44-7.57-20.78l-.18-1.95-1.91.29c-1.1.15-2.17.18-3.31.15h-.07v-128.4c3.86,1.54,7.91,4.08,12.06,7.57l1.8,1.25,1.1-1.95c.4-.77.85-1.51,1.32-2.21l.4-.59-.04-.22Zm59.2,23.02c.51.81.96,1.66,1.32,2.57.18.37.33.77.48,1.18.33.88.59,1.84.77,2.83.99,4.45.88,9.78-.29,15.63l-.04.29-.29,1.47.92.18.85.18c9.01,1.91,14.71,6.07,15.7,11.4,1.03,5.55-3.09,11.62-11.32,16.66l-1.95,1.21,1.62,1.65c3.46,3.53,6.14,7.24,7.83,10.81l.44.99,1.1.07c.33,0,.62.04.92.11l-.26.66,2.28.29c.11.04.22.04.33.07l-.22.62,2.28.33h.07l-.26.62,2.39.37c.29.04.51.11.66.18l.18.11-.11.66,1.47.37-.11.15,1.99.99c.11.04.18.11.26.15l-.29.52,2.06.74-.26.33,1.91.92-.07.15c-.11-.15-.22-.22-.37-.29-.88-.52-1.95-.59-3.02-.22l-1.43.59-.26.85c-.18-.18-.37-.33-.62-.48-1.25-.77-2.9-.59-3.93.37l-1.25,1.03-1.32-.44-.07.44c-.11-.04-.22-.07-.37-.11l-2.13-.51-.04.26-.11-.04-.55,1.62c-.07.29-.22.59-.4,1.07-.07.22-.18.4-.29.62-2.94,1.4-5.92,3.35-8.97,5.74-.04-.07-.07-.11-.11-.15l.22-2.5-.22-.04-.92-7.61-.18.04-1.21-10.48-5.37,8.71c-.15.22-.26.4-.33.55l-.37-.22-1.29,2.32c-1.62-.77-3.31-1.25-5.07-1.47-.11-.04-.26-.07-.37-.07-2.24-.22-4.49,0-6.66.7-5.77,1.69-11.25,6.47-15.7,13.83-.77-.22-1.54-.15-2.32.15l1.91-33.9c1.14-20.11,4.74-39.71,10.74-58.46l.81,1.47-.63-2.06c.37-1.14.74-2.28,1.1-3.38l.22.15c.4-.44.74-.92,1.03-1.43l-1.07,2.94,3.2-.66c4.34-.88,8.13-.33,11.1,1.47.37.26.77.51,1.1.74l1.14.74.59-.48.07.29,2.1-.74-.37,1.18-1.14,1.25.77,1.18Zm39.23-5.37c-1.14-.85-1.73-2.06-1.84-3.79l.07-.04c.29,1.18,1.07,2.72,3.16,3.68l3.71,1.73.44-.04c3.35-.07,6.95.77,10.81,2.65l2.65,1.29v-2.83l.88-.04-.48-2.17c-.04-.11-.04-.22-.07-.37l.88.15-.55-2.65c-.04-.26-.07-.48-.15-.48l1.07-.15-.63-2.24c0-.15-.04-.29-.04-.44l-1.73.07,1.36-.33,1.1.07-.07-2.35v-.15l.85.18-.07-2.39c-.04-.15,0-.29,0-.44l.81.07-.04-2.06v-.44l.66.11.22-2.1.44-1.07c.04-.07.18-.48.18-.48l.18-.37v-.48c.07-.29.15-.59.26-.88h.18c.11.29.22.59.33.88l1.07,2.5.37,2.06.55-.18c.04.15.04.26.04.26l.33,2.06.55-.07.11.55.44,2.21.4-.15v.44l.33,2.54.51-.18c0,.11-.04.22-.04.4l-.18,2.06h.74c0,.22-.04.48-.04.74l.11,2.46.37-.11c-.04.15-.04.29-.04.44l-.18,2.21.74-.07.18,3.49,2.9-2.68c9.05-8.49,18.53-11.55,25.33-8.16,5.63,2.76,8.86,9.52,9.12,19.01v2.21l-.04,2.17,2.13-.33c3.31-.52,6.29-.55,8.86-.11l.59.07,2.28-1.1c.07-.04.11-.07.18-.07l-1.29,1.14,2.5,1.18c1.65.81,2.98,1.88,4.05,3.2.04.04.04.07.07.11v.11l.04.11c.11.96.29,1.95.63,2.98.37,1.14.85,2.24,1.47,3.27.33.59.7,1.18,1.14,1.76.04.04.07.11.11.15l-1.95,1.95.15.15c-.15.11-.29.26-.44.4l-7.65,7.13,10.7-.92.04.48,3.57-.55v.07l2.06-.22.07.15,2.02-.37.04.07.07.33,2.46-.92c.07.04.15.07.26.07-.51,1.03-.99,1.99-1.4,2.98-.11.22-.22.48-.29.7-.37.85-.7,1.65-.96,2.46-.04.04-.07.07-.11.11-.63.7-.88,1.62-.77,2.54-.37,1.25-.66,2.43-.88,3.6-2.94.18-5.7.99-8.13,2.43l-3.57-3.02-.37,2.57-7.21-2.02,2.65,4.08-2.06-.22,4.49,5.07c-3.02,5.52-3.86,13.2-2.43,21.95-.11.04-.22.07-.33.07-1.36-2.61-2.83-4.93-4.45-6.95l.62-.44-.62-2.46c-.37-1.62-1.73-2.79-3.38-2.94h-.26c-.44,0-.92.07-1.47.26l.55-1.69-.96-1.51c-.66-.96-1.77-1.58-2.9-1.69-1.4-.15-2.68.55-3.53,1.84-1.25-.37-2.5-.59-3.82-.7-8.16-.66-16.25,4.12-23.02,13.49l-.48-1.36-.22.11-1.14-3.02-.29.07c-.11-.22-.18-.4-.33-.63l-.92-1.62-.51-.55c-.15-.37-.29-.66-.48-.92l-.99-1.51-.66-.74c-.15-.26-.29-.48-.44-.74l-.88-1.21-.48-.44c-.11-.18-.22-.37-.33-.59l-1.88-3.27-.59.4-.92-1.14c-.07-.11-.15-.26-.22-.37-.26-.44-.55-.85-.85-1.25l-2.02-2.87-2.65,1.36-2.94.33-.11,2.5c-.04.74-.07,1.54-.07,2.57,0,.07,0,.18.04.26l-.22,1.65-.66.04.11,3.46-.15,2.76-.11-.04-.11,3.79h-.04l.07,3.68c0,.26.04.52.07.77l-.26.07.66,3.2-.22.07.77,3.53-.48.07.99,3.68-.44.07.37.99c-2.79.26-5.33,1.1-7.61,2.46-1.76,1.07-3.27,2.43-4.56,4.05-.07-.07-.15-.11-.22-.18-.85-5.41-3.02-9.67-6.29-12.5l8.38-.26-9.08-5.99c-.52-.33-.96-.62-1.4-.88-.07-.07-.18-.11-.26-.18l-.18-.11.33-.52-1.8-.99-2.13-1.32.07-.07-2.54-1.62.04-.07-2.39-1.4.15-.33-2.43-.81.04-.15-2.46-.88.15-.33-3.35-1.03c-.33-.11-.7-.18-1.07-.26-1.58-3.09-3.82-6.21-6.54-9.27,8.31-5.66,12.35-12.57,11.1-19.23-1.18-6.51-7.24-11.51-16.8-13.9,1.1-6.43.92-12.32-.51-17.21,5.3-2.83,14.16-1.95,24.3,2.54l1.73.77.7-1.8c1.36-3.42,3.53-6.07,6.29-7.65l3.2-1.14-2.68-2.06Zm91.23,20.08c.15-5.92,4.04-12.46,10.99-18.46l3.97-3.46h.15l.48-.07.37-.26c.4-.29.85-.59,1.25-.85l3.09-2.06-1.14-.4,1.18-.99-1.77.81-1.8-.62c-1.1-.37-2.35-.55-3.49-.55,1.47-.15,2.9.04,4.19.51l1.58-3.31c-.74-.44-1.58-.77-2.5-.92l3.9.44-1.18-2.87c-1.76-4.23-2.02-8.16-.85-11.51.18-.4.37-.85.51-1.29l.51-1.25-.66-.52.33-.15-1.14-1.91s-.04-.07-.04-.11h1.03l1.8,1.07.99-.99c1.84-1.8,4.27-3.31,7.21-4.41,3.13-1.25,6.8-2.02,10.88-2.32l.99-.07.29.07.15-.11c.77-.04,1.54-.04,2.32-.04h1.84l.07-3.42c.04-1.32.15-2.57.33-3.75.48-3.24,1.36-5.96,2.65-8.13,1.36-2.24,3.09-3.86,5.22-4.67,2.06-.85,4.34-.96,6.8-.33,3.93,1.03,8.2,3.9,12.32,8.27l1.58,1.69,1.29-1.91c2.83-4.19,6.03-7.68,9.27-10.07l.88-.7-.18-1.1c-.04-.29-.07-.59-.04-.92l.7.15-.15-2.39v-.48l.74.07-.22-2.28v-.04l.66.18-.11-2.46c-.04-.22,0-.44.04-.62l.66.18.11-2.24v-.07l.37.15.48-2.06c.04-.15.07-.29.11-.4l.66.18.22-2.21.26.11.66-1.95.04-.07h.11l.51-1.18.33-.29v-.59c.15-.33.26-.7.4-.99.07.37.15.7.22,1.03l.07.59-.04.18,1.1,3.6.15-.04v.33l.26,1.99.33-.04v.26l.18,2.21.33-.07c0,.07,0,.15-.04.22v2.5l.51-.11c-.04.07-.04.15-.07.26l-.18,2.21h.4c0,.15-.04.29-.07.51l-.07,2.13h.29l-.04.15,1.65.18c.4.07.81.15,1.18.22,2.72.59,5.22,2.06,7.39,4.3l4.38,4.56-.85-4.23.62.11.26-1.73.96-.04-.04-1.69.92-.52-.48-.88.85-.48-.15-2.9.04.04.7-2.06v-.04s.04.04.07.04l1.1.74.4,1.54.44-.48.29,1.4.63-.33.04,1.36.55-.33.22,1.4.4-.33.29,2.32.33-.37.18,1.21.22-.15-.15,2.02.33-.26-.33,1.65.88-.55,3.31-1.1c6.36-2.17,12.13-2.83,16.69-1.91,3.12.62,5.66,1.99,7.5,4.01,6.07,6.69,3.82,19.78-5.85,34.16l-.33.74.18,3.35,2.46-1.18.22-.11.11.66,2.46-1.32.11.37,1.95-.88.04.26,2.32-.88c.11-.04.18-.07.29-.11v.29l1.8-.48-.04.11,2.35-.48.18.15,1.95-.33,4.23-.11.07-.11h.04l-.11.11-1.99,1.43-1.95,1.18.15.18-1.8.96.11.22-.22.11-2.28,1.18.18.18-1.91.81.22.33c-.11.07-.26.11-.44.15l-1.91.62.15.44-2.32,1.18,3.2,1.66c3.24,1.65,5.81,3.57,7.68,5.63,2.17,2.39,3.31,4.96,3.35,7.65.04.33,0,.7-.04,1.03-.07.77-.22,1.54-.51,2.32-.99-.26-1.95-.44-2.94-.55-8.16-.88-16.22,4.41-22.36,14.52-.77-.22-1.58-.18-2.35.15l-1.1.48c-.18-.44-.4-.85-.66-1.21l-.33-.51-.92-.81c-1.32-.81-3.05-.59-4.04.44-1.1,1.03-1.4,2.65-.63,4.23l.11.22c-1.32-.4-2.76.04-3.6,1.1-1.1,1.25-1.07,3.16.18,4.6.44.48.7.96.88,1.54-4.01-.26-7.65.52-10.81,2.39l-3.6-2.98-.33,2.54-7.24-1.99,2.65,4.05-2.06-.18,4.52,5.04c-1.29,2.39-2.21,5.18-2.68,8.27l-2.46,1.14c-.07.04-.15.07-.22.11l-.18-.22-2.06,1.4-.11-.18-.66.48c-.26-8.9-3.35-15.48-8.9-18.75-.85-.51-1.69-.92-2.61-1.25,0-1.21-.59-2.24-1.62-2.83-.92-.55-1.99-.62-3.05-.26l-1.43.59-.26.85c-.18-.18-.4-.33-.62-.48-1.25-.74-2.87-.59-3.93.37l-1.76,1.51.15.44c-4.45,1.36-9.12,3.93-13.94,7.72,0-.04-.04-.11-.07-.15l.22-2.54-.26-.04-.88-7.54-.22.04-1.21-10.52-5.15,8.42-.22.33c-.11.18-.22.4-.33.55l-.37-.22-1.21,2.32c-1.76-.85-3.6-1.4-5.48-1.58-8.16-.85-16.22,4.41-22.39,14.52-.74-.22-1.54-.15-2.32.15l-1.1.51c-.18-.44-.4-.85-.66-1.25l-.33-.52-.74-.62-.18-.18c-.4-.22-.81-.37-1.21-.4.04,0,.04-.04.04-.04l.55-2.06-1.25-.44-.81-.26c-.77-.26-1.51-.48-2.24-.81l-.66-.29-.18.07-.07-.26-1.91.85-.11-.37-1.32.48-.04-.74-1.14.55.04-.29-2.39.85h-3.16l-.51.11c.07-.07.18-.18.26-.26l.55-.37,1.73-2.02c.11-.11.18-.18.29-.26l1.32-1.36-.07-.07.51-.55-.92-1.03-.33-.37c-1.4-1.51-2.39-3.2-2.94-5.04-.26-.85-.44-1.62-.51-2.43l-.07-.44v-.4c-.04-.37-.04-.74-.04-1.14Zm162.82-9.82l1.58.92.4-.62.04.04.85-1.43.11.07.96-1.58.66-.85.29-.29.11-.44c.04-.07.07-.15.15-.26v.22l-.04.18.59,2.35.04.48-.07,2.46.04-.04-.15.81.55.04v1.84h.11l-.29,2.1.55.62c.44.62.81,1.32,1.21,2.06l1.29,2.24,1.69-1.4c5.63-4.71,11.18-7.8,16.11-8.9l1.62-.44h1.18l1.95-.18.48-.37c.07-.07.18-.15.26-.22l-.22.62,1.95.48c1.18.26,2.21.7,3.2,1.29,1.88,1.1,3.42,2.76,4.56,4.85,1.84,3.35,2.72,7.91,2.54,13.42,0,.29-.04.59-.04.92l-.29,5.22,3.49-3.86s.04-.04.04-.07l.37.66,1.69-1.76c.15-.15.33-.29.48-.44l.44.59,1.51-1.54c.15-.18.29-.33.44-.4l.4.88,1.88-1.8s.11-.07.15-.11l.22.66,1.99-1.36c.11-.11.26-.18.37-.26l.33.77,1.84-1.4c.04-.07.11-.11.18-.15l.15.33,1.8-.85.22-.07.29.48,1.4-.92s.07,0,.11-.04l.74-.33c.26-.11.55-.22.85-.29l.11.15c-.11.22-.26.44-.37.62l-2.65,2.02.99.66-1.1,1.32.37.29c-.11.11-.26.26-.4.37l-1.14,1.47.26.26c-.11.15-.22.26-.37.37l-1.76,1.8.48.29s-.11.07-.18.15l-1.76,1.58.48.37c-.15.11-.29.26-.51.37l-1.54,1.36.22.26c-.15.15-.33.26-.51.37l-1.8,1.36.33.37c-.15.11-.29.22-.48.29l-2.17,1.1.66.7c-.18.15-.37.26-.55.33l-2.28,1.1.55.55-1.4.99,2.24,1.47c1.99,1.32,3.42,2.98,4.27,4.85.7,1.58.96,3.27.85,5.11l-.18,2.76,1.65-.59s-.07.07-.15.11l-2.13,1.47-.18.55c-.88,2.46-2.39,5.07-4.41,7.69l-1.32,1.73,1.95,1.03c.62.37,1.25.7,1.88,1.03,8.16,4.85,12.5,10.99,12.17,17.24,0,.22-.04.48-.07.7-.18,2.02-.88,3.97-2.06,5.85-2.98,4.85-9.05,8.97-17.32,11.62l-3.79,1.21,2.98,1.88-.4.62,1.99.88c.15.07.26.15.4.18l-.48.51,2.32,1.07c.18.07.37.18.66.37l-.37.62.18.07.26.11.81.33.66.29c.18.07.33.15.48.26h.04l-.55.55,1.51.92.77.44s.07.07.15.11l-.51.44,1.91,1.29c.15.11.29.26.44.37l-.51.66,1.76,1.07s.15.07.33.22l-.44.52,1.65,1.29,1.1,1.76.44.26c.22.22.4.44.62.7l-.11.18c-.29-.07-.62-.15-.92-.22l-.77-.26s-.4-.07-.51-.07l-1.4-.15-1.95-.85-.15.59-.04-.04c-.07,0-.15-.04-.22-.11l-1.87-.81-.22.52c-.15-.07-.26-.11-.4-.18l-1.65-.77-.44-.18-.15.55c-.11-.07-.26-.15-.44-.26l-2.13-.96-.15.44c-.11-.04-.22-.15-.33-.22l-1.65-1.65-.51.88c-.18-.11-.33-.22-.48-.37l-.07-.04-2.1-1.43-.18.52c-.11-.07-.22-.15-.33-.22l-1.65-1.43-.44.74-1.47-.85-.99-.55-.04.4-.11,2.54c-.04.66-.11,1.29-.18,1.91-.4,3.46-1.32,6.43-2.79,8.79l-.26.85-.29,3.64c-.15,2.13.66,3.53,1.62,4.45l-.15.04c-1.32-.85-2.06-1.91-2.28-3.35l-.48-3.31-2.54,2.21c-2.72,1.66-6.1,2.24-9.74,1.76l-1.91-.26-.18,1.91c-1.21,13.46-6.25,22.61-13.16,23.86-2.5.48-5.18-.07-7.91-1.69-2.35-1.4-4.63-3.49-6.84-6.25l-2.24-2.76-.7,2.5-.7-.04v1.95c0,.26-.04.48-.15.7v.07l-.51-.07-.18,1.54-.33-.18-.51,2.46c-.04.07-.04.15-.07.22l-.26-.04-.51,1.77-.44-.26-.48,2.21-.99,2.17-.62-2.94-.15-3.35-.15.04-.15-1.76.15-2.28-1.91.44v-.07l1.73-.66.07-2.24.4-2.17-.26.04.29-1.65.22-.26h-.18l.15-.85-.29.04.4-2.21.55-.85-.88.26-6.36,1.73-.29-2.24-.04-.29-3.6,2.98c-3.09-1.88-6.77-2.68-10.85-2.39.18-.59.48-1.1,1.07-1.73,1.1-1.25,1.14-3.16.07-4.34-.85-1.1-2.28-1.54-3.64-1.14.04-.15.15-.33.22-.48.66-1.32.37-2.98-.7-3.97-1.07-1.07-2.76-1.29-4.23-.4l-1.14,1.29c-.22.37-.44.77-.66,1.18l-1.14-.51c-.7-.29-1.51-.33-2.28-.11-1.99-3.24-4.15-5.99-6.47-8.2-1.03-.99-2.1-1.88-3.16-2.65-.15-.07-.29-.18-.4-.26h4.23l-1.4-.88-3.9-2.46c-2.61-1.65-4.45-3.75-5.55-6.25-.15-.29-.29-.66-.4-1.03l-.55-1.65-.11.04-.11-.51-2.1.85c-.11.04-.26.07-.37.11l-.18-.7-2.02.96s-.04.04-.07.04l.07-.74-2.57.77c-.07.04-.11.04-.15.07v-.51l-2.21.44c-.11,0-.18.04-.26.04l-.07-.48-1.91.33c-.11.04-.22.04-.33.07l-.04-.48-1.99.22-.96-.07c-.15-.04-.29-.07-.44-.11l-.4-.07-.44.11h-.04l-.29-.48.04-.04,3.6-2.57-.04-.07,2.28-.66-.4-.62c.07-.04.11-.04.18-.07l1.76-1.03-.11-.15s.04-.04.07-.04l1.99-.66-.18-.48c.15-.07.33-.11.55-.15l2.24-.62-.15-.37h.07l2.21-.48-.15-.44c.11-.04.22-.07.33-.07l2.39-.26-.29-.74c.29-.07.55-.11.88-.11l1.1-.07.48-.99c1.65-3.53,4.34-7.28,7.72-10.7l.07-.07,1.65-1.66-1.99-1.21c-.37-.22-.74-.48-1.1-.74-7.5-4.89-11.21-10.66-10.22-15.92.85-4.49,4.93-8.13,11.55-10.3,1.29-.44,2.68-.81,4.15-1.1l1.76-.37-.33-1.8c-.15-.7-.26-1.4-.4-2.1-.33-2.28-.51-4.45-.55-6.51-.04-1.1,0-2.13.11-3.16.04-.48.07-.92.15-1.36.11-1.03.26-2.02.48-2.94.55-2.32,1.4-4.38,2.5-6.1l.77-1.18-1.32-1.51-.22-.96s.04.04.04.04l2.13.7.04-.29.62.52,2.1-1.43c3.09-1.88,6.88-2.39,11.21-1.54l3.16.62-.99-2.87c.26.48.59.96.96,1.4l2.94-2.21c-.55-.88-.96-1.91-1.18-2.98.22.81.59,1.62.99,2.35l1.03,1.73-.26,1.21-.07.4.29-.51.33-.63.18.29.37.7.52-1.25,1.65-3.93-.04-.4v-.18l2.5-4.52c.26-.44.48-.88.74-1.29.22-.37.44-.7.66-1.03,5.29-8.35,11.88-12.72,18.38-12.02.51.04,1.03.15,1.54.26,1.14.29,2.28.74,3.49,1.4.18.07.37.18.55.29Zm56.77-5.66c.11.11.22.22.37.29l.51.48,2.98.04-.04.07,1.69.37c4.93,1.1,10.48,4.19,16.1,8.86l1.69,1.47,1.1-1.99c.44-.81.88-1.62,1.4-2.35l.44-.62-.04-.22.22-.04-.37-1.91.44-.04-.37-1.8.7-.15-.33-1.14h.44l-.37-1.88.55-2.87-.04-.15.04-.26c.04.07.07.11.15.22,0-.07,0-.15-.04-.22l.11.37v.07s.04,0,.04.04l1.62,2.06c.07.22.18.44.29.66l.96,1.36.07-.04.55.74,1.58-.92c1.73-1.03,3.57-1.66,5.41-1.84,5.33-.59,10.96,2.39,15.77,8.35h-19.01v100.31l-1.69,2.1-.07-.04-1.58,1.84-.15-.07-1.54,2.1-.37-.18-1.25,2.5c-.29.15-.59.26-.88.4-2.32-7.83-5.37-14.19-9.19-18.94l.66-.44-.63-2.5c-.4-1.62-1.76-2.79-3.38-2.9h-.26c-.44,0-.88.07-1.47.26l.55-1.69-.96-1.54c-.11-.15-.18-.26-.33-.37.11-.55.15-1.14.18-1.73.4-7.69-4.56-15-14.01-20.59-.04-.04-.11-.07-.18-.11,1.51-2.13,2.68-4.3,3.49-6.4l1.25-.85c.4-.33,1.03-.51,1.76-.59l2.54-.26.63-2.35c.33-1.43-.33-2.98-1.65-3.79l-.7-.4-1.32-.04c-.37,0-.74,0-1.1.04-.15-1.54-.48-3.02-1.1-4.45-.81-1.8-1.99-3.42-3.53-4.85l.66-.44-.29-.29,2.32-1.91-.26-.29.74-.66.63-.81c.07-.07.18-.18.29-.26l.96-.92.63-.88c.22-.22.48-.44.7-.74l.85-1.18.26-.51c.22-.22.4-.44.55-.66l.81-1.21.29-.66c.15-.18.29-.37.4-.52l.85-1.54c.11-.11.22-.22.29-.33l1.95-2.54-.44-.37.4-.81c.07-.11.18-.26.33-.44.33-.52.66-.99.92-1.43l1.29-1.95-1.95-1.76-1.21-2.32-2.9,1.07c-.4.11-.77.26-1.14.4-.04.04-.11.04-.18.07l-.88.29-.22-.59-1.76.85-2.94,1.1-.04-.11-2.72,1.07-.04-.07-3.05,1.36-.22.11-.15-.22-2.1,1.4-.07-.15-.7.48c-.15-4.34-.92-8.16-2.35-11.25,1.07-4.41,3.16-7.57,6.25-9.41.99-.59,2.06-1.03,3.24-1.29l1.88-.48-.18-.66Zm59.9,11.66h99.53v403.36h-44.87s0,0,0-.01h-15.86,0s-.02.01-.02.01h-59.46v-403.36h20.66Zm7.83-7.32c-8.24-5.07-12.35-11.14-11.32-16.66.96-5.41,6.69-9.52,15.66-11.4l1.8-.37-.37-1.8c-1.84-9.19-.99-17.06,2.32-22.21l.77-1.18-.96-1.03-.55-1.4,2.1.77.04-.33.62.51,2.13-1.43c3.05-1.88,6.91-2.39,11.21-1.54l2.98.59-.85-2.9c.26.52.59.99.96,1.43l2.98-2.17c-.55-.92-.96-1.91-1.18-2.98.22.81.55,1.58.99,2.32l1.95,2.87,2.1-4.82-.04-.44v-.18l2.5-4.49c5.52-9.85,12.72-15.11,19.78-14.34,1.84.18,3.64.81,5.52,1.91l1.62.99.44-.77.96-1.47c.04-.07.11-.15.15-.26l1.4-1.84.4-.22.07-.59c.04-.11.11-.18.15-.26l.04.18-.07.18.63,2.46.04.18-.4,2.68.33-.07-.15.7.59.07-.26,1.65.33.04.04.26-.29,2.02h.11v.07l.4.63c.51.7.92,1.47,1.43,2.35l1.07,1.95,1.73-1.43c3.93-3.31,7.83-5.81,11.51-7.35.11-.04.26-.11.37-.15,5.04,7.39,7.94,16.29,7.94,25.92v56h-91.22l1.51-1.51-1.99-1.18Zm32.01,509.98l-.5-.5-.74-.48-3.35-.33.55,1.9c-.08,0-.17.02-.25.02h-21.95c.99-.62,1.91-1.36,2.72-2.21,1.1-1.18,1.99-2.46,2.65-3.9.4.18.88.37,1.4.55l.92.33.85-.15c1.54-.29,2.72-1.54,2.9-3.05l.22-2.39-2.35-1.18c-.7-.33-1.21-.74-1.51-1.25l-.88-1.21c0-.26,0-.48-.04-.7-.04-.52-.04-1.03-.11-1.58v-.04s0-.03,0-.05c2.51-2.41,4.85-4.86,7.07-7.35.05-.02.1-.04.15-.06,1.25-.51,2.43-1.07,3.49-1.69h1.36v-.81c3.97-2.61,6.73-6.07,7.98-10.04.15-.44.26-.85.33-1.32l.29-1.58c.15-1.16.18-2.36.07-3.53,5.42-9.84,8.73-20.09,9.82-30.56l2.21-21.55h18.57v47.14c0,10.62-14.31,42.83-31.86,47.56Zm-40.13.61c6.26-4.32,11.96-8.82,17.13-13.5h0v.22l1.51,2.1c.11.18.26.4.4.59l-1.73-1.36-.77,2.57c-.51,1.84-1.4,3.35-2.57,4.63-1.36,1.4-3.05,2.39-5.15,3.02l-3.27.85.59.88h-6.14Zm20.22-19.56c-.11-.77-.29-1.54-.51-2.35.07,0,.18-.04.26-.04,1.14-.22,2.28-.48,3.35-.77h.03c-1.01,1.06-2.05,2.12-3.12,3.17,0,0,0,0,0-.01Zm14.78-45.37c.11-.07.26-.11.37-.15l1.32-.7.48-.33c.29-.11.55-.22.81-.33l1.29-.7.59-.44c.18-.11.4-.18.59-.29l1.07-.59.55-.44c.11-.04.26-.11.4-.15l3.01-1.47-.26-.48.74-.51c.11-.04.26-.11.33-.18.55-.29,1.14-.62,1.62-.88l.84-.46c-1.02,8.86-3.75,17.53-8,25.95-1.49-5.45-5.33-10.96-11.04-16.01l1.91-.7c.22-.04.4-.07.4-.11l3.05-.77-.07-.26Zm3.27-15.88v-.07l-2.72-.29v-.11l-3.27-.22c-.15,0-.37-.04-.48-.04l-.04-.29-2.35.33v-.18l-3.46.4-.07-.44-.66.15c.74-3.53.88-6.84.37-9.85v-.04l.96-3.31c.07-.18.15-.37.22-.51h24.34l-1.98,19.1v-.02s-.12-2.72-.12-2.72l-2.24-.26c-.62-.11-1.32-.22-2.17-.29h-.04l-1.07-.22.04-.55-5.26-.55Zm-90.49-73.17c-.22,0-.48.04-.7.07-4.19.81-7.94,3.31-10.96,7.28-.44-.26-.85-.52-1.21-.85l-.07-.04.77-.85-2.17-1.1c-.44-.18-.81-.48-1.21-.81l-.11-.15.62-.7-2.06-1.1c-.44-.22-.85-.52-1.18-.81l-.11-.11.51-.7-1.76-1.07c-.4-.22-.99-.59-1.25-.96l-.11-.15.81-.63-1.99-1.43c-.44-.33-.77-.59-.92-.77l-.04-.07.88-.55-1.99-1.62c-.33-.29-.62-.59-.88-.96l-.18-.29.37-.55-1.25-1.21c-.26-.22-.51-.48-.74-.81l-.18-.18.44-.44-1.18-1.4c-.11-.15-.22-.26-.26-.33l-.04-.07,1.1-.66-2.13-1.36-.4-.59-.22-.22c-.37-.51-.74-1.03-1.07-1.58l.74-.92.44.15c.44.15.85.29,1.58.62l.63.26.04-.07.7-1.65-.18.88-.51.77,1.62.96.29-.44.55.15s.11.04.37.18l1.8.88.22-.55h.04c.44.18.77.37,1.03.55l1.99,1.07.26-.55c.37.15.77.37,1.14.63l1.07.51,1.03.52.18-.48.18.04c.11.04.4.18.88.62l1.95,1.69.4-.99.11.04c.4.18.85.51,1.29.96l1.47,1.54.55-.74.11.07c.33.22.63.48.85.74.11.07.22.18.29.26l1.69,1.76.48-.81.07.07c.11.07.18.11.26.18.92,1.29,2.02,2.46,3.27,3.53l.7.77v-.22l-.33-5.07c0-.15,0-.29-.04-.4-.77-12.83,2.65-22.25,9.63-26.51,1.4-.85,2.87-1.47,4.56-1.88l1.91-.52-.62-1.84c-.11-.37-.18-.7-.22-.92-.04-.4.07-.44.37-.55l.18.33c.26.92.85,1.73,1.8,2.46l.51.48h3.57l.44-1.25c.11-.33.26-.63.51-1.07l.37.04.11.07-.63,2.39,1.84.4c.48.11.99.22,1.47.37.81.18,1.65.44,2.46.74.22.07.37.15.59.22v4.93s.02,0,.04.01v53.08h-.04l-.11-.07c-6.51-12.32-14.71-19.71-22.98-20.74-1.36-.15-2.76-.15-4.12.07Zm-21.58,16.36l.33,2.61-.4-.29-.04,1.69-2.98-1.29.07.29-1.18-.59.07.59-1.36-.85-.11,1.99-3.42-1.18.26.85-.99-.29.74,3.2-4.12,1.58,1.29,1.1-3.2.29,9.01,5.04-.11,2.35,1.21.07-.11.15.62.51c-1.58.52-3.05,1.21-4.38,2.1-.77.44-1.47.99-2.13,1.62-.29.26-.55.52-.81.77l-1.1-.74-1.25-.48c-.15-.11-.33-.15-.44-.22l-2.02-.74c-.15-.07-.33-.18-.51-.26l-2.13-.66c-.11-.07-.22-.11-.37-.15l-1.69-.51c-.07-.04-.18-.07-.26-.11l-1.4-.55-1.84-.4-.07.15-.59-.15s-.07-.04-.15-.07c-.04,0-.07-.04-.11-.04l-5.55-1.84-3.82-1.29-2.72-.92,2.98,4.05.48.62,2.98,4.08.11.15c.37.48.7.92,1.07,1.4,0,.04.04.07.07.11l.22.33-.52.33,3.05,3.75-.07.04,1.73,2.32-.04.04,1.88,2.28-.26.26,2.1,1.69-.11.11,1.95,1.62-.26.26,2.87,2.17c.33.26.63.44.96.63.4,3.57,1.47,7.43,3.05,11.29-7.13,1.8-12.35,4.89-15.22,9.01-.85,1.21-1.51,2.5-1.91,3.9-.15.4-.26.85-.33,1.25-3.6-3.68-6.14-9.52-7.32-16.84l-.85-5.22.11-.22.15-.4-.29-5.59-.85.7-.04-.15-1.91,1.8c-.99.81-1.84,1.8-2.43,2.83.66-1.36,1.62-2.57,2.76-3.49l-1.95-3.05c-.77.4-1.51.96-2.1,1.62l2.54-3.05-3.2-.52c-4.52-.7-8.02-2.54-10.26-5.37l-1.54-2.21-.81.29.07-.33-2.24-.04h-.15l.51-.88,1.88-.99-.29-1.36c-.37-1.65-.52-3.42-.37-5.26.26-5.11,2.32-10.96,5.99-16.95l.81-1.32.15-.26-.51-.29-.04-.04-.99-.63c-.88-.55-1.73-1.14-2.54-1.69-.33-.26-.66-.51-.99-.77-.07-.07-.15-.11-.18-.15-1.58-1.25-2.9-2.54-4.01-3.86-.33-.44-.66-.85-.96-1.29-.77-1.07-1.36-2.17-1.8-3.24-.7-1.88-.96-3.75-.63-5.59.11-.66.29-1.29.55-1.91.74-1.88,2.06-3.6,3.97-5.07,1.58-1.21,3.53-2.28,5.85-3.2,1.43-.59,3.02-1.07,4.74-1.47.18-.07.37-.11.55-.15h.11c.33-.11.7-.18,1.07-.26l2.28-.44-.96-2.1c-2.1-4.56-3.38-9.12-3.75-13.2l-.07-1.1-1.07-.44c-.29-.11-.55-.26-.85-.44l.48-.55-2.02-1.07c-.15-.07-.26-.15-.37-.26l.48-.59-2.13-1.03s-.07-.04-.11-.04l.48-.51-2.1-1.14c-.22-.15-.4-.29-.55-.44l-.07-.07.44-.62-1.65-1.07.22-.15-1.43-1.51c-.15-.15-.26-.26-.37-.37l.59-.62-1.65-1.18.18-.11-1.4-1.62-.77-1.36-.07-.33-.4-.26c-.26-.29-.44-.59-.66-.85l.99.33.62.52.74-.07,2.98.81.04-.07c.07.07.15.11.22.15l1.73.85.18-.33c.07.07.18.11.29.18l1.99.99.11-.29c.07.04.15.07.22.15l2.21,1.43.15-.52s.04.04.07.04l1.76,1.43.26-.4c.11.07.26.18.4.33l1.77,1.18.15-.18.11.04,1.03-1.29c.26-.33.55-.62.81-.88,1.91-2.02,4.49-3.38,7.57-4.05l6.18-1.32-4.08-1.51.4-.44-1.32-1.14.48-.88-1.43-.85.04-1.03-1.03-.07.04-.96-2.54-1.4.04-.04-1.32-1.65s-.04,0-.04-.04l1.29-.55,1.4.44-.04-.07.48.29.44-.52.37.15.04-.59.07-.11,1.1-1.25c.11-.11.22-.26.26-.33l.29-.18.26.44,1.07-1.36,2.28-2.94.04.07.04-.04.92-1.1.62-.77.55-.66.04.07,2.28-2.94.26.26,1.47-2.65.11.07.85-1.51.26-.44.29-.51.26.26.22-.44c.15.7.33,1.4.51,2.06.88-1.43,1.88-2.65,2.94-3.64,1.99-1.95,4.27-3.2,6.69-3.68,8.9-1.58,18.83,7.13,26,22.94l.29.44.15.22,3.09,1.65.11-2.06.04-.59.4.22.33-2.76c0-.11.04-.22.07-.37l.37.15.04-.44.18-1.47.18.11.51-2.54.22.18.4-1.32.29-1.03.11.07.81-2.17,3.05-5.55-.04-.15s0-.04.04-.04v.18l.04.37-.11.55.26,1.62v2.17h.22l-.04.29.04,1.69.11.04v.29l-.22,2.54.26-.04-.4,2.02h.51c-.04.11-.07.26-.15.44l-.44,1.91.48.15-.15,2.43v.07l.04-.04.29-.18,2.65-1.54c3.01-1.8,5.88-3.02,8.53-3.49.07-.04.18-.07.26-.07s.15-.04.22-.04c.11-.04.18-.04.26-.04,2.9-.48,5.48-.11,7.61,1.1l.22.11c1.29.77,2.39,1.84,3.24,3.2,2.5,3.71,3.42,9.52,2.54,16.62l-1.29-1.07c-1.32-1.1-3.2-1.25-4.63-.37-.51.33-.99.77-1.43,1.51-.04-.07-.07-.18-.11-.29l-.55-1.76-1.73-.66c-1.14-.4-2.46-.29-3.49.37-1.29.77-1.99,2.13-1.88,3.79-1.36.48-2.65,1.07-3.86,1.84-6.73,4.12-10.66,11.91-11.4,22.5l-2.02,2.13c-.18.18-.33.37-.51.48l-1.65-1.07-.33-.22-.18.22c-.26-.15-.52-.29-.77-.4l-3.49-1.54-.04-.04h-.04v.04s-.11,0-.15.04l-1.77-.66-.96-.18c-.29-.15-.59-.26-.92-.4l-1.54-.48-.66-.11c-.22-.11-.44-.22-.66-.29l-3.53-1.62-.26.7-1.65-.44c-.18-.07-.33-.15-.48-.22-.55-.22-1.03-.37-1.54-.55l-3.42-1.21-1.43,2.79-2.32,2.1,1.43,2.13c.44.7.92,1.43,1.51,2.28.11.07.18.18.26.26l.88,1.66-.55.44,2.28,2.87s.04.07.07.07l-.07.07,1.65,2.5-.07.04,2.17,3.27.04.07,2.28,3.09c.18.22.4.48.66.66l-.18.26,2.57,2.39s.04,0,.04.04l-.15.18,2.83,2.5s.04,0,.04.04l-.37.37,3.09,2.5s.07.07.11.07l-.33.33.99.7c-2.32,1.99-4.08,4.3-5.22,7.02-.07.18-.15.37-.22.59l-1.65-1.69Zm-73.65,4.08c1.47-3.6,2.54-7.94,3.13-12.83,1.36.07,2.68,0,3.97-.22,1.21,2.02,2.9,3.97,5,5.85,1.03.92,2.17,1.8,3.38,2.68.18.11.37.26.55.37-.11.18-.22.4-.33.59-.15.26-.29.55-.4.81-.18.26-.33.52-.44.81h-.11l-.04.22v.04c-1.43,2.79-2.5,5.55-3.24,8.2-3.93-2.79-7.76-4.74-11.44-5.88l.18-.44-.22-.18Zm-5.52-1.65c-.22.11-.4.26-.63.44l-.26-.85-1.51-.63c-.99-.33-2.06-.22-2.94.29-1.03.59-1.62,1.62-1.65,2.87-.88.29-1.76.7-2.61,1.21-2.32,1.36-4.23,3.35-5.66,5.81-.22-.07-.44-.18-.66-.33-2.32-1.4-4.6-3.49-6.84-6.21l-2.24-2.79-.7,2.5-.66-.04-.04,1.95c0,.26,0,.48-.11.7v.07l-.51-.07-.18,1.54-.33-.22-.55,2.5c0,.07,0,.15-.04.18l-.26-.04-.51,1.77-.48-.22-.44,2.21-.99,2.21-.37-2.06-.26-.92-.22-3.12h-.07l-.15-1.91.11-2.32-.22.04c0-.07.04-.18.04-.33l.11-2.28.33-2.1h-.22l.48-2.76-.26.04.48-2.43-3.38.48-.44.44c-11.84,12.02-23.9,16.69-31.44,12.24-3.86-2.32-6.25-6.91-6.91-13.13-.11-1.18-.18-2.39-.18-3.68,0-1.88.15-3.82.4-5.88l.44-3.42.29-.99-1.4.62.15-.33-1.91.55.07-.22-1.1.07.29-.48-2.32.22.22-.44-1.62.04.18-.62-1.1.22.18-.59h-1.36l.37-.51-1.47-.07-1.03-.96,1.43-.99,3.13-.52.33-1.03.99.15.22-.66,1.62-.29-.11-.96,1.58-.59-.22-.55,3.38-.04h.92l-1.4-.88-3.9-2.46c-.33-.22-.66-.44-.99-.66-1.43-1.07-2.61-2.24-3.46-3.6-.29-.37-.55-.81-.74-1.21-.15-.26-.26-.48-.37-.74-.15-.33-.29-.7-.44-1.07l-.52-1.65-.11.04-.07-.51-2.13.85c-.11.04-.26.07-.37.15l-.18-.74-2.02.96s-.07.04-.11.04l.04-.74-.55.18-1.99.62c-.07,0-.11.04-.18.04v-.51l-2.17.44c-.07.04-.18.04-.26.04l-.04-.48-1.95.33c-.07.04-.18.04-.26.04t-.07.04l-.04-.44-1.99.18-.96-.07c-.11-.04-.26-.07-.37-.07l-.44-.11-.48.11h-.96c.22-.18.44-.33.66-.48l.4-.29,3.27-2.32-.04-.04,2.17-.7-.37-.59s.11-.07.18-.11l1.8-.99-.11-.18h.04l2.02-.7-.22-.48c.18-.07.37-.11.59-.15l2.28-.62-.18-.33s.04-.04.04-.04l2.24-.48-.15-.44c.11-.04.22-.07.33-.07l1.18-.11,1.18-.15-.26-.74c.26-.04.55-.07.88-.11l1.1-.04.44-1.03c1.69-3.57,4.38-7.28,7.83-10.77l1.62-1.66-1.95-1.21c-8.24-5.04-12.35-11.1-11.32-16.66.96-5.37,6.69-9.52,15.66-11.4l1.8-.37-.37-1.8c-1.84-9.16-.99-17.06,2.32-22.17l.77-1.18-.96-1.07-.59-1.32h.11l1.25.4.77.26.07-.26.59.52,2.13-1.47s.04,0,.04-.04c.99-.59,2.02-1.03,3.16-1.32,2.39-.7,5.07-.74,8.02-.15l3.12.4-.96-2.65c.26.48.59.96.96,1.36l2.06-1.51.88-.66c-.15-.26-.33-.55-.44-.85-.33-.7-.59-1.43-.77-2.17.22.74.52,1.47.92,2.13l.11.22,1.03,1.73-.29,1.25-.07.37.15-.22.52-.92.55.99,2.17-5.18-.04-.44v-.15l2.5-4.49c5.52-9.89,12.69-15.15,19.78-14.34,1.84.15,3.64.77,5.59,1.91l1.58.96.37-.66.07.04.85-1.43.15.07.92-1.58.63-.81.33-.26.07-.48c.07-.11.11-.18.15-.29l.04.22-.04.22.59,2.35v.33l-.18,2.54.22-.04-.15.85.51.07-.11,1.8.22.04-.29,2.06.51.62c.44.62.85,1.32,1.21,2.02l1.29,2.28,1.73-1.4c4.34-3.68,8.71-6.36,12.72-7.87,1.43,1.62,3.16,3.02,5.18,4.23-.63,1.1-1.18,2.21-1.73,3.31-6.8,13.79-7.43,25.81-1.84,32.83.26.37.55.66.85.99l.4.52c.4.4.85.81,1.29,1.18,2.9,2.35,6.51,3.71,10.85,4.08,3.05.22,6.36-.04,9.89-.77l-.37,1.58c-.11.18-.15.4-.22.62l-1.62,7.24-.18,1.88.11.04-.07.59c-.07.18-.11.33-.15.55l-.15.77-1.1-.37.22.81-1.1-.33.74,3.24-4.12,1.58,1.32,1.14-3.12.33,8.9,4.96-.07,2.39,1.18.07-.07.11.62.52c-2.9.92-5.37,2.43-7.35,4.49l-1.1-.7-1.07-.44c-.22-.11-.44-.22-.63-.29l-2.06-.74c-.15-.07-.29-.15-.44-.22l-2.21-.74c-.07-.04-.18-.07-.29-.11l-1.69-.48c-.11-.07-.18-.11-.29-.15l-1.36-.55-1.84-.37-.04.07-.59-.07c-.07-.04-.15-.07-.26-.11l-12.17-4.08,3.46,4.67,3.09,4.23c.37.48.7.96,1.1,1.43l.22.37-.48.29,1.4,1.62,1.69,2.21-.07.07,1.65,2.21-.04.04,1.91,2.35-.22.22,2.02,1.69-.11.11,2.02,1.69-.22.29,2.83,2.13c.29.22.63.44.96.62.4,3.57,1.43,7.43,3.01,11.29-5.15,1.29-9.3,3.27-12.32,5.88-1.25,1.03-2.28,2.17-3.09,3.42-1.1,1.62-1.8,3.35-2.13,5.22-.4,2.32-.15,4.67.66,6.95-1.14.11-2.39.07-3.64-.11l-1.91-.26-.18,1.91c-.48,4.96-1.43,9.3-2.79,12.91-.77-.15-1.65,0-2.39.44Zm-16.8,12.54c-1.03,2.83-1.58,6.14-1.65,9.82l-.07-.04c-.07-.07-.15-.11-.26-.18l-1.1-.74-1.07-.44c-.26-.18-.48-.33-.74-.44l-1.36-.62-.63-.15c-.26-.15-.48-.26-.7-.33l-1.36-.55-.85-.22c-.18-.07-.33-.15-.51-.22l-1.14-.33.96-2.21c.04-.07.07-.18.11-.29v-.04l.37.15,1.47-3.86.07.04,1.07-2.65.07.04.66-1.91c1.84,1.91,3.75,3.49,5.66,4.63.33.22.66.4.99.55Zm-72.91-14.38l-.59-2.57c0-.07-.04-.15-.04-.22l.33-.11-1.36-3.2.18-.11-1.32-3.2.4-.15-1.77-3.71c-.26-.52-.55-1.03-.88-1.51,1.8-4.67,2.98-10.15,3.46-16.03,3.09.77,6.07,1.25,8.82,1.43h.04c.74.88,1.58,1.73,2.54,2.46l-.66.26v.15l-1.1-.37-.7,2.21-9.96,1.62,2.79,1.36-1.51.55,3.24,2.87-1.76,2.72,1.03.04-.52.74,3.53.04-.59,1.88,1.47-.29-.26.48,1.21-.11-.18.26,3.31-.22-.55,1.58.4-.11-1.1,2.1,3.53-1.54-.88,2.72,2.17-1.47c-.04.92-.07,1.8-.07,2.65-4.23.59-7.87,2.21-10.81,4.85-.7.63-1.32,1.29-1.84,1.99Zm-20.41-57.76c-.37-1.58-1.76-2.79-3.42-2.9h-.26c-.44,0-.88.07-1.43.26l.55-1.69-.96-1.51c-.66-.99-1.73-1.62-2.9-1.69-1.4-.15-2.68.55-3.53,1.84-1.25-.37-2.54-.62-3.82-.7-8.16-.66-16.25,4.12-23.02,13.46l-.48-1.36-.22.11-1.14-3.02-.29.11c-.11-.22-.18-.44-.33-.62l-1.88-3.24-.11.07-.92-1.47-.66-.7c-.15-.26-.29-.51-.44-.74l-.88-1.21-.48-.48c-.11-.18-.18-.37-.33-.55l-1.88-3.27-.55.4-.96-1.14c-.07-.15-.15-.26-.22-.4-.26-.4-.55-.85-.85-1.21l-2.02-2.9-2.65,1.36-2.94.37-.11,2.46c-.04.77-.07,1.58-.07,2.57,0,.11,0,.18.04.29l-.22,1.65-.66.04.11,3.42v.18l-3.9-2.57c-.48-.33-.96-.62-1.43-.96-.04,0-.11-.04-.15-.07l-.22-.18.33-.48-1.8-.99-2.24-1.4.07-.07-2.39-1.51.04-.07-2.46-1.43.15-.33-2.43-.85.04-.15-2.39-.85.15-.33-3.42-1.03c-.33-.11-.7-.18-1.03-.26-1.58-3.09-3.82-6.25-6.54-9.27,5.55-3.79,9.19-8.13,10.63-12.54,4.52,5.88,10.04,9.38,16.11,9.85.51.04.99.07,1.51.07,8.79,0,17.17-6.1,24.01-17.36l1.03,2.68.96-3.13,2.35,3.9.37-2.68.44.59.55-1.88,3.05,2.46v-.44l1.29,1.1.11-.85,1.4,1.54.74-2.17,3.46,2.35v-1.07l1.14.7.11-3.68,5.07-.55-1.36-1.95,3.53.59-8.31-8.09.85-2.61-1.65-.55.37-.4-.66-.92.33-.22c3.79-.15,7.24-1.14,10.26-2.98.11-.07.22-.11.29-.18l.07.04c.04.07.11.15.15.18l2.35,2.57.22-.22c.11.07.18.15.29.22l1.51,1.14.62.37c.18.15.33.29.52.44l1.51,1.07.81.4c.11.11.26.22.4.33l1.25.81.55.26c.15.11.26.22.37.33l2.94,2.21.29-.37,1.03.48c.11.04.18.15.29.22l12.02,7.98-4.19-10.59-.29-.85c-.26-.7-.51-1.32-.77-1.99-.04-.07-.07-.18-.11-.26l-.26-.81.63-.22-.88-1.88-1.51-3.57.11-.04-1.32-3.2.07-.04-1.47-3.2s-.04-.07-.04-.07l.29-.18-.7-.96.74-.18c.62-.11,1.29-.26,2.1-.48,0,0,.04-.04.07-.04l.92-.15.15.52,2.72-.77v.04l2.28-.51.04.11,2.68-.7.04.07,3.13-.88c.11-.04.22-.07.33-.11l.15.26,2.1-1.1.04.18,3.01-1.51.18.37.55-.33c.51,3.46,1.51,6.51,2.98,9.08l.26,3.24c.07.92-.22,1.29-.55,1.58l-.26.26c-1.29,1.18-1.43,3.13-.4,4.45.99,1.43,3.2,2.28,5,1.21l.33-.18c1.47-.92,2.57-2.1,3.27-3.53.15.07.26.11.4.15l3.71,4.19c-3.01,5.55-3.86,13.24-2.43,21.95-9.52,2.39-15.63,7.43-16.8,13.94-1.21,6.62,2.83,13.57,11.14,19.23-2.72,3.01-4.96,6.14-6.54,9.27-.07,0-.11,0-.18.04-.29.04-.59.15-.88.22l-3.38,1.03.15.33-.99.4-1.91.77-1.8.92.04.07-1.51.92c-.15.11-.33.18-.44.26l-2.02,1.4s-.04.04-.07.04l-1.43,1.03s-.11.07-.15.11l-1.32.74-1.65,1.25.18.22-.18.15c-.07.04-.15.07-.18.11-.33.18-.66.4-.99.62-2.06-5.85-4.67-10.7-7.72-14.52l.63-.44-.63-2.5Zm-60.26,7.83c0,.22.04.48.07.74l-.26.07.66,3.24-.22.04.77,3.53-.48.11.99,3.64-.44.07.37,1.03c-2.79.26-5.33,1.07-7.61,2.46-1.76,1.07-3.27,2.43-4.56,4.05-.48-.4-.96-.81-1.47-1.18l-1.03-.66-.22-.15-.96-.07c-1.69-.18-3.31.85-3.97,2.43l-.92,2.5,2.21,1.95c.77.66,1.29,1.36,1.54,2.13l.15.37.55,1.51c-.74,2.9-1.1,6.14-1.1,9.71-.26,0-.51-.04-.81-.07-.44-.04-.85-.07-1.29-.07-.04-2.21,0-4.45.11-6.8l-.15-.88-1.77-2.61-.15-.22-.18.29-1.32,2.06c-.11.22-.22.4-.4.62l-.37-.55-1.54,2.35c-.07.15-.18.26-.44.55l-.18.22-.26-.33-1.4,1.98c-.07.11-.15.22-.37.4l-.15-.18-1.8,2.1c-.11.15-.26.33-.37.4l-.4.37-.18-.29-1.4,1.43c-3.68.88-6.88,2.32-9.52,4.19-1.76,1.32-3.31,2.83-4.6,4.52-.29.44-.59.88-.88,1.32-.51.81-.99,1.69-1.4,2.57-.81-.4-1.76-.44-2.72-.11l-1.43.59-.26.85c-.18-.18-.4-.33-.63-.48-1.25-.74-2.9-.59-3.93.37l-1.76,1.51.15.44c-4.45,1.36-9.12,3.93-13.94,7.72,0-.04-.04-.11-.07-.15l.22-2.54-.26-.04-.88-7.54-.22.04-.4-3.64,1.07-.04.22-2.1c.04-.26.07-.48.07-.74l.48.18.22-4.63h.07l.15-2.24h.07l.15-3.09.37.04-.26-2.32h.07l-.22-2.24.15.04c9.41,8.42,18.9,12.46,26.55,11.4,1.65-.18,3.2-.63,4.63-1.32.4-.18.81-.4,1.21-.62,5.3-3.13,8.31-9.12,8.82-17.21.11-1.65.15-3.35.04-5.15l2.13,1.47-.88-2.72,2.98,1.32.55.22-.44-.81-.62-1.25.37.11-.51-1.58,1.21.07.99.07,1.1.07-.22-.29,1.21.11-.26-.48,1.47.33-.55-1.88,1.43-.04,1.51-.04h.55l-.04-.04-.44-.66,1.03-.07-1.62-2.46-.15-.22.11-.11,3.13-2.76-1.51-.59,2.79-1.36-10-1.58-.7-2.21-1.1.33.04-.15-.66-.22c2.28-1.84,4.01-4.01,5.11-6.51l1.21.26,1.32.04c.18.04.37.04.48.04l1.47.07.63-.04c.18,0,.33.04.51.04h1.43l.88-.11h.26l1.69-.07h.33l1.43.04,2.43-.48h.26l7.1-.18-.07,2.76h-.04l.07,3.68Zm-21.69,37.25c-.77,0-1.51.04-2.21.07l1.47-1.65.22.37.48-.55c0,.59,0,1.18.04,1.76Zm-97.55,30.92l.11.22c-1.32-.4-2.79.04-3.6,1.07-1.1,1.29-1.1,3.2.18,4.63.4.44.7.96.88,1.54-4.04-.29-7.68.52-10.85,2.39l-3.57-2.98-.37,2.54-.22-.07h0l2.82-50.5h.01s.07.05.11.09l3.53,3.9-.33-5.26c-.15-1.91-.18-3.79-.11-5.52h0s0,0,0,0c1.07.55,2.46.59,3.82-.22,1.47-.88,2.57-2.06,3.27-3.49,2.54,1.18,5.41,1.69,8.46,1.51,1.73,14.38,7.61,23.79,15.96,25.33,3.42.66,6.95-.07,10.48-2.17,1.95-1.14,3.86-2.68,5.7-4.6l.26.7c.04.11.11.26.15.4l2.24,5.44.92,1.69.11-.04.04.04c.04.11.07.26.15.37l1.03,2.35-1.4,2.28c-.11.18-.22.37-.29.52l-.4-.22-1.21,2.32c-1.8-.85-3.6-1.36-5.48-1.54-8.16-.88-16.22,4.41-22.39,14.52-.74-.22-1.58-.18-2.32.15l-1.1.48c-.18-.44-.4-.85-.66-1.25l-.33-.48-.92-.85c-1.32-.77-3.05-.55-4.04.48-1.14,1.03-1.43,2.65-.63,4.23Zm-23.2,69.79l-.04-.04-.37-.22c-7.1-4.38-11.14-9.52-11.43-14.38-.07-.77-.04-1.54.11-2.28.15-.81.4-1.58.74-2.32,1.62-3.46,5.48-6.29,10.96-8.05h.04v27.28Zm-15.11,12.5l-2.87,1.21-1.73.88v-45.39c.3,4.4,1.84,8.55,4.56,12.34,0,0,0,0,0,0-.11.29-.18.59-.22.88-1.21,6.62,2.83,13.53,11.14,19.23-2.72,2.98-4.96,6.14-6.54,9.23-.37.07-.7.15-1.07.26l-3.38,1.03.11.33Zm-3.16-266.47l-.18.29,3.31-.26-.51,1.62.33-.07-1.1,2.02,3.6-1.54-.88,2.68,2.13-1.47c-.18,3.57,0,6.8.63,9.67l-2.68-1.25-.22.55-.77-.18c-.07-.07-.18-.11-.29-.15-.37-.18-.74-.29-1.14-.44l-2.9-1.03-.74,1.4v-12.1l.48-.11-.22.44,1.18-.07Zm1.14-8.09l3.05-.48.29-1.03.96.11.22-.66,1.69-.29-.15-.96,1.58-.59-.22-.55h4.38l-5.37-3.38c-2.61-1.65-4.49-3.71-5.55-6.21-.15-.33-.29-.66-.4-1.03l-.51-1.65-.37.11-.15-.48-2.02.77v-9.08l2.17-.18-.29-.77c.29-.07.59-.11.88-.11l1.1-.07.48-.99c1.69-3.6,4.41-7.32,7.83-10.81l1.65-1.62-1.99-1.21c-4.93-3.05-8.46-6.51-10.22-10.04-1.14-2.24-1.51-4.49-1.1-6.66.18-.99.55-1.98,1.07-2.98,2.24-3.93,7.43-6.91,14.63-8.38l1.77-.37-.37-1.8c-.07-.44-.15-.88-.22-1.29-.26-1.4-.4-2.72-.51-4.01-.63-6.69.33-12.43,2.83-16.51v124.24c-.29-.11-.59-.26-.88-.44-1.21-.74-2.28-1.65-3.13-2.83-.07-.04-.15-.11-.18-.18-1.1-1.43-1.99-3.12-2.61-5.11-1.21-3.93-1.51-8.86-.77-14.56l.44-3.49.29-.88-1.36.59.18-.33-2.02.55.07-.22-1.07.07.33-.44-2.39.22.22-.44-1.32.04.26-.7-1.43.29.18-.59-1.4-.04.33-.48-1.4-.07-.81-.77,2.02-.11-.7-1.1Zm11.14-72.47c-6.18,1.54-10.85,4.12-13.71,7.57v-33.02c.66.04,1.36.04,2.02,0,1.32,11.51,5.48,19.97,11.44,23.57.04.63.15,1.25.26,1.88Zm-13.71,25.63c1.91,2.68,4.6,5.22,8.02,7.54-2.72,3.02-4.96,6.18-6.55,9.27-.33.07-.7.15-1.07.26l-.4.11v-17.17Zm21.99-184.58l.52-.33h1.32v-.74c1.47-.74,2.98-1.18,4.49-1.32,7.1-.77,14.27,4.49,19.78,14.34l2.5,4.45v.33l2.21,5.48.51-.96.96,1.69c-6.47,19.56-10.33,40.04-11.51,61.07l-1.84,32.72-.81-.74c-1.32-.77-3.01-.55-4.08.48-1.1,1.07-1.4,2.65-.59,4.23.04.07.07.15.11.22-1.32-.4-2.76,0-3.6,1.07-1.1,1.29-1.1,3.2.18,4.63.4.44.7.92.88,1.54-4.01-.29-7.65.51-10.85,2.39l-.18-.15v-130.42Zm32.28,19.6l.33-.59c.44-.74.74-1.51.99-2.24-.26,1.03-.63,2.02-1.18,2.9l.74.55c-.11.33-.22.7-.37,1.07l-.51-1.69Zm-9.08,106.45v-.15l2.5-4.49c4.56-8.16,10.26-13.16,16.14-14.19,1.21-.22,2.43-.29,3.64-.15,1.18.11,2.39.44,3.6.96.66.26,1.32.59,2.02.99l1.58.92.44-.77,2.43-3.53.44-.26.07-.59.11-.22.04.29-.04.15.59,2.32v.11l-.04.11.11,2.13h.11l-.11,1.18.33.07v.18l.07,1.58h.04l-.29,2.24h.11v.07l.4.59c.51.74.96,1.54,1.43,2.39l1.07,1.95.55-.44,1.18-.99c.4-.33.77-.66,1.18-.96,3.31-2.65,6.58-4.71,9.67-6.1,1.62-.74,3.16-1.29,4.63-1.62l.96.04.66-.04c.18,0,.33.04.48.04l2.28-.11c.07.04.18.04.29,0l1.73-.07h.33l1.43.04.18-.04c.99.26,1.84.62,2.68,1.1,2.98,1.76,5.07,4.85,6.18,9.01.33,1.21.59,2.5.74,3.86.04.22.04.4.07.62.15,1.76.18,3.71.07,5.74l-.29,5.33,3.16-3.6.33-.4.07-.07.37.63,1.65-1.73c.15-.11.29-.26.44-.4l.4.62,1.54-1.58c.18-.18.33-.33.48-.44l.4.92,1.88-1.8s.11-.07.15-.11l.22.59,1.95-1.32c.15-.07.26-.15.37-.22l.33.77,1.84-1.43c.07-.04.15-.07.26-.15l.15.33,1.76-.81.07-.04.15.26,1.36-.66,1.14-.44c.29-.11.59-.22.85-.33l.15.18c-.18.26-.37.55-.63.88l-2.54,1.47,1.4.99-.26-.07-1.03,1.36.29.26c-.11.11-.26.26-.37.37l-1.1,1.4.22.29c-.15.18-.26.33-.44.44l-1.77,1.88.44.26s-.07.04-.11.07l-1.84,1.62.51.4c-.18.15-.4.26-.48.33l-1.54,1.36.22.26c-.15.11-.33.22-.51.33l-1.76,1.4.29.33c-.15.11-.29.22-.51.33l-2.06,1.14.59.66c-.18.11-.37.22-.55.29l-2.28,1.1.55.55-1.4.99,2.24,1.47c.11.07.22.15.29.22,1.36.96,2.43,2.02,3.2,3.24.29.48.55.96.77,1.43.66,1.54.96,3.24.81,5.07l-.15,2.72,1.65-.55s-.07.07-.15.11l-2.13,1.51-.22.55c-.85,2.46-2.35,5.04-4.38,7.68l-1.36,1.73,1.95,1.03c.66.33,1.29.66,1.88,1.03,8.2,4.85,12.54,10.96,12.21,17.24-.37,7.57-7.65,14.38-19.49,18.16l-3.82,1.25,3.09,1.84-.4.63,1.95.88c.15.07.26.11.4.18l-.48.48,2.28,1.07c.29.15.55.29.63.22l.11.11-.4.74,1.95.81c.18.04.33.11.4.15,0,0,.04.04.07.04l-.59.55,2.28,1.36s.04.04.07.04l-.59.48,2.1,1.36c.15.11.26.22.4.33l-.51.66,1.8,1.07c.07.04.18.15.29.22l-.48.51,1.47,1.1,1.14,1.51.26.48.4.26c.22.18.4.44.59.66l-.07.18c-.33-.07-.7-.15-1.07-.29l-.55-.15c-.44-.07-.62-.11-.77-.11l-.22.04-.92-.15-1.99-.99-.18.7c-.11-.04-.15-.07-.22-.11l-1.88-.81-.26.51c-.11-.07-.26-.11-.37-.22l-2.17-1.03-.18.59c-.07-.04-.22-.11-.4-.22l-2.13-.96-.15.48c-.11-.07-.22-.15-.29-.26l-1.65-1.62-.51.85c-.15-.07-.33-.18-.48-.33l-2.13-1.47-.18.55c-.15-.11-.26-.18-.33-.29l-1.73-1.47-.44.77-2.43-1.21-.18,2.79c-.26,4.3-1.25,7.91-2.94,10.7l-.26.77c0,.22-.04.4-.04.48l-.26,3.2c-.15,2.17.66,3.57,1.62,4.49h-.15c-1.32-.81-2.06-1.91-2.28-3.31l-.52-3.35-2.54,2.21c-.81.48-1.65.88-2.57,1.18-1.69.59-3.57.85-5.52.74-.51-.04-1.07-.07-1.62-.15l-1.91-.26-.18,1.91c-.04.26-.04.55-.11.81-.15,1.69-.37,3.31-.66,4.85-1.99,10.33-6.51,17.13-12.39,18.24-2.5.48-5.18-.11-7.94-1.73-2.28-1.36-4.6-3.46-6.8-6.21l-2.21-2.72-.74,2.43-.7-.07v1.99c0,.29-.04.48-.15.74l-.04.11h-.55l-.11,1.21-.22-.15-.63,2.57c-.04.15-.07.26-.11.4l-.18-.04-.51,1.43c0,.11-.04.18-.07.29l-.26-.11-1.62,4.16-.33-2.02-.29-.96-.29-5.22-.15.04-.04-2.35h-.04v-.04l.15-2.28h-.04l.44-2.35-.29.04.4-2.65-.22.04.44-2.43-3.35.51-.44.44c-5,5.11-10.26,9.01-15.15,11.32l1.32-23.9,4.27-75.23,1.69-30.89.51,1.03,1.58-3.86c.18-.44.37-.88.55-1.32l.18-.4-.04-.48Zm64.9-21l.07.04c.26.18.52.33.77.48l-.55.04-.29-.55Zm-.77.26c-.18-.59-.55-1.1-1.07-1.47l1.18.77.33.33.15.07-.59.29Zm28.17,11.8l.85-.15-1.21-2.24c-.22-.4-.4-.85-.55-1.32l1.14-.22-1.18-2.17c-.18-.37-.33-.77-.44-1.21v-.04l.92-.18-1.03-2.1c-.18-.44-.37-.88-.44-1.25v-.04l.81-.22-.81-1.88c-.18-.4-.4-.96-.44-1.36l1.03-.11-.81-2.32c-.11-.4-.18-.74-.22-.96l1.03.07-.7-2.5c-.11-.37-.15-.77-.15-1.14l.7-.22-.33-1.76c-.07-.4-.15-.77-.18-1.18v-.07l.59-.07-.11-1.8c-.04-.15-.04-.26-.04-.33l1.29.07-.96-2.35.07-.22-.11-.74c0-.55,0-1.07.04-1.62l.88-.26.22.26c.22.33.48.66.85,1.36l1.18,2.13.44-.18,1.43,2.43.44-.26c.18.33.29.59.37.81l.96,2.02.55-.29c.15.29.33.62.44.99l1.1,2.06.4-.29.04.04c.07.15.22.44.29.85l.81,2.35.66-.37c.18.37.33.81.4,1.4l.33,2.1.85-.26c.15.44.22.92.29,1.36l.37,2.39.81-.37c.07.26.15.48.18.74l.59,5.22,2.79-4.45c6.4-10.26,14.05-15.52,21.73-14.97,1.51.11,2.98.44,4.41,1.03l1.88.74.55-1.91c.11-.29.22-.59.66-.96l-.07.26c-.29.85-.29,1.8,0,2.9l.18.66,2.79,2.02,1.1-.81c.22-.15.48-.29.99-.29v.04l-1.76,1.47,1.25,1.4c1.8,1.99,3.46,4.41,4.93,7.21.59,1.07,1.14,2.17,1.62,3.31,1.47,3.16,2.68,6.73,3.71,10.59l.59,2.17,2.46-1.18c.92-.48,1.84-.92,2.79-1.25l.66-.26.15-.29.29.18.81-1.98c.07-.11.15-.22.18-.29l.18-.26.29.18.92-1.65.07-.11.59.44.62-1.51.22.26,1.21-2.02h.04l3.82-4.01h.07l-.07.96v.81l-.18.7.04.29v.15l.07.92.15,1.47-.04.15c-.07.26-.07.52-.11.74l-.07,1.84.22,1.03,1.84.15c.11,0,.18,0,.29.04,2.5.22,4.78.92,6.8,2.06,8.05,4.49,11.77,15.33,10.26,29.75l-.66,6.58c-.11.11-.18.22-.26.33l-.26.33-1.32,5.85,3.38-1.54c1.43-.62,2.76-1.54,3.79-2.61l2.02-2.02c1.14-1.18,2.5-2.1,3.9-2.72l.29-.11.18.04-.33.33.04.04c-1.36.7-2.61,1.65-3.71,2.9l-1.84,2.21c-1.25,1.47-2.87,2.65-4.6,3.42l1.14,3.46c1.03-.22,2.06-.66,2.94-1.29l2.13-1.4c.63-.4,1.32-.74,2.06-.99-.07.18-.11.37-.15.59-.59.29-1.14.62-1.65,1.03l-5.37,3.97,2.94,1.29c1.07.48,2.02.99,2.94,1.51-.04.15-.04.29-.04.44l-.07-.04c-.07-.07-.15-.11-.26-.18l-1.1-.74-1.07-.44c-.26-.18-.51-.33-.77-.44l-1.32-.59-.63-.18c-.26-.15-.48-.26-.7-.33l-1.32-.55-.88-.22c-.18-.07-.37-.15-.51-.22l-1.69-.48c-.11-.07-.26-.11-.37-.18l-3.09-1.43-.22.55-.77-.18c-.11-.04-.18-.11-.29-.15-.37-.15-.74-.29-1.1-.4l-2.94-1.07-1.21,2.32-1.95,1.76,1.25,1.91c.29.51.66,1.03,1.14,1.73.04.04.07.11.11.15l.44.85-.44.37,1.69,2.21,1.1,1.73-.07.04,1.65,2.54-.04.04,1.95,2.65c.07.07.15.18.22.26l-.15.18,1.84,1.76-.11.11,2.1,1.91-.26.29,2.28,1.91-.26.29.66.44c-1.36,1.25-2.43,2.68-3.2,4.27-.15.18-.22.4-.33.62-.4.92-.7,1.88-.88,2.87-.11.51-.18,1.03-.22,1.54-.44-.04-.77-.04-1.47-.04l-.96.04-.74.4c-1.29.81-1.99,2.35-1.62,3.82l.15.51.48,1.8,2.57.26c.11,0,.22.04.29.07.59.07,1.1.22,1.47.55l1.21.81c.62,1.66,1.47,3.35,2.54,5,.29.48.59.92.92,1.4-.04.04-.11.07-.18.11-.18.11-.37.22-.55.33-9.05,5.55-13.83,12.72-13.42,20.26.22,4.96,2.61,9.49,6.84,13.35-2.17.15-4.49.15-6.91,0l-2.32-.15.4,2.28c1.03,6.18,1.1,12.1.22,17.06l-.18,1.07.85.7c.48.4.88.77,1.25,1.25l-.74.52,1.8,1.58c.18.15.4.4.59.66l.07.11-.66.44,1.73,1.54c.15.15.29.33.48.51l-.7.4,1.76,1.69c.29.29.51.55.63.85l.15.29-.59.37,1.32,1.62c.22.26.33.44.37.51l.04.07-.44.18,1.03,1.8c.15.26.26.48.37.66l-.88.37,1.69,1.95c.04.07.15.29.22.48l-.51.22,1.07,1.91.22.74.37,1.58.26.29c.29.66.51,1.25.74,1.84l.26.7-2.17-1.51.04-.77-1.51-.11-1.25-.74-1.47-1.29-.33.4c-.26-.18-.44-.4-.66-.59l-1.51-1.25-.26.29c-.18-.15-.4-.33-.63-.59l-1.69-1.4-.22.33c-.11-.11-.29-.33-.55-.66l-1.8-1.88-.33.55c-.15-.11-.33-.33-.55-.74l-1.1-1.95-.66.59c-.22-.26-.4-.55-.63-.88l-1.47-1.69-.18.22-.15-.18-1.4,1.07c-.37.29-.81.55-1.21.81-3.01,1.84-6.55,2.65-10.55,2.46l-6.25-.33,3.68,2.61-.85.51,1.18,1.69-.81.85,1.36,1.36-.33,1.03,1.21.4-.44,1.29,3.02,2.94-.4.15.96,1.88s.04.15.29.48c-.15,0-.37.04-.63.07l-1.51.22-.04.37-1.47-.92.04.81-1.65-1.14-.33.99-1.03-.99-.18.51-1.47-1.1-.07.66-2.17-1.84v.7l-1.29-1.07-.15.48-1.51-1.8-.07.7-1.21-1.95-.18.66-.04-.11-1.91,3.6c-6.69,12.65-15.44,19.49-23.94,18.83-6.07-.48-11.51-4.63-15.77-11.66,0-.4-.07-.77-.15-1.18-.48-2.76-1.87-5.22-4.01-7.35-1.73-4.6-3.16-9.89-4.12-15.77l-.29-.81-2.46-2.32-.96,2.61c-.07.11-.11.26-.18.4l-.44-.4-.99,2.61c-.07.15-.15.26-.29.59l-.07.11-.33-.26-.92,2.21c-.04.07-.07.18-.15.29l-.18-.15-1.07,2.02-.22.4c-.07.15-.15.33-.22.44l-.22.26-.26-.26-1.32,2.21-.37.44-.04-.04-1.43,1.76-.11.11-.15-.11-1.18,1.58-3.49,3.46v.18c-.11.18-.26.33-.37.48l-.63-.29,1.29-5.77-.29-.07.74-2.5-.18-.07.04-.04c.04-.22.11-.44.22-.7l.81-2.35-.37-.04c.04-.15.15-.33.18-.4l.88-1.99-.4-.11.07-.22c.04-.29.18-.59.44-.92l.85-1.76-.4-.22.92-2.57-3.42.99c-4.38,1.25-8.35,1.73-11.77,1.47-4.16-.33-7.43-1.73-9.78-4.19-4.34-4.41-5.07-12.02-2.28-21.22.59-2.13,1.4-4.34,2.43-6.66.92-2.13,2.06-4.3,3.31-6.55.51-.15,1.03-.33,1.51-.55.74,1.43,1.88,2.65,3.57,3.68,1.8,1.07,4.01.22,5-1.14,1.07-1.4.92-3.31-.37-4.52l-.29-.26c-.29-.26-.59-.62-.51-1.54l.26-3.27c1.47-2.54,2.46-5.59,2.94-9.05l.59.33.22-.37,1.07.55,1.03.29,2.98,1.58.15-.29c.11.07.22.11.33.15l1.4.37.66.11c.22.11.48.18.74.22l1.36.37.7.04c.22.11.44.15.7.22l1.14.26h.63c.15.07.29.11.44.18l3.16.88.11-.52.85.11c.07.04.18.07.29.11.66.18,1.32.29,1.88.4l2.28.51.99-2.46,1.65-2.02-1.84-2.17c-.29-.33-.59-.66-.77-.88-.07-.07-.11-.15-.18-.18l-.63-.85.37-.4-1.95-2.02-1.43-1.69.07-.07-1.8-2.02.04-.04-2.39-2.54c-.07-.07-.18-.15-.26-.22l.15-.26-1.91-1.32.07-.07-2.46-1.8c11.62-4.52,18.46-11.8,18.86-20.37.4-7.72-4.56-15-14.01-20.59-.07-.04-.11-.07-.18-.11,1.51-2.17,2.68-4.3,3.49-6.4l1.25-.88c.4-.29,1.03-.52,1.73-.55l2.54-.26.66-2.39c.33-1.43-.37-2.98-1.95-3.93l-.4-.26-1.32-.04c-.37,0-.74.04-1.1.07-.15-1.54-.52-3.02-1.1-4.45-.18-.44-.4-.88-.63-1.29-.66-1.07-1.4-2.06-2.32-2.98-.18-.22-.37-.4-.59-.59l.62-.44-.26-.29,2.28-1.87-.26-.29.74-.7.63-.81c.11-.11.22-.18.33-.29l.96-.92.63-.88c.22-.18.48-.44.7-.7l.85-1.21.26-.48.55-.66.81-1.21.33-.7c.11-.18.26-.33.37-.51l.63-.99.22-.52c.11-.11.18-.26.29-.37l1.91-2.5-.44-.37.51-.96c.07-.07.15-.18.22-.29.37-.51.7-1.03.92-1.43l1.32-1.99-1.99-1.73-1.21-2.32-2.76.99c-.4.15-.85.29-1.32.48-.04.04-.07.04-.07.04l-.96.33-.26-.59-1.73.81-2.9,1.14-.07-.15-2.68,1.1-.07-.11-3.02,1.4s-.11.04-.15.07l-.18-.22-1.36.92c1.29-2.02,2.79-3.57,4.67-4.71,2.35-1.4,5.07-2.06,8.24-1.99l2.68.07-.66-1.88Zm62.95-11.25c-1.84-9.19-.99-17.06,2.32-22.21l.77-1.18-.96-1.03-.59-1.4h.04l2.1.74.04-.29.63.51,2.1-1.43c1.47-.88,3.09-1.47,4.85-1.73,1.4-.26,2.9-.26,4.52-.11.62.07,1.25.18,1.88.29l3.13.44-.96-2.68c.26.48.59.96.96,1.36l2.94-2.17c-.55-.92-.96-1.95-1.21-2.98.26.81.59,1.58,1.03,2.32l.77,1.32-.81,3.31,1.32-2.39.59.96,1.29-3.05.88-2.13-.04-.4v-.18l.74-1.32,1.77-3.16c5.52-9.85,12.69-15.11,19.78-14.34,1.84.18,3.64.81,5.59,1.95l1.54.92.44-.74.07.04.81-1.36.15.11.92-1.62.63-.81.33-.26.07-.48c.07-.07.11-.18.15-.26l.04.18-.04.22.59,2.39v.33l-.18,2.54.22-.07-.15.88.51.04v1.73l.11.11-.29,2.06.51.62c.44.63.81,1.32,1.21,2.02l1.29,2.32,1.73-1.43c5.59-4.71,11.18-7.76,16.07-8.86l1.4-.59,1.4.15,1.95-.18.48-.4c.11-.04.18-.11.26-.18l-.18.63,1.95.44c1.14.29,2.21.7,3.2,1.32,5.07,2.98,7.57,9.82,7.02,19.19l-.18,3.38-.11,1.84,3.49-3.9s.04-.04.07-.04l.4.66,1.65-1.8c.18-.15.33-.29.48-.44l.44.59,1.47-1.54c.18-.18.33-.29.48-.4l.4.88.4-.4c0,1.03,0,2.1.11,3.2.07,1.73.29,3.49.59,5.33-9.56,2.39-15.63,7.43-16.8,13.94-1.25,6.62,2.79,13.53,11.1,19.23-2.72,2.98-4.96,6.14-6.55,9.23-.33.07-.7.15-1.07.26l-3.38,1.03.15.33-2.9,1.21-1.76.92.04.04-1.54.96c-.15.07-.29.18-.44.26l-2.02,1.4s-.04.04-.07.04l-1.43,1.03s-.07.07-.15.07l-1.32.74-1.62,1.29.15.22-.15.11c-.07.07-.15.11-.18.15-.55.29-.99.59-1.51.96l-9.08,5.99,11.21.33-.55,4.93-.07.55-.44-.07-.66,7.61-.4.04.4,2.54s-.07.11-.11.15c-4.82-3.79-9.49-6.36-13.94-7.72l.18-.44-1.76-1.47c-1.07-.99-2.72-1.14-3.97-.4-.22.15-.4.29-.62.48l-.26-.85-1.47-.59c-.99-.37-2.1-.26-3.02.26-.99.63-1.58,1.62-1.62,2.87-.88.33-1.76.74-2.61,1.21-.59.37-1.18.77-1.73,1.21,0-.11-.04-.22-.04-.33-.29-1.69-1.73-2.98-3.57-3.13h-.51l-1.43.44c-.74.33-1.47.7-2.17,1.14l.15-.4-.92-1.51c-.51-.85-1.36-1.43-2.39-1.69,1.1-14.97-3.31-26.29-12.28-31.29-.77-.44-1.62-.85-2.46-1.14-1.43-.59-2.94-.99-4.63-1.25l.18-1.36-.04-.92-.07-.99-.22-.04c0-.07.04-.15.04-.22.04-.33.07-.66.07-1.03l.22-3.53.4-5.7.15-2.39-3.68,4.08-1.03,1.21-2.79,3.09-.07.07-.74.88-.4-.37-2.83,3.53-.07-.07-1.47,1.73-.11-.07-1.62,2.13-.37-.22-1.32,2.61c-.29.15-.59.26-.88.4-.92-3.09-1.95-5.96-3.09-8.6.4-.07.81-.18,1.21-.26l1.8-.37-.37-1.8Zm89.2,37.69l-.04.11,3.49-.15h.04l.07.29,2.28-.48.04.18.74-.18c.81,1.8,1.99,3.49,3.46,4.93-1.95-.51-3.9-.7-5.88-.48-1.84.18-3.64.66-5.48,1.54l-1.47-2.17-.15.07c-.11-.18-.22-.37-.33-.55l-1.99-3.24,1.07-.04,1.8.04v.11h2.35Zm36.7,32.98c4.38-.85,8.16-.33,11.14,1.47l.18.11c-.92,1.51-1.65,3.13-2.21,4.89-.07.22-.11.44-.18.66l-.04.26c-.33,1.21-.51,2.5-.63,3.79-.59,7.46,2.21,16.03,8.09,24.78v.37l-3.97.04v.18h-2.98l-.04.29c-.29,0-.55.04-.85.11l-1.8.37-.63.22c-.4.04-.77.07-1.1.15l-1.76.44-.74.33c-.33.04-.63.07-.92.18l-1.43.33-.66.33c-.22.04-.44.07-.7.11l-3.6.66.15.62-1.43.48c-.18.04-.33.07-.44.11-.62.11-1.29.29-1.91.48l-2.83.66.22,3.02-.7,2.94,2.28.92c.7.33,1.47.66,2.46.99.04.04.07.04.15.07l1.47.7-.22.59,3.38,1.21v.04l2.68,1.14s.04,0,.07.04l-.04.11,3.16,1.21v.07l3.42,1.18c.26.11.55.18.81.26l-.04.33,3.09.4-.07.18,4.12.63-.07.51,1.07.07c-2.21,4.12-3.53,8.2-3.86,12.1l-2.17,3.68c-.7,1.18-1.47,1.4-2.17,1.47l-.37.07c-1.91.26-3.31,1.91-3.24,3.79,0,2.02,1.58,4.26,3.82,4.45l.51.04c2.24.15,4.3-.33,6.07-1.43.18.33.37.7.63.99-3.57,1.51-7.28,3.75-11.03,6.73-.04-.07-.07-.11-.11-.18l.22-2.54h-.26l-.88-7.57-.22.04-1.21-10.52-5.37,8.79c-.11.18-.22.37-.33.52l-.37-.22-1.21,2.32c-1.8-.85-3.6-1.36-5.48-1.54-8.16-.85-16.22,4.41-22.39,14.52-.74-.22-1.54-.18-2.32.15l-1.1.48c-.18-.4-.4-.85-.66-1.21l-.33-.51-.92-.81c-1.32-.77-3.05-.59-4.04.44-.4.37-.7.81-.88,1.32-.29.88-.26,1.95.26,2.94.04.07.07.15.11.18-1.32-.37-2.79.04-3.6,1.1-1.1,1.25-1.1,3.16.18,4.6.26.29.44.59.59.92.15.18.22.4.29.62-.44-.04-.88-.04-1.29-.04-2.5-.04-4.89.37-7.06,1.21-.7.26-1.36.59-2.02.96l-.66.11-3.38-2.83-.37,2.54-6.47-1.76-2.21-1.91-.48,3.31c-.22,1.43-.96,2.5-2.43,3.46l-.07-.04c.88-.85,1.88-2.28,1.65-4.56l-.29-4.08-.26-.4c-1.69-2.79-2.68-6.4-2.94-10.7l-.18-3.05-2.46,1.51-.44-.77-1.65,1.47c-.11.07-.18.15-.33.22l-.29-.85-2.02,1.8c-.22.18-.4.29-.37.37h-.11l-.55-.88-1.65,1.66c-.07.07-.18.18-.29.22l-.22.11-.33-.62-2.02,1.18s-.07.07-.15.07l-.22-.77-2.02,1.18c-.15.07-.26.15-.4.22l-.33-.77-1.8,1.07c-.11.07-.22.15-.33.18l-.26-.62-1.95.88-1.1.11c-.11,0-.51.07-.55.07h-.44l-.37.26c-.29.07-.63.15-.92.18l-.11-.15c.18-.26.4-.48.59-.74l1.69-2.13,1.62-1.29-.4-.44c.11-.07.18-.15.18-.15l1.65-1.29-.37-.44c.15-.15.29-.26.44-.37l1.69-1.43-.29-.29c.07-.07.22-.15.37-.26l2.1-1.51-.44-.37c.11-.04.22-.07.37-.15l1.91-.81-.37-.66c.18-.11.4-.22.66-.33l2.1-1.29-.26-.29c.15-.04.26-.11.37-.18l2.02-.88-.4-.62,2.98-1.88-3.79-1.21c-2.54-.81-4.85-1.73-6.91-2.79-1.58-.81-3.02-1.65-4.34-2.57-5.07-3.6-7.98-8.02-8.2-12.8-.29-5.77,3.38-11.43,10.37-16.1.59-.4,1.18-.77,1.8-1.14.48-.26.99-.55,1.62-.88.11-.04.18-.11.29-.15l1.91-1.03-1.18-1.54-.15-.18c-.44-.59-.88-1.18-1.29-1.76l-.22-.33c-1.29-1.91-2.24-3.79-2.9-5.59l-.18-.55-1.1-.77-.99-.7-.22-.11,1.25.4.44.15-.18-2.72c-.04-.81-.04-1.58.07-2.32.11-.96.37-1.88.77-2.76.04-.11.11-.26.18-.37.07-.15.15-.29.22-.4.81-1.62,2.17-2.98,3.86-4.12l2.24-1.47-1.4-.99.55-.55-2.28-1.1c-.18-.07-.37-.18-.55-.33l.66-.7-2.21-1.1c-.15-.07-.29-.18-.44-.29l.55-.59-2.02-1.14c-.18-.11-.37-.26-.55-.37l.44-.55-1.73-1.07c-.11-.07-.33-.22-.55-.37l.7-.51-1.95-1.43c-.07-.07-.11-.11-.18-.15l.74-.4-2.02-1.69c-.15-.11-.29-.26-.4-.4l.44-.44-1.32-1.25c-.18-.18-.37-.33-.51-.55l.26-.37-.81-1.03,1.07-.59-2.13-1.4-.48-.55c-.18-.26-.37-.51-.55-.81l.15-.15c.29.07.59.18,1.03.4l2.1,1.14.22-.44,2.06.99.15-.4c.07.04.15.07.18.15l1.91,1.18.26-.55c.11.07.26.15.37.22l2.06,1.14.15-.4s.07.07.15.11l1.99,1.54.29-.63c.11.07.26.22.44.4l1.69,1.25.22-.33c.15.15.33.29.48.44l1.84,1.51.22-.37s.04.04.07.07l3.49,3.86-.29-5.22c0-.37-.04-.74-.04-1.07-.07-1.62,0-3.16.11-4.6.11-1.1.26-2.13.48-3.13.04,0,.11-.04.15-.04,1.84-.44,3.09-2.17,2.9-3.97-.04-.77-.33-1.51-.77-2.1,1.07-1.84,2.5-3.27,4.19-4.3,1.03-.59,2.06-1.03,3.24-1.29l1.95-.48-.22-.62c.11.11.22.18.37.29l.51.44,2.79.04v.04l1.8.4c4.93,1.1,10.48,4.15,16.11,8.86l1.69,1.43,1.29-2.28c.4-.7.77-1.4,1.21-2.02l.44-.62-.04-.18.26-.04-.44-2.02h.22l-.07-1.43.62.07-.22-1.03.26.07-.26-2.54.59-2.98-.04-.15v-.22l.15.15.22.62,1.58,1.99c.07.15.15.26.18.37l1.03,1.62.11-.07.48.59,1.58-.92c1.73-1.03,3.57-1.66,5.41-1.84,1.58-.18,3.16-.04,4.71.4,1.14.26,2.24.7,3.35,1.29.33.18.63.33.96.55,3.9,2.35,7.65,6.47,10.77,12.1l2.5,4.49c0,.07,0,.11-.04.18v.44l2.17,5.15.74-1.76.99-1.25.11-.15.33-.37c-.11.33-.29.66-.48.99l2.94,2.21c.37-.44.7-.88.96-1.4l-.99,2.87,3.13-.63Zm19.23,7.94l.18,3.05h.04l.22,2.32.04-.04.44,4.52.22-.11c0,.22.04.44.04.62l.22,2.24,1.65.07,1.18.04,2.54.7,1.58-3.6c.04-.07.07-.18.11-.29l.04-.04.33.15,1.51-3.9.07.07,1.07-2.68.07.04.62-1.88c1.84,1.91,3.75,3.46,5.7,4.63,3.53,2.1,7.06,2.79,10.48,2.13,8.35-1.51,14.23-10.92,15.96-25.3,3.02.11,5.85-.37,8.46-1.54.7,1.43,1.88,2.68,3.57,3.71,1.8,1.07,4.01.22,5-1.14,1.07-1.4.92-3.35-.37-4.52l-.29-.29c-.29-.26-.59-.62-.51-1.54l.26-3.24c1.47-2.57,2.46-5.63,2.94-9.08l.55.33.22-.37,1.14.55.99.33,3.02,1.54.15-.26c.11.04.18.07.29.11l1.4.4.62.07c.29.11.55.22.77.26l1.36.33.7.07c.26.07.48.15.7.18l.29.07c.07.15.15.26.22.4l.26,3.24c.04.92-.22,1.29-.55,1.54l-.29.29c-1.29,1.21-1.43,3.12-.37,4.45.99,1.4,3.2,2.24,4.96,1.21l.37-.18c1.47-.92,2.57-2.1,3.24-3.53,2.57,1.18,5.41,1.69,8.49,1.51,1.69,14.41,7.61,23.83,15.92,25.33.85.15,1.65.26,2.5.26,1.54,0,3.09-.29,4.67-.85v77.19s-.03.02-.04.03c-.48.4-.92.88-1.36,1.36-.18.22-.37.44-.55.7-.48-.4-.96-.81-1.51-1.18l-1.21-.85-.96-.04c-1.73-.18-3.35.85-3.97,2.43l-.92,2.5,2.21,1.95c.77.63,1.29,1.36,1.54,2.13l.7,1.88c-.77,2.87-1.1,6.14-1.1,9.71-.26,0-.51-.04-.81-.07-13.6-1.1-23.94,2.79-29.01,10.85-4.38,6.91-4.38,16.14.04,26.03l-.15.59-.07-.04-.63,2.39-.15-.11c-7.76-14.56-18.13-22.36-27.83-20.55-2.46.48-4.78,1.47-6.84,3.09l-.26-.62-2.46-2.28-1.03,2.68c-.04.07-.07.15-.11.26l-.51-.51-.4,1.14-.55,1.62c-.04.11-.11.22-.26.55l-.15.18-.22-.15-.99,2.06c-.04.07-.07.15-.11.26l-.15-.15-1.32,2.43c-.11.15-.18.33-.26.4l-.33.44-.18-.15-1.25,1.91-.22.26-1.84,2.17-.15-.07-.99,1.25-.33-.33.07.62-2.13,2.32-1.1-.52.07.37-.51-.22-.22-.11.96-3.82-.37-.11.7-2.65-.11-.04v-.04c.04-.22.11-.44.22-.7l.7-2.28-.29-.04c.04-.11.11-.22.18-.37l.92-1.95-.44-.15.07-.26c.07-.29.22-.59.44-.88l.88-1.76-.4-.26.85-2.57-3.35.99c-4.38,1.21-8.35,1.69-11.8,1.43-3.57-.26-6.51-1.32-8.9-3.35-.37-.29-.74-.63-1.07-.99-.59-.63-1.07-1.29-1.54-2.02-3.93-6.51-2.54-17.39,3.79-29.56.51-1.03,1.1-2.06,1.69-3.09l.59-1.07.37-.63-1.69-.88c-1.73-.88-3.24-1.95-4.56-3.12-.74-.66-1.43-1.36-2.02-2.1-.44-.48-.81-1.03-1.14-1.54-.51-.7-.92-1.43-1.21-2.06,0-.15-.07-.29-.11-.4l-.74-3.38-2.39,2.54c-1.36,1.43-3.05,2.06-5.07,1.95l-.51-.07c-.18,0-.48-.48-.37-.96l.26-.04c1.47-.11,3.49-.81,4.89-3.27l2.43-4.05.22-.74c.29-4.26,1.91-8.79,4.82-13.46l1.62-2.65-3.09-.18h-.22l.07-.99-2.21.22c-.33.04-.7.04-1.1,0h-.07l.26-.96-2.65.22c-.33.04-.63.04-1.07.04l-.29-.07.11-1.14-2.35.4c-.22.04-.55.04-.63.04-.26-.04-.44-.07-.59-.11l.33-.88-2.83-.18c-.37-.04-.59-.07-.81-.18h-.04l.26-.92-2.28-.15c-.4-.04-.81-.15-1.1-.26h-.04l.15-.88-1.99-.18c-.4-.04-.74-.11-.96-.18l-.26-.07.11-.77-2.02-.44-1.03-.52-.07-.07c-.07-.07-.26-.22-.7-.4l-.55-.29-.48-.04c-.52-.18-.99-.4-1.51-.62l.11-.44-.04-.48c.52-.15,1.07-.26,1.73-.4l.81-.11,1.95-.77,2.54-.22-.15-.74c.4-.07.74-.11.99-.07l2.02-.22v-.55c.37-.07.77-.15,1.25-.15l2.17-.29-.07-.48c.11,0,.37-.04,1.18.04l2.5-.15-.15-.62h.51c.18,0,.33.04.81.15l1.95.33.07-.77.29.04.15-.04c.26.04.55.07,1.07.18l2.5.4-.11-.77h.15c.33.04.74.11,1.03.15l2.13.44.04-.88,3.93.22-2.39-3.16c-7.76-10.22-10.96-20.19-9.12-28.13,1.1-.74,2.21-1.54,3.31-2.43,1.18-.88,2.32-1.88,3.49-2.9v.07h.07l-.07,1.43-.15,3.09h.18Zm87.22-35.56c-.4-.51-.81-.99-1.14-1.32-.07-.07-.11-.15-.18-.22l-.63-.85.37-.37-1.99-2.06.04-.04-1.51-1.73.07-.04-1.73-1.98.04-.04-2.43-2.57c-.07-.04-.11-.11-.18-.18l.11-.22-1.91-1.32.11-.11-2.5-1.8c7.72-2.98,13.35-7.21,16.33-12.21l2.5,1.84,1.1-.77c.22-.18.52-.33,1.03-.37v.04l-1.8,1.51,1.29,1.4c4.3,4.74,7.87,12.06,10.26,21.11l.66,2.13,1.99-.99c1.1-.52,2.13-1.03,3.16-1.4l.7-.26.18-.37.29.15.77-1.91s.07-.15.18-.29l.26-.33.29.11.85-1.47.11-.15.48.33.59-1.25v42.03c-.22.15-.44.22-.7.33-1.99.77-3.9.99-5.77.62-6.88-1.25-11.91-10.41-13.13-23.86l-.18-1.95-1.91.29c-3.64.48-7.02-.15-9.82-1.84l-2.54-2.02-.44,3.2c-.18,1.43-.92,2.54-2.17,3.27h-.18c.85-.81,1.73-2.21,1.54-4.41l-.18-2.43,1.14.33.11-.51.85.11c.11.04.22.07.33.11.66.18,1.29.33,1.84.4l2.28.52.99-2.43,1.65-2.06-1.47-1.69Zm6.99,172.82l-.4-.48-.11.66-.04.04-1.14-1.91-.18.55v-.07l-1.4,2.57-.04.04v-.29l-.04-.55v-.44l-.22-5.99-.26-1.95h-.15l-.04-.07c.04-.15.04-.29.04-.44l-.26-3.86-2.68-.22-2.72-.88-.92,1.95c-.11.26-.26.51-.4.77l-.37-.33-1.8,4.3-.04-.04-.85,1.8-.07-.07c-2.61-7.46-2.28-14.23.96-19.34,4.34-6.88,13.42-10.11,25.63-9.16.81.07,1.62.15,2.79.29l2.13.26-.07-2.17c-.22-4.26.15-8.09,1.03-11.29l.15-.59-1.03-2.9c-.48-1.4-1.4-2.68-2.65-3.71l-.11-.11.15-.29.33.22c.92.62,1.73,1.4,2.32,2.17l1.62,2.21,1.43-2.32c.04-.07.11-.15.15-.22.01-.02.02-.04.04-.06v38.3c-.29.18-.59.33-.85.48-2.79,1.43-5.88,2.02-9.49,1.84l-6.29-.29,3.68,2.61-.85.51,1.21,1.69-.81.81,1.36,1.4-.29,1.03,1.14.4-.4,1.29.74.7c-1.88-.33-3.93-.29-6.1.11-1.25.26-2.54.59-3.82,1.07Zm12.54-6.07l.4-.4-.66-.96.33-.18c2.94-.15,5.66-.74,8.16-1.91v13.83l-7.39-7.21.85-2.61-1.69-.55Zm8.24,11.03v3.03s-.02-.08-.04-.12c-.48-1.14-1.03-2.21-1.73-3.16l1.76.26Zm-233.63-60.04l-.48.7c-.11.07-.18.18-.22.26-.44.44-.85.92-1.25,1.4l-.48.55-1.88-2.43c-.29-.4-.66-.81-1.03-1.18.66-4.52.66-9.63-.04-15,3.27.07,6.29-.15,9.05-.62,2.28,1.43,4.93,2.76,7.83,3.86l-1.51,1.25c-.15.11-.29.18-.29.22l-2.5,1.76.11.22c-.07.07-.15.18-.26.26l-.99,1.07-.37.48c-.22.18-.4.37-.59.55l-.92,1.07-.44.66c-.15.15-.29.29-.4.44l-.77.88-.37.59c-.11.07-.18.18-.29.29l-2.32,2.32.4.4Zm94.02-94.5l-.07-.07c.26-.51.44-1.03.63-1.54-.15.55-.29,1.1-.55,1.62Zm-84.72-20.74l-.04.22c-.22.52-.48.99-.77,1.4l.74-1.69.07.07Zm-107.55,172.23c3.46,3.49,6.18,7.24,7.83,10.81l.48.99,1.1.07c.29,0,.59.04.88.11l-.29.7,2.39.26c.11.04.22.04.33.07l-.26.7,2.32.26h.04l-.26.62,2.39.33c.22.04.4.11.59.18l-.26.62,2.02.51h.04l-.18.29,1.87.88c.11.07.22.11.29.15l-.26.51,1.95.7-.29.4,2.06.92,1.36,1.25.44.11c.26.15.52.33.74.48h-.96l-.96-.15-.4.26-2.98.18v.11c-.07-.04-.18-.04-.26-.04l-1.95-.18-.04.33c-.07-.04-.15-.04-.26-.04l-2.17-.26v.29s-.11,0-.15-.04l-2.54-.59v.55s-.04-.04-.07-.04l-2.13-.66-.07.4c-.15-.04-.26-.11-.4-.15l-2.13-.59-.07.29-.11-.04-.52,1.65c-.11.37-.26.7-.4,1.03-1.1,2.5-2.94,4.56-5.55,6.21l-5.33,3.38h4.34l-.26.55,1.62.59-.15.96,1.65.29.29.96.96-.29.26.92,1.95.29.96.15-.07.11,1.73.96-.99.96-1.47.07.33.48-1.36.04.22.66-1.1-.18.18.52-.63-.04h-.26l-.74-.04.22.44-2.35-.18.33.44-1.1-.07.07.22-1.95-.52.18.29-1.43-.59.33.96.44,3.42v.07c.51,4.04.51,7.72,0,10.92-.26,1.65-.66,3.16-1.14,4.56-.04,0-.04.04-.04.07-.11.26-.22.55-.33.81-.22.51-.48.99-.74,1.47-.18.33-.37.66-.59.99-1.07,1.62-2.35,2.87-3.9,3.79-.81.48-1.65.85-2.57,1.1-7.54,2.32-18.27-2.61-28.83-13.35l-.66-.48-3.38-.44.74,2.68s0,.07.04.11h-.51l.59,2.39h-.29l.48,2.32h-.22l.33,2.35s.04.11.04.15l-.29-.07.18,2.5v.07h-.04l-.15,1.54h-.11l-.11,2.17-.51,3.16-.26.4-.07-.33-.44-.7-.99-2.76-.26.11-.66-1.88-.18.04c0-.07,0-.15-.04-.18l-.66-2.43-.22.15-.37-1.91-.4.11c0-.11-.04-.29-.04-.48l-.22-1.91-.48.04-.7-2.54-2.24,2.79c-2.21,2.76-4.52,4.85-6.84,6.21-2.72,1.62-5.41,2.21-7.94,1.73-6.88-1.29-11.91-10.41-13.13-23.9l-.18-1.91-1.91.26c-3.64.51-7.02-.11-9.74-1.76l-2.54-2.21-.48,3.35c-.22,1.43-.96,2.5-2.43,3.46l-.07-.07c.88-.81,1.88-2.24,1.65-4.56l-.29-4.08-.26-.37c-.11-.18-.18-.33-.26-.52-.77-1.32-1.36-2.83-1.8-4.49-.48-1.73-.77-3.64-.88-5.7l-.15-2.87-1.11.57,4.79-85.25c.26-.07.55-.22.85-.33,4.45-1.99,9.16-5.11,13.72-9.23v.11l.07-.04-.22,4.45h.15l.22,3.35h.04l.22,2.21.04-.04.44,4.38.18-.11c.04.22.04.44.07.66l.22,2.21,2.79.11,2.57.74,1.58-3.57c.04-.11.07-.22.11-.37l.33.15,1.47-3.71.04.04,1.21-2.94h.04l.62-1.73c1.84,1.91,3.75,3.46,5.66,4.6,3.57,2.1,7.1,2.83,10.48,2.17,6.8-1.25,11.95-7.65,14.56-17.69.07.11.15.18.18.29-4.45,11.99-3.79,22.06,2.1,28.09,2.98,3.09,7.06,4.85,12.13,5.26,3.02.26,6.32-.04,9.89-.77l-.44,1.65c-.07.18-.11.37-.15.55l-.59,2.83c-.04.07-.04.11-.04.15l-1.03,4.3-.18,1.91.15.04-.11.55c-.04.15-.11.33-.15.48l-.18.88c-.11.33-.18.7-.26,1.07l-.44,2.39,2.87,1.03,2.65,1.69,1.51-1.73c.33-.37.66-.77,1.03-1.18l.29.51,3.53-4.49.04.07,1.84-2.24.04.07.48-.59c4.01,1.14,7.21,2.79,9.41,4.89,1.03,2.68,2.24,5.11,3.57,7.35.07,5.07-4.01,10.52-11.47,15.07l-1.99,1.21,1.62,1.65Zm-98.62,39.53c-.29.81-.55,1.65-.77,2.5,0,.02-.01.04-.02.06l.23-3.98c.18.49.36.96.57,1.42,0,0,0,0,0,0Zm-23.68,107.77s0,0,0,0c0,0,0,0,0,0-1.62-2.68-2.54-5.55-2.68-8.49-.55-8.64,5.15-17.06,15.99-23.9,0-.04.04-.04.04-.04,0,0,0,0,0,0v23.87h-.04c-6.21,1.76-10.77,4.74-13.31,8.57Zm-3.49-207.97l-.07.04,1.65,2.5-.04.04,1.95,2.68c.07.07.15.15.18.22l-.15.18,1.91,1.76-.15.15,2.1,1.91-.26.29,2.28,1.91-.26.26.66.48c-1.54,1.4-2.72,3.01-3.53,4.85-.62,1.43-.99,2.9-1.1,4.45-.44-.04-.92-.11-1.47-.07l-.96.07-.74.4c-1.29.77-1.99,2.32-1.62,3.82l.62,2.32,2.57.26c.7.07,1.32.26,1.76.59l1.21.85c.81,2.1,1.99,4.23,3.46,6.4-.04.04-.11.07-.18.11-6.4,3.8-10.72,8.41-12.72,13.34v-55.07s.05.05.07.07l.48.88-.44.37,2.76,3.93Zm7.39-5.66c1.47,3.46,3.71,6.1,6.69,7.87.66.37,1.36.74,2.06,1.03.22.07.48.15.7.22v70.87s-.02,0-.04-.01c-10.52-3.93-16.91-10.33-17.25-17.43-.33-6.29,4.01-12.39,12.17-17.24.59-.33,1.18-.66,1.91-1.07l1.91-1.03-1.32-1.69c-2.06-2.65-3.53-5.22-4.41-7.68l-.18-.55-2.1-1.47c-.07-.04-.15-.07-.18-.11l1.65.55-.18-2.76c-.11-1.84.15-3.49.85-5.07.85-1.91,2.28-3.57,4.27-4.85l2.24-1.51-1.36-.96.51-.55-2.28-1.1c-.18-.11-.37-.22-.55-.33l.66-.7-2.17-1.1c-.18-.11-.33-.18-.48-.33l.55-.59-2.02-1.14c-.18-.11-.37-.22-.51-.33l.44-.59-1.76-1.07c-.22-.11-.4-.22-.51-.33l.66-.52-1.95-1.47c-.07-.04-.11-.07-.18-.11l.74-.4-2.02-1.69c-.15-.11-.26-.26-.4-.4l.44-.4-1.32-1.29c-.18-.18-.37-.37-.51-.59l.26-.33-.85-1.07,1.14-.66-2.24-1.36-.4-.48c-.18-.29-.37-.55-.55-.81l.15-.18c.29.11.59.22,1.03.44l2.1,1.1.26-.4,2.02.96.15-.37c.07.04.15.07.18.11l1.91,1.18.11-.18Zm27.21-127.37c.26.48.55.96.96,1.36l1.76-1.29-1.58,27.91-4.38,77.66-1.51,26.55c-.22.11-.48.18-.7.26-3.01,1.07-5.81,1.43-8.27,1.18-.48-.04-.96-.11-1.4-.22-.12-.02-.25-.05-.37-.08v-128.21l.07.04,2.02-1.36c3.09-1.88,6.88-2.43,11.21-1.54l3.16.63-.99-2.87Zm2.9-3.09c-.11-.26-.18-.51-.22-.77.07.18.15.4.22.62v.15Zm-14.07,250.05l-.02.02-2.9-1.91-.18.26c-.26-.15-.51-.29-.77-.4l-.4-.18h-.03v-16.58l.15.22,2.06-1.1.07.15,2.98-1.51.18.37.03-.02-1.15,20.7Zm-10.5,40.36c-.18-2.65.18-5,1.1-7.28.66-1.54,1.62-2.94,2.76-4.23l.04-.04s0,0,0,0v22.66s0,0,0,0c0-.04-.04-.04-.04-.07-.99-1.69-1.76-3.38-2.39-4.96l-.22-.55-2.72-1.88c-1.21-.88-2.79-1.43-4.56-1.58l-.51-.04-.04-.18c-.04-.11.04-.29.22-.4l.55-.04c1.21,0,2.39.15,3.42.48l2.61.85-.22-2.72Zm.33-24.38c-.44-.26-.88-.55-1.18-.81l-.11-.11.51-.7-1.76-1.03c-.4-.26-.96-.63-1.25-.96l-.11-.18.77-.62-1.95-1.43c-.44-.29-.77-.59-.92-.81l-.04-.04.92-.51-2.06-1.66c-.33-.29-.59-.59-.88-.96l-.07-.18.48-.52-1.32-1.25c-.29-.29-.59-.55-.88-.92l-.18-.22.44-.44-1.14-1.4c-.11-.11-.22-.22-.26-.29l-.04-.07,1.1-.7-2.13-1.32-.4-.55c-.07-.11-.22-.26-.26-.26-.33-.51-.7-1.03-1.03-1.58l.74-.96.44.18c.4.15.85.29,1.29.48l2.61,1.25.26-.4.59.15c.11.04.22.11.37.18l1.8.85.18-.51h.04c.44.18.77.37,1.03.55l1.95,1.07.26-.59c.37.15.77.37,1.21.66l2.1.99.15-.44.18.04c.15.07.48.26.85.59l1.25,1.14.04.04h0v17.43h0s-.04,0-.04,0l-.81-.4c-.4-.22-.81-.48-1.18-.81l-.11-.11.63-.74-2.06-1.1Zm-16.14-67.21c2.48,6.11,8.61,11.26,17.61,14.74l-1.51,1.25c-.15.07-.29.18-.29.22l-2.5,1.76.11.22c-.07.07-.15.15-.26.26l-.99,1.07-.37.48c-.22.18-.4.37-.59.55l-.92,1.07-.44.63c-.15.15-.29.29-.4.48l-.77.88-.33.55c-.11.11-.22.18-.33.29l-2.28,2.35.37.37-.48.7c-.11.11-.18.18-.22.26-.37.4-.74.85-1.25,1.43l-1.47,1.73,1.65,2.02.99,2.46,2.17-.51c.62-.11,1.29-.22,2.1-.44t.07-.04l.92-.15.15.52,2.72-.77,2.28-.48.04.07,2.72-.66v.07l1.18-.33h.04s0,14.93,0,14.93h0s-.04,0-.04,0l-.81-.37-.04.11h-.04l-1.84-.7-.99-.18c-.29-.15-.59-.29-.88-.4l-1.54-.51-.7-.07c-.18-.11-.4-.22-.66-.33l-3.53-1.58-.26.66-1.65-.4c-.15-.07-.33-.15-.48-.22-.51-.22-.99-.37-1.51-.55l-3.46-1.18-1.28,2.53v-44.78Zm18.2,19.01c.22-.11.44-.22.66-.29l.81-.52.04-.02v10.52l-.04.02-1.21.74c-.07.04-.11.04-.18.07l-.22-.81-2.02,1.21c-.15.07-.26.15-.4.18l-.33-.74-1.8,1.07c-.11.07-.22.15-.33.18l-.26-.63-1.95.85-1.18.15c-.07,0-.37.04-.44.04l-.48.04-.37.22c-.29.11-.62.15-.92.22l-.11-.18c.18-.22.4-.48.59-.7l1.69-2.13,1.65-1.32-.44-.4c.11-.11.18-.15.22-.18l1.58-1.25-.33-.44c.15-.15.29-.26.44-.37l1.73-1.47-.33-.29c.11-.07.26-.15.4-.26l2.02-1.51-.4-.33c.11-.04.22-.07.37-.15l1.95-.85-.4-.66Zm4.96,87.73l-.95-.26h0c-.07-.07-.11-.18-.18-.26,0,0,0-.03-.03-.03v-28.21l.03-.03c.29-.22.59-.44.88-.62l1.99-1.32h.01s-1.74,30.74-1.74,30.74Zm4.59-81.48l-1.13.95c-.07.11-.18.18-.33.26l-.29-.81-2.02,1.73c-.18.18-.37.29-.37.37l-.11.04-.55-.88-.96.96v-11.33l1.1-.51-.4-.59,2.98-1.88-3.68-1.18v-71.04c3.16.62,6.69.33,10.52-.92l-4.75,84.83Zm-27.76,25.48c.15.26.33.51.51.77l.22.22.92,1.69-.51.48,2.24,2.87v.04l-.04.04,1.65,2.5-.07.04,2.21,3.31s.04.04.04.07l2.28,3.05c.18.26.4.48.63.7l-.18.22,2.61,2.39s0,.04.04.04l-.18.18,2.87,2.54.04.04-.33.37,3.05,2.5s.07.07.11.07l-.33.33.99.7c-2.35,1.99-4.08,4.34-5.22,6.99-.88,2.1-1.36,4.26-1.43,6.55-.7-.07-1.4-.11-2.17-.11l-1.54.07-.85.48c-1.51.96-2.28,2.76-1.88,4.49l.77,2.68,3.05.29c1.1.07,2.02.4,2.76.92l1.8,1.21c1.18,3.05,2.98,6.18,5.3,9.34-.29.15-.59.33-.88.51-11.61,7.02-18.08,15.94-18.46,25.35v-83.92Zm22.61,65.59c-.22.52-.4,1.07-.59,1.62,0,.04-.04.11-.04.15v-5.52l.04.04.77.85v.04h0s-.16,2.78-.16,2.78c-.01.01-.02.02-.02.05Zm2.31-40.67h-.03l-1.47-1.07.63-.66-2.02-.92h-.03v-19.71l.03.03.15.15,1.51,1.54.55-.74.07.07c.37.22.74.55,1.18.99l.55.59h.01s-1.12,19.71-1.12,19.71Zm69.35-154.58c-.29-.4-.55-.77-.85-1.14v-.04c.15-.85.26-1.73.37-2.61.81.04,1.58.04,2.32-.04-.66,1.29-1.29,2.57-1.84,3.82Zm35.89,43.68l.99-1.84.11.07,1.4-2.54.29.29.22-.44c.48,2.24,1.07,4.41,1.69,6.47-1.4-.77-2.98-1.43-4.71-2.02Zm8.02-162.56v-.04l.15.07-.15-.04Zm-118.47,7.65l-.59-.66v-.66l.59.29v1.03Zm565.62,330.59c-1.25-1.54-2.57-3.09-4.01-4.6,1.43-.99,2.79-1.99,4.01-2.98v7.57ZM307.34,390.42c-.04-.11-.15-.18-.22-.26-1.07-1.1-2.79-1.36-4.26-.44l-1.14,1.25c-.22.4-.44.81-.62,1.21l-1.14-.51c-.74-.33-1.51-.37-2.28-.11-6.18-10.11-14.23-15.37-22.39-14.56-1.84.18-3.68.74-5.48,1.58l-.48-.74v-10.81c0-19.89,16.22-36.11,36.14-36.11h37.17c-14.78,18.24-26.58,38.24-35.3,59.49Zm-60.01,211.76l.18-.04c1.1,2.43,2.79,4.56,5.04,6.36l-.66.22v.15l-1.1-.33-.7,2.21-2.76.44v-9.01Zm2.92,314.56l-.05-.14.18.11-.14.03Zm.82,2.45l.02.02,1.03.92-.39.61c-.21-.52-.45-1.02-.65-1.54Zm-1.38-4.21h-.03c-.91-3.1-1.54-6.31-1.92-9.6h.59v.07l3.46-.11h.07l.07.29,2.24-.48.04.18.77-.18c1.1,2.43,2.79,4.56,5.04,6.32l-.66.26v.11l-1.1-.33-.7,2.21-7.87,1.25Zm138.11,1.4c-.92.04-1.84.04-2.68-.04-.07,0-.15,0-.22-.04-2.06-.18-3.9-.62-5.52-1.36.07,0,.11,0,.18.04l1.14.26.59.04c.15.04.29.11.48.15l3.13.88.15-.51.85.11c.07.04.18.07.33.11.55.15,1.1.29,1.58.37Zm259.37-2.68s.04-.04.04-.04l.04.04h-.07Zm83.87,28.02l.07.07c.04.11.11.22.18.29l.81,1.14.81.7c.18.26.33.44.51.62-.99-.4-1.95-.96-2.9-1.65.18-.37.33-.77.51-1.18Zm99.9-30.78l.38.14c-.04.21-.08.41-.13.62l-.25-.76Zm-1.36,1.62l1.18.81h0c-.29,1.1-.61,2.19-.96,3.26v-.02c-.04-1.32-.11-2.65-.22-4.05Zm-7.06-579.85c-3.35,1.47-6.84,3.6-10.37,6.36-.04-.04-.07-.11-.07-.15l.22-2.5-.26-.04-.92-7.65-.18.04-.77-6.84c4.74,2.83,8.9,6.47,12.35,10.77ZM286.75,129.03c-1.8-2.54-1.07-4.82-.51-5.96.99-1.91,3.42-3.97,7.24-3.97h492.97c3.82,0,6.21,2.06,7.21,4.01.59,1.14,1.32,3.42-.48,5.92l-14.45,20.08h-477.64l-14.34-20.08Zm483.67,31.62l-34.16,47.43c-1.43,1.98-4.01,3.2-6.73,3.2h-379.57c-2.72,0-5.3-1.21-6.73-3.2l-33.9-47.43h461.09ZM247.33,361.67c0-25.63,20.85-46.48,46.48-46.48,37.03,0,37.03-34.97,37.03-58.06,0-16.03-13.02-29.08-29.05-29.08h-20.77c-18.57,0-33.68-15.11-33.68-33.68s15.11-33.72,33.68-33.72h19.82l36.77,51.44c2.72,3.82,7.35,6.14,12.35,6.14h379.57c5,0,9.6-2.28,12.35-6.07l37.06-51.51h20c18.61,0,33.72,15.11,33.72,33.72s-15.11,33.68-33.72,33.68h-24.64c-8.02,0-15.3,3.27-20.55,8.53-5.26,5.29-8.53,12.54-8.53,20.55,0,24.93,4.27,58.06,40.96,58.06,7.98,0,15.48,2.02,22.02,5.59l-3.64,5.96-.22.33c-.11.18-.22.37-.33.59l-.4-.26-1.18,2.32c-1.76-.85-3.6-1.36-5.48-1.58-8.13-.81-16.22,4.41-22.39,14.52-.74-.22-1.54-.18-2.32.15l-1.1.48c-.22-.4-.44-.81-.66-1.21l-.33-.52-.96-.81c-1.29-.77-3.01-.55-4.04.48-1.1,1.07-1.4,2.68-.59,4.23.04.07.07.15.07.22-1.29-.44-2.72,0-3.6,1.1-1.07,1.25-1.03,3.16.22,4.6.4.44.7.96.88,1.54-3.97-.29-7.68.51-10.85,2.39l-3.57-3.01-.37,2.57-7.21-1.99,2.65,4.01-2.1-.18,4.52,5.07c-3.01,5.52-3.86,13.2-2.39,21.95-9.56,2.39-15.63,7.39-16.84,13.9-1.21,6.66,2.83,13.57,11.14,19.23-.26.26-.48.55-.74.81h-5c-.22-.37-.48-.74-.74-1.1-5.81-7.76-12.91-11.62-19.93-10.88-1.84.15-3.64.66-5.48,1.54l-1.43-2.17-.18.11c-.07-.18-.18-.33-.29-.51l-5.41-8.83-1.18,9.93-.04.55-.44-.07-.66,7.65-.4.04.4,2.5s-.07.11-.11.15c-4.82-3.75-9.49-6.36-13.94-7.72l.18-.44-1.73-1.47c-1.1-.99-2.72-1.18-3.97-.4-.22.11-.44.29-.66.48l-.26-.85-1.47-.59c-.99-.37-2.06-.29-3.01.26-.99.59-1.58,1.62-1.62,2.87-.92.29-1.77.7-2.61,1.21-3.05,1.8-5.44,4.71-6.95,8.42-1.14-1.36-2.46-2.5-3.97-3.38-.81-.48-1.69-.88-2.57-1.21-.04-1.21-.62-2.24-1.65-2.87-.92-.51-1.99-.62-3.05-.26l-1.4.59-.29.85c-.18-.18-.37-.33-.59-.48-1.29-.74-2.9-.59-3.97.37l-1.76,1.51.18.44c-4.45,1.36-9.12,3.97-13.94,7.72-.04-.04-.07-.11-.11-.15l.26-2.54-.26-.04-.92-7.54h-.18l-1.21-10.48-5.41,8.79c-.11.18-.22.37-.29.52l-.07-.07c.04-.26.07-.52.11-.77.04-.48.07-.99.04-1.47-.04-3.6-1.51-6.99-4.3-10.07-1.58-1.73-3.53-3.31-5.88-4.78l.7-.44c.15-.07.29-.15.4-.26l5-3.38,1.51-1.21-.07-.11.07-.07c.11-.07.22-.15.33-.18l.4-.29c.33-.18.63-.4.96-.62l1.84-1.32-1.25-2.43-.66-2.76-2.13.22c-.26.04-.51.04-.77.07l.11-.51-4.67.74v-.07l-2.43.33v-.07l-3.01.44v-.37l-2.24.74-.04-.11-2.32.74-.04-.22c8.31-14.23,9.49-27.17,2.87-34.45-2.35-2.65-5.55-4.38-9.52-5.15-4.23-.85-9.3-.52-14.82.92l.92-2.32-2.39,1.32.81-3.86-1.8,1.51.04-.48-1.51.88-.44-3.27-.26.29-.15-1.32-.4.29.04-1.54-1.8.96-.74-3.49-.62.62-.22-.99-2.39,2.32-3.49-2.68-.29,1.73-1.91-2.5.44,10.19-2.1,1.14.59,1.07-.26.77c-2.28-1.95-4.85-3.24-7.65-3.82v-1.36l-.22-1.1c0-.26-.04-.48-.07-.7l-.44-2.13c0-.18,0-.33-.04-.48l-.55-2.32c-.04-.11-.04-.18-.07-.29l-.44-1.69c0-.11-.04-.18-.04-.29l-.26-1.47-.37-.99-.26-.77h-.11l-.26-.51c0-.07,0-.15-.04-.26-.11-.59-.22-1.14-.37-1.69l-2.54-10.77-2.17,5.37-1.95,4.82c-.26.59-.44,1.1-.63,1.65-.04.04-.07.11-.11.18l-.11.26-.55-.26-1.58,4.63-.07-.04-1.03,2.57h-.11l-.92,2.79-.33-.07-.37,2.72h-.15l-.37,2.5-.4-.07-.29,3.57c-.04.4-.07.77-.04,1.14-2.79,2.24-5.55,5.15-8.02,8.53-4.12-4.01-8.42-6.66-12.5-7.72-3.24-.81-6.29-.66-9.08.48-2.9,1.14-5.26,3.24-7.02,6.21-1.54,2.57-2.61,5.74-3.13,9.45-.18,1.32-.33,2.72-.37,3.97v.07l-.4-.77-1.32.88c-4.67.33-8.86,1.18-12.46,2.57-2.9,1.14-5.37,2.57-7.43,4.3l-5.92-3.46.63,1.99h-.07l-4.52-1.84,3.46,6.84-2.43.88,3.64,2.94c-.66,1.8-.96,3.75-.96,5.74,0,1.84.26,3.75.81,5.7-.66-.04-1.25-.22-2.02-.7-1.47-.85-3.35-.48-4.38.81-.92,1.1-1.03,2.61-.29,3.93-.18-.04-.4-.11-.63-.15-1.51-.4-3.09.22-3.75,1.43-.92,1.29-.77,3.05.37,4.3l1.51.88c.44.18.92.33,1.4.44l-.29,1.25c-.15.81-.04,1.62.37,2.35-5.92,5.52-9.6,11.51-10.59,17.24-.18-.15-.4-.29-.63-.44.26-.37.52-.81.77-1.25l.44-.88-.04-.81c-.04-1.54-1.07-2.87-2.54-3.31l-2.32-.59-1.47,2.13c-.4.59-.88,1.03-1.4,1.25l-1.32.66c-2.24-.33-4.67-.33-7.28-.07v-.22c-.29-10.96-4.27-18.86-11.18-22.25-7.65-3.82-17.39-1.4-26.95,6.55l-.4-1.91c0-.15,0-.33-.04-.37l-.29-3.05h-.26l-.11-.33-.44-1.4-.26-.55c-.04-.29-.11-.55-.18-.77l-.48-1.36-.37-.7c-.04-.18-.11-.37-.18-.55l-.4-1.1-.29-.59c-.04-.15-.07-.26-.11-.4l-.96-3.16-.51.18-.37-.81c-.04-.11-.07-.22-.11-.29-.18-.55-.37-1.1-.66-1.76l-.77-2.13-2.57.44-2.65-.33-.63,2.17c-.18.59-.4,1.21-.59,1.99,0,.04,0,.07-.04.15l-.29.88-.51-.15-.66,2.76h-.04l-.66,2.24-.11-.04-.7,2.72-.07-.04-.74,3.13c-.04.15-.07.26-.07.37h-.33l-.04,2.35h-.18l-.11,3.31-.44.04.04.63c-3.27-1.25-6.43-1.84-9.38-1.84l-2.98-1.36c-.81-.37-1.03-.81-1.1-1.21l-.07-.4c-.44-1.69-2.06-2.76-3.71-2.5-1.73.18-3.57,1.73-3.49,4.19.07,1.69.59,3.24,1.47,4.52-2.24,1.65-4.08,3.93-5.44,6.69-10.33-4.27-19.34-4.89-25.37-1.91-.18-.44-.4-.88-.63-1.29l4.52-5.07-2.06.22,2.61-4.05-7.21,1.99-.37-2.57-3.57,3.01c-3.09-1.88-6.77-2.68-10.85-2.39.18-.59.48-1.1,1.07-1.73,1.14-1.25,1.14-3.16.11-4.38-.74-.92-1.84-1.36-2.98-1.25,8.97-22.98,21.66-44.45,37.73-63.91l1.54-1.91h-42.06c-21.22,0-38.42,17.25-38.42,38.42v7.57l-4.56-7.43-1.14,9.93-.07.55-.44-.07-.66,7.69-.37.04.37,2.43c-.04.07-.07.11-.11.18-4.12-3.24-8.2-5.63-12.06-7.1-.22-.07-.44-.15-.66-.22v-18.94Zm6.62,563.82l1.32-.29-.26.51,1.18-.11-.18.26,3.31-.22-.51,1.58.4-.11-1.1,2.06,3.53-1.54-.88,2.76,2.17-1.51c-.18,3.65.04,6.93.65,9.85-3.8-3.92-7.05-8.37-9.62-13.24Zm50.92,30.81c-6.95,0-13.57-1.3-19.74-3.56,5.96-1.42,12.58-5.15,19.12-11.04v.07h.04l-.22,4.52h.18l.22,3.05.22,2.24h.04l.44,4.52.22-.07c0,.07.04.18.04.26h-.55Zm7.68,0l.07-.18c.04-.07.07-.18.11-.29l.04-.07.33.15,1.47-3.79.07.04,1.07-2.72.07.04.66-1.88c1.84,1.91,3.75,3.46,5.66,4.6,3.53,2.1,7.06,2.83,10.48,2.17,2.02-.37,3.9-1.18,5.59-2.46h0c3.75.15,7.54-.96,11.32-3.27,2.83-1.73,5.59-4.08,8.27-7.1l.74,1.91c.07.22.15.44.22.62l1.25,2.79c.04.07.07.15.07.22l1.84,4.38.99,1.65.11-.04.37.66c.04.18.11.37.18.55l.37.88c.15.37.26.7.44,1.1v.04h-51.8Zm59.31,0l.11-1.21c.07-.62.11-1.25.15-1.91l.62.26.22-6.03.07.04.22-3.2h.07l.15-4.12.37.04-.37-3.16h.11l-.37-3.13.4.07-.11-.74c16.66,15,33.5,20.11,44.68,13.31.88-.55,1.73-1.14,2.5-1.76,0,0,0,0,0,0,0,0,0,0,0,0,4.67,6.58,10.48,10.48,16.91,10.99.52.04,1.03.04,1.51.04,8.79,0,17.17-6.07,24.01-17.36l.99,2.72.99-3.16,2.35,3.9.37-2.65.44.59.59-1.88,3.02,2.46v-.44l1.29,1.07.07-.85,1.43,1.54.74-2.17,3.46,2.35v-1.07l1.1.74.15-3.68,5.07-.55-1.36-1.99,3.53.59-8.31-8.05.85-2.61-1.65-.55.37-.4-.66-.96.33-.18c.51-.04,1.03-.07,1.51-.11l-.29.59,2.32,1.62,1.99,2.28,1.84-1.25c.37-.18.66-.4,1.07-.66l.15.55,4.19-3.16.07.11.66-.44,1.47-1.07.04.07,2.02-1.47.77-.59.18.29,1.91-1.91.04.07,1.88-1.84.18.29.11-.15c-.15,2.57-.15,5.07,0,7.43.04,1.76.22,3.46.4,5.07,1.58,11.99,6.66,20.48,14.49,23.35,7.98,2.94,17.24-.15,26.44-8.64l.22,2.76,1.65-2.61,1.18,4.08.96-2.32.26.51.96-1.54,2.13,2.98.07-.37.85,1.21.26-.66.85,1.65,1.21-1.8,2.5,2.98.26-.96.81.92,1.07-3.31,4.67.77-.66-1.95,3.05,1.4-5.48-9.41,1.4-2.17-1.21-.81.29-.18-.33-.96.11-.04c3.38.81,6.66.77,9.74-.07.07-.04.11-.04.18-.07l.04.07v.07l1.51,2.94.29-.15c.04.07.07.11.11.15l1.03,1.36.48.51c.11.15.22.33.33.48l1.03,1.32.66.62c.07.11.18.18.26.29l1.32,1.4c.07.11.15.22.22.33l.99,1.32,1.43,1.25.07-.04.7.59c.04.07.07.15.15.22l8.49,9.85h-215.95Zm216.32,0l-.55-5.33-.55-5.81c-.07-.66-.15-1.29-.22-1.99,0-.07-.04-.11-.04-.18v-.62l.62-.04-.37-2.02-.4-3.27h.07l-.33-3.16h.07l-.51-3.27.33-.11-.55-1.51c.92.11,1.88.11,2.87.07,1.69,14.38,7.61,23.79,15.96,25.3,3.42.66,6.95-.07,10.48-2.17,1.95-1.14,3.86-2.68,5.7-4.6l.26.7c.04.15.11.29.15.4l2.24,5.44.88,1.69.15-.07.04.07c.04.15.07.26.15.4l.04.07h-36.48Zm43.57,0c.04-.07.04-.18.04-.26l.48.18.18-4.63.07.04.18-2.28.07.04.15-3.09.37.04-.26-2.35h.07l-.22-2.21h.15c11.99,10.74,24.12,14.34,32.39,9.45,2.43-1.43,4.38-3.46,5.81-6.03.15.04.26.07.4.11,1.84.48,3.75.62,5.85.44l.63,2.57.18-.04c0,.22.07.4.11.63l1.47,7.39h-48.13Zm50.19,0l3.09-6.14.26-.55.44.22,1.54-3.6h.11l.63-1.32.15.04.88-2.17.37.11.52-2.54c.07-.07.15-.11.22-.18,3.31,5.41,6.91,9.56,10.74,12.43l-.37.4,1.14,1.98c.29.55.74.99,1.25,1.32h-20.96Zm35.96,0c4.41-1.47,8.13-4.89,10.99-10.07,2.13,1.47,4.45,2.39,6.84,2.83,1.07.18,2.1.26,3.24.26l.48.33c.11.15.22.22.29.33l2.46,2.46.4-.48.63.44.26.26c.33.33.7.59,1.03.88l2.32,1.95,1.99-1.77,2.46-.99-.51-2.24c-.11-.62-.26-1.25-.48-2.06-.04-.07-.04-.11-.07-.18l-.15-.99.59-.18-.48-1.47c2.61-1.65,5.15-3.9,7.65-6.65l.77,1.91c.04.18.11.4.18.63l.81,1.91.44.81c.04.07.07.15.11.26l1.8,4.38.99,1.65.15-.04.33.7c.04.15.11.33.18.51l.37.88c.15.33.29.7.48,1.1l1.07,2.24,3.01-.92,3.27-.15.22-2.32c.07-.55.11-1.14.15-1.95l.63.26.22-6.07h.11l.18-3.09.07.04.15-4.16.4.07-.4-3.31h.11l-.33-3.02.4.07-.11-.77c11.56,10.46,23.01,16.15,32.89,16.32-9.05,5.91-19.8,9.38-31.38,9.38h-57.21Z"/>
</svg>