<?xml version="1.0" encoding="UTF-8"?>
<svg xmlns="http://www.w3.org/2000/svg" xmlns:xlink="http://www.w3.org/1999/xlink" width="297px" height="88px" viewBox="0 0 816 243" version="1.1">
<g id="surface1">
<path style=" stroke:none;fill-rule:nonzero;fill:rgb(51.372549%,86.666667%,23.529412%);fill-opacity:1;" d="M 85.90625 69.339844 L 85.90625 57.542969 L 88.503906 57.542969 L 88.503906 69.339844 Z M 85.90625 69.339844 "/>
<path style=" stroke:none;fill-rule:nonzero;fill:rgb(51.372549%,86.666667%,23.529412%);fill-opacity:1;" d="M 90.550781 69.339844 L 90.550781 61.246094 L 92.949219 61.246094 L 92.949219 62.347656 L 92.980469 62.347656 C 93.167969 61.996094 93.46875 61.6875 93.878906 61.433594 C 94.292969 61.179688 94.777344 61.050781 95.347656 61.050781 C 96.515625 61.050781 97.304688 61.382812 97.722656 62.039062 C 98.144531 62.699219 98.347656 63.652344 98.347656 64.882812 L 98.347656 69.347656 L 95.851562 69.347656 L 95.851562 65.382812 C 95.851562 65.136719 95.851562 64.941406 95.84375 64.792969 C 95.84375 64.640625 95.8125 64.453125 95.769531 64.230469 C 95.722656 64.003906 95.65625 63.832031 95.566406 63.710938 C 95.476562 63.59375 95.347656 63.480469 95.175781 63.390625 C 95.003906 63.292969 94.792969 63.246094 94.554688 63.246094 C 93.960938 63.246094 93.566406 63.433594 93.363281 63.800781 C 93.160156 64.175781 93.054688 64.679688 93.054688 65.308594 L 93.054688 69.339844 Z M 90.550781 69.339844 "/>
<path style=" stroke:none;fill-rule:nonzero;fill:rgb(51.372549%,86.666667%,23.529412%);fill-opacity:1;" d="M 108.613281 56.75 L 108.613281 69.347656 L 106.3125 69.347656 L 106.3125 68.285156 L 106.28125 68.285156 C 106.074219 68.613281 105.734375 68.914062 105.277344 69.167969 C 104.8125 69.421875 104.328125 69.550781 103.800781 69.550781 C 102.609375 69.550781 101.652344 69.160156 100.917969 68.382812 C 100.183594 67.601562 99.816406 66.597656 99.816406 65.367188 C 99.816406 64.140625 100.152344 63.179688 100.835938 62.324219 C 101.507812 61.480469 102.40625 61.050781 103.515625 61.050781 C 104.714844 61.050781 105.570312 61.402344 106.082031 62.117188 L 106.109375 62.117188 L 106.109375 56.75 Z M 105.78125 66.777344 C 106.132812 66.402344 106.3125 65.910156 106.3125 65.292969 C 106.3125 64.679688 106.132812 64.191406 105.78125 63.808594 C 105.429688 63.433594 104.933594 63.238281 104.3125 63.238281 C 103.691406 63.238281 103.203125 63.425781 102.84375 63.808594 C 102.492188 64.183594 102.3125 64.679688 102.3125 65.292969 C 102.3125 65.910156 102.492188 66.394531 102.84375 66.777344 C 103.195312 67.152344 103.691406 67.347656 104.3125 67.347656 C 104.933594 67.347656 105.421875 67.160156 105.78125 66.777344 Z M 105.78125 66.777344 "/>
<path style=" stroke:none;fill-rule:nonzero;fill:rgb(51.372549%,86.666667%,23.529412%);fill-opacity:1;" d="M 110.871094 59.71875 C 110.585938 59.433594 110.441406 59.09375 110.441406 58.691406 C 110.441406 58.285156 110.585938 57.949219 110.871094 57.664062 C 111.15625 57.378906 111.492188 57.238281 111.894531 57.238281 C 112.300781 57.238281 112.636719 57.378906 112.921875 57.664062 C 113.207031 57.949219 113.351562 58.285156 113.351562 58.691406 C 113.351562 59.09375 113.207031 59.433594 112.921875 59.71875 C 112.636719 60.003906 112.300781 60.144531 111.894531 60.144531 C 111.492188 60.144531 111.15625 60.003906 110.871094 59.71875 Z M 110.644531 69.339844 L 110.644531 61.246094 L 113.140625 61.246094 L 113.140625 69.339844 Z M 110.644531 69.339844 "/>
<path style=" stroke:none;fill-rule:nonzero;fill:rgb(51.372549%,86.666667%,23.529412%);fill-opacity:1;" d="M 122.082031 62.132812 L 120.433594 63.863281 C 120.140625 63.449219 119.734375 63.246094 119.195312 63.246094 C 118.574219 63.246094 118.085938 63.433594 117.726562 63.816406 C 117.375 64.191406 117.195312 64.6875 117.195312 65.300781 C 117.195312 65.914062 117.375 66.402344 117.726562 66.785156 C 118.078125 67.160156 118.574219 67.355469 119.195312 67.355469 C 119.675781 67.355469 120.089844 67.152344 120.433594 66.738281 L 122.082031 68.472656 C 121.371094 69.191406 120.410156 69.550781 119.195312 69.550781 C 117.921875 69.550781 116.851562 69.160156 115.988281 68.375 C 115.125 67.59375 114.699219 66.566406 114.699219 65.300781 C 114.699219 64.035156 115.125 63.007812 115.988281 62.226562 C 116.851562 61.449219 117.914062 61.050781 119.195312 61.050781 C 120.410156 61.050781 121.371094 61.410156 122.082031 62.132812 Z M 122.082031 62.132812 "/>
<path style=" stroke:none;fill-rule:nonzero;fill:rgb(51.372549%,86.666667%,23.529412%);fill-opacity:1;" d="M 128.0625 69.339844 L 128.0625 68.320312 L 128.03125 68.320312 C 127.523438 69.132812 126.667969 69.535156 125.46875 69.535156 C 124.667969 69.535156 123.992188 69.3125 123.429688 68.867188 C 122.867188 68.425781 122.589844 67.8125 122.589844 67.03125 C 122.589844 66.644531 122.660156 66.296875 122.800781 65.992188 C 122.945312 65.683594 123.109375 65.4375 123.3125 65.242188 C 123.511719 65.046875 123.777344 64.882812 124.113281 64.738281 C 124.441406 64.597656 124.757812 64.492188 125.035156 64.425781 C 125.3125 64.355469 125.671875 64.296875 126.089844 64.257812 C 126.511719 64.222656 126.847656 64.199219 127.109375 64.191406 C 127.367188 64.191406 127.6875 64.183594 128.078125 64.183594 C 128.078125 63.75 127.921875 63.40625 127.613281 63.136719 C 127.296875 62.867188 126.921875 62.738281 126.480469 62.738281 C 125.703125 62.738281 125.027344 63.058594 124.449219 63.703125 L 123.117188 62.339844 C 124.03125 61.472656 125.214844 61.042969 126.683594 61.042969 C 128.070312 61.042969 129.035156 61.382812 129.578125 62.0625 C 130.117188 62.738281 130.386719 63.792969 130.386719 65.226562 L 130.386719 69.339844 Z M 128.0625 65.789062 L 127.449219 65.789062 C 125.804688 65.789062 124.980469 66.179688 124.980469 66.957031 C 124.980469 67.234375 125.101562 67.453125 125.34375 67.609375 C 125.582031 67.765625 125.859375 67.84375 126.167969 67.84375 C 126.691406 67.84375 127.132812 67.707031 127.507812 67.445312 C 127.882812 67.175781 128.0625 66.808594 128.0625 66.328125 Z M 128.0625 65.789062 "/>
<path style=" stroke:none;fill-rule:nonzero;fill:rgb(51.372549%,86.666667%,23.529412%);fill-opacity:1;" d="M 130.992188 69.640625 L 135.976562 56.660156 L 137.871094 57.246094 L 132.875 70.226562 Z M 130.992188 69.640625 "/>
<path style=" stroke:none;fill-rule:nonzero;fill:rgb(51.372549%,86.666667%,23.529412%);fill-opacity:1;" d="M 146.640625 58.480469 L 144.859375 60.429688 C 144.65625 60.175781 144.378906 59.980469 144.027344 59.84375 C 143.675781 59.710938 143.320312 59.644531 142.976562 59.644531 C 142.542969 59.644531 142.144531 59.746094 141.777344 59.949219 C 141.410156 60.152344 141.230469 60.460938 141.230469 60.855469 C 141.230469 61.148438 141.328125 61.390625 141.53125 61.582031 C 141.734375 61.777344 141.988281 61.9375 142.300781 62.046875 C 142.617188 62.167969 142.96875 62.273438 143.359375 62.378906 C 143.75 62.484375 144.136719 62.609375 144.527344 62.769531 C 144.917969 62.925781 145.269531 63.113281 145.585938 63.34375 C 145.898438 63.570312 146.164062 63.890625 146.355469 64.304688 C 146.558594 64.714844 146.65625 65.195312 146.65625 65.75 C 146.65625 67.011719 146.222656 67.96875 145.359375 68.636719 C 144.492188 69.304688 143.410156 69.632812 142.109375 69.632812 C 140.535156 69.632812 139.207031 69.136719 138.144531 68.148438 L 139.992188 66.117188 C 140.265625 66.460938 140.59375 66.734375 141 66.933594 C 141.402344 67.136719 141.824219 67.234375 142.257812 67.234375 C 142.722656 67.234375 143.140625 67.128906 143.507812 66.914062 C 143.875 66.695312 144.054688 66.394531 144.054688 66.003906 C 144.054688 65.675781 143.921875 65.390625 143.652344 65.160156 C 143.382812 64.925781 143.035156 64.753906 142.625 64.640625 C 142.210938 64.527344 141.769531 64.386719 141.289062 64.207031 C 140.8125 64.027344 140.367188 63.832031 139.957031 63.621094 C 139.542969 63.414062 139.207031 63.089844 138.929688 62.648438 C 138.660156 62.207031 138.523438 61.679688 138.523438 61.074219 C 138.523438 59.875 138.96875 58.9375 139.851562 58.257812 C 140.734375 57.582031 141.792969 57.238281 143.03125 57.238281 C 144.503906 57.238281 145.710938 57.648438 146.640625 58.472656 Z M 146.640625 58.480469 "/>
<path style=" stroke:none;fill-rule:nonzero;fill:rgb(51.372549%,86.666667%,23.529412%);fill-opacity:1;" d="M 153.785156 61.246094 L 153.785156 63.246094 L 151.589844 63.246094 L 151.589844 65.945312 C 151.589844 66.457031 151.664062 66.835938 151.804688 67.078125 C 151.949219 67.324219 152.269531 67.445312 152.773438 67.445312 C 153.273438 67.445312 153.621094 67.371094 153.792969 67.210938 L 153.792969 69.296875 C 153.335938 69.460938 152.75 69.542969 152.046875 69.542969 C 151.152344 69.542969 150.441406 69.347656 149.902344 68.949219 C 149.363281 68.554688 149.09375 67.9375 149.09375 67.09375 L 149.09375 63.238281 L 147.496094 63.238281 L 147.496094 61.238281 L 149.09375 61.238281 L 149.09375 58.839844 L 151.589844 58.839844 L 151.589844 61.238281 L 153.785156 61.238281 Z M 153.785156 61.246094 "/>
<path style=" stroke:none;fill-rule:nonzero;fill:rgb(51.372549%,86.666667%,23.529412%);fill-opacity:1;" d="M 160.132812 69.339844 L 160.132812 68.320312 L 160.101562 68.320312 C 159.59375 69.132812 158.738281 69.535156 157.539062 69.535156 C 156.738281 69.535156 156.054688 69.3125 155.5 68.867188 C 154.9375 68.425781 154.660156 67.8125 154.660156 67.03125 C 154.660156 66.644531 154.730469 66.296875 154.871094 65.992188 C 155.003906 65.683594 155.179688 65.4375 155.378906 65.242188 C 155.582031 65.046875 155.84375 64.882812 156.183594 64.738281 C 156.519531 64.597656 156.828125 64.492188 157.105469 64.425781 C 157.382812 64.355469 157.742188 64.296875 158.160156 64.257812 C 158.582031 64.222656 158.925781 64.199219 159.179688 64.191406 C 159.433594 64.191406 159.757812 64.183594 160.148438 64.183594 C 160.148438 63.75 159.988281 63.40625 159.683594 63.136719 C 159.367188 62.867188 158.992188 62.738281 158.550781 62.738281 C 157.769531 62.738281 157.097656 63.058594 156.519531 63.703125 L 155.1875 62.339844 C 156.101562 61.472656 157.285156 61.042969 158.753906 61.042969 C 160.140625 61.042969 161.105469 61.382812 161.644531 62.0625 C 162.1875 62.738281 162.457031 63.792969 162.457031 65.226562 L 162.457031 69.339844 Z M 160.132812 65.789062 L 159.519531 65.789062 C 157.875 65.789062 157.050781 66.179688 157.050781 66.957031 C 157.050781 67.234375 157.171875 67.453125 157.410156 67.609375 C 157.652344 67.765625 157.929688 67.84375 158.234375 67.84375 C 158.761719 67.84375 159.203125 67.707031 159.578125 67.445312 C 159.953125 67.175781 160.132812 66.808594 160.132812 66.328125 Z M 160.132812 65.789062 "/>
<path style=" stroke:none;fill-rule:nonzero;fill:rgb(51.372549%,86.666667%,23.529412%);fill-opacity:1;" d="M 169.515625 61.246094 L 169.515625 63.246094 L 167.320312 63.246094 L 167.320312 65.945312 C 167.320312 66.457031 167.394531 66.835938 167.535156 67.078125 C 167.679688 67.324219 168 67.445312 168.503906 67.445312 C 169.007812 67.445312 169.351562 67.371094 169.523438 67.210938 L 169.523438 69.296875 C 169.066406 69.460938 168.480469 69.542969 167.777344 69.542969 C 166.886719 69.542969 166.171875 69.347656 165.632812 68.949219 C 165.09375 68.554688 164.824219 67.9375 164.824219 67.09375 L 164.824219 63.238281 L 163.226562 63.238281 L 163.226562 61.238281 L 164.824219 61.238281 L 164.824219 58.839844 L 167.320312 58.839844 L 167.320312 61.238281 L 169.515625 61.238281 Z M 169.515625 61.246094 "/>
<path style=" stroke:none;fill-rule:nonzero;fill:rgb(51.372549%,86.666667%,23.529412%);fill-opacity:1;" d="M 171.035156 59.71875 C 170.753906 59.433594 170.609375 59.09375 170.609375 58.691406 C 170.609375 58.285156 170.753906 57.949219 171.035156 57.664062 C 171.320312 57.378906 171.660156 57.238281 172.0625 57.238281 C 172.46875 57.238281 172.804688 57.378906 173.089844 57.664062 C 173.375 57.949219 173.519531 58.285156 173.519531 58.691406 C 173.519531 59.09375 173.375 59.433594 173.089844 59.71875 C 172.804688 60.003906 172.46875 60.144531 172.0625 60.144531 C 171.660156 60.144531 171.320312 60.003906 171.035156 59.71875 Z M 170.8125 69.339844 L 170.8125 61.246094 L 173.308594 61.246094 L 173.308594 69.339844 Z M 170.8125 69.339844 "/>
<path style=" stroke:none;fill-rule:nonzero;fill:rgb(51.372549%,86.666667%,23.529412%);fill-opacity:1;" d="M 177.609375 69.339844 L 174.257812 61.246094 L 176.957031 61.246094 L 179.003906 66.746094 L 179.035156 66.746094 L 180.929688 61.246094 L 183.449219 61.246094 L 180.246094 69.339844 L 177.601562 69.339844 Z M 177.609375 69.339844 "/>
<path style=" stroke:none;fill-rule:nonzero;fill:rgb(51.372549%,86.666667%,23.529412%);fill-opacity:1;" d="M 189.457031 69.339844 L 189.457031 68.320312 L 189.429688 68.320312 C 188.917969 69.132812 188.066406 69.535156 186.867188 69.535156 C 186.0625 69.535156 185.382812 69.3125 184.828125 68.867188 C 184.265625 68.425781 183.988281 67.8125 183.988281 67.03125 C 183.988281 66.644531 184.054688 66.296875 184.199219 65.992188 C 184.332031 65.683594 184.503906 65.4375 184.707031 65.242188 C 184.910156 65.046875 185.171875 64.882812 185.507812 64.738281 C 185.847656 64.597656 186.152344 64.492188 186.429688 64.425781 C 186.707031 64.355469 187.066406 64.296875 187.488281 64.257812 C 187.90625 64.222656 188.253906 64.199219 188.507812 64.191406 C 188.761719 64.191406 189.085938 64.183594 189.472656 64.183594 C 189.472656 63.75 189.316406 63.40625 189.007812 63.136719 C 188.695312 62.867188 188.320312 62.738281 187.878906 62.738281 C 187.097656 62.738281 186.421875 63.058594 185.847656 63.703125 L 184.511719 62.339844 C 185.425781 61.472656 186.609375 61.042969 188.078125 61.042969 C 189.464844 61.042969 190.433594 61.382812 190.972656 62.0625 C 191.511719 62.738281 191.78125 63.792969 191.78125 65.226562 L 191.78125 69.339844 Z M 189.457031 65.789062 L 188.84375 65.789062 C 187.203125 65.789062 186.378906 66.179688 186.378906 66.957031 C 186.378906 67.234375 186.5 67.453125 186.738281 67.609375 C 186.976562 67.765625 187.253906 67.84375 187.5625 67.84375 C 188.085938 67.84375 188.53125 67.707031 188.902344 67.445312 C 189.277344 67.175781 189.457031 66.808594 189.457031 66.328125 Z M 189.457031 65.789062 "/>
<path style=" stroke:none;fill-rule:nonzero;fill:rgb(51.372549%,86.666667%,23.529412%);fill-opacity:1;" d="M 98.660156 147.613281 L 98.660156 111.632812 L 85.914062 111.632812 L 85.914062 102.925781 L 121.265625 102.925781 L 121.265625 111.632812 L 108.515625 111.632812 L 108.515625 147.613281 Z M 98.660156 147.613281 "/>
<path style=" stroke:none;fill-rule:nonzero;fill:rgb(51.372549%,86.666667%,23.529412%);fill-opacity:1;" d="M 125.042969 99.898438 L 134.507812 99.898438 L 134.507812 121.105469 L 134.636719 121.105469 C 135.136719 119.800781 136.15625 118.65625 137.699219 117.667969 C 139.238281 116.675781 141.082031 116.183594 143.222656 116.183594 C 147.644531 116.183594 150.644531 117.433594 152.21875 119.9375 C 153.800781 122.441406 154.585938 126.03125 154.585938 130.699219 L 154.585938 147.613281 L 145.121094 147.613281 L 145.121094 132.589844 C 145.121094 131.667969 145.113281 130.917969 145.089844 130.347656 C 145.066406 129.777344 144.96875 129.074219 144.804688 128.234375 C 144.632812 127.394531 144.386719 126.742188 144.046875 126.277344 C 143.710938 125.8125 143.214844 125.410156 142.566406 125.046875 C 141.914062 124.6875 141.125 124.507812 140.195312 124.507812 C 137.964844 124.507812 136.464844 125.214844 135.683594 126.621094 C 134.90625 128.03125 134.515625 129.933594 134.515625 132.332031 L 134.515625 147.609375 L 125.050781 147.609375 L 125.050781 99.882812 Z M 125.042969 99.898438 "/>
<path style=" stroke:none;fill-rule:nonzero;fill:rgb(51.372549%,86.666667%,23.529412%);fill-opacity:1;" d="M 188.296875 120.28125 L 182.046875 126.847656 C 180.953125 125.289062 179.394531 124.507812 177.378906 124.507812 C 175.015625 124.507812 173.164062 125.230469 171.824219 126.652344 C 170.476562 128.085938 169.800781 129.957031 169.800781 132.273438 C 169.800781 134.589844 170.476562 136.464844 171.824219 137.894531 C 173.171875 139.324219 175.023438 140.039062 177.378906 140.039062 C 179.183594 140.039062 180.742188 139.257812 182.046875 137.699219 L 188.296875 144.265625 C 185.605469 147 181.964844 148.363281 177.378906 148.363281 C 172.535156 148.363281 168.488281 146.878906 165.230469 143.914062 C 161.96875 140.945312 160.335938 137.0625 160.335938 132.265625 C 160.335938 127.46875 161.96875 123.585938 165.230469 120.621094 C 168.488281 117.652344 172.542969 116.167969 177.378906 116.167969 C 181.964844 116.167969 185.605469 117.539062 188.296875 120.273438 Z M 188.296875 120.28125 "/>
<path style=" stroke:none;fill-rule:nonzero;fill:rgb(51.372549%,86.666667%,23.529412%);fill-opacity:1;" d="M 89.066406 186.773438 L 89.066406 180.179688 L 86.730469 180.179688 L 86.730469 178.582031 L 93.203125 178.582031 L 93.203125 180.179688 L 90.867188 180.179688 L 90.867188 186.773438 L 89.058594 186.773438 Z M 89.066406 186.773438 "/>
<path style=" stroke:none;fill-rule:nonzero;fill:rgb(51.372549%,86.666667%,23.529412%);fill-opacity:1;" d="M 96.71875 184.910156 L 97.933594 185.800781 C 97.65625 186.144531 97.304688 186.421875 96.882812 186.617188 C 96.457031 186.8125 96.023438 186.910156 95.566406 186.910156 C 94.679688 186.910156 93.9375 186.640625 93.339844 186.09375 C 92.738281 185.546875 92.441406 184.839844 92.441406 183.957031 C 92.441406 183.074219 92.738281 182.367188 93.339844 181.820312 C 93.9375 181.273438 94.679688 181.003906 95.566406 181.003906 C 96.375 181.003906 97.019531 181.273438 97.492188 181.796875 C 97.964844 182.332031 98.203125 183.050781 98.203125 183.949219 L 98.203125 184.496094 L 94.179688 184.496094 C 94.246094 184.828125 94.402344 185.097656 94.636719 185.289062 C 94.867188 185.484375 95.152344 185.582031 95.484375 185.582031 C 95.976562 185.582031 96.390625 185.359375 96.71875 184.902344 Z M 94.171875 183.328125 L 96.464844 183.328125 C 96.472656 183.035156 96.375 182.78125 96.171875 182.578125 C 95.96875 182.367188 95.707031 182.261719 95.402344 182.261719 C 95.039062 182.261719 94.75 182.367188 94.53125 182.578125 C 94.3125 182.789062 94.195312 183.035156 94.171875 183.328125 Z M 94.171875 183.328125 "/>
<path style=" stroke:none;fill-rule:nonzero;fill:rgb(51.372549%,86.666667%,23.529412%);fill-opacity:1;" d="M 103.082031 181.152344 L 103.082031 182.539062 L 101.554688 182.539062 L 101.554688 184.414062 C 101.554688 184.765625 101.605469 185.027344 101.703125 185.199219 C 101.800781 185.375 102.027344 185.457031 102.378906 185.457031 C 102.730469 185.457031 102.96875 185.402344 103.082031 185.289062 L 103.082031 186.738281 C 102.769531 186.851562 102.363281 186.910156 101.867188 186.910156 C 101.253906 186.910156 100.757812 186.773438 100.382812 186.496094 C 100.011719 186.226562 99.824219 185.792969 99.824219 185.207031 L 99.824219 182.53125 L 98.714844 182.53125 L 98.714844 181.144531 L 99.824219 181.144531 L 99.824219 179.484375 L 101.5625 179.484375 L 101.5625 181.144531 L 103.089844 181.144531 Z M 103.082031 181.152344 "/>
<path style=" stroke:none;fill-rule:nonzero;fill:rgb(51.372549%,86.666667%,23.529412%);fill-opacity:1;" d="M 103.96875 186.773438 L 103.96875 181.152344 L 105.707031 181.152344 L 105.707031 182.054688 L 105.726562 182.054688 C 106.101562 181.355469 106.644531 181.011719 107.347656 181.011719 C 107.601562 181.011719 107.796875 181.035156 107.925781 181.070312 L 107.925781 182.652344 C 107.65625 182.578125 107.40625 182.539062 107.183594 182.539062 C 106.867188 182.539062 106.605469 182.585938 106.402344 182.667969 C 106.199219 182.75 106.042969 182.886719 105.945312 183.074219 C 105.847656 183.261719 105.78125 183.449219 105.75 183.648438 C 105.722656 183.851562 105.707031 184.105469 105.707031 184.421875 L 105.707031 186.765625 L 103.96875 186.765625 Z M 103.96875 186.773438 "/>
<path style=" stroke:none;fill-rule:nonzero;fill:rgb(51.372549%,86.666667%,23.529412%);fill-opacity:1;" d="M 112.203125 186.773438 L 112.203125 186.070312 L 112.179688 186.070312 C 111.828125 186.632812 111.230469 186.917969 110.398438 186.917969 C 109.84375 186.917969 109.371094 186.761719 108.980469 186.453125 C 108.589844 186.144531 108.394531 185.71875 108.394531 185.179688 C 108.394531 184.910156 108.441406 184.667969 108.539062 184.460938 C 108.636719 184.25 108.757812 184.078125 108.890625 183.941406 C 109.027344 183.808594 109.214844 183.695312 109.445312 183.597656 C 109.679688 183.5 109.886719 183.425781 110.089844 183.378906 C 110.285156 183.328125 110.53125 183.289062 110.824219 183.265625 C 111.117188 183.238281 111.347656 183.222656 111.527344 183.222656 C 111.710938 183.222656 111.933594 183.222656 112.203125 183.222656 C 112.203125 182.921875 112.097656 182.675781 111.882812 182.496094 C 111.664062 182.308594 111.402344 182.21875 111.09375 182.21875 C 110.554688 182.21875 110.082031 182.441406 109.683594 182.894531 L 108.761719 181.941406 C 109.394531 181.339844 110.226562 181.042969 111.238281 181.042969 C 112.203125 181.042969 112.871094 181.273438 113.246094 181.746094 C 113.621094 182.21875 113.808594 182.953125 113.808594 183.941406 L 113.808594 186.796875 L 112.210938 186.796875 Z M 112.203125 184.308594 L 111.777344 184.308594 C 110.636719 184.308594 110.066406 184.578125 110.066406 185.117188 C 110.066406 185.3125 110.148438 185.464844 110.316406 185.566406 C 110.480469 185.671875 110.675781 185.734375 110.882812 185.734375 C 111.246094 185.734375 111.558594 185.644531 111.8125 185.457031 C 112.070312 185.269531 112.203125 185.011719 112.203125 184.683594 Z M 112.203125 184.308594 "/>
<path style=" stroke:none;fill-rule:nonzero;fill:rgb(51.372549%,86.666667%,23.529412%);fill-opacity:1;" d="M 114.886719 178.027344 L 116.625 178.027344 L 116.625 181.917969 L 116.648438 181.917969 C 116.738281 181.679688 116.925781 181.46875 117.210938 181.289062 C 117.496094 181.109375 117.832031 181.019531 118.222656 181.019531 C 119.03125 181.019531 119.578125 181.25 119.871094 181.707031 C 120.164062 182.164062 120.304688 182.824219 120.304688 183.679688 L 120.304688 186.78125 L 118.566406 186.78125 L 118.566406 184.03125 C 118.566406 183.859375 118.566406 183.722656 118.566406 183.621094 C 118.566406 183.515625 118.542969 183.386719 118.515625 183.230469 C 118.484375 183.074219 118.4375 182.953125 118.371094 182.871094 C 118.304688 182.789062 118.222656 182.710938 118.101562 182.644531 C 117.980469 182.578125 117.839844 182.546875 117.667969 182.546875 C 117.253906 182.546875 116.984375 182.675781 116.84375 182.9375 C 116.699219 183.199219 116.625 183.542969 116.625 183.988281 L 116.625 186.789062 L 114.886719 186.789062 Z M 114.886719 178.027344 "/>
<path style=" stroke:none;fill-rule:nonzero;fill:rgb(51.372549%,86.666667%,23.529412%);fill-opacity:1;" d="M 121.707031 180.097656 C 121.511719 179.902344 121.414062 179.664062 121.414062 179.386719 C 121.414062 179.109375 121.511719 178.867188 121.707031 178.671875 C 121.902344 178.476562 122.140625 178.382812 122.417969 178.382812 C 122.695312 178.382812 122.9375 178.476562 123.132812 178.671875 C 123.324219 178.867188 123.421875 179.109375 123.421875 179.386719 C 123.421875 179.664062 123.324219 179.902344 123.132812 180.097656 C 122.9375 180.292969 122.695312 180.390625 122.417969 180.390625 C 122.140625 180.390625 121.902344 180.292969 121.707031 180.097656 Z M 121.550781 186.773438 L 121.550781 181.152344 L 123.289062 181.152344 L 123.289062 186.773438 Z M 121.550781 186.773438 "/>
<path style=" stroke:none;fill-rule:nonzero;fill:rgb(51.372549%,86.666667%,23.529412%);fill-opacity:1;" d="M 130.429688 178.027344 L 130.429688 186.773438 L 128.835938 186.773438 L 128.835938 186.03125 L 128.8125 186.03125 C 128.660156 186.265625 128.429688 186.46875 128.113281 186.648438 C 127.792969 186.828125 127.457031 186.917969 127.089844 186.917969 C 126.265625 186.917969 125.597656 186.648438 125.085938 186.109375 C 124.578125 185.566406 124.324219 184.871094 124.324219 184.015625 C 124.324219 183.164062 124.554688 182.496094 125.027344 181.902344 C 125.5 181.3125 126.121094 181.019531 126.894531 181.019531 C 127.726562 181.019531 128.316406 181.265625 128.675781 181.761719 L 128.699219 181.761719 L 128.699219 178.035156 L 130.4375 178.035156 Z M 128.46875 184.992188 C 128.714844 184.730469 128.835938 184.382812 128.835938 183.964844 C 128.835938 183.542969 128.714844 183.199219 128.46875 182.9375 C 128.21875 182.675781 127.882812 182.546875 127.449219 182.546875 C 127.011719 182.546875 126.675781 182.683594 126.429688 182.9375 C 126.179688 183.199219 126.0625 183.542969 126.0625 183.964844 C 126.0625 184.382812 126.179688 184.730469 126.429688 184.992188 C 126.675781 185.253906 127.011719 185.382812 127.449219 185.382812 C 127.882812 185.382812 128.21875 185.253906 128.46875 184.992188 Z M 128.46875 184.992188 "/>
<path style=" stroke:none;fill-rule:nonzero;fill:rgb(51.372549%,86.666667%,23.529412%);fill-opacity:1;" d="M 131.824219 186.773438 L 131.824219 181.152344 L 133.5625 181.152344 L 133.5625 182.054688 L 133.585938 182.054688 C 133.960938 181.355469 134.5 181.011719 135.203125 181.011719 C 135.460938 181.011719 135.65625 181.035156 135.78125 181.070312 L 135.78125 182.652344 C 135.511719 182.578125 135.265625 182.539062 135.039062 182.539062 C 134.726562 182.539062 134.464844 182.585938 134.261719 182.667969 C 134.058594 182.75 133.902344 182.886719 133.804688 183.074219 C 133.707031 183.261719 133.636719 183.449219 133.609375 183.648438 C 133.578125 183.851562 133.5625 184.105469 133.5625 184.421875 L 133.5625 186.765625 L 131.824219 186.765625 Z M 131.824219 186.773438 "/>
<path style=" stroke:none;fill-rule:nonzero;fill:rgb(51.372549%,86.666667%,23.529412%);fill-opacity:1;" d="M 137.011719 186.101562 C 136.410156 185.554688 136.113281 184.847656 136.113281 183.964844 C 136.113281 183.078125 136.410156 182.375 137.011719 181.828125 C 137.609375 181.28125 138.351562 181.011719 139.238281 181.011719 C 140.121094 181.011719 140.863281 181.28125 141.464844 181.828125 C 142.0625 182.375 142.363281 183.085938 142.363281 183.964844 C 142.363281 184.839844 142.0625 185.554688 141.464844 186.101562 C 140.863281 186.648438 140.121094 186.917969 139.238281 186.917969 C 138.351562 186.917969 137.609375 186.648438 137.011719 186.101562 Z M 138.21875 182.9375 C 137.96875 183.199219 137.851562 183.542969 137.851562 183.964844 C 137.851562 184.382812 137.96875 184.730469 138.21875 184.992188 C 138.464844 185.253906 138.800781 185.382812 139.238281 185.382812 C 139.671875 185.382812 140.007812 185.253906 140.257812 184.992188 C 140.503906 184.730469 140.625 184.382812 140.625 183.964844 C 140.625 183.542969 140.503906 183.199219 140.257812 182.9375 C 140.007812 182.675781 139.671875 182.546875 139.238281 182.546875 C 138.800781 182.546875 138.464844 182.683594 138.21875 182.9375 Z M 138.21875 182.9375 "/>
<path style=" stroke:none;fill-rule:nonzero;fill:rgb(51.372549%,86.666667%,23.529412%);fill-opacity:1;" d="M 148.328125 181.769531 L 147.179688 182.976562 C 146.980469 182.691406 146.695312 182.546875 146.328125 182.546875 C 145.890625 182.546875 145.554688 182.683594 145.308594 182.9375 C 145.058594 183.199219 144.941406 183.542969 144.941406 183.964844 C 144.941406 184.382812 145.058594 184.730469 145.308594 184.992188 C 145.554688 185.253906 145.890625 185.382812 146.328125 185.382812 C 146.65625 185.382812 146.941406 185.238281 147.179688 184.953125 L 148.328125 186.160156 C 147.832031 186.664062 147.167969 186.910156 146.328125 186.910156 C 145.441406 186.910156 144.699219 186.640625 144.101562 186.09375 C 143.5 185.546875 143.203125 184.839844 143.203125 183.957031 C 143.203125 183.074219 143.5 182.367188 144.101562 181.820312 C 144.699219 181.273438 145.441406 181.003906 146.328125 181.003906 C 147.167969 181.003906 147.832031 181.25 148.328125 181.753906 Z M 148.328125 181.769531 "/>
<path style=" stroke:none;fill-rule:nonzero;fill:rgb(51.372549%,86.666667%,23.529412%);fill-opacity:1;" d="M 152.480469 186.773438 L 152.480469 186.070312 L 152.457031 186.070312 C 152.105469 186.632812 151.503906 186.917969 150.675781 186.917969 C 150.121094 186.917969 149.648438 186.761719 149.257812 186.453125 C 148.867188 186.144531 148.671875 185.71875 148.671875 185.179688 C 148.671875 184.910156 148.71875 184.667969 148.816406 184.460938 C 148.914062 184.25 149.03125 184.078125 149.167969 183.941406 C 149.300781 183.808594 149.488281 183.695312 149.722656 183.597656 C 149.953125 183.5 150.164062 183.425781 150.367188 183.378906 C 150.5625 183.328125 150.808594 183.289062 151.101562 183.265625 C 151.394531 183.238281 151.625 183.222656 151.804688 183.222656 C 151.984375 183.222656 152.210938 183.222656 152.480469 183.222656 C 152.480469 182.921875 152.375 182.675781 152.15625 182.496094 C 151.941406 182.308594 151.679688 182.21875 151.371094 182.21875 C 150.832031 182.21875 150.359375 182.441406 149.960938 182.894531 L 149.039062 181.941406 C 149.667969 181.339844 150.5 181.042969 151.511719 181.042969 C 152.480469 181.042969 153.148438 181.273438 153.523438 181.746094 C 153.898438 182.21875 154.085938 182.953125 154.085938 183.941406 L 154.085938 186.796875 L 152.488281 186.796875 Z M 152.480469 184.308594 L 152.054688 184.308594 C 150.914062 184.308594 150.34375 184.578125 150.34375 185.117188 C 150.34375 185.3125 150.425781 185.464844 150.589844 185.566406 C 150.757812 185.671875 150.953125 185.734375 151.160156 185.734375 C 151.519531 185.734375 151.835938 185.644531 152.089844 185.457031 C 152.34375 185.269531 152.480469 185.011719 152.480469 184.683594 Z M 152.480469 184.308594 "/>
<path style=" stroke:none;fill-rule:nonzero;fill:rgb(51.372549%,86.666667%,23.529412%);fill-opacity:1;" d="M 155.164062 186.773438 L 155.164062 181.152344 L 156.828125 181.152344 L 156.828125 181.917969 L 156.847656 181.917969 C 156.976562 181.671875 157.1875 181.460938 157.472656 181.28125 C 157.757812 181.101562 158.09375 181.011719 158.492188 181.011719 C 159.300781 181.011719 159.847656 181.242188 160.140625 181.699219 C 160.433594 182.15625 160.574219 182.816406 160.574219 183.671875 L 160.574219 186.773438 L 158.835938 186.773438 L 158.835938 184.023438 C 158.835938 183.851562 158.835938 183.71875 158.835938 183.613281 C 158.835938 183.507812 158.8125 183.378906 158.78125 183.222656 C 158.753906 183.066406 158.707031 182.945312 158.640625 182.863281 C 158.574219 182.78125 158.492188 182.707031 158.371094 182.636719 C 158.25 182.570312 158.109375 182.539062 157.9375 182.539062 C 157.523438 182.539062 157.253906 182.667969 157.113281 182.929688 C 156.96875 183.191406 156.894531 183.539062 156.894531 183.980469 L 156.894531 186.78125 L 155.15625 186.78125 Z M 155.164062 186.773438 "/>
<path style=" stroke:none;fill-rule:nonzero;fill:rgb(51.372549%,86.666667%,23.529412%);fill-opacity:1;" d="M 161.804688 186.773438 L 161.804688 181.152344 L 163.46875 181.152344 L 163.46875 181.917969 L 163.488281 181.917969 C 163.617188 181.671875 163.828125 181.460938 164.113281 181.28125 C 164.398438 181.101562 164.734375 181.011719 165.132812 181.011719 C 165.941406 181.011719 166.488281 181.242188 166.78125 181.699219 C 167.074219 182.15625 167.214844 182.816406 167.214844 183.671875 L 167.214844 186.773438 L 165.476562 186.773438 L 165.476562 184.023438 C 165.476562 183.851562 165.476562 183.71875 165.476562 183.613281 C 165.476562 183.507812 165.453125 183.378906 165.421875 183.222656 C 165.394531 183.066406 165.347656 182.945312 165.28125 182.863281 C 165.214844 182.78125 165.132812 182.707031 165.011719 182.636719 C 164.890625 182.570312 164.75 182.539062 164.578125 182.539062 C 164.164062 182.539062 163.894531 182.667969 163.753906 182.929688 C 163.609375 183.191406 163.535156 183.539062 163.535156 183.980469 L 163.535156 186.78125 L 161.796875 186.78125 Z M 161.804688 186.773438 "/>
<path style=" stroke:none;fill-rule:nonzero;fill:rgb(51.372549%,86.666667%,23.529412%);fill-opacity:1;" d="M 171.972656 186.773438 L 171.972656 186.070312 L 171.953125 186.070312 C 171.597656 186.632812 171 186.917969 170.167969 186.917969 C 169.613281 186.917969 169.140625 186.761719 168.75 186.453125 C 168.363281 186.144531 168.167969 185.71875 168.167969 185.179688 C 168.167969 184.910156 168.210938 184.667969 168.308594 184.460938 C 168.40625 184.25 168.527344 184.078125 168.660156 183.941406 C 168.796875 183.808594 168.984375 183.695312 169.214844 183.597656 C 169.449219 183.5 169.65625 183.425781 169.859375 183.378906 C 170.054688 183.328125 170.300781 183.289062 170.59375 183.265625 C 170.886719 183.238281 171.121094 183.222656 171.300781 183.222656 C 171.480469 183.222656 171.703125 183.222656 171.972656 183.222656 C 171.972656 182.921875 171.867188 182.675781 171.652344 182.496094 C 171.433594 182.308594 171.171875 182.21875 170.863281 182.21875 C 170.324219 182.21875 169.851562 182.441406 169.457031 182.894531 L 168.535156 181.941406 C 169.164062 181.339844 169.996094 181.042969 171.007812 181.042969 C 171.972656 181.042969 172.640625 181.273438 173.015625 181.746094 C 173.390625 182.21875 173.578125 182.953125 173.578125 183.941406 L 173.578125 186.796875 L 171.980469 186.796875 Z M 171.972656 184.308594 L 171.546875 184.308594 C 170.40625 184.308594 169.835938 184.578125 169.835938 185.117188 C 169.835938 185.3125 169.921875 185.464844 170.085938 185.566406 C 170.25 185.671875 170.445312 185.734375 170.65625 185.734375 C 171.015625 185.734375 171.328125 185.644531 171.585938 185.457031 C 171.839844 185.269531 171.972656 185.011719 171.972656 184.683594 Z M 171.972656 184.308594 "/>
<path style=" stroke:none;fill-rule:nonzero;fill:rgb(51.372549%,86.666667%,23.529412%);fill-opacity:1;" d="M 174.820312 186.773438 L 174.820312 178.027344 L 176.558594 178.027344 L 176.558594 181.753906 L 176.582031 181.753906 C 176.933594 181.257812 177.535156 181.011719 178.367188 181.011719 C 179.140625 181.011719 179.761719 181.304688 180.234375 181.894531 C 180.707031 182.488281 180.9375 183.191406 180.9375 184.007812 C 180.9375 184.828125 180.683594 185.5625 180.171875 186.101562 C 179.664062 186.640625 178.996094 186.910156 178.171875 186.910156 C 177.8125 186.910156 177.46875 186.820312 177.144531 186.640625 C 176.824219 186.460938 176.589844 186.257812 176.449219 186.027344 L 176.425781 186.027344 L 176.425781 186.765625 L 174.828125 186.765625 Z M 176.785156 182.9375 C 176.539062 183.199219 176.417969 183.542969 176.417969 183.964844 C 176.417969 184.382812 176.539062 184.730469 176.785156 184.992188 C 177.03125 185.253906 177.371094 185.382812 177.804688 185.382812 C 178.238281 185.382812 178.578125 185.253906 178.824219 184.992188 C 179.070312 184.730469 179.191406 184.382812 179.191406 183.964844 C 179.191406 183.542969 179.070312 183.199219 178.824219 182.9375 C 178.578125 182.675781 178.238281 182.546875 177.804688 182.546875 C 177.371094 182.546875 177.03125 182.683594 176.785156 182.9375 Z M 176.785156 182.9375 "/>
<path style=" stroke:none;fill-rule:nonzero;fill:rgb(51.372549%,86.666667%,23.529412%);fill-opacity:1;" d="M 182.121094 180.097656 C 181.925781 179.902344 181.828125 179.664062 181.828125 179.386719 C 181.828125 179.109375 181.925781 178.867188 182.121094 178.671875 C 182.316406 178.476562 182.554688 178.382812 182.832031 178.382812 C 183.109375 178.382812 183.351562 178.476562 183.546875 178.671875 C 183.742188 178.867188 183.835938 179.109375 183.835938 179.386719 C 183.835938 179.664062 183.742188 179.902344 183.546875 180.097656 C 183.351562 180.292969 183.109375 180.390625 182.832031 180.390625 C 182.554688 180.390625 182.316406 180.292969 182.121094 180.097656 Z M 181.964844 186.773438 L 181.964844 181.152344 L 183.703125 181.152344 L 183.703125 186.773438 Z M 181.964844 186.773438 "/>
<path style=" stroke:none;fill-rule:nonzero;fill:rgb(51.372549%,86.666667%,23.529412%);fill-opacity:1;" d="M 190.851562 178.027344 L 190.851562 186.773438 L 189.257812 186.773438 L 189.257812 186.03125 L 189.234375 186.03125 C 189.085938 186.265625 188.851562 186.46875 188.535156 186.648438 C 188.214844 186.828125 187.878906 186.917969 187.511719 186.917969 C 186.6875 186.917969 186.019531 186.648438 185.507812 186.109375 C 185 185.566406 184.746094 184.871094 184.746094 184.015625 C 184.746094 183.164062 184.976562 182.496094 185.449219 181.902344 C 185.921875 181.3125 186.542969 181.019531 187.316406 181.019531 C 188.148438 181.019531 188.738281 181.265625 189.097656 181.761719 L 189.121094 181.761719 L 189.121094 178.035156 L 190.859375 178.035156 Z M 188.890625 184.992188 C 189.136719 184.730469 189.257812 184.382812 189.257812 183.964844 C 189.257812 183.542969 189.136719 183.199219 188.890625 182.9375 C 188.640625 182.675781 188.304688 182.546875 187.871094 182.546875 C 187.433594 182.546875 187.097656 182.683594 186.851562 182.9375 C 186.601562 183.199219 186.484375 183.542969 186.484375 183.964844 C 186.484375 184.382812 186.601562 184.730469 186.851562 184.992188 C 187.097656 185.253906 187.433594 185.382812 187.871094 185.382812 C 188.304688 185.382812 188.640625 185.253906 188.890625 184.992188 Z M 188.890625 184.992188 "/>
<path style=" stroke:none;fill-rule:nonzero;fill:rgb(51.372549%,86.666667%,23.529412%);fill-opacity:1;" d="M 192.417969 180.097656 C 192.222656 179.902344 192.128906 179.664062 192.128906 179.386719 C 192.128906 179.109375 192.222656 178.867188 192.417969 178.671875 C 192.613281 178.476562 192.855469 178.382812 193.132812 178.382812 C 193.410156 178.382812 193.648438 178.476562 193.84375 178.671875 C 194.039062 178.867188 194.136719 179.109375 194.136719 179.386719 C 194.136719 179.664062 194.039062 179.902344 193.84375 180.097656 C 193.648438 180.292969 193.410156 180.390625 193.132812 180.390625 C 192.855469 180.390625 192.613281 180.292969 192.417969 180.097656 Z M 192.261719 186.773438 L 192.261719 181.152344 L 194 181.152344 L 194 186.773438 Z M 192.261719 186.773438 "/>
<path style=" stroke:none;fill-rule:nonzero;fill:rgb(51.372549%,86.666667%,23.529412%);fill-opacity:1;" d="M 195.933594 186.101562 C 195.335938 185.554688 195.035156 184.847656 195.035156 183.964844 C 195.035156 183.078125 195.335938 182.375 195.933594 181.828125 C 196.535156 181.28125 197.277344 181.011719 198.160156 181.011719 C 199.042969 181.011719 199.785156 181.28125 200.386719 181.828125 C 200.984375 182.375 201.285156 183.085938 201.285156 183.964844 C 201.285156 184.839844 200.984375 185.554688 200.386719 186.101562 C 199.785156 186.648438 199.042969 186.917969 198.160156 186.917969 C 197.277344 186.917969 196.535156 186.648438 195.933594 186.101562 Z M 197.140625 182.9375 C 196.894531 183.199219 196.773438 183.542969 196.773438 183.964844 C 196.773438 184.382812 196.894531 184.730469 197.140625 184.992188 C 197.386719 185.253906 197.726562 185.382812 198.160156 185.382812 C 198.59375 185.382812 198.933594 185.253906 199.179688 184.992188 C 199.425781 184.730469 199.546875 184.382812 199.546875 183.964844 C 199.546875 183.542969 199.425781 183.199219 199.179688 182.9375 C 198.933594 182.675781 198.59375 182.546875 198.160156 182.546875 C 197.726562 182.546875 197.386719 182.683594 197.140625 182.9375 Z M 197.140625 182.9375 "/>
<path style=" stroke:none;fill-rule:nonzero;fill:rgb(51.372549%,86.666667%,23.529412%);fill-opacity:1;" d="M 202.328125 186.773438 L 202.328125 178.027344 L 204.066406 178.027344 L 204.066406 186.773438 Z M 202.328125 186.773438 "/>
<path style=" stroke:none;fill-rule:nonzero;fill:rgb(51.372549%,86.666667%,23.529412%);fill-opacity:1;" d="M 196.601562 43.707031 C 204.851562 43.707031 211.546875 50.402344 211.546875 58.652344 L 211.546875 183.785156 C 211.546875 192.035156 204.851562 198.730469 196.601562 198.730469 L 93.578125 198.730469 C 85.328125 198.730469 78.636719 192.035156 78.636719 183.785156 L 78.636719 58.644531 C 78.636719 50.394531 85.328125 43.703125 93.578125 43.703125 L 196.59375 43.703125 M 196.59375 41.773438 L 93.578125 41.773438 C 84.277344 41.773438 76.707031 49.34375 76.707031 58.644531 L 76.707031 183.777344 C 76.707031 193.078125 84.277344 200.648438 93.578125 200.648438 L 196.59375 200.648438 C 205.894531 200.648438 213.464844 193.078125 213.464844 183.777344 L 213.464844 58.644531 C 213.464844 49.34375 205.894531 41.773438 196.59375 41.773438 Z M 196.59375 41.773438 "/>
<path style=" stroke:none;fill-rule:nonzero;fill:rgb(51.372549%,86.666667%,23.529412%);fill-opacity:1;" d="M 384.253906 43.707031 C 392.503906 43.707031 399.199219 50.402344 399.199219 58.652344 L 399.199219 183.785156 C 399.199219 192.035156 392.503906 198.730469 384.253906 198.730469 L 281.238281 198.730469 C 272.988281 198.730469 266.292969 192.035156 266.292969 183.785156 L 266.292969 58.644531 C 266.292969 50.394531 272.988281 43.703125 281.238281 43.703125 L 384.253906 43.703125 M 384.253906 41.773438 L 281.238281 41.773438 C 271.9375 41.773438 264.367188 49.34375 264.367188 58.644531 L 264.367188 183.777344 C 264.367188 193.078125 271.9375 200.648438 281.238281 200.648438 L 384.253906 200.648438 C 393.554688 200.648438 401.125 193.078125 401.125 183.777344 L 401.125 58.644531 C 401.125 49.34375 393.554688 41.773438 384.253906 41.773438 Z M 384.253906 41.773438 "/>
<path style=" stroke:none;fill-rule:nonzero;fill:rgb(51.372549%,86.666667%,23.529412%);fill-opacity:1;" d="M 273.910156 69.339844 L 273.910156 57.542969 L 276.507812 57.542969 L 276.507812 69.339844 Z M 273.910156 69.339844 "/>
<path style=" stroke:none;fill-rule:nonzero;fill:rgb(51.372549%,86.666667%,23.529412%);fill-opacity:1;" d="M 278.554688 69.339844 L 278.554688 61.246094 L 280.953125 61.246094 L 280.953125 62.347656 L 280.984375 62.347656 C 281.171875 61.996094 281.472656 61.6875 281.882812 61.433594 C 282.296875 61.179688 282.78125 61.050781 283.351562 61.050781 C 284.519531 61.050781 285.308594 61.382812 285.726562 62.039062 C 286.148438 62.699219 286.351562 63.652344 286.351562 64.882812 L 286.351562 69.347656 L 283.855469 69.347656 L 283.855469 65.382812 C 283.855469 65.136719 283.855469 64.941406 283.847656 64.792969 C 283.847656 64.640625 283.816406 64.453125 283.773438 64.230469 C 283.726562 64.003906 283.660156 63.832031 283.570312 63.710938 C 283.480469 63.59375 283.351562 63.480469 283.179688 63.390625 C 283.007812 63.292969 282.796875 63.246094 282.558594 63.246094 C 281.964844 63.246094 281.570312 63.433594 281.367188 63.800781 C 281.164062 64.175781 281.058594 64.679688 281.058594 65.308594 L 281.058594 69.339844 Z M 278.554688 69.339844 "/>
<path style=" stroke:none;fill-rule:nonzero;fill:rgb(51.372549%,86.666667%,23.529412%);fill-opacity:1;" d="M 296.617188 56.75 L 296.617188 69.347656 L 294.316406 69.347656 L 294.316406 68.285156 L 294.285156 68.285156 C 294.078125 68.613281 293.738281 68.914062 293.28125 69.167969 C 292.816406 69.421875 292.332031 69.550781 291.804688 69.550781 C 290.613281 69.550781 289.65625 69.160156 288.921875 68.382812 C 288.1875 67.601562 287.820312 66.597656 287.820312 65.367188 C 287.820312 64.140625 288.15625 63.179688 288.839844 62.324219 C 289.511719 61.480469 290.414062 61.050781 291.519531 61.050781 C 292.71875 61.050781 293.574219 61.402344 294.085938 62.117188 L 294.113281 62.117188 L 294.113281 56.75 Z M 293.785156 66.777344 C 294.136719 66.402344 294.316406 65.910156 294.316406 65.292969 C 294.316406 64.679688 294.136719 64.191406 293.785156 63.808594 C 293.433594 63.433594 292.9375 63.238281 292.316406 63.238281 C 291.695312 63.238281 291.207031 63.425781 290.847656 63.808594 C 290.496094 64.183594 290.316406 64.679688 290.316406 65.292969 C 290.316406 65.910156 290.496094 66.394531 290.847656 66.777344 C 291.199219 67.152344 291.695312 67.347656 292.316406 67.347656 C 292.9375 67.347656 293.425781 67.160156 293.785156 66.777344 Z M 293.785156 66.777344 "/>
<path style=" stroke:none;fill-rule:nonzero;fill:rgb(51.372549%,86.666667%,23.529412%);fill-opacity:1;" d="M 298.875 59.71875 C 298.589844 59.433594 298.445312 59.09375 298.445312 58.691406 C 298.445312 58.285156 298.589844 57.949219 298.875 57.664062 C 299.160156 57.378906 299.496094 57.238281 299.902344 57.238281 C 300.304688 57.238281 300.640625 57.378906 300.925781 57.664062 C 301.210938 57.949219 301.355469 58.285156 301.355469 58.691406 C 301.355469 59.09375 301.210938 59.433594 300.925781 59.71875 C 300.640625 60.003906 300.304688 60.144531 299.902344 60.144531 C 299.496094 60.144531 299.160156 60.003906 298.875 59.71875 Z M 298.648438 69.339844 L 298.648438 61.246094 L 301.144531 61.246094 L 301.144531 69.339844 Z M 298.648438 69.339844 "/>
<path style=" stroke:none;fill-rule:nonzero;fill:rgb(51.372549%,86.666667%,23.529412%);fill-opacity:1;" d="M 310.078125 62.132812 L 308.429688 63.863281 C 308.136719 63.449219 307.734375 63.246094 307.191406 63.246094 C 306.570312 63.246094 306.082031 63.433594 305.722656 63.816406 C 305.371094 64.191406 305.191406 64.6875 305.191406 65.300781 C 305.191406 65.914062 305.371094 66.402344 305.722656 66.785156 C 306.074219 67.160156 306.570312 67.355469 307.191406 67.355469 C 307.671875 67.355469 308.085938 67.152344 308.429688 66.738281 L 310.078125 68.472656 C 309.367188 69.191406 308.40625 69.550781 307.191406 69.550781 C 305.917969 69.550781 304.847656 69.160156 303.984375 68.375 C 303.125 67.59375 302.695312 66.566406 302.695312 65.300781 C 302.695312 64.035156 303.125 63.007812 303.984375 62.226562 C 304.847656 61.449219 305.917969 61.050781 307.191406 61.050781 C 308.40625 61.050781 309.367188 61.410156 310.078125 62.132812 Z M 310.078125 62.132812 "/>
<path style=" stroke:none;fill-rule:nonzero;fill:rgb(51.372549%,86.666667%,23.529412%);fill-opacity:1;" d="M 316.058594 69.339844 L 316.058594 68.320312 L 316.027344 68.320312 C 315.519531 69.132812 314.664062 69.535156 313.464844 69.535156 C 312.664062 69.535156 311.980469 69.3125 311.425781 68.867188 C 310.863281 68.425781 310.589844 67.8125 310.589844 67.03125 C 310.589844 66.644531 310.65625 66.296875 310.796875 65.992188 C 310.941406 65.683594 311.105469 65.4375 311.308594 65.242188 C 311.507812 65.046875 311.773438 64.882812 312.109375 64.738281 C 312.4375 64.597656 312.753906 64.492188 313.03125 64.425781 C 313.308594 64.355469 313.667969 64.296875 314.089844 64.257812 C 314.507812 64.222656 314.851562 64.199219 315.105469 64.191406 C 315.363281 64.191406 315.683594 64.183594 316.074219 64.183594 C 316.074219 63.75 315.917969 63.40625 315.609375 63.136719 C 315.300781 62.867188 314.917969 62.738281 314.476562 62.738281 C 313.699219 62.738281 313.023438 63.058594 312.445312 63.703125 L 311.113281 62.339844 C 312.019531 61.472656 313.210938 61.042969 314.679688 61.042969 C 316.066406 61.042969 317.035156 61.382812 317.574219 62.0625 C 318.113281 62.738281 318.382812 63.792969 318.382812 65.226562 L 318.382812 69.339844 Z M 316.058594 65.789062 L 315.445312 65.789062 C 313.804688 65.789062 312.980469 66.179688 312.980469 66.957031 C 312.980469 67.234375 313.097656 67.453125 313.339844 67.609375 C 313.578125 67.765625 313.855469 67.84375 314.164062 67.84375 C 314.6875 67.84375 315.128906 67.707031 315.503906 67.445312 C 315.878906 67.175781 316.058594 66.808594 316.058594 66.328125 Z M 316.058594 65.789062 "/>
<path style=" stroke:none;fill-rule:nonzero;fill:rgb(51.372549%,86.666667%,23.529412%);fill-opacity:1;" d="M 318.988281 69.640625 L 323.972656 56.660156 L 325.871094 57.246094 L 320.871094 70.226562 Z M 318.988281 69.640625 "/>
<path style=" stroke:none;fill-rule:nonzero;fill:rgb(51.372549%,86.666667%,23.529412%);fill-opacity:1;" d="M 334.636719 58.480469 L 332.855469 60.429688 C 332.652344 60.175781 332.375 59.980469 332.023438 59.84375 C 331.671875 59.710938 331.316406 59.644531 330.972656 59.644531 C 330.539062 59.644531 330.140625 59.746094 329.773438 59.949219 C 329.40625 60.152344 329.226562 60.460938 329.226562 60.855469 C 329.226562 61.148438 329.324219 61.390625 329.527344 61.582031 C 329.730469 61.777344 329.984375 61.9375 330.300781 62.046875 C 330.613281 62.160156 330.964844 62.273438 331.355469 62.378906 C 331.746094 62.484375 332.136719 62.609375 332.523438 62.769531 C 332.914062 62.925781 333.265625 63.113281 333.582031 63.34375 C 333.894531 63.570312 334.160156 63.890625 334.355469 64.304688 C 334.546875 64.714844 334.652344 65.195312 334.652344 65.75 C 334.652344 67.011719 334.21875 67.96875 333.355469 68.636719 C 332.488281 69.304688 331.40625 69.632812 330.105469 69.632812 C 328.53125 69.632812 327.203125 69.136719 326.140625 68.148438 L 327.992188 66.117188 C 328.261719 66.460938 328.589844 66.734375 329.003906 66.933594 C 329.40625 67.136719 329.828125 67.234375 330.261719 67.234375 C 330.726562 67.234375 331.144531 67.128906 331.511719 66.914062 C 331.878906 66.695312 332.058594 66.394531 332.058594 66.003906 C 332.058594 65.675781 331.925781 65.390625 331.65625 65.160156 C 331.386719 64.925781 331.039062 64.753906 330.628906 64.640625 C 330.214844 64.527344 329.773438 64.386719 329.292969 64.207031 C 328.816406 64.027344 328.371094 63.832031 327.960938 63.621094 C 327.546875 63.414062 327.210938 63.089844 326.933594 62.648438 C 326.664062 62.207031 326.527344 61.679688 326.527344 61.074219 C 326.527344 59.875 326.972656 58.9375 327.855469 58.257812 C 328.738281 57.574219 329.796875 57.238281 331.035156 57.238281 C 332.511719 57.238281 333.714844 57.648438 334.644531 58.472656 Z M 334.636719 58.480469 "/>
<path style=" stroke:none;fill-rule:nonzero;fill:rgb(51.372549%,86.666667%,23.529412%);fill-opacity:1;" d="M 341.789062 61.246094 L 341.789062 63.246094 L 339.59375 63.246094 L 339.59375 65.945312 C 339.59375 66.457031 339.667969 66.835938 339.808594 67.078125 C 339.953125 67.324219 340.273438 67.445312 340.777344 67.445312 C 341.277344 67.445312 341.625 67.371094 341.796875 67.210938 L 341.796875 69.296875 C 341.339844 69.460938 340.753906 69.542969 340.050781 69.542969 C 339.15625 69.542969 338.445312 69.347656 337.90625 68.949219 C 337.367188 68.554688 337.097656 67.9375 337.097656 67.09375 L 337.097656 63.238281 L 335.5 63.238281 L 335.5 61.238281 L 337.097656 61.238281 L 337.097656 58.839844 L 339.59375 58.839844 L 339.59375 61.238281 L 341.789062 61.238281 Z M 341.789062 61.246094 "/>
<path style=" stroke:none;fill-rule:nonzero;fill:rgb(51.372549%,86.666667%,23.529412%);fill-opacity:1;" d="M 348.136719 69.339844 L 348.136719 68.320312 L 348.105469 68.320312 C 347.597656 69.132812 346.742188 69.535156 345.542969 69.535156 C 344.742188 69.535156 344.058594 69.3125 343.503906 68.867188 C 342.941406 68.425781 342.664062 67.8125 342.664062 67.03125 C 342.664062 66.644531 342.734375 66.296875 342.875 65.992188 C 343.015625 65.683594 343.183594 65.4375 343.382812 65.242188 C 343.585938 65.046875 343.847656 64.882812 344.1875 64.738281 C 344.523438 64.597656 344.832031 64.492188 345.109375 64.425781 C 345.386719 64.355469 345.746094 64.296875 346.164062 64.257812 C 346.585938 64.222656 346.921875 64.199219 347.183594 64.191406 C 347.4375 64.191406 347.761719 64.183594 348.152344 64.183594 C 348.152344 63.75 347.992188 63.40625 347.6875 63.136719 C 347.371094 62.867188 346.996094 62.738281 346.554688 62.738281 C 345.777344 62.738281 345.101562 63.058594 344.523438 63.703125 L 343.191406 62.339844 C 344.097656 61.472656 345.289062 61.042969 346.757812 61.042969 C 348.144531 61.042969 349.109375 61.382812 349.648438 62.0625 C 350.191406 62.738281 350.460938 63.792969 350.460938 65.226562 L 350.460938 69.339844 Z M 348.136719 65.789062 L 347.523438 65.789062 C 345.878906 65.789062 345.054688 66.179688 345.054688 66.957031 C 345.054688 67.234375 345.175781 67.453125 345.414062 67.609375 C 345.65625 67.765625 345.933594 67.84375 346.238281 67.84375 C 346.765625 67.84375 347.207031 67.707031 347.582031 67.445312 C 347.957031 67.175781 348.136719 66.808594 348.136719 66.328125 Z M 348.136719 65.789062 "/>
<path style=" stroke:none;fill-rule:nonzero;fill:rgb(51.372549%,86.666667%,23.529412%);fill-opacity:1;" d="M 357.511719 61.246094 L 357.511719 63.246094 L 355.316406 63.246094 L 355.316406 65.945312 C 355.316406 66.457031 355.390625 66.835938 355.535156 67.078125 C 355.675781 67.324219 356 67.445312 356.5 67.445312 C 357.003906 67.445312 357.347656 67.371094 357.519531 67.210938 L 357.519531 69.296875 C 357.0625 69.460938 356.476562 69.542969 355.773438 69.542969 C 354.882812 69.542969 354.167969 69.347656 353.628906 68.949219 C 353.089844 68.554688 352.820312 67.9375 352.820312 67.09375 L 352.820312 63.238281 L 351.222656 63.238281 L 351.222656 61.238281 L 352.820312 61.238281 L 352.820312 58.839844 L 355.316406 58.839844 L 355.316406 61.238281 L 357.511719 61.238281 Z M 357.511719 61.246094 "/>
<path style=" stroke:none;fill-rule:nonzero;fill:rgb(51.372549%,86.666667%,23.529412%);fill-opacity:1;" d="M 359.039062 59.71875 C 358.757812 59.433594 358.613281 59.09375 358.613281 58.691406 C 358.613281 58.285156 358.757812 57.949219 359.039062 57.664062 C 359.324219 57.378906 359.664062 57.238281 360.066406 57.238281 C 360.472656 57.238281 360.808594 57.378906 361.09375 57.664062 C 361.378906 57.949219 361.523438 58.285156 361.523438 58.691406 C 361.523438 59.09375 361.378906 59.433594 361.09375 59.71875 C 360.808594 60.003906 360.472656 60.144531 360.066406 60.144531 C 359.664062 60.144531 359.324219 60.003906 359.039062 59.71875 Z M 358.816406 69.339844 L 358.816406 61.246094 L 361.3125 61.246094 L 361.3125 69.339844 Z M 358.816406 69.339844 "/>
<path style=" stroke:none;fill-rule:nonzero;fill:rgb(51.372549%,86.666667%,23.529412%);fill-opacity:1;" d="M 365.613281 69.339844 L 362.265625 61.246094 L 364.960938 61.246094 L 367.007812 66.746094 L 367.039062 66.746094 L 368.933594 61.246094 L 371.453125 61.246094 L 368.253906 69.339844 L 365.605469 69.339844 Z M 365.613281 69.339844 "/>
<path style=" stroke:none;fill-rule:nonzero;fill:rgb(51.372549%,86.666667%,23.529412%);fill-opacity:1;" d="M 377.457031 69.339844 L 377.457031 68.320312 L 377.425781 68.320312 C 376.914062 69.132812 376.0625 69.535156 374.863281 69.535156 C 374.058594 69.535156 373.378906 69.3125 372.824219 68.867188 C 372.261719 68.425781 371.984375 67.8125 371.984375 67.03125 C 371.984375 66.644531 372.050781 66.296875 372.195312 65.992188 C 372.335938 65.683594 372.5 65.4375 372.703125 65.242188 C 372.90625 65.046875 373.167969 64.882812 373.503906 64.738281 C 373.84375 64.597656 374.148438 64.492188 374.425781 64.425781 C 374.703125 64.355469 375.066406 64.296875 375.484375 64.257812 C 375.902344 64.222656 376.242188 64.199219 376.503906 64.191406 C 376.757812 64.191406 377.082031 64.183594 377.46875 64.183594 C 377.46875 63.75 377.3125 63.40625 377.003906 63.136719 C 376.691406 62.867188 376.316406 62.738281 375.875 62.738281 C 375.09375 62.738281 374.421875 63.058594 373.84375 63.703125 L 372.507812 62.339844 C 373.414062 61.472656 374.609375 61.042969 376.078125 61.042969 C 377.464844 61.042969 378.429688 61.382812 378.96875 62.0625 C 379.507812 62.738281 379.777344 63.792969 379.777344 65.226562 L 379.777344 69.339844 Z M 377.457031 65.789062 L 376.839844 65.789062 C 375.199219 65.789062 374.375 66.179688 374.375 66.957031 C 374.375 67.234375 374.496094 67.453125 374.734375 67.609375 C 374.976562 67.765625 375.253906 67.84375 375.558594 67.84375 C 376.082031 67.84375 376.527344 67.707031 376.902344 67.445312 C 377.277344 67.175781 377.457031 66.808594 377.457031 66.328125 Z M 377.457031 65.789062 "/>
<path style=" stroke:none;fill-rule:nonzero;fill:rgb(51.372549%,86.666667%,23.529412%);fill-opacity:1;" d="M 307.84375 115.742188 L 301.285156 121.097656 C 299.503906 118.984375 297.058594 117.929688 293.964844 117.929688 C 290.871094 117.929688 288.042969 119.105469 285.929688 121.453125 C 283.816406 123.804688 282.761719 126.78125 282.761719 130.386719 C 282.761719 133.988281 283.808594 136.929688 285.902344 139.296875 C 287.992188 141.664062 290.59375 142.847656 293.6875 142.847656 C 297.148438 142.847656 299.8125 141.460938 301.667969 138.695312 L 308.773438 143.996094 C 307.207031 146.222656 305.175781 147.890625 302.679688 149.023438 C 300.183594 150.15625 297.554688 150.71875 294.78125 150.71875 C 288.660156 150.71875 283.652344 148.859375 279.753906 145.140625 C 275.859375 141.425781 273.910156 136.507812 273.910156 130.386719 C 273.910156 124.261719 275.859375 119.34375 279.753906 115.628906 C 283.652344 111.910156 288.664062 110.050781 294.78125 110.050781 C 297.226562 110.050781 299.625 110.507812 302 111.414062 C 304.367188 112.332031 306.316406 113.769531 307.84375 115.734375 Z M 307.84375 115.742188 "/>
<path style=" stroke:none;fill-rule:nonzero;fill:rgb(51.372549%,86.666667%,23.529412%);fill-opacity:1;" d="M 313.144531 149.734375 L 313.144531 108.417969 L 321.34375 108.417969 L 321.34375 126.015625 L 321.457031 126.015625 C 323.132812 123.683594 325.9375 122.515625 329.871094 122.515625 C 333.515625 122.515625 336.445312 123.910156 338.671875 126.699219 C 340.890625 129.484375 342.003906 132.8125 342.003906 136.671875 C 342.003906 140.53125 340.804688 144.019531 338.402344 146.566406 C 335.996094 149.113281 332.847656 150.386719 328.949219 150.386719 C 327.234375 150.386719 325.621094 149.96875 324.117188 149.128906 C 322.601562 148.289062 321.5 147.324219 320.8125 146.234375 L 320.699219 146.234375 L 320.699219 149.734375 Z M 322.4375 131.589844 C 321.269531 132.828125 320.691406 134.453125 320.691406 136.457031 C 320.691406 138.457031 321.273438 140.082031 322.4375 141.320312 C 323.605469 142.554688 325.203125 143.179688 327.25 143.179688 C 329.292969 143.179688 330.890625 142.554688 332.058594 141.320312 C 333.230469 140.082031 333.804688 138.457031 333.804688 136.457031 C 333.804688 134.453125 333.222656 132.828125 332.058594 131.589844 C 330.890625 130.355469 329.292969 129.734375 327.25 129.734375 C 325.203125 129.734375 323.605469 130.355469 322.4375 131.589844 Z M 322.4375 131.589844 "/>
<path style=" stroke:none;fill-rule:nonzero;fill:rgb(51.372549%,86.666667%,23.529412%);fill-opacity:1;" d="M 374.683594 108.417969 L 374.683594 149.734375 L 367.144531 149.734375 L 367.144531 146.234375 L 367.03125 146.234375 C 366.339844 147.332031 365.238281 148.296875 363.726562 149.128906 C 362.210938 149.96875 360.601562 150.386719 358.890625 150.386719 C 354.992188 150.386719 351.839844 149.113281 349.441406 146.566406 C 347.035156 144.019531 345.835938 140.71875 345.835938 136.671875 C 345.835938 132.625 346.945312 129.484375 349.171875 126.699219 C 351.390625 123.910156 354.328125 122.515625 357.96875 122.515625 C 361.902344 122.515625 364.707031 123.683594 366.386719 126.015625 L 366.5 126.015625 L 366.5 108.417969 L 374.699219 108.417969 Z M 365.390625 141.320312 C 366.558594 140.082031 367.136719 138.457031 367.136719 136.457031 C 367.136719 134.453125 366.550781 132.828125 365.390625 131.589844 C 364.21875 130.355469 362.625 129.734375 360.578125 129.734375 C 358.53125 129.734375 356.933594 130.355469 355.765625 131.589844 C 354.597656 132.828125 354.019531 134.453125 354.019531 136.457031 C 354.019531 138.457031 354.605469 140.082031 355.765625 141.320312 C 356.933594 142.554688 358.53125 143.179688 360.578125 143.179688 C 362.625 143.179688 364.21875 142.554688 365.390625 141.320312 Z M 365.390625 141.320312 "/>
<path style=" stroke:none;fill-rule:nonzero;fill:rgb(51.372549%,86.666667%,23.529412%);fill-opacity:1;" d="M 281.484375 179.578125 L 280.097656 180.710938 C 279.726562 180.261719 279.207031 180.039062 278.546875 180.039062 C 277.886719 180.039062 277.296875 180.285156 276.847656 180.785156 C 276.398438 181.28125 276.171875 181.910156 276.171875 182.675781 C 276.171875 183.441406 276.398438 184.0625 276.839844 184.5625 C 277.28125 185.066406 277.828125 185.3125 278.488281 185.3125 C 279.222656 185.3125 279.785156 185.019531 280.175781 184.4375 L 281.679688 185.5625 C 281.351562 186.03125 280.917969 186.386719 280.390625 186.625 C 279.859375 186.863281 279.304688 186.984375 278.71875 186.984375 C 277.425781 186.984375 276.367188 186.59375 275.542969 185.808594 C 274.71875 185.019531 274.304688 183.980469 274.304688 182.683594 C 274.304688 181.386719 274.71875 180.34375 275.542969 179.558594 C 276.367188 178.769531 277.429688 178.382812 278.71875 178.382812 C 279.238281 178.382812 279.746094 178.476562 280.25 178.671875 C 280.75 178.867188 281.164062 179.167969 281.484375 179.585938 Z M 281.484375 179.578125 "/>
<path style=" stroke:none;fill-rule:nonzero;fill:rgb(51.372549%,86.666667%,23.529412%);fill-opacity:1;" d="M 285.96875 186.773438 L 285.96875 186.070312 L 285.945312 186.070312 C 285.59375 186.632812 284.992188 186.917969 284.160156 186.917969 C 283.605469 186.917969 283.136719 186.761719 282.746094 186.453125 C 282.355469 186.144531 282.160156 185.71875 282.160156 185.179688 C 282.160156 184.910156 282.207031 184.667969 282.304688 184.460938 C 282.402344 184.25 282.519531 184.078125 282.65625 183.941406 C 282.789062 183.808594 282.976562 183.695312 283.210938 183.597656 C 283.441406 183.5 283.652344 183.425781 283.855469 183.378906 C 284.058594 183.335938 284.296875 183.289062 284.589844 183.265625 C 284.882812 183.238281 285.113281 183.222656 285.292969 183.222656 C 285.472656 183.222656 285.691406 183.222656 285.96875 183.222656 C 285.96875 182.921875 285.863281 182.675781 285.644531 182.496094 C 285.429688 182.308594 285.164062 182.21875 284.859375 182.21875 C 284.320312 182.21875 283.847656 182.441406 283.449219 182.894531 L 282.527344 181.941406 C 283.15625 181.339844 283.980469 181.042969 285 181.042969 C 285.96875 181.042969 286.636719 181.273438 287.007812 181.746094 C 287.382812 182.21875 287.570312 182.953125 287.570312 183.941406 L 287.570312 186.796875 L 285.976562 186.796875 Z M 285.96875 184.308594 L 285.539062 184.308594 C 284.402344 184.308594 283.832031 184.578125 283.832031 185.117188 C 283.832031 185.3125 283.914062 185.464844 284.078125 185.566406 C 284.242188 185.671875 284.4375 185.734375 284.648438 185.734375 C 285.007812 185.734375 285.324219 185.644531 285.578125 185.457031 C 285.832031 185.269531 285.96875 185.011719 285.96875 184.683594 Z M 285.96875 184.308594 "/>
<path style=" stroke:none;fill-rule:nonzero;fill:rgb(51.372549%,86.666667%,23.529412%);fill-opacity:1;" d="M 288.660156 186.773438 L 288.660156 181.152344 L 290.324219 181.152344 L 290.324219 181.917969 L 290.34375 181.917969 C 290.480469 181.671875 290.683594 181.460938 290.96875 181.28125 C 291.25 181.101562 291.589844 181.019531 291.984375 181.019531 C 292.796875 181.019531 293.34375 181.25 293.636719 181.707031 C 293.925781 182.164062 294.070312 182.824219 294.070312 183.679688 L 294.070312 186.78125 L 292.332031 186.78125 L 292.332031 184.03125 C 292.332031 183.859375 292.332031 183.722656 292.332031 183.621094 C 292.332031 183.515625 292.308594 183.386719 292.277344 183.230469 C 292.25 183.074219 292.203125 182.960938 292.136719 182.871094 C 292.074219 182.789062 291.984375 182.710938 291.867188 182.644531 C 291.746094 182.578125 291.605469 182.546875 291.429688 182.546875 C 291.019531 182.546875 290.75 182.675781 290.605469 182.9375 C 290.464844 183.199219 290.390625 183.542969 290.390625 183.988281 L 290.390625 186.789062 L 288.652344 186.789062 Z M 288.660156 186.773438 "/>
<path style=" stroke:none;fill-rule:nonzero;fill:rgb(51.372549%,86.666667%,23.529412%);fill-opacity:1;" d="M 295.296875 186.773438 L 295.296875 181.152344 L 296.960938 181.152344 L 296.960938 181.917969 L 296.984375 181.917969 C 297.121094 181.671875 297.324219 181.460938 297.605469 181.28125 C 297.890625 181.101562 298.230469 181.019531 298.625 181.019531 C 299.4375 181.019531 299.984375 181.25 300.273438 181.707031 C 300.566406 182.164062 300.710938 182.824219 300.710938 183.679688 L 300.710938 186.78125 L 298.972656 186.78125 L 298.972656 184.03125 C 298.972656 183.859375 298.972656 183.722656 298.972656 183.621094 C 298.972656 183.515625 298.949219 183.386719 298.917969 183.230469 C 298.890625 183.074219 298.84375 182.960938 298.777344 182.871094 C 298.714844 182.789062 298.625 182.710938 298.507812 182.644531 C 298.386719 182.578125 298.246094 182.546875 298.070312 182.546875 C 297.660156 182.546875 297.390625 182.675781 297.246094 182.9375 C 297.105469 183.199219 297.03125 183.542969 297.03125 183.988281 L 297.03125 186.789062 L 295.292969 186.789062 Z M 295.296875 186.773438 "/>
<path style=" stroke:none;fill-rule:nonzero;fill:rgb(51.372549%,86.666667%,23.529412%);fill-opacity:1;" d="M 305.460938 186.773438 L 305.460938 186.070312 L 305.4375 186.070312 C 305.085938 186.632812 304.488281 186.917969 303.65625 186.917969 C 303.101562 186.917969 302.628906 186.761719 302.238281 186.453125 C 301.847656 186.144531 301.652344 185.71875 301.652344 185.179688 C 301.652344 184.910156 301.699219 184.667969 301.796875 184.460938 C 301.894531 184.25 302.015625 184.078125 302.148438 183.941406 C 302.285156 183.808594 302.472656 183.695312 302.703125 183.597656 C 302.9375 183.5 303.144531 183.425781 303.347656 183.378906 C 303.550781 183.335938 303.789062 183.289062 304.082031 183.265625 C 304.375 183.238281 304.605469 183.222656 304.785156 183.222656 C 304.96875 183.222656 305.183594 183.222656 305.460938 183.222656 C 305.460938 182.921875 305.355469 182.675781 305.140625 182.496094 C 304.921875 182.308594 304.660156 182.21875 304.351562 182.21875 C 303.8125 182.21875 303.339844 182.441406 302.941406 182.894531 L 302.019531 181.941406 C 302.652344 181.339844 303.476562 181.042969 304.496094 181.042969 C 305.460938 181.042969 306.128906 181.273438 306.503906 181.746094 C 306.878906 182.21875 307.066406 182.953125 307.066406 183.941406 L 307.066406 186.796875 L 305.46875 186.796875 Z M 305.460938 184.308594 L 305.035156 184.308594 C 303.894531 184.308594 303.324219 184.578125 303.324219 185.117188 C 303.324219 185.3125 303.40625 185.464844 303.574219 185.566406 C 303.738281 185.671875 303.933594 185.734375 304.140625 185.734375 C 304.503906 185.734375 304.816406 185.644531 305.070312 185.457031 C 305.328125 185.269531 305.460938 185.011719 305.460938 184.683594 Z M 305.460938 184.308594 "/>
<path style=" stroke:none;fill-rule:nonzero;fill:rgb(51.372549%,86.666667%,23.529412%);fill-opacity:1;" d="M 308.308594 186.773438 L 308.308594 178.027344 L 310.046875 178.027344 L 310.046875 181.753906 L 310.070312 181.753906 C 310.421875 181.257812 311.023438 181.011719 311.855469 181.011719 C 312.625 181.011719 313.25 181.304688 313.71875 181.894531 C 314.191406 182.488281 314.425781 183.191406 314.425781 184.007812 C 314.425781 184.828125 314.171875 185.5625 313.660156 186.101562 C 313.152344 186.640625 312.484375 186.910156 311.660156 186.910156 C 311.300781 186.910156 310.957031 186.820312 310.632812 186.648438 C 310.3125 186.46875 310.078125 186.265625 309.9375 186.03125 L 309.914062 186.03125 L 309.914062 186.773438 Z M 310.273438 182.9375 C 310.027344 183.199219 309.90625 183.542969 309.90625 183.964844 C 309.90625 184.382812 310.027344 184.730469 310.273438 184.992188 C 310.519531 185.253906 310.859375 185.382812 311.292969 185.382812 C 311.726562 185.382812 312.0625 185.253906 312.3125 184.992188 C 312.558594 184.730469 312.679688 184.382812 312.679688 183.964844 C 312.679688 183.542969 312.558594 183.199219 312.3125 182.9375 C 312.0625 182.675781 311.726562 182.546875 311.292969 182.546875 C 310.859375 182.546875 310.519531 182.683594 310.273438 182.9375 Z M 310.273438 182.9375 "/>
<path style=" stroke:none;fill-rule:nonzero;fill:rgb(51.372549%,86.666667%,23.529412%);fill-opacity:1;" d="M 315.617188 180.097656 C 315.421875 179.902344 315.324219 179.664062 315.324219 179.386719 C 315.324219 179.109375 315.421875 178.867188 315.617188 178.671875 C 315.8125 178.476562 316.050781 178.382812 316.328125 178.382812 C 316.605469 178.382812 316.847656 178.476562 317.039062 178.671875 C 317.234375 178.867188 317.332031 179.109375 317.332031 179.386719 C 317.332031 179.664062 317.234375 179.902344 317.039062 180.097656 C 316.847656 180.292969 316.605469 180.390625 316.328125 180.390625 C 316.050781 180.390625 315.8125 180.292969 315.617188 180.097656 Z M 315.460938 186.773438 L 315.460938 181.152344 L 317.199219 181.152344 L 317.199219 186.773438 Z M 315.460938 186.773438 "/>
<path style=" stroke:none;fill-rule:nonzero;fill:rgb(51.372549%,86.666667%,23.529412%);fill-opacity:1;" d="M 324.339844 178.027344 L 324.339844 186.773438 L 322.746094 186.773438 L 322.746094 186.03125 L 322.722656 186.03125 C 322.570312 186.265625 322.339844 186.46875 322.023438 186.648438 C 321.703125 186.828125 321.367188 186.910156 320.996094 186.910156 C 320.171875 186.910156 319.507812 186.640625 318.996094 186.101562 C 318.488281 185.5625 318.234375 184.863281 318.234375 184.007812 C 318.234375 183.15625 318.464844 182.488281 318.9375 181.894531 C 319.410156 181.304688 320.03125 181.011719 320.796875 181.011719 C 321.628906 181.011719 322.21875 181.257812 322.578125 181.753906 L 322.601562 181.753906 L 322.601562 178.027344 Z M 322.378906 184.992188 C 322.625 184.730469 322.746094 184.382812 322.746094 183.964844 C 322.746094 183.542969 322.625 183.199219 322.378906 182.9375 C 322.128906 182.675781 321.792969 182.546875 321.359375 182.546875 C 320.921875 182.546875 320.585938 182.683594 320.339844 182.9375 C 320.089844 183.199219 319.972656 183.542969 319.972656 183.964844 C 319.972656 184.382812 320.089844 184.730469 320.339844 184.992188 C 320.585938 185.253906 320.921875 185.382812 321.359375 185.382812 C 321.792969 185.382812 322.128906 185.253906 322.378906 184.992188 Z M 322.378906 184.992188 "/>
<path style=" stroke:none;fill-rule:nonzero;fill:rgb(51.372549%,86.666667%,23.529412%);fill-opacity:1;" d="M 325.90625 180.097656 C 325.710938 179.902344 325.613281 179.664062 325.613281 179.386719 C 325.613281 179.109375 325.710938 178.867188 325.90625 178.671875 C 326.101562 178.476562 326.339844 178.382812 326.617188 178.382812 C 326.894531 178.382812 327.136719 178.476562 327.332031 178.671875 C 327.527344 178.867188 327.625 179.109375 327.625 179.386719 C 327.625 179.664062 327.527344 179.902344 327.332031 180.097656 C 327.136719 180.292969 326.894531 180.390625 326.617188 180.390625 C 326.339844 180.390625 326.101562 180.292969 325.90625 180.097656 Z M 325.75 186.773438 L 325.75 181.152344 L 327.488281 181.152344 L 327.488281 186.773438 Z M 325.75 186.773438 "/>
<path style=" stroke:none;fill-rule:nonzero;fill:rgb(51.372549%,86.666667%,23.529412%);fill-opacity:1;" d="M 329.429688 186.101562 C 328.828125 185.554688 328.53125 184.839844 328.53125 183.964844 C 328.53125 183.085938 328.828125 182.375 329.429688 181.828125 C 330.027344 181.28125 330.769531 181.011719 331.65625 181.011719 C 332.539062 181.011719 333.28125 181.28125 333.882812 181.828125 C 334.480469 182.375 334.78125 183.078125 334.78125 183.964844 C 334.78125 184.847656 334.480469 185.554688 333.882812 186.101562 C 333.28125 186.648438 332.539062 186.917969 331.65625 186.917969 C 330.769531 186.917969 330.027344 186.648438 329.429688 186.101562 Z M 330.636719 182.9375 C 330.390625 183.199219 330.269531 183.542969 330.269531 183.964844 C 330.269531 184.382812 330.390625 184.730469 330.636719 184.992188 C 330.882812 185.253906 331.222656 185.382812 331.65625 185.382812 C 332.089844 185.382812 332.425781 185.253906 332.675781 184.992188 C 332.921875 184.730469 333.042969 184.382812 333.042969 183.964844 C 333.042969 183.542969 332.921875 183.199219 332.675781 182.9375 C 332.425781 182.675781 332.089844 182.546875 331.65625 182.546875 C 331.222656 182.546875 330.882812 182.683594 330.636719 182.9375 Z M 330.636719 182.9375 "/>
<path style=" stroke:none;fill-rule:nonzero;fill:rgb(51.372549%,86.666667%,23.529412%);fill-opacity:1;" d="M 335.816406 186.773438 L 335.816406 178.027344 L 337.554688 178.027344 L 337.554688 186.773438 Z M 335.816406 186.773438 "/>
<path style=" stroke:none;fill-rule:nonzero;fill:rgb(51.372549%,86.666667%,23.529412%);fill-opacity:1;" d="M 522.671875 99.730469 L 522.671875 46.363281 L 566.964844 119.847656 Z M 522.671875 99.730469 "/>
<path style=" stroke:none;fill-rule:nonzero;fill:rgb(51.372549%,86.666667%,23.529412%);fill-opacity:1;" d="M 567.773438 125.214844 L 522.671875 151.894531 L 522.671875 104.730469 L 525.226562 105.886719 Z M 567.773438 125.214844 "/>
<path style=" stroke:none;fill-rule:nonzero;fill:rgb(51.372549%,86.666667%,23.529412%);fill-opacity:1;" d="M 518.128906 99.730469 L 473.835938 119.847656 L 518.128906 46.363281 Z M 518.128906 99.730469 "/>
<path style=" stroke:none;fill-rule:nonzero;fill:rgb(51.372549%,86.666667%,23.529412%);fill-opacity:1;" d="M 515.566406 105.886719 L 518.128906 104.730469 L 518.128906 151.894531 L 473.019531 125.214844 Z M 515.566406 105.886719 "/>
<path style=" stroke:none;fill-rule:nonzero;fill:rgb(51.372549%,86.666667%,23.529412%);fill-opacity:1;" d="M 518.128906 167.027344 L 518.128906 201.21875 L 476.152344 142.273438 Z M 518.128906 167.027344 "/>
<path style=" stroke:none;fill-rule:nonzero;fill:rgb(51.372549%,86.666667%,23.529412%);fill-opacity:1;" d="M 522.671875 167.027344 L 564.640625 142.273438 L 522.671875 201.21875 Z M 522.671875 167.027344 "/>
<path style=" stroke:none;fill-rule:nonzero;fill:rgb(51.372549%,86.666667%,23.529412%);fill-opacity:1;" d="M 732.742188 197.808594 C 732.058594 184.4375 726.207031 172.960938 715.300781 163.902344 C 706.480469 156.570312 695.753906 151.316406 687.242188 143.671875 C 675.1875 132.851562 673.152344 115.191406 683.425781 102.730469 C 690.753906 93.839844 702.238281 88.414062 711.5625 81.453125 C 717.121094 77.300781 722.203125 72.632812 725.882812 67.003906 C 730.34375 60.183594 732.34375 52.46875 732.742188 44.617188 C 732.9375 40.839844 739.476562 40.816406 739.285156 44.617188 C 738.585938 58.277344 733.183594 70.683594 722.464844 80.46875 C 713.90625 88.289062 703.167969 93.667969 694.136719 100.976562 C 688.378906 105.628906 684.199219 111.421875 683.402344 118.5 C 682.5625 125.964844 685.382812 133.421875 691.136719 138.847656 C 699.328125 146.558594 710.007812 151.761719 718.832031 158.84375 C 724.375 163.292969 729.300781 168.480469 732.753906 174.4375 C 736.960938 181.6875 738.863281 189.675781 739.277344 197.800781 C 739.472656 201.59375 732.929688 201.585938 732.734375 197.800781 Z M 732.742188 197.808594 "/>
<path style=" stroke:none;fill-rule:nonzero;fill:rgb(51.372549%,86.666667%,23.529412%);fill-opacity:1;" d="M 732.695312 118.507812 C 733.527344 125.96875 730.71875 133.429688 724.960938 138.855469 C 720.433594 143.109375 715.152344 146.609375 709.84375 150.074219 C 711.652344 151.257812 713.464844 152.464844 715.25 153.722656 C 720 150.597656 724.699219 147.429688 728.867188 143.679688 C 740.917969 132.859375 742.957031 115.199219 732.679688 102.738281 C 728.011719 97.078125 721.664062 92.820312 715.253906 88.683594 C 713.464844 89.957031 711.644531 91.1875 709.828125 92.386719 C 713.980469 95.128906 718.125 97.878906 721.957031 100.992188 C 727.710938 105.644531 731.894531 111.4375 732.6875 118.511719 Z M 732.695312 118.507812 "/>
<path style=" stroke:none;fill-rule:nonzero;fill:rgb(51.372549%,86.666667%,23.529412%);fill-opacity:1;" d="M 676.824219 197.808594 C 676.628906 201.597656 683.171875 201.59375 683.375 197.808594 C 684.046875 184.429688 689.910156 172.96875 700.8125 163.902344 C 702.589844 162.425781 704.441406 161.039062 706.328125 159.695312 C 704.597656 158.503906 702.851562 157.367188 701.128906 156.234375 C 701.054688 156.179688 700.976562 156.136719 700.910156 156.085938 C 699.667969 156.976562 698.453125 157.898438 697.269531 158.84375 C 691.722656 163.292969 686.796875 168.480469 683.351562 174.429688 C 679.144531 181.679688 677.242188 189.667969 676.832031 197.800781 Z M 676.824219 197.808594 "/>
<path style=" stroke:none;fill-rule:nonzero;fill:rgb(51.372549%,86.666667%,23.529412%);fill-opacity:1;" d="M 676.824219 44.625 C 677.519531 58.285156 682.921875 70.691406 693.640625 80.476562 C 695.925781 82.570312 698.378906 84.488281 700.902344 86.308594 C 700.941406 86.285156 700.972656 86.265625 701.007812 86.242188 C 702.777344 85.101562 704.574219 83.941406 706.328125 82.757812 C 705.730469 82.335938 705.136719 81.902344 704.554688 81.46875 C 699 77.324219 693.910156 72.652344 690.230469 67.015625 C 685.777344 60.199219 683.769531 52.484375 683.375 44.628906 C 683.179688 40.851562 676.636719 40.832031 676.824219 44.628906 Z M 676.824219 44.625 "/>
<path style=" stroke:none;fill-rule:nonzero;fill:rgb(51.372549%,86.666667%,23.529412%);fill-opacity:1;" d="M 716.214844 71.265625 L 699.863281 71.265625 C 698.601562 71.265625 697.933594 72.75 698.765625 73.695312 C 698.773438 73.703125 698.78125 73.71875 698.789062 73.726562 C 699.066406 74.039062 699.472656 74.210938 699.882812 74.210938 L 716.183594 74.210938 C 716.589844 74.210938 716.988281 74.039062 717.265625 73.738281 C 717.273438 73.734375 717.277344 73.71875 717.292969 73.710938 C 718.148438 72.773438 717.488281 71.257812 716.214844 71.257812 Z M 716.214844 71.265625 "/>
<path style=" stroke:none;fill-rule:nonzero;fill:rgb(51.372549%,86.666667%,23.529412%);fill-opacity:1;" d="M 723.5 60.339844 L 692.71875 60.339844 C 691.648438 60.339844 690.949219 61.449219 691.398438 62.421875 C 691.398438 62.429688 691.40625 62.445312 691.414062 62.453125 C 691.65625 62.960938 692.171875 63.285156 692.734375 63.285156 L 723.492188 63.285156 C 724.0625 63.285156 724.585938 62.960938 724.820312 62.4375 C 724.820312 62.429688 724.828125 62.414062 724.832031 62.40625 C 725.269531 61.433594 724.578125 60.332031 723.507812 60.332031 Z M 723.5 60.339844 "/>
<path style=" stroke:none;fill-rule:nonzero;fill:rgb(51.372549%,86.666667%,23.529412%);fill-opacity:1;" d="M 726.707031 49.414062 L 689.355469 49.414062 C 688.445312 49.414062 687.757812 50.230469 687.914062 51.113281 C 687.914062 51.121094 687.914062 51.136719 687.914062 51.144531 C 688.035156 51.839844 688.640625 52.359375 689.355469 52.359375 L 726.699219 52.359375 C 727.417969 52.359375 728.027344 51.839844 728.140625 51.128906 C 728.140625 51.121094 728.140625 51.105469 728.140625 51.097656 C 728.28125 50.214844 727.59375 49.40625 726.699219 49.40625 Z M 726.707031 49.414062 "/>
<path style=" stroke:none;fill-rule:nonzero;fill:rgb(51.372549%,86.666667%,23.529412%);fill-opacity:1;" d="M 698.753906 168.683594 C 698.753906 168.683594 698.738281 168.707031 698.722656 168.710938 C 697.867188 169.648438 698.527344 171.15625 699.800781 171.15625 L 716.148438 171.15625 C 717.40625 171.15625 718.074219 169.664062 717.242188 168.726562 C 717.234375 168.71875 717.226562 168.707031 717.21875 168.699219 C 716.941406 168.382812 716.542969 168.210938 716.125 168.210938 L 699.832031 168.210938 C 699.417969 168.210938 699.03125 168.382812 698.753906 168.683594 Z M 698.753906 168.683594 "/>
<path style=" stroke:none;fill-rule:nonzero;fill:rgb(51.372549%,86.666667%,23.529412%);fill-opacity:1;" d="M 691.207031 179.984375 C 691.207031 179.984375 691.199219 180.007812 691.191406 180.015625 C 690.753906 180.988281 691.453125 182.082031 692.515625 182.082031 L 723.304688 182.082031 C 724.375 182.082031 725.074219 180.972656 724.625 180.007812 C 724.625 180 724.617188 179.984375 724.609375 179.976562 C 724.375 179.460938 723.851562 179.136719 723.289062 179.136719 L 692.53125 179.136719 C 691.960938 179.136719 691.4375 179.46875 691.207031 179.984375 Z M 691.207031 179.984375 "/>
<path style=" stroke:none;fill-rule:nonzero;fill:rgb(51.372549%,86.666667%,23.529412%);fill-opacity:1;" d="M 687.878906 191.292969 C 687.878906 191.292969 687.878906 191.316406 687.878906 191.324219 C 687.734375 192.207031 688.425781 193.011719 689.316406 193.011719 L 726.671875 193.011719 C 727.578125 193.011719 728.265625 192.195312 728.109375 191.308594 C 728.109375 191.300781 728.109375 191.285156 728.109375 191.277344 C 727.988281 190.582031 727.382812 190.066406 726.671875 190.066406 L 689.324219 190.066406 C 688.605469 190.066406 687.996094 190.582031 687.886719 191.292969 Z M 687.878906 191.292969 "/>
<path style=" stroke:none;fill-rule:nonzero;fill:rgb(51.372549%,86.666667%,23.529412%);fill-opacity:1;" d="M 724.460938 130.667969 L 691.488281 130.667969 C 690.386719 130.667969 689.667969 131.855469 690.199219 132.8125 C 690.199219 132.820312 690.207031 132.835938 690.214844 132.84375 C 690.476562 133.316406 690.964844 133.613281 691.503906 133.613281 L 724.445312 133.613281 C 724.953125 133.613281 725.441406 133.351562 725.695312 132.910156 C 725.710938 132.886719 725.726562 132.867188 725.734375 132.84375 C 726.289062 131.875 725.566406 130.675781 724.460938 130.675781 Z M 724.460938 130.667969 "/>
<path style=" stroke:none;fill-rule:nonzero;fill:rgb(51.372549%,86.666667%,23.529412%);fill-opacity:1;" d="M 687.195312 121.179688 C 687.195312 121.179688 687.195312 121.234375 687.195312 121.257812 C 687.195312 122.050781 687.863281 122.6875 688.65625 122.6875 L 727.359375 122.6875 C 728.160156 122.6875 728.820312 122.042969 728.820312 121.25 C 728.820312 121.226562 728.820312 121.195312 728.820312 121.175781 C 728.820312 120.378906 728.152344 119.742188 727.359375 119.742188 L 688.65625 119.742188 C 687.855469 119.742188 687.195312 120.386719 687.195312 121.179688 Z M 687.195312 121.179688 "/>
<path style=" stroke:none;fill-rule:nonzero;fill:rgb(51.372549%,86.666667%,23.529412%);fill-opacity:1;" d="M 713.980469 141.597656 L 701.945312 141.597656 C 700.558594 141.597656 699.953125 143.351562 701.039062 144.207031 C 701.054688 144.210938 701.0625 144.226562 701.074219 144.234375 C 701.332031 144.4375 701.652344 144.550781 701.984375 144.550781 L 713.945312 144.550781 C 714.273438 144.550781 714.589844 144.445312 714.84375 144.242188 C 714.859375 144.234375 714.867188 144.21875 714.882812 144.210938 C 715.976562 143.359375 715.367188 141.605469 713.980469 141.605469 Z M 713.980469 141.597656 "/>
<path style=" stroke:none;fill-rule:nonzero;fill:rgb(51.372549%,86.666667%,23.529412%);fill-opacity:1;" d="M 690.328125 109.519531 C 690.328125 109.519531 690.296875 109.566406 690.289062 109.585938 C 689.734375 110.554688 690.457031 111.753906 691.566406 111.753906 L 724.535156 111.753906 C 725.636719 111.753906 726.355469 110.570312 725.824219 109.609375 C 725.824219 109.601562 725.816406 109.585938 725.808594 109.578125 C 725.546875 109.109375 725.058594 108.808594 724.519531 108.808594 L 691.578125 108.808594 C 691.070312 108.808594 690.582031 109.070312 690.328125 109.511719 Z M 690.328125 109.519531 "/>
<path style=" stroke:none;fill-rule:nonzero;fill:rgb(51.372549%,86.666667%,23.529412%);fill-opacity:1;" d="M 701.164062 98.195312 C 701.164062 98.195312 701.144531 98.21875 701.128906 98.226562 C 700.042969 99.078125 700.648438 100.832031 702.035156 100.832031 L 714.0625 100.832031 C 715.449219 100.832031 716.058594 99.078125 714.972656 98.226562 C 714.957031 98.21875 714.949219 98.203125 714.933594 98.195312 C 714.679688 97.992188 714.355469 97.886719 714.027344 97.886719 L 702.074219 97.886719 C 701.742188 97.886719 701.429688 98 701.164062 98.195312 Z M 701.164062 98.195312 "/>
</g>
</svg>
